<svg id="图层_1" data-name="图层 1" xmlns="http://www.w3.org/2000/svg" viewBox="77.63 45.91 154.7 214.25"><defs><style>.cls-1{fill:#fff;}.cls-2{fill:#ddd;}.cls-3{fill:#bfbfbf;}</style></defs><polygon class="cls-1" points="83.28 52.1 221.13 52.1 224.94 55.91 228.23 55.91 220.63 48.31 80.07 48.31 80.07 247.76 86.18 247.76 83.28 244.86 83.28 52.1"/><polygon class="cls-2" points="221.13 52.1 83.28 52.1 83.28 244.86 86.18 247.76 87.67 249.25 87.67 55.91 224.94 55.91 221.13 52.1"/><rect class="cls-1" x="212.62" y="240.04" width="3.21" height="3.2"/><rect class="cls-1" x="204.61" y="232.03" width="3.21" height="3.2"/><rect class="cls-1" x="194.15" y="232.03" width="3.21" height="3.2"/><rect class="cls-1" x="212.62" y="232.03" width="1.61" height="1.6"/><rect class="cls-1" x="214.23" y="233.63" width="1.6" height="1.6"/><rect class="cls-1" x="186.14" y="232.03" width="3.21" height="3.2"/><rect class="cls-1" x="186.14" y="240.04" width="3.21" height="3.2"/><rect class="cls-1" x="204.61" y="240.04" width="3.21" height="3.2"/><rect class="cls-1" x="195.75" y="240.04" width="1.61" height="1.6"/><rect class="cls-1" x="194.15" y="241.64" width="1.6" height="1.6"/><path class="cls-1" d="M90.07,257.76H229.93V58.31H90.07Zm121-22.53h1.6v-1.6H211V232h1.6v-1.61h1.61V232h1.6v-1.61h1.6V232h-1.6v1.6h1.6v1.6h-1.6v1.6h-1.6v-1.6h-1.61v1.6H211Zm0,3.2h6.41v6.41H211Zm-8-8h6.41v6.41H203Zm0,8h6.41v6.41H203Zm-10.46-8H199v6.41h-6.41Zm0,11.22h1.6V240h-1.6v-1.61h1.6V240h1.6v-1.61h1.61V240H199v1.6h-1.6v1.6H199v1.6h-1.6v-1.6h-1.61v1.6h-1.6v-1.6h-1.6Zm-8-11.22H191v6.41h-6.41Zm0,8H191v6.41h-6.41Z"/><path class="cls-3" d="M221.63,45.91h-144V250.16h10v10H232.33V56.61l-.7-.7Zm-134,203.34-1.49-1.49H80.07V48.31H220.63l7.6,7.6H87.67Zm142.26-1.49v10H90.07V58.31H229.93Z"/><rect x="214.23" y="235.23" width="1.6" height="1.6"/><rect x="211.02" y="235.23" width="1.6" height="1.6"/><rect x="212.62" y="233.63" width="1.61" height="1.6"/><path d="M217.43,238.43H211v6.41h6.41Zm-1.6,4.81h-3.21V240h3.21Z"/><rect x="214.23" y="232.03" width="1.6" height="1.6"/><path d="M209.42,230.42H203v6.41h6.41Zm-1.6,4.81h-3.21V232h3.21Z"/><path d="M209.42,238.43H203v6.41h6.41Zm-1.6,4.81h-3.21V240h3.21Z"/><rect x="215.83" y="230.42" width="1.6" height="1.61"/><rect x="212.62" y="230.42" width="1.61" height="1.61"/><rect x="211.02" y="232.03" width="1.6" height="1.6"/><rect x="215.83" y="233.63" width="1.6" height="1.6"/><rect x="194.15" y="240.04" width="1.6" height="1.6"/><rect x="192.55" y="241.64" width="1.6" height="1.6"/><rect x="195.75" y="241.64" width="1.61" height="1.6"/><path d="M191,238.43h-6.41v6.41H191Zm-1.6,4.81h-3.21V240h3.21Z"/><path d="M191,230.42h-6.41v6.41H191Zm-1.6,4.81h-3.21V232h3.21Z"/><rect x="197.36" y="243.24" width="1.6" height="1.6"/><rect x="192.55" y="238.43" width="1.6" height="1.61"/><path d="M199,230.42h-6.41v6.41H199Zm-1.6,4.81h-3.21V232h3.21Z"/><rect x="195.75" y="238.43" width="1.61" height="1.61"/><rect x="197.36" y="240.04" width="1.6" height="1.6"/><rect x="194.15" y="243.24" width="1.6" height="1.6"/></svg>