<?xml version="1.0" encoding="utf-8"?>
<!-- Generator: Adobe Illustrator 26.0.2, SVG Export Plug-In . SVG Version: 6.00 Build 0)  -->
<svg version="1.1" id="图层_1" xmlns="http://www.w3.org/2000/svg" xmlns:xlink="http://www.w3.org/1999/xlink" x="0px" y="0px"
	 viewBox="0 0 499.3 216" style="enable-background:new 0 0 499.3 216;" xml:space="preserve">
<style type="text/css">
	.st0{fill:#E22626;}
</style>
<path class="st0" d="M153.3,167.7c-2.8-4.4-5.4-8.9-7.6-13.6c-2.4-5-5.1-9.9-8.1-14.6c1.4-2.4,2.2-5,2.6-7.8
	c1.5-12.2-7.1-24.3-26.9-37.5l0.7-0.5c7.6-6.4,14.7-12.4,25-13.9c9.9-1.5,20.7,1.5,32.2,8.8l7.9-12.3c-14.5-9.3-28.7-13-42.2-11
	c-14.4,2.2-23.9,10.2-32.2,17.2c-7.7,6.5-13.8,11.7-22.5,12s-18-4.7-27.8-14.7L43.9,90.1c12.4,12.7,25,19,37.5,19h1.1
	c3-0.1,6-0.6,8.9-1.4l-3.7,12.5c9.8,2.8,18.8,7.7,26.5,14.4c1.6,1.4,3.1,2.8,4.4,4.3c-1,0.8-2.2,1.6-3.3,2.5
	c-7,5.2-15.7,11.7-17,22.8c-1.5,12.3,6.5,24.7,24.4,37.8l8.6-11.8c-12.7-9.3-19.3-17.9-18.5-24.3c0.5-4.5,4.6-7.9,11.3-12.8
	c1.1-0.8,2.2-1.6,3.3-2.5c2,3.3,3.7,6.7,5.4,10.1c2.5,5.2,5.3,10.3,8.5,15.2c12.5,18.7,33.6,32.2,62.5,40.2l3.9-14.1
	C182.2,194.9,163.9,183.4,153.3,167.7 M93.9,106.9c2.4-0.9,4.8-2,7-3.4c14.4,9,20.7,15.7,23.2,20.3l-0.3-0.2
	C115.1,116.1,104.9,110.4,93.9,106.9"/>
<path class="st0" d="M97.5,77.3c-1.9-5.1-2.4-10.6-1.5-15.9c0.3-1.8,0.8-3.6,1.5-5.3l-13.6-5.2c-1,2.6-1.7,5.2-2.2,8
	c-1.3,7.9-0.6,15.9,2.2,23.4L97.5,77.3z"/>
<polygon class="st0" points="51.7,45 74.8,28.2 46.2,28.2 37.4,1 28.6,28.2 0,28.2 23.1,45 14.3,72.1 37.4,55.3 60.5,72.1 "/>
<path class="st0" d="M482.4,177.9c-12.4-13.3-19.4-25.2-26.9-37.9c-7.2-12.4-13.6-25.2-19.1-38.4v-87l-17.3,2.8
	c1,35.5,1.1,67.1,1,94.1c-0.2,23-0.6,39.6-6.6,60.6c-4.3,15.1-10.6,29.5-18.7,42.9c11.5-9.8,31-29.8,38.6-60.3
	c1.6-6.4,2.6-12.9,3-19.5v-25.8c2.3,12,5.6,23.8,9.9,35.2c4,10.7,8.1,21.8,16.6,34.5c7.4,11,16.4,20.9,26.8,29.2
	c3.2-4.9,6.4-9.8,9.6-14.7C493.3,188.8,487.7,183.5,482.4,177.9"/>
<path class="st0" d="M477.1,63.3c2.6-8.3,3.6-16.9,3-25.6l-17.3,2.9c0.9,21.2-4.2,42.3-14.9,60.7C453.9,97.3,470.2,85.3,477.1,63.3"
	/>
<path class="st0" d="M396.5,116.2l17.3-2.9c0.4-7.9-0.9-15.9-3.9-23.2c-3.4-8.2-8.7-15.6-15.4-21.4c-4.1-3.6-8.7-6.6-13.6-9.1
	c6.6,10.3,11.2,21.6,13.7,33.6C396.1,100.8,396.8,108.5,396.5,116.2"/>
<path class="st0" d="M306,50l16.4-3.5c-0.8-6.6-4-24.1-18.6-37.4c-4.1-3.7-8.6-6.7-13.6-9.1c6.5,10.3,11.1,21.7,13.7,33.6
	C305.1,39,305.8,44.5,306,50"/>
<path class="st0" d="M323.3,87.6c0-6.3,0-12.5,0-18.8l30-6.4V45.1l-99.8,21.4v17.3l34.7-7.4c1.4,16,4.6,31.7,9.5,47
	c1.2,3.7,2.4,7.1,3.6,10.4c-3.6,15-9.4,29.3-17.1,42.6c-0.5,0.8-1,1.6-1.4,2.4c-8.2,13.4-18.2,25.6-29.7,36.3c5-3,9.8-6.3,14.4-9.8
	c11-8.6,20.6-18.8,28.6-30.2c5.1-7.2,9.5-14.9,13.1-23c0.9,1.8,1.7,3.4,2.4,4.8c11.1,21.1,25.6,40.3,42.9,56.7l9.6-14.7
	c-18.8-18.7-35.2-39.7-48.7-62.6C320.7,120.5,323.3,104.1,323.3,87.6 M288.3,76.2l17.7-3.8v22.3c0,7.1-0.5,14.3-1.4,21.3
	C298.3,103.2,292.8,89.9,288.3,76.2"/>
</svg>
