<svg xmlns="http://www.w3.org/2000/svg" viewBox="0 0 103.17 60.13"><g id="图层_2" data-name="图层 2"><g id="图层_1-2" data-name="图层 1"><path d="M102.25,20.12c-1.4-.54-2.75-1.19-4.16-1.7A24.41,24.41,0,0,0,95,17.21a3.27,3.27,0,0,1-1.29-.58,5,5,0,0,0-1.83-.79,3.34,3.34,0,0,1-.8-.24c-1.5-.83-3.14-1.35-4.68-2.08-.58-.28-1.17-.51-1.77-.74a.54.54,0,0,0-.78.28,6.09,6.09,0,0,0,2.7,1.28c1,.37,2,.88,2.94,1.3s1.93.75,2.89,1.16,1.91.73,2.82,1.19,2,.77,3,1.27a13.39,13.39,0,0,1,2.68,1.23.83.83,0,0,1-.57.74c-.61.21-1.12.61-1.7.85-2.4,1-4.63,2.25-7,3.29-2,.86-3.84,1.91-5.8,2.8-3.29,1.51-6.53,3.12-9.82,4.61-1.23.56-2.41,1.23-3.65,1.78Q68.52,36.24,64.77,38c-1.73.8-3.36,1.8-5.13,2.54-1.2.5-2.42,1-3.59,1.57a3.59,3.59,0,0,1-1.81.51c-.53-.26-1-.46-1.38-.68-1.77-.88-3.7-1.41-5.46-2.28s-3.1-1.84-4.79-2.55c-3.15-1.33-6.2-2.88-9.31-4.31-1.73-.8-3.45-1.63-5.17-2.45l-8.7-4.15C15.71,24.41,12,22.55,8.19,20.93l-.41-.77a6.74,6.74,0,0,0,2.05-.95c2.83-1.26,5.64-2.56,8.52-3.68a39.19,39.19,0,0,1,4.87-1.94A1,1,0,0,0,24,13c.1-.21,0-.38-.29-.58a33.47,33.47,0,0,1-4.55,2c-1.33.62-2.73,1.1-4.06,1.71-2.16,1-4.4,1.79-6.56,2.76a19.6,19.6,0,0,0-4.85,2.77A10.91,10.91,0,0,0,.25,27.57a8.85,8.85,0,0,0,0,4.37,8.18,8.18,0,0,0,3.78,5.54c1.7,1,3.41,1.9,5.18,2.7,3.16,1.42,6.27,3,9.34,4.54s6.4,3.21,9.61,4.78,6.45,3.26,9.73,4.8c3.78,1.78,7.49,3.7,11.23,5.57a1.83,1.83,0,0,0,1.61.13A13,13,0,0,0,52,59.5c2.25-1.18,4.53-2.32,6.78-3.5,1.64-.87,3.34-1.66,5-2.42,2.76-1.24,5.39-2.72,8.07-4.1,2.19-1.13,4.46-2.06,6.65-3.19a35.82,35.82,0,0,1,3.27-1.66c1.41-.56,2.64-1.48,4.1-1.9.18-.12.07-.41.34-.43,4.91-2,9.45-4.69,14.26-6.81a1.69,1.69,0,0,0,.45-1.28,8,8,0,0,0-2.08-1.29A28.81,28.81,0,0,1,95,30.6a1.6,1.6,0,0,1-.73-1.53,6.59,6.59,0,0,1,1.3-3.64c.3-.41.52-1,1-1.13.85-.26,1.54-.83,2.36-1.14,1-.39,2-.88,3.07-1.33.48-.21,1-.41,1.09-1A1.72,1.72,0,0,0,102.25,20.12Zm-8.37,5.46A2.77,2.77,0,0,1,91.48,27C92.08,26.25,93.09,26.2,93.88,25.58ZM51.81,48.64a13.69,13.69,0,0,1-3,1.29.43.43,0,0,1-.13-.42,57.34,57.34,0,0,1,6.45-3A36.19,36.19,0,0,0,59,44.58a13.41,13.41,0,0,1,2.17-1c2.44-.89,4.68-2.18,7.05-3.22s4.36-2.19,6.57-3.22c2.58-1.22,5.21-2.34,7.81-3.52a17.53,17.53,0,0,0,2.45-1.23,18.56,18.56,0,0,1,3.56-1.66c1.33-.54,2.5-1.35,3.85-1.84.26-.09.49-.29.85.08a13.36,13.36,0,0,1-3,1.67c-4,1.89-7.94,3.85-12,5.62-1.53.67-3,1.4-4.56,2.08-2.16,1-4.25,2.1-6.4,3.09-2.38,1.1-4.73,2.26-7.1,3.36-1.33.62-2.65,1.27-4,1.9C54.8,47.37,53.3,48,51.81,48.64Zm.92.66c-.65.47-1.59.55-1.94,1.41-.48-.17-.72-.45-.26-.76a10.33,10.33,0,0,1,1.76-.88A.37.37,0,0,1,52.73,49.3Zm4.83-2.52c1.47-.8,3-1.54,4.47-2.26,1.93-.93,3.86-1.85,5.81-2.74,3.51-1.59,7-3.29,10.44-5,2.79-1.33,5.63-2.58,8.45-3.85,1.85-.84,3.65-1.78,5.49-2.64.39-.19.88-.46,1.25.12-1.93.79-3.78,1.65-5.59,2.61-1.4.75-2.9,1.31-4.34,2-2.6,1.2-5.18,2.43-7.77,3.62S70.85,40.88,68.41,42Q65.17,43.54,62,45.16a34.84,34.84,0,0,1-5.09,2.22c-.12,0-.23.09-.32-.06C56.72,46.82,57.24,47,57.56,46.78ZM86,29.3c1.55-.68,3.13-1.32,4.63-2.13a1.39,1.39,0,0,1,.75-.1,3.64,3.64,0,0,1-1.44.89c-1.16.46-2.28,1-3.43,1.52a2.56,2.56,0,0,1-1.29.44C85.33,29.54,85.66,29.44,86,29.3Zm-6.39,3c1.45-.58,2.81-1.35,4.25-2A3.78,3.78,0,0,1,85.17,30c-.06.22-.26.24-.42.32-1.9.94-3.8,1.88-5.71,2.8a4.75,4.75,0,0,1-.73.23C78.51,32.69,79.11,32.49,79.6,32.29Zm-2.66,1.32a1.69,1.69,0,0,1,1.28-.27A8.58,8.58,0,0,1,75,34.65C75.65,34.3,76.28,33.94,76.94,33.61ZM74.21,35a4,4,0,0,1-2.39,1.11C72.48,35.49,73.44,35.46,74.21,35ZM71.7,36.22a3,3,0,0,1-2.19,1.08C70.05,36.55,70.91,36.47,71.7,36.22ZM56.52,44.36c1.56-.84,3.24-1.48,4.82-2.28a28.49,28.49,0,0,0,4.44-2.17,3.39,3.39,0,0,1,1.13-.34c1.18-.31,2.06-1.2,3.16-1.66,1.62-.67,3.14-1.54,4.75-2.23,2.77-1.19,5.46-2.54,8.19-3.83,1.91-.9,3.82-1.77,5.72-2.7,1.38-.68,2.93-1,4.18-1.95a.46.46,0,0,1,.52,0c.15.45-.16.72-.52.85-1.46.53-2.74,1.41-4.19,2a55.27,55.27,0,0,0-5.17,2.43C80.84,33.85,78,35,75.23,36.29c-1.11.52-2.24,1-3.34,1.54-1.5.72-2.92,1.58-4.42,2.26l-4.9,2.2c-1.85.83-3.66,1.76-5.51,2.59s-3.4,1.72-5.18,2.42c-.92.37-1.8.86-2.84,1.18,0-.65.5-.81.92-1C52.1,46.33,54.38,45.5,56.52,44.36Zm-1.64-.09A18.11,18.11,0,0,1,50,46.47c.86-1.42,2.51-1.5,3.74-2.27A1.05,1.05,0,0,1,54.88,44.27Zm-2.29-1.06c.29.15.5.25.57.59a6.46,6.46,0,0,1-2,.85C51.45,43.93,52.29,43.83,52.59,43.21ZM47,54.9c-2-1.29-4.29-1.85-6.32-3C39,51,37.29,50.17,35.63,49.23c-.73-.41-1.63-.56-2.38-1-1.56-.88-3.26-1.45-4.76-2.46a21.78,21.78,0,0,0-2.12-1c-2.83-1.44-5.65-2.94-8.57-4.2A28.22,28.22,0,0,0,14,38.76C11.73,37.11,9,36.4,6.68,35c-.51-.3-1.17-.28-1.64-.7C2.12,30.6,3.37,25,6.52,23.37c.13-.21,0-.37-.1-.55A.84.84,0,0,0,5.34,23,12.23,12.23,0,0,0,2.6,27.17a7.33,7.33,0,0,0,.08,4.56,5.23,5.23,0,0,1,.13,2.45c-.88-.09-.95-.21-1-1.86-.09-.29-.41-.37-.56-.55-1-3,.44-6,2.75-8.81,1-.08,1.31-1.49,2.57-1.36,15,6.87,29.93,14,45,21.09l-.77.71a7.37,7.37,0,0,1-1.65-.63l-7.54-3.59c-2.7-1.27-5.35-2.65-8.12-3.75-2.22-.89-4.31-2-6.49-3-2.42-1.09-4.79-2.28-7.19-3.43-.89-.43-1.8-.82-2.71-1.22-2.11-.92-4.1-2.1-6.26-2.93-.35-.13-.66-.42-1.26-.23.89,1,2.11,1,3,1.61a25.55,25.55,0,0,0,3.1,1.54c1,.49,2.1,1,3.15,1.44s2.15.87,3.15,1.43,2.12.89,3.12,1.48,2.07,1,3.11,1.53,2,.9,3,1.42,2.1,1,3.15,1.44,2,1.07,3.13,1.49,2.06,1,3.11,1.52,2.07,1,3.15,1.42,2.11,1,3.15,1.43a16.17,16.17,0,0,1,3,1.5c-.27.48-.52.26-.69.17-1.64-.89-3.36-1.61-5-2.41-2.73-1.3-5.55-2.37-8.24-3.76a62.79,62.79,0,0,0-6.11-2.68c-1.17-.46-2.29-1.08-3.45-1.59-1.79-.78-3.57-1.57-5.33-2.41-2-1-4.08-1.75-6.05-2.78a19.16,19.16,0,0,0-2-.82,4,4,0,0,1-1.36-.68.56.56,0,0,0-.93.08c.17.32.49.38.78.5,2.19,1,4.4,1.86,6.56,2.88,1.29.61,2.62,1.13,3.9,1.78,2.33,1.17,4.75,2.16,7.14,3.23,2.06.93,4.11,1.9,6.2,2.78,1.53.66,2.91,1.69,4.62,1.94.8.94,2,1.08,3.06,1.61a27.33,27.33,0,0,0,3.28,1.43,21.47,21.47,0,0,1,2.77,1.44c.12.39.19.65-.05.89-1.13,0-1.82-.91-2.76-1.3-1.84-.75-3.63-1.61-5.45-2.42a38.94,38.94,0,0,1-6.09-3,17.8,17.8,0,0,0-2.39-1.05c-1.78-.85-3.59-1.66-5.44-2.36-2.64-1-5.09-2.35-7.63-3.54-2.38-1.12-4.77-2.18-7.17-3.22-.4-.17-.77-.43-1.16-.63s-.66-.43-1-.32c-.12.23-.12.39,0,.48a8.6,8.6,0,0,0,.95.5c3.57,1.48,7,3.17,10.56,4.76q4.77,2.16,9.52,4.36c2.88,1.34,5.72,2.79,8.66,4s5.4,2.74,8.22,3.85c.28.11.61.26.51.7-.36.27-.7,0-1-.11q-2.09-1-4.15-2c-2-1-4-1.79-6.06-2.71-.56-.26-1.16-.45-1.9-.73a1.24,1.24,0,0,0,.66.73l6,2.84c1.15.55,2.28,1.12,3.44,1.66a3.42,3.42,0,0,0,1.68.55c.53,0,.7.46,1.13.69-.21.36-.3.71-.7.83-.07,0-.18,0-.22-.05a3,3,0,0,0-1.41-.85c-2-.68-3.84-1.71-5.76-2.56-3.35-1.48-6.64-3.1-10.06-4.42C29,39.73,28,39.14,27,38.67c-3.11-1.41-6.23-2.79-9.35-4.19a1.71,1.71,0,0,0-1.56-.15c1.24.55,2.38,1.1,3.56,1.55,2,.75,3.82,1.77,5.74,2.64,2.35,1.06,4.65,2.24,7,3.23,1.62.67,3.23,1.33,4.81,2.09s3.15,1.53,4.73,2.27c1.41.66,2.82,1.31,4.25,1.92a3.65,3.65,0,0,1,1.52,1.15,4.77,4.77,0,0,0,0,1.18c-.09.59-.64.43-.69.93s.93.83.6,1.63c-.32.26-.73.11-1.06.16-1.51-1.17-3.28-1.73-4.86-2.65-2.94-1.72-6.15-2.91-9.1-4.63-1.85-1.08-3.84-1.91-5.76-2.87-.93-.46-1.82-1-2.74-1.46l-5.62-2.8c-.33.3-.1.55.08.71a4.11,4.11,0,0,0,.9.59c2.65,1.3,5.31,2.56,7.94,3.89,1.53.77,3,1.69,4.53,2.43s3,1.56,4.62,2.23a5.28,5.28,0,0,1,.62.33c2.65,1.64,5.5,2.88,8.24,4.33.63.33,1.31.54,1.95.87.45.23.94.46,1,1.15A2,2,0,0,1,47,54.9Zm1.54-2.65c2.75-1.63,5.69-2.73,8.5-4.1s5.71-2.45,8.45-3.88,5.64-2.69,8.46-4,5.5-2.7,8.75-4c.42-.5,1.41-.66,2.27-1.07,2.87-1.34,5.76-2.66,8.61-4,.33.16.22.41.26.71-2.48,1-4.7,2.36-7.13,3.37-1.79.75-3.54,1.62-5.3,2.46-1.54.73-3.07,1.49-4.62,2.2-1.91.89-3.92,1.58-5.74,2.63-2.68,1.55-5.55,2.72-8.31,4.08-2,1-4,1.88-6.08,2.79a46.25,46.25,0,0,0-4.77,2.4A20.11,20.11,0,0,1,48.76,53C48.42,52.76,48.58,52.48,48.56,52.25Zm6.36,1.84c-1.21.5-2.3,1.24-3.55,1.67a4.69,4.69,0,0,0-.89.54.31.31,0,0,1-.39-.23c0-.06,0-.16.08-.18l4.75-2.26a3.85,3.85,0,0,1,1.19-.38C55.89,53.77,55.36,53.91,54.92,54.09Zm1.92-.94a1.15,1.15,0,0,1-.66.06.38.38,0,0,1,.31-.4,27.36,27.36,0,0,0,4.3-2,3.09,3.09,0,0,1,1.61-.45A52.13,52.13,0,0,1,56.84,53.15Zm7-3.57a2.74,2.74,0,0,1,1.76-.88A2.45,2.45,0,0,1,63.88,49.58ZM83,39.7c-1.8.83-3.57,1.75-5.39,2.51-1.46.61-2.83,1.38-4.27,2-2.26,1-4.45,2.14-6.66,3.25-.74.37-1.53.64-2.28,1-2.41,1.13-4.77,2.34-7.19,3.45C55,53,52.73,54,50.49,55a.55.55,0,0,1-.76-.08,3.3,3.3,0,0,1,1.39-1c2.38-.95,4.68-2.1,7-3.18,1.84-.86,3.7-1.67,5.53-2.55A26.77,26.77,0,0,1,66.39,47c.36-.12.55-.44.84-.7a4,4,0,0,0,2.19-.77c1.76-1,3.64-1.79,5.48-2.64s3.46-1.63,5.22-2.37,3.61-1.67,5.42-2.49c.18-.08.35-.21.62-.06A16.62,16.62,0,0,1,83,39.7Zm9.37-4.57A2.42,2.42,0,0,1,94,34.29C93.74,35.08,92.93,34.88,92.35,35.13Zm2.51-1.36c.42-.08.68.1.73.58-.51.38-1-.18-1.46-.11A1.28,1.28,0,0,1,94.86,33.77Zm-.35-.56C86.07,37.12,77.57,41,69.15,45.07c-.09,0-.11.2-.17.34a3.69,3.69,0,0,0-2.1.64c-1.65.92-3.42,1.55-5.1,2.37-2.17,1.07-4.37,2.09-6.55,3.12-1.95.92-3.93,1.77-5.92,2.6a.57.57,0,0,1-.53-.32c3.78-1.8,7.5-3.69,11.32-5.37s7.57-3.63,11.39-5.39,7.57-3.46,11.3-5.33,7.66-3.39,11.34-5.3A.61.61,0,0,1,94.51,33.21Z"/><path d="M39.28,6.68a1.93,1.93,0,0,1,.82-.46,42.71,42.71,0,0,0,4.1-1.64c3.24-1.31,6.43-2.74,9.65-4.12l6.28,2.63c1.87.78,3.75,1.52,5.6,2.33a9.17,9.17,0,0,1,2.85,1.46,1,1,0,0,0,1.11.18.51.51,0,0,0,0-.68c-1.41-.57-2.85-1.13-4.28-1.73-2.37-1-4.73-2-7.11-3C56.66,1,55.12.06,53.33,0c-1.62.48-3.08,1.31-4.64,1.93s-3,1.25-4.47,1.92c-1.66.76-3.39,1.37-5.08,2.08-.37.16-.9.22-.85.88A.88.88,0,0,0,39.28,6.68Z"/></g></g></svg>