<svg xmlns="http://www.w3.org/2000/svg" viewBox="0 0 82.69 43.7"><defs><style>.cls-1{fill:#d52b28;}</style></defs><g id="图层_2" data-name="图层 2"><g id="图层_1-2" data-name="图层 1"><path class="cls-1" d="M82.54,2.17c-.06-.4-.16-.63-.73-.62-2.34,0-4.69,0-7-.07-.88,0-1.76-.08-2.63,0-1.82.13-3.65-.1-5.48,0-1.35.07-2.72-.17-4.07-.1-2.23.13-4.45-.1-6.68,0-1.7.1-3.42-.36-5.12.12-1.68-.48-3.39-.07-5.08-.17a1.22,1.22,0,0,0-1,.43,23.25,23.25,0,0,1-2,1.67c-.17.14-.43.23-.53,0-.34-.64-1.06-.84-1.49-1.35a2.8,2.8,0,0,0-2.11-.91C35.29,1,32,1.07,28.79,1c-2.05,0-4.11-.11-6.18,0-2.4.12-4.81-.05-7.22-.11-1,0-2-.1-3-.14-.37,0-.73,0-.87.45a.93.93,0,0,0,.38,1.14,1,1,0,0,0,.9.22,2.93,2.93,0,0,1,1.06-.08c1.28,0,2.54,0,3.82,0,2.18,0,4.37.18,6.57.12,1,0,2,.08,3,0,2.1-.13,4.2-.1,6.31-.07A17.46,17.46,0,0,0,37,2.66a3.28,3.28,0,0,1,2.83.89c.63.49,1.28.94,1.95,1.37.86.54,1.25.46,2-.29.41-.43.84-.85,1.26-1.27A1,1,0,0,1,45.74,3c.68,0,1.34-.16,2-.1A41.5,41.5,0,0,0,52.87,3c1-.05,2.08-.06,3.1,0,1.37,0,2.75,0,4.12,0,2.06.09,4.13-.1,6.2-.05,2.34.05,4.68,0,7,.1,2,.06,4.07,0,6.11.11A1.47,1.47,0,0,1,81,4.77a12.34,12.34,0,0,0-.07,2.71c-.08,2.11-.16,4.22-.11,6.34,0,1,0,2,0,3,0,2.84,0,5.68-.06,8.51,0,.8-.14,1.61-.08,2.4.17,2.06-.08,4.13.07,6.19.11,1.53-.27,3.05-.12,4.58a2.92,2.92,0,0,1-.13.82c0,.21-.14.4-.37.41-.85.06-1.69.13-2.53.14-.64,0-1.28-.12-1.92-.09-2.82.13-5.64,0-8.46,0a13.67,13.67,0,0,0-1.91-.07c-2.07.28-4.13-.08-6.2,0-2.33.1-4.69,0-7,.17a4,4,0,0,1-.69,0,10.48,10.48,0,0,0-2.5,0,26.69,26.69,0,0,1-3.09.12,2.83,2.83,0,0,0-2.28.88c-.23.26-.54.43-.78.72-.57.67-1.13.63-1.68,0-.18-.22-.33-.46-.49-.68A2.63,2.63,0,0,0,38,39.6c-1.38.12-2.76-.05-4.16,0-1.74.07-3.5-.12-5.25,0-1,.06-2-.11-3,0a10.52,10.52,0,0,1-2.24,0,49.29,49.29,0,0,0-5.83,0c-.53,0-.7-.22-.44-.7.11-.21.41-.43-.14-.3a.18.18,0,0,1-.24-.18c.16-.92-.19-1.82-.09-2.74a28.35,28.35,0,0,0,.1-5.45c0-.61.14-.89.78-1a7.31,7.31,0,0,1,2.24-.19c1.21.13,1.63-.19,1.65-1.34a14.76,14.76,0,0,0,0-2.74c0-.24.07-.37-.26-.43a3.14,3.14,0,0,1-2-1.35c-.16-.22-.42-.38-.57-.6A1.48,1.48,0,0,0,16.94,22c-1.31.33-2.62-.21-3.92.13-.15,0-.34-.11-.48.12s-.43.38-.39.71a26.22,26.22,0,0,1,0,2.94,3.41,3.41,0,0,0,.92,2.62c.54.48,1,1.08,1.52,1.5a1.54,1.54,0,0,1,.57,1.33c.11,1.55-.17,3.09-.08,4.63a16.07,16.07,0,0,1,0,2.86c0,.27,0,.65-.34.67s-.55-.36-.6-.65a2.72,2.72,0,0,1,.08-1.06,2.82,2.82,0,0,0,.15-.7c-.09-1.7,0-3.4.07-5.1a2.28,2.28,0,0,0-.74-1.94,11,11,0,0,1-1.63-2,.87.87,0,0,1-.27-.65,15.35,15.35,0,0,0-.11-2.25c0-1.83,0-3.67.05-5.5a3.89,3.89,0,0,0-.19-1.91,28.56,28.56,0,0,0,.25-3.92,2.27,2.27,0,0,0-.54-1.9c-.5-.52-.85-1-.5-1.8.06-.11-.06-.3-.06-.46,0-1.18-.16-2.37-.09-3.55A41.44,41.44,0,0,0,10.53.66.69.69,0,0,0,10,0c-.08.12-.18.24-.26.37-.39.61-.21,1.3-.3,1.94A35,35,0,0,0,9.22,9.4,4.35,4.35,0,0,1,9,12.16a1.51,1.51,0,0,0,.63,1.95,1.05,1.05,0,0,1,.54,1,4.75,4.75,0,0,1,.06,1.06A26.72,26.72,0,0,0,10,21.44c0,.94.32,1.9-.09,2.83.33.88,0,1.79.06,2.69A5.21,5.21,0,0,1,10,28.8a2,2,0,0,0,1,2.59,1,1,0,0,1,.48,1l-.24,5.09c0,.52,0,1-.09,1.55,0,.21.05.55-.33.48s-.3-.28-.28-.56c0-.5,0-1-.07-1.52s.22-.8-.21-1.09c.66-.78.21-1.74.42-2.6a3.08,3.08,0,0,0-.1-1.53.64.64,0,0,0-.6-.58,25.37,25.37,0,0,1-3.2-.91,5.41,5.41,0,0,1-2.56-1.66,6.08,6.08,0,0,1-1.35-4.64,6.16,6.16,0,0,1,1.51-2.77c.35-.49.61-1.11,1.22-1.41,1.2-.59,2.27-1.44,3.53-1.93.19-.07.46-.22.41-.37-.16-.47,0-.93-.08-1.39s-.36-.72-.84-.57a11.57,11.57,0,0,0-2,.69,6.58,6.58,0,0,1-2.21.95c0,.33-.29.5-.53.72A12.92,12.92,0,0,0,1,21.68a7.13,7.13,0,0,0-1,3.5,7.21,7.21,0,0,0,.83,3.43A7.46,7.46,0,0,0,3.06,31.3a1.41,1.41,0,0,1,.81,1.35c-.22,2,0,4-.09,6.05,0,.56-.07,1.11-.08,1.67,0,.71,0,.77.7.78,1.58,0,3.16.05,4.74.05,1.23,0,2.47,0,3.7,0,1.85-.05,3.72.06,5.58.07,2.21,0,4.42-.15,6.63-.12a8.08,8.08,0,0,0,1.9,0,17.5,17.5,0,0,1,3-.09,3.2,3.2,0,0,1,1.31.11c.41.15.35-.75.88-.29.32.27.85.15,1.29.15,1.43,0,2.86,0,4.28-.11a1.29,1.29,0,0,1,1.2.57,4.71,4.71,0,0,1,.35.62c.91,1.49.92,1.49,2.57,1.55l.6,0a1.09,1.09,0,0,0,1.1-.53,3.23,3.23,0,0,1,3.06-1.42c1.12.07,2.22-.08,3.33-.07,2,0,4-.08,6-.19.55,0,1.09.06,1.66,0a40.43,40.43,0,0,1,4.54-.06c2,.07,3.9-.09,5.86,0,1,0,2,0,3.07,0a22.82,22.82,0,0,1,3-.08,9.91,9.91,0,0,0,1.44,0,6.46,6.46,0,0,0,1.53-.13c.5-.14,1,.29,1.39,0,.55-.41.89.37,1.37.12a1.73,1.73,0,0,1,.46-.12,1.94,1.94,0,0,1,.8-.05c.71.12,1-.08,1-.78,0-1.41.18-2.81,0-4.22a4.28,4.28,0,0,1-.12-.81c.08-1.32.11-2.65.16-4,.07-1.76.08-3.51,0-5.27,0-.75.11-1.51.11-2.27s-.34-1.47,0-2.19c-.23-2.59.16-5.17.12-7.76,0-2.87.2-5.75.35-8.62A15.93,15.93,0,0,0,82.54,2.17ZM8.26,39.48c-.51,0-1,.1-1.53.13-1,.07-1.34-.26-1.31-1.28a20,20,0,0,0,0-3.28c0-.3.16-.54.15-.81,0-.47-.16-1,.23-1.3s.83.1,1.25.11a1,1,0,0,1,.24.05c.47.13,1.07.14,1.4.44s.06.91.09,1.38C8.84,36,8.9,37.16,9,38.2c0,.24,0,.4,0,.55C8.94,39.45,8.94,39.44,8.26,39.48Z"/><path class="cls-1" d="M5.14,14.9a9.75,9.75,0,0,1,0-1.53c.1-2,0-4.09,0-6.14,0-1.3,0-2.61.09-3.91,0-.76.09-.73.84-.83a15.1,15.1,0,0,1,2-.1c.76,0,.76,0,.82-.79,0-.33,0-.52-.39-.57A37.89,37.89,0,0,0,3.94.83c-.34,0-.46.15-.39.53s.33.81.22,1a2.11,2.11,0,0,0-.16,1.23c.06,2,0,3.93,0,5.9,0,1.7.11,3.4.12,5.1,0,.82,0,1.65,0,2.48,0,.53.3.56.68.51,0-.11,0-.24.08-.3A2.51,2.51,0,0,0,5.14,14.9Z"/><path class="cls-1" d="M4.4,17.6s0,0,0,0h0v0Z"/><path class="cls-1" d="M12.7,17.41A39.81,39.81,0,0,1,17.2,17c.62,0,1.46,0,1.9-.79a6.93,6.93,0,0,0-2.7-.82l-3.31-.15c-.33,0-.69-.07-.79.34a3,3,0,0,0,0,1.75C12.33,17.49,12.54,17.43,12.7,17.41Z"/><path class="cls-1" d="M7.6,26.47c0,.63,0,1.26.09,1.89s.46.85,1.09.57.62-.83.53-1.33C9,26,9.38,24.28,9,22.7c.07-.27.31-.51,0-.68-.48-.28-1.38.2-1.34.76C7.74,24,7.53,25.24,7.6,26.47Z"/><path class="cls-1" d="M3.92,25c0,.82-.3,1.84.74,2.44.74-1,.41-2.24.68-3.32a5.81,5.81,0,0,0-.12-1.69C3.88,23,3.94,24.09,3.92,25Z"/></g></g></svg>