<svg xmlns="http://www.w3.org/2000/svg" viewBox="0 0 115.76 53.66"><g id="图层_2" data-name="图层 2"><g id="图层_1-2" data-name="图层 1"><path d="M115.18,9.85c-1.11-.29-2.23-.52-3.35-.76-2-.42-3.94-.86-5.93-1.22s-4-.58-5.94-.89-3.91-.65-5.87-1l-5.49-1c-1.48-.26-3-.51-4.45-.78s-3-.6-4.54-.88c-1.68-.3-3.36-.58-5-.89-1.4-.25-2.8-.55-4.21-.77-2.18-.35-4.38-.65-6.57-1-.69-.11-1.36-.31-2-.42-.51-.08-1,0-1.55-.12A25.89,25.89,0,0,0,55.31.07c-2.83.49-5.68.94-8.55,1.18-.31,0-.61.09-.92.14-1,.18-2,.41-3,.55-1.49.2-3,.3-4.49.52-2.11.31-4.22.68-6.33,1l-5.78.9-3.53.53c-1.45.21-2.91.43-4.36.61s-3.08.33-4.61.55c-1.88.27-3.75.61-5.63.9-2.19.34-4.38.67-6.58,1-.46.07-.72.23-.73.74C.75,11.32.68,14,.55,16.6.37,20.38.36,24.17.3,28c0,2.43,0,4.86-.07,7.28C.13,37.48,0,39.71,0,42c0,.52,0,1,0,1.56a.64.64,0,0,0,.56.67c1.67.34,3.34.68,5,1,.92.18,1.85.33,2.79.46a7.4,7.4,0,0,1,2.74.59.75.75,0,0,0,.34,0,8.91,8.91,0,0,1,1,.07c1,.16,2,.36,3.05.54,2.25.4,4.5.81,6.76,1.2,1.09.19,2.19.36,3.29.52l4.46.66c1,.15,2,.26,3.06.43,1.37.23,2.72.51,4.08.74,1.88.31,3.76.59,5.63.89l5.17.81,5.85.94,3.85.6L62.83,53l2.68-.39,3.17-.48c.59-.09,1.18-.17,1.77-.23,1-.11,2-.18,3-.3a8.64,8.64,0,0,0,2-.35A25.23,25.23,0,0,1,79,50.69c1-.19,2-.15,3-.28,2.87-.36,5.74-.76,8.61-1.14,1.09-.14,2.19-.25,3.29-.37s2.21-.19,3.29-.4,2.13-.19,3.19-.39c2.42-.46,4.87-.68,7.31-1,.67-.08,1.34-.15,2-.25,1.29-.19,2.59-.35,3.86-.63s1.33-.33,1.22-1.69a.48.48,0,0,1,0-.12c.11-1.57-.37-3.16.06-4.73a.59.59,0,0,0,0-.23c-.24-2-.09-4-.13-6.06,0-.55-.14-1.1-.11-1.65.12-2.08.12-4.17.14-6.25,0-2.85.16-5.7.22-8.55,0-1.36,0-2.72,0-4.08,0-.74-.11-1.48.57-2.1C115.94,10.44,115.73,10,115.18,9.85ZM32.27,42.43a.73.73,0,0,0-.08.09,2.44,2.44,0,0,1-3,.54,13.73,13.73,0,0,0-1.74-.33A13.35,13.35,0,0,1,25.3,42c-.48-.21-.88-1.69-.7-2.27a5.36,5.36,0,0,1,.26-.54c.1-.23.26-.49-.24-.36-.13,0-.3-.09-.45-.08a6.36,6.36,0,0,1-3.46-1.07.78.78,0,0,0-1,.16,1.91,1.91,0,0,1-2.38-.12,1.44,1.44,0,0,1-.36-1.08c-.1-.83-.12-.85-.91-.8a2.68,2.68,0,0,1-2.57-1.56,1.81,1.81,0,0,1,1-2,2.18,2.18,0,0,1,1.3.72,2.48,2.48,0,0,1-.43,1.29c-.15.13-.58,0-.43.37a.81.81,0,0,0,.53.43,3.22,3.22,0,0,0,2.32-.32,6.9,6.9,0,0,1,3.34-1.1A10.63,10.63,0,0,0,22.7,33a5.57,5.57,0,0,1,1.38-.29,10.94,10.94,0,0,1,3.56.23,2.28,2.28,0,0,0,1.39,0,2.38,2.38,0,0,1,.92-.07c.76.08,1,.26,1,1a4.25,4.25,0,0,0,.41,1.34,1.88,1.88,0,0,0,1.85,1.31,13.51,13.51,0,0,0,3.6-.25,9.4,9.4,0,0,1,1.91,0c.11,0,.21.2.31.3-.12.09-.24.26-.37.27-.3,0-.62-.09-.93-.05a3.92,3.92,0,0,0-1.78.59,14.52,14.52,0,0,1-1.59.76,4.51,4.51,0,0,0-.66.49,13.69,13.69,0,0,1-2.82,1.69.85.85,0,0,1-.32,0c0-.1,0-.24.1-.31.85-.82,1.39-2,2.57-2.44a.49.49,0,0,0,.25-.24.61.61,0,0,0,.06-.45.46.46,0,0,0-.38-.2c-1.1.33-2.2.65-3.28,1a.83.83,0,0,0-.34.69,2.51,2.51,0,0,1-1,2c-.32.36-.87.59-.87,1.19l1.4.16a2.27,2.27,0,0,1,.59,0c1.09.45,1.9-.18,2.75-.68a5.65,5.65,0,0,0,.69-.48c.31-.28.5-.38.83.05s.81.43,1-.19.35-1.26,1.22-1.15a2.25,2.25,0,0,0-.51,2.51.83.83,0,0,1-.16.75,1.47,1.47,0,0,1-1.46.19,3.39,3.39,0,0,1-.45-.4C33.08,41.92,32.91,41.92,32.27,42.43Zm7-.43c-.73.51-.84.53-1.67,0a2.28,2.28,0,0,1-.49-1.73c0-.19.19-.36.24-.55s.07-.47,0-.51a1.07,1.07,0,0,0-.64-.08c-.14,0-.26.16-.39.24-.1-.23-.36-.47-.06-.73A2.55,2.55,0,0,1,38.83,38c.31.11.37.32.27.54a9.93,9.93,0,0,1-.58.91c-.35.57-.2,1,.48,1.2.34.1.59.23.64.6A.77.77,0,0,1,39.23,42Zm11.69,2.15a.5.5,0,0,1-.5.53c-.59.08-1.18.18-1.76.3l-5.1,1.07-.12,0c-.9.15-1.26-.06-1.35-1a55.69,55.69,0,0,0-1.18-5.57c-.34-1.7-.79-3.38-1.18-5.08a3,3,0,0,1-.06-.95.75.75,0,0,1,.67-.7l6.95-1.49c.47-.1,1-.09,1.42-.17.67-.11.81-.08.95.51.5,2,1,4.07,1.43,6.11a9.37,9.37,0,0,1,0,1.91h.08C51.1,41.16,51,42.65,50.92,44.15Zm11.6-12.29c-.1,1.15-.13,2.3-.18,3.45,0,.7-.1,1.4-.09,2.09,0,1.42-.25,2.82-.17,4.24.05.9-.09,1.81-.13,2.72,0,.41-.19.56-.59.56-1.23,0-2.47,0-3.71,0v0c-1.08,0-2.16,0-3.24,0-.7,0-1.38-.43-2.11-.09,0,0-.38-.35-.36-.51.34-2.62.12-5.26.22-7.88.06-1.46.14-2.92.22-4.38a4.17,4.17,0,0,1,.08-.71c.19-.82.21-.79,1-.73.65,0,1.32,0,2,0l5.79.23A4.13,4.13,0,0,1,62,31C62.64,31.12,62.59,31.12,62.52,31.86ZM62.78,30c-1.68,0-3.37,0-5.05-.1s-3.1-.08-4.65-.16c-.2,0-.4,0-.6,0-.9,0-1,.15-1.07,1s0,1.76,0,2.64a.61.61,0,0,1-.12.26,1.42,1.42,0,0,1-.07-.22l-.51-2.8a.87.87,0,0,0-.92-.76,6.37,6.37,0,0,0-1.07.12c-1.86.39-3.71.83-5.57,1.17a20.8,20.8,0,0,1-3.42.37c-2.73.06-5.46,0-8.19,0-2.06,0-4.11.06-6.17.07-.62,0-1.24-.11-1.87-.12-.39,0-.78.11-1.16.09a18.06,18.06,0,0,0-3.29,0,22.88,22.88,0,0,1-3.69-.15c-.37,0-.57-.16-.52-.6s-.13-.63-.13-.94c.05-2.3,0-4.6.07-6.9,0-1.47.23-2.91.28-4.36s-.08-3.18-.09-4.77c0-1.35.07-2.7.11-4.05,0-.07,0-.15,0-.22,0-1.1.06-1.19,1.12-1.2s2.32,0,3.48,0v0h9.45c1.77,0,3.55,0,5.33,0a15.8,15.8,0,0,0,2.36.17,35.33,35.33,0,0,1,4,.08c1.32,0,2.63,0,4,0,.36,0,.71.08,1.07.09l9,.15c1.93,0,3.87.22,5.79.08,1.21-.08,2.35.27,3.55.15,1.46-.15,2.94,0,4.4-.05A11.59,11.59,0,0,1,71,9.23a14.48,14.48,0,0,0,2.08,0c1.82.06,3.64.19,5.46.26.75,0,1.5-.1,2.25-.08,1,0,2,.15,3,.21.42,0,.85,0,1.27,0,2.3,0,4.6,0,6.9,0,1,0,2,.2,3,.18,1.62,0,3.23.09,4.85,0h.6a.56.56,0,0,1,.62.58,5.77,5.77,0,0,1,0,.72c-.1,1.37,0,2.74,0,4.1,0,1.79-.12,3.58-.21,5.37a3,3,0,0,1-.24.74c0,.05,0,.14,0,.17.59.88.22,1.85.25,2.77s-.11,1.82-.15,2.73c0,.75,0,1.49,0,2.23s0,1.41.07,2.11-.52,1.34-1.06,1.14-1.37.44-1.92-.22c-.48.44-1,.11-1.51.15-2,.15-4.08-.18-6.12,0-1,.07-2.08-.1-3.12,0s-2.16,0-3.24,0-2.16,0-3.24,0c-2.81-.07-5.62-.14-8.43-.25a5.19,5.19,0,0,1-1.39-.32c-1.47-.48-2.93-1-4.41-1.46-1-.31-1.21-.15-1.54.87s-.68,2-1,3.05c-.06.2-.13.39-.2.59a3,3,0,0,1-.07-.59c.05-.78.13-1.56.19-2.34a9.74,9.74,0,0,0,0-1.08C63.59,30.18,63.48,30,62.78,30ZM72.72,42c-.41,1.07-.88,2.12-1.31,3.18a7.18,7.18,0,0,0-.33,1c-.16.65-.39.82-1,.64-1.34-.38-2.67-.78-4-1.17l-2.39-.72c-.69-.22-.87-.43-.8-1,.1-1.53.17-3.07.31-4.6a6.63,6.63,0,0,1,.42-1.49c.41-1.18.83-2.37,1.27-3.54.11-.3.3-.56.41-.85.25-.62.47-1.25.7-1.87a18.62,18.62,0,0,1,2,.51q3.3,1.2,6.59,2.46c.65.25.77.57.52,1.23-.51,1.29-1.06,2.56-1.55,3.85C73.2,40.38,73,41.19,72.72,42Zm28.7-6.18a2.56,2.56,0,0,1-1.19.75c-.75.11-1.45.6-2.29.27-.49-.2-.73,0-.77.59a2.36,2.36,0,0,1-.34,1.34,1.49,1.49,0,0,1-1.5.62c-.33-.09-.7-.18-.73-.66s.09-.75.65-.95.61-.28.34-.7a2.82,2.82,0,0,0-.78-.89A1.3,1.3,0,0,0,93.36,36c-.27.17-.57.28-.85.44-.63.37-.66.41-.21,1a1.65,1.65,0,0,1,.38,1.09c0,1-.08,1-1.05.7a1.81,1.81,0,0,0-.69-.18,2.34,2.34,0,0,0-1.13.28c-.5.33,0,.7.13,1a1.48,1.48,0,0,1-1.24,2.12,4.4,4.4,0,0,0-1.54.57,4.64,4.64,0,0,1-3.45.33,5,5,0,0,1-.59-.19l-.56.16c-.53.17-1,.23-1.38-.32-.26-.4-.6-.33-1-.17s-.63.33-1,.46c-.64.26-1.37-.21-1.16-.83.31-.92-.28-1.61-.38-2.41-.07-.6-.76-1-1.42-1.15A.37.37,0,0,0,76,39a.56.56,0,0,0-.07.43,2.45,2.45,0,0,0,.46.69,2,2,0,0,1,.47,1.67c0,.39,0,.77-.42,1a2.83,2.83,0,0,1-1.66.56c-.36,0-.61-.59-.49-1.06a1.56,1.56,0,0,1,.29-.64c.05,0,.36.08.52.17.35.21.5,0,.64-.27A1.34,1.34,0,0,0,75.34,40c-.69-.59-.4-1.16-.18-1.74s.59-1.4,1.51-1.51c.7-.09,1.38-.36,2.09.07.14.09.54-.07.74-.22a3.77,3.77,0,0,1,2.44-.82,4.5,4.5,0,0,0,1.63-.27,1.83,1.83,0,0,0,1.14-1.92c0-.47.16-.48.43-.42a3.86,3.86,0,0,1,1.11.39,2,2,0,0,0,1.82.13,5.12,5.12,0,0,1,4.28.16,33.48,33.48,0,0,0,5,1.85,4.48,4.48,0,0,0,1.9.08c.69-.07.95-.62.7-1.29a1.25,1.25,0,0,1,.83-1.66.37.37,0,0,1,.21,0A1.89,1.89,0,0,1,101.42,35.78Z"/><path d="M60.61,32.69l-.35.46a1.51,1.51,0,0,0,.09.56c.1.14.35.36.42.32a1.06,1.06,0,0,0,.43-.48.53.53,0,0,0-.11-.44A3.21,3.21,0,0,0,60.61,32.69Z"/><path d="M59.34,32.51a.59.59,0,0,0-.39.2,2.73,2.73,0,0,0-.16.6c.07.16.11.41.24.48a.58.58,0,0,0,.52-.09.75.75,0,0,0,.13-.51.92.92,0,0,0-.12-.45C59.52,32.64,59.41,32.5,59.34,32.51Z"/><path d="M55.65,32.5a3,3,0,0,0-.38.42.43.43,0,0,0,0,.35,4.54,4.54,0,0,0,.41.48l.47-.44A1.75,1.75,0,0,0,56,32.9,3.14,3.14,0,0,0,55.65,32.5Z"/><path d="M54.05,32.6a.75.75,0,0,0-.24,1c0,.09.16.14.23.2a.66.66,0,0,0,.32-1.15A.32.32,0,0,0,54.05,32.6Z"/><path d="M57,33a6,6,0,0,0,.38.81,2,2,0,0,0,.47-.13L57,32.81C57,32.87,56.94,33,57,33Z"/><path d="M46.25,33.26c-.15.16-.42.34-.41.5a2.1,2.1,0,0,0,.31.93c.05.09.36.1.52.05s.15-.25.22-.38a6.42,6.42,0,0,0-.27-.68A2.93,2.93,0,0,0,46.25,33.26Z"/><path d="M41.16,34.36c-.08,0-.21.08-.26.17a1.41,1.41,0,0,0,.33,1.41.28.28,0,0,0,.22,0,.63.63,0,0,0,.34-.8C41.7,34.83,41.65,34.42,41.16,34.36Z"/><path d="M48,33c-.38.08-.48.37-.46.72s.19.62.57.63.42-.28.43-.57C48.54,33.25,48.31,32.91,48,33Z"/><path d="M42.8,34a2.87,2.87,0,0,0-.27.72.65.65,0,0,0,.42.77.24.24,0,0,0,.22,0c.11-.19.3-.42.26-.59A4.12,4.12,0,0,0,43,34C42.87,34,42.81,34,42.8,34Z"/><path d="M44.54,33.65c-.07,0-.28.13-.27.16.09.4.21.8.34,1.19,0,0,.23.07.32,0a.45.45,0,0,0,.22-.23,2,2,0,0,0,.05-.4,1.39,1.39,0,0,0-.16-.5A1,1,0,0,0,44.54,33.65Z"/><path d="M69.07,34.81a.84.84,0,0,0-.14.44c0,.17.11.42.24.46a.56.56,0,0,0,.51-.15A1.62,1.62,0,0,0,70,35c-.09-.19-.13-.49-.28-.57C69.33,34.24,69.19,34.56,69.07,34.81Z"/><path d="M67.49,34.18a.71.71,0,0,0-.13.44c0,.15.14.42.19.42a1.15,1.15,0,0,0,.6-.22c.09-.07.06-.29.11-.6l-.32-.51A2.85,2.85,0,0,0,67.49,34.18Z"/><path d="M70.65,35.21a.78.78,0,0,0-.2.42,2.59,2.59,0,0,0,.1.61,1.84,1.84,0,0,0,.61-.22c.13-.11.15-.35.24-.59l-.31-.53A2.32,2.32,0,0,0,70.65,35.21Z"/><path d="M66.62,33.26c-.14,0-.37,0-.4.11a6.62,6.62,0,0,0-.33,1.07s.36.15.39.11a10.14,10.14,0,0,0,.57-.89C66.73,33.45,66.68,33.27,66.62,33.26Z"/><path d="M71.94,36.43s.25.29.41.31c.37.06.67-.28.63-.79l-.53-.36A8.18,8.18,0,0,0,71.94,36.43Z"/><path d="M85.55,41.52c-.63-.81-1.26-1.62-1.88-2.44-.32-.42-.26-.56.21-.79a4.13,4.13,0,0,0,1-.61c.23-.21.24-.58-.14-.65-1-.2-2.1-.39-3.16-.49a2,2,0,0,0-1,.39c-.5.27-.48.52,0,.81A3.21,3.21,0,0,1,82,39.16c0,.1.07.29,0,.33a.67.67,0,0,1-.43.12,1.29,1.29,0,0,1-.41-.2c-1-.55-2-1.12-3-1.63A3.2,3.2,0,0,0,76,37.72a1,1,0,0,0-.27.2c.1.09.2.26.31.27a3.31,3.31,0,0,1,2.87,2.19,2.35,2.35,0,0,0,.38.74c.17.16.61.33.69.25.63-.6,1-.11,1.41.27a1.67,1.67,0,0,0,1.78.52l1.1.21c.46.09.92.21,1.39.26.32,0,.46-.24.3-.51S85.69,41.71,85.55,41.52Z"/><path d="M91.18,34.44a.82.82,0,0,0-.35-.08c-1.13,0-2.27-.24-3.34.5-.68.48-1,.31-1.29-.43-.16-.36-.4-.41-.65-.2A10.59,10.59,0,0,0,84.4,35.4a.72.72,0,0,0,.1.6c.41.67,1.15.27,1.72.47a1.29,1.29,0,0,0,1.12-.21A9.37,9.37,0,0,1,89,35.63c.06,0,.2,0,.21.07s0,.27,0,.3a10,10,0,0,1-1.18.78c-.35.18-.76.24-1.11.43a2.54,2.54,0,0,0-.56.53c.19.18.36.46.59.52a10.35,10.35,0,0,0,1.39.18c.65-.09,1.33-.16,2-.3.18,0,.35-.3.42-.5s-.18-.29-.32-.39a3.71,3.71,0,0,0-.54-.33c.18-.14.35-.31.54-.43s.65-.31,1-.5.92-.25.85-.86S91.55,34.62,91.18,34.44Z"/><path d="M86.43,38.48c-.15-.14-.7,0-1,.17s-.25.61-.11,1a4,4,0,0,0,1.16,1.63,3.69,3.69,0,0,0,.72.36,5.22,5.22,0,0,0,.73-.12c.47-.13.48-.31.45-.84C88.36,39.36,87.13,39.16,86.43,38.48Z"/><path d="M27.83,38.65a14.68,14.68,0,0,0-2.42-3.08c-.22-.2-.54-.44-.29-.79,0-.05.49.14.69.29a10.27,10.27,0,0,0,2.77,1.57,2.36,2.36,0,0,0,1.86-.09.46.46,0,0,0,.19-.77c-.23-.31-.6-.5-.55-1s-.18-.79-.7-.65a1.36,1.36,0,0,0-.72.38c-.29.41-.51.32-.88.11a8,8,0,0,0-3.6-1c-.42-.13-.84.26-1.28.59a.32.32,0,0,0,0,.58c.45.33.94.61,1.38.94a2.68,2.68,0,0,1,.43.56c-.21,0-.41.07-.62.08s-.35-.08-.45,0a11.57,11.57,0,0,0-1,.75,8.13,8.13,0,0,0,.87.57,1.63,1.63,0,0,0,.59.06,2.2,2.2,0,0,1,2.14,1.06c.48.84.6.93-.2,1.42-.1.06-.24.09-.31.17s-.25.3-.21.37a.72.72,0,0,0,.4.35c1,.2,1.44-.5,1.92-1.14A1,1,0,0,0,27.83,38.65Z"/><path d="M19.3,35a3,3,0,0,0-1.13.85c-.24.23-.13.52.07.75s.41.14.61,0,.75-.4,1,0,.53.33.84.07.57-.43.82-.67a3.71,3.71,0,0,0,.43-.6,4,4,0,0,0-.4-.47C20.79,34.33,20,34.77,19.3,35Z"/></g></g></svg>