<svg xmlns="http://www.w3.org/2000/svg" viewBox="0 0 73.38 102.21"><defs><style>.cls-1{fill:#d52b28;}</style></defs><g id="图层_2" data-name="图层 2"><g id="图层_1-2" data-name="图层 1"><path class="cls-1" d="M73.09.11c-.28-.26-.52,0-.72.21-.63.66-1.23,1.34-1.87,2a16.82,16.82,0,0,1-4.92,3.43,10.25,10.25,0,0,1-4.45,1c-2.29,0-4.58-.26-6.87-.09-1.41.11-2.82-.13-4.24,0-.89.06-1.77.17-2.65.28a23.11,23.11,0,0,0-4.12.9,63.29,63.29,0,0,0-9,4,42.34,42.34,0,0,0-4.48,3c-1.28.85-2.54,1.79-3.77,2.74-.57.44-1.31.66-1.69,1.35-1.45.38-2.4,1.57-3.69,2.22-1.49.76-2.87,1.74-4.69,1.75-1.28,0-2.37-.09-3.11-1.27-.23-.36-.57-.66-.78-1.05-.11-.19-.25-.42-.56-.33s-.07.47-.11.7a4.63,4.63,0,0,0,.27,1.64c.31,2.15.66,4.3,1,6.46.2,1.21.46,2.42.64,3.63s.41,2.38.57,3.57c.23,1.69.49,3.37.8,5,.55,3.09,1.16,6.17,1.73,9.25.13.72.11.73.92.92-.19.18-.49,0-.7.24.12.51.27,1,.38,1.58.64,3.22,1.1,6.47,1.88,9.66.07.29-.4,1,.54.74.13,0,.07.15.06.26a4.29,4.29,0,0,1-.15,1.22,2.65,2.65,0,0,0,.18,1.36c.07.31.12.62.19.93a50.23,50.23,0,0,0,1,5c.09.28-.09.38-.26.44A4.47,4.47,0,0,1,19,73c-.92,0-1.84.16-2.76.1C15.14,73.06,14.07,73,13,73c-1.52,0-3,0-4.55,0s-3,0-4.51,0c-.83,0-1,.2-1,1s0,1.35-.09,2a9.52,9.52,0,0,0-.28,1.86c.08.62-.5,1.19-.06,1.8-.55.35,0,.84-.14,1.18A4,4,0,0,0,2,82.11c-.07.7-.15,1.4-.22,2.1-.21,2.41-.54,4.8-.82,7.2C.72,93.19.46,95,.32,96.74c-.08,1-.28,2-.32,2.93a1.75,1.75,0,0,0,1.9,1.82H13.45l9.76,0a3.6,3.6,0,0,1,2.32.52,1.34,1.34,0,0,0,1.63-.08,2.76,2.76,0,0,1,1.81-.53,42.94,42.94,0,0,0,5.32,0c2.08,0,4.17-.09,6.25-.13a37.12,37.12,0,0,1,4.35,0c1.13.12,2.16-.61,3.3-.16.22.08.58-.21.82-.45s0-.44,0-.66c-.17-1.65-.28-3.32-.53-5-.15-1-.07-1.92-.29-2.85-.47-2-.56-4.09-.87-6.13-.4-2.63-.64-5.28-1-7.91a16.78,16.78,0,0,0-.8-4.53c-.29-.66-.5-1-1.21-1.08a7.85,7.85,0,0,0-1,0c-1.63.06-3.27.14-4.9.16-2.51,0-5,0-7.54.13a.58.58,0,0,1-.63-.26.63.63,0,0,1,.19-.65c1.52-1.81,2.9-3.73,4.54-5.44a78,78,0,0,1,7.06-6.66c.75-.61,1.55-1.15,2.23-1.82a19.44,19.44,0,0,1,3.17-2.33,19.86,19.86,0,0,1,2.66-1.82l.11-.06.07,0a10.86,10.86,0,0,1,2.61-1.47c.79-.31,1.37-.43,2.61-.92.69-.27,1.24-.53,1.59-.7a8,8,0,0,1,1.13-.95c1-.52,1.82-1.07,1.85-2.3,0-.07.07-.14.12-.2a4.3,4.3,0,0,0,.68-2c.39-1.9.73-3.81,1.18-5.69.38-1.63.89-3.22,1.33-4.84s.82-3.15,1.26-4.72c.68-2.45,1.39-4.88,2.08-7.32.84-2.95,1.63-5.9,2.51-8.83s1.54-6,2.63-8.92c.48-1.29.57-2.72,1.4-3.9C73.51.62,73.31.32,73.09.11ZM23.86,80.35l.36,0a.53.53,0,0,1,.64.54,28.4,28.4,0,0,0,1.27,5.51c.09.29.33.57.15.91a7.55,7.55,0,0,0-.72,2.26,1.63,1.63,0,0,1-.64.94c-.27-1.11-.5-2.14-.76-3.15-.12-.46.6-.55.41-1s-.78-.35-.74-.87c0,0,0-.08,0-.12-.22-1.4-.59-2.77-.68-4.19C23.09,80.41,23.12,80.41,23.86,80.35ZM45.77,99.1c-2.56,0-5.12,0-7.68.06-2.71.06-5.41.16-8.12.26a4.63,4.63,0,0,0-1.77.14,2.79,2.79,0,0,0-1.67,1.2c-.71-.26-1.27-.72-2-1a2.48,2.48,0,0,0-.93-.22c-2.55,0-5.1-.29-7.66-.21a40.92,40.92,0,0,0-5.07.18,14.17,14.17,0,0,1-1.46,0c-2.18.11-4.35.22-6.52.36-.26,0-.5.13-.58-.19A.65.65,0,0,1,2.7,99a1,1,0,0,1,.48-.08c1.95,0,3.86-.35,5.8-.47,2.47-.15,4.94-.35,7.42-.27A21.73,21.73,0,0,0,19.91,98a20.43,20.43,0,0,1,3.41,0,4.36,4.36,0,0,1,2.09.91c.55.36.67.35,1.12-.09,0-.06.13-.11.16-.18.41-.93,1.14-1,2.09-1,1.93.13,3.88.13,5.82.17a33.16,33.16,0,0,1,3.72.23,17,17,0,0,0,1.89,0c1.77,0,3.54.18,5.3.33a3.38,3.38,0,0,0,1.3-.14C46.72,99,46.35,99.11,45.77,99.1ZM33.15,74.69c1.48-.15,3-.13,4.48-.14s2.73,0,4.1.07a3.94,3.94,0,0,0,1-.09c.88-.21,1-.15,1.11.67.13,1.12.18,2.25.36,3.36.42,2.5.52,5,1,7.54.44,2.28.58,4.59.89,6.88a17.17,17.17,0,0,1,.53,4c0,.12,0,.23-.06.47a4.14,4.14,0,0,0-.91-.18c-1.63,0-3.23-.35-4.85-.3a5.38,5.38,0,0,1-1.69-.14,10.06,10.06,0,0,0-2.39,0,44.92,44.92,0,0,0-5.19,0,17.25,17.25,0,0,1-3.37,0,2,2,0,0,0-1.85.67.71.71,0,0,1-1,.21,4.17,4.17,0,0,0-2.54-.47c-2.59.09-5.2,0-7.8.07s-5.16.13-7.74.26c-1.29.07-2.58.1-3.88.18-.66,0-.67,0-.68-.66a3.8,3.8,0,0,0-.32-2c-.08-.14,0-.21.09-.31a6.88,6.88,0,0,0,.43-2.2c.19-2,.35-4,.57-6.06s.45-3.94.78-5.9c.06-.34-.32-.64,0-1s.08-.78.21-1.15-.17-.75,0-1.16A2.71,2.71,0,0,0,4.59,76c0-.53.21-.65.72-.69,3.54-.22,7.09-.24,10.64-.26a18.32,18.32,0,0,0,3.39-.12,2.37,2.37,0,0,1,.59.06c1.32.11,1.29.12,1.54,1.33.56,2.76,1,5.54,1.57,8.3.4,2,.69,4,1.1,6,.33,1.61.47,3.26.92,4.86a8.17,8.17,0,0,1,.13,1.41,1.3,1.3,0,0,0,.66-1.38,12.11,12.11,0,0,1,.49-3.73,11.46,11.46,0,0,1,.75-2.63A4.12,4.12,0,0,1,27.72,88a3.46,3.46,0,0,0,.54-1.56c.12-.47.14-.77-.36-1.09a2.22,2.22,0,0,1-.65-1.11,13,13,0,0,1-1-4.51c.18-.06.36-.14.55-.19a.93.93,0,0,0,.75-.94,10,10,0,0,1,1.29-3.44.9.9,0,0,1,1.09-.51A10.59,10.59,0,0,0,33.15,74.69Z"/></g></g></svg>