<svg id="图层_1" data-name="图层 1" xmlns="http://www.w3.org/2000/svg" viewBox="0 0 200.95 97.53"><defs><style>.cls-1{fill:#d52b28;}.cls-2{fill:#040000;}</style></defs><path d="M78,44.52a11.14,11.14,0,0,0-.3-3.64,1.22,1.22,0,0,1,0-.9c.54-.71.28-1.51.31-2.27s0-.84-.78-.81c-1.05,0-2.09-.08-3.14,0-3.36.09-6.72,0-10.09.07-2.2,0-4.4,0-6.6.13-1.37.08-2.73,0-4.09,0s-2.53.06-3.79.06c-2.45,0-4.9.08-7.35,0-3.27-.07-6.54.13-9.81.17-1.24,0-2.5-.08-3.75,0-2.3.06-4.6.11-6.91,0-1.15,0-2.31,0-3.47.07-.78,0-.86.12-.87.92v.3c.05,2.21.12,4.42,0,6.62a4.12,4.12,0,0,0,.06,1.22c.19.72.18.81.94.77,2.84-.15,5.69,0,8.53-.06s5.5-.13,8.25-.06c3,.07,5.93-.23,8.9,0,1.19.07,2.38-.05,3.53-.09,2.32,0,4.58,0,6.85,0,4.4-.07,8.79-.15,13.19-.18,3,0,6,.14,9,0a4.25,4.25,0,0,0,.81-.05c.42-.1.69-.31.63-.78S78,45,78,44.52Zm-2.08.83c-2,0-4,.1-6,0-1.33-.05-2.67,0-4,0-1.6,0-3.18,0-4.77,0-2.43,0-4.85.13-7.27.11-3.06,0-6.12.13-9.17,0-2.43-.06-4.84.07-7.25.06-3.41,0-6.81,0-10.2,0-1.88,0-3.75,0-5.63,0-.71,0-1.42-.15-2.13-.12s-.95-.22-1-1,0-1.23,0-1.85c0-.82,0-1.64,0-2.46a2.35,2.35,0,0,1,.07-.7c.21-.7.24-.77,1-.78,1.34,0,2.67,0,4,0,1.76,0,3.53,0,5.29-.05s3.48-.18,5.22-.13c4.06.1,8.1-.18,12.16-.12,4.91.07,9.81-.24,14.72-.25,3.71,0,7.41,0,11.11-.12,1.23,0,2.45-.07,3.67-.08.91,0,1.1.17,1.13,1s0,1.71.08,2.56h0c0,.89.06,1.78.08,2.65S76.7,45.34,75.89,45.35Z"/><path class="cls-1" d="M97.43.54c-.08-.13-.17-.26-.31-.2a5.94,5.94,0,0,1-2.41.12c-2.41,0-4.8-.32-7.22-.12h-.21a57.21,57.21,0,0,0-6-.17C79.1.05,76.91.25,74.73.31c-.41,0-.82-.08-1.22-.09a18.19,18.19,0,0,0-3-.19,15.31,15.31,0,0,1-1.8.27c-2.32,0-4.63.2-7,0a29.91,29.91,0,0,0-3.9.08c-1.31.06-2.63-.09-4,.06S51,.37,49.48.41c-1.94.06-3.87.1-5.82,0A29.13,29.13,0,0,0,39.38.35c-1.05.12-2.09,0-3.13.05a4,4,0,0,1-.92,0A23.44,23.44,0,0,0,31.78.15c-1.45-.1-2.92,0-4.39-.06-2.1-.12-4.22,0-6.33,0-4.33,0-8.67.21-13,.33a7.92,7.92,0,0,1-1.54,0C4.66,0,2.78.55.92.2.6.14.43.31.44.68c0,.87,0,1.75.07,2.63S.48,5,.44,5.85C.37,7,.47,8.1.5,9.23c0,.54-.06,1.08-.1,1.61A8,8,0,0,0,.4,14a.77.77,0,0,1,0,.4A47.73,47.73,0,0,0,.2,19.91c0,3.48.31,6.94.11,10.43-.13,2.16,0,4.32,0,6.49a9.85,9.85,0,0,1,0,1.33,42.26,42.26,0,0,0-.2,4.78c-.06,1.56,0,3.14.1,4.7C.2,48.09,0,48.51.1,49a30.45,30.45,0,0,1,.21,5.31c-.11,2.4,0,4.8-.18,7.2a6.26,6.26,0,0,1,0,1.93,4.26,4.26,0,0,0-.07,2c.07.67.05,1.33.07,2,0,1.7-.14,3.38-.09,5.08,0,1.21,0,2.43.16,3.63a20.06,20.06,0,0,1,0,2.57c0,1.56,0,3.14.13,4.7S.24,86.45.47,88a3.4,3.4,0,0,1,0,.71C.35,90,.28,91.2.22,92.46a.44.44,0,0,0,0,.2A11.52,11.52,0,0,1,.5,95.81c0,.24,0,.47,0,.71a.54.54,0,0,0,.59.57c.89,0,1.76.08,2.64.12,1.46.06,2.92,0,4.37,0,2.72.12,5.45-.19,8.17,0,1.53.1,3.07,0,4.61-.08a4.63,4.63,0,0,1,.91,0c1.45.26,2.92.09,4.38.21a7.34,7.34,0,0,0,2.94-.22,1,1,0,0,1,.5.06,5.77,5.77,0,0,0,2,0,1.57,1.57,0,0,1,.6-.09,49.12,49.12,0,0,0,5.29.16c2.65.17,5.31-.14,8,0,2.85.14,5.72-.26,8.58,0,1.37.12,2.76,0,4.14.07,1.6.08,3.2,0,4.8.06,2.7,0,5.38-.12,8.08-.2a4.43,4.43,0,0,1,1,0,21.88,21.88,0,0,0,4,.22c2.67,0,5.35-.06,8,0s5.65-.07,8.49,0a11.1,11.1,0,0,1,1.62.1,11.22,11.22,0,0,0,1.64,0c.17,0,.46-.08.43-.19-.16-.51.29-.88.24-1.35-.1-1.06.28-2.11.07-3.17a17,17,0,0,1,.06-1.89c-.14-1.51.13-3-.09-4.53a.77.77,0,0,1,0-.3,14.45,14.45,0,0,0,.16-2.93,28.48,28.48,0,0,0,0-4.43,21,21,0,0,1,.1-2.75c0-1.17-.06-2.36-.11-3.53-.06-1.56,0-3.11.1-4.66.05-1,.1-2,.11-3a10.86,10.86,0,0,0,0-2.42c-.28-1.26.3-2.46,0-3.69-.06-.25.27-.56.06-.76s0-.49,0-.7c.07-.88,0-1.77.09-2.63a19.51,19.51,0,0,0,0-3.15c0-.34-.08-.68-.07-1,0-1.6,0-3.22.07-4.82,0-.56-.2-1.07-.15-1.6a20.65,20.65,0,0,0-.14-4,4.09,4.09,0,0,1,0-.92c.24-1.84,0-3.69.15-5.54.07-1.36,0-2.74,0-4.11a9,9,0,0,1,0-1.64,5.56,5.56,0,0,0,0-1.68c0-.44-.07-.88-.1-1.33,0-1.05.12-2.09.1-3.13,0-1.28.12-2.54.1-3.81a56.33,56.33,0,0,0,0-5.81c-.06-.56.23-1.1.12-1.62-.34-1.62.27-3.25,0-4.86.44-1.4,0-2.88.42-4.29A.92.92,0,0,0,97.43.54Zm-16,43.39c0,1.57,0,3.15,0,4.72,0,1.31.15,2.63.06,3.93-.17,2.63.08,5.26-.06,7.88-.07,1.25,0,2.5,0,3.75a15.4,15.4,0,0,1-.11,2.63c-.09.63-.13.62-.75.75a10,10,0,0,1-1.73.07c-1.67,0-3.34.14-5,.08a43.15,43.15,0,0,0-4.55,0,40.55,40.55,0,0,1-5.17.06c-2-.1-4.08.09-6.12,0-.8-.05-1.62.1-2.43.1-2.5,0-5,0-7.52,0-3.85,0-7.7.08-11.55.09-1,0-2,.17-3,.09-1.57-.14-3.13,0-4.69,0-.86,0-1.71.09-2.56,0-2.45-.12-4.9,0-7.35,0-.82,0-1.63-.12-2.45-.09a.44.44,0,0,1-.5-.5c0-1.8-.19-3.61,0-5.42.1-1,0-2,0-3.06,0-1.54-.15-3.06,0-4.59.14-2-.06-4.08,0-6.12,0-3.29,0-6.58-.09-9.86,0-1,.11-1.94.1-2.92,0-.61.14-.76.8-.8.89,0,1.78,0,2.66-.06l.81,0c1.58,0,3.14,0,4.7,0,1.95.08,3.89-.05,5.84-.11.79,0,1.56.07,2.34.09,1.36,0,2.71,0,4.06-.07.89,0,1.78-.08,2.67,0,3,.08,6-.05,9,0,1.42,0,2.85.07,4.27,0,.54,0,1.15.24,1.64-.27.12-.12.23.25.46.23,1.18-.12,2.36.07,3.54-.06a19.61,19.61,0,0,1,2.3,0c.75,0,1.5.06,2.24,0,2.17-.09,4.34,0,6.51,0,.52,0,1,0,1.54,0a.54.54,0,0,0,.63-.49,5,5,0,0,0,.1-1.21c0-3.06,0-6.11.09-9.17,0-1.55.08-3.12,0-4.67-.06-.73.07-1.49.06-2.23,0-1.64-.13-3.28-.07-4.92.09-2.51,0-5,0-7.55,0-.8.42-1.5.44-2.28a.29.29,0,0,1,.38-.25c.17.06.42.05.45.33s.13.51.06.7a2.63,2.63,0,0,0,0,1.57,7.58,7.58,0,0,1,0,2.33,12.78,12.78,0,0,0,0,2.55c0,1.28-.08,2.57,0,3.84,0,1.51,0,3,.1,4.54s.15,3.27.06,4.9c0,.45.09.87.08,1.3,0,2-.17,3.95,0,5.92A12.39,12.39,0,0,1,73.36,33a2.48,2.48,0,0,0,0,.61c.06.58.26.75.85.77.3,0,.61,0,.92,0l4.46,0a4.34,4.34,0,0,0,.7-.14c.58-.09.77,0,1,.6A2.59,2.59,0,0,1,81.47,36C81.34,38.64,81.37,41.28,81.41,43.93Z"/><path class="cls-1" d="M62,52.31c0,.13,0,.32-.18.31-2-.15-4.07.11-6.1,0-2.9-.14-5.79.2-8.68.08-3.24-.13-6.48.18-9.71,0-2.61-.11-5.21.06-7.82,0-2.81-.07-5.62.06-8.44.09-.7,0-1.4-.06-2.11-.1-.34,0-.63-.13-.6-.53s.33-.5.66-.49a13.86,13.86,0,0,1,2.95.07.77.77,0,0,0,.3,0,17.56,17.56,0,0,1,3.55-.07c3.72-.08,7.44-.1,11.17-.13,1.94,0,3.88-.18,5.82-.06,2.38.14,4.76,0,7.13,0,3.38-.06,6.77.05,10.14-.14a3.25,3.25,0,0,1,1.42.09.93.93,0,0,0,.41,0c3.84-.36,7.7,0,11.54-.3a7.56,7.56,0,0,0,2.6,0,17.78,17.78,0,0,0,2.31,0,.47.47,0,0,1,.57.44c0,.3,0,.59-.39.57a19.26,19.26,0,0,0-2.52.15c-1.25.08-2.49,0-3.73,0-2.15.08-4.3.12-6.44.16a13.09,13.09,0,0,0-3.25,0c-.26.07-.36-.3-.62-.26a.36.36,0,0,0,0-.09l0,0Z"/><path class="cls-1" d="M76.13,50l-10.73.12c-1.19,0-2.37,0-3.55,0-1.55,0-3.11,0-4.67.07-1,0-2.1.12-3.14.07-2.89-.14-5.77.05-8.66.05-1,0-2,0-2.92,0-2.21-.05-4.41.13-6.62.1-3.38,0-6.76.06-10.14.09-.77,0-1.55-.05-2.32-.06-1.38,0-2.77,0-4.15.06h-.41c-.31,0-.54-.18-.51-.51s.1-.62.49-.67c.2,0,.41,0,.62,0,1.4,0,2.81,0,4.22,0,1.66,0,3.32-.11,5-.08q3.25.06,6.5,0c1.68,0,3.36-.13,5-.08,1.9.07,3.79,0,5.69,0,.51,0,1-.11,1.51-.08,3.1.22,6.2-.13,9.29,0,2.67.1,5.32-.09,8-.06,4,0,8,0,12-.12.63,0,1.27.08,1.9.11.31,0,.41.21.39.48s-.11.49-.41.5L76.13,50Z"/><path class="cls-1" d="M77.82,54.69c-3.36-.26-6.71.15-10.07,0-2.26-.08-4.53.09-6.79,0-4.11-.09-8.21.2-12.32.13-2.73,0-5.45.12-8.17,0-2.55-.07-5.1,0-7.64,0-3.34,0-6.67,0-10,.1-1.33.06-2.65-.17-4-.09a.38.38,0,0,1-.45-.32.47.47,0,0,1,.34-.55A.54.54,0,0,1,19,54a18.07,18.07,0,0,0,3.37,0c1.77,0,3.55-.15,5.32-.09,3.09.1,6.18,0,9.27,0,.6,0,1.21-.09,1.82,0,1.73.11,3.46,0,5.18,0,1.12,0,2.24,0,3.37,0,1.54.08,3.11,0,4.66,0,1.25,0,2.51,0,3.76,0,3.78,0,7.57-.21,11.35-.18,3,0,6.07-.07,9.1-.06a9.94,9.94,0,0,1,2.11.07c.24.06.49,0,.51.37a.51.51,0,0,1-.52.62Z"/><path class="cls-1" d="M76.75,63.16a26.32,26.32,0,0,0-4.35.05c-1.62,0-3.24-.14-4.87,0a40.2,40.2,0,0,1-4.91.12c-2.73-.1-5.45.07-8.17,0-.89,0-1.76.18-2.62.09a27.1,27.1,0,0,0-3.37-.05l-1.33,0c-4,0-8,.09-12,.06-3.11,0-6.21.19-9.3.08-2.18-.07-4.36,0-6.54,0h-.2c-.34,0-.65-.07-.66-.47s.3-.49.63-.5a4.93,4.93,0,0,1,1.33,0,4,4,0,0,0,1.78,0,15.76,15.76,0,0,1,2.83,0c2.22-.06,4.44-.2,6.66-.13,3.28.11,6.57-.16,9.85,0,2.38.1,4.76-.14,7.14-.06,3.86.14,7.71-.2,11.55-.11,2.86.06,5.7-.14,8.55-.06s5.88,0,8.81-.07a7.45,7.45,0,0,1,.82,0,.45.45,0,0,1,.44.36c.06.31-.16.43-.39.51a1.92,1.92,0,0,1-.59.1C77.5,63.15,77.13,63.15,76.75,63.16Z"/><path class="cls-1" d="M20.75,56.19a25,25,0,0,1,2.64.09c1.18,0,2.37,0,3.56-.09,3.77-.16,7.55.1,11.32-.09.79,0,1.57-.08,2.36-.06,2.72.08,5.45-.12,8.17,0,2.87.13,5.72-.18,8.58,0,1.2-.33,2.41.06,3.63-.11a19.15,19.15,0,0,1,2.13,0c1.67,0,3.34-.1,5-.11,1,0,2,.13,3,.09,2.17-.09,4.34-.11,6.51-.17a2.76,2.76,0,0,1,.9.13c.17.06.34.11.34.32s-.14.27-.32.31a6.15,6.15,0,0,1-2.2.23,26.48,26.48,0,0,0-4.08,0c-3.31.1-6.61.07-9.91.09-2.24,0-4.49.15-6.73.14-1.5,0-3-.1-4.49,0L47.55,57a2.84,2.84,0,0,1-.41,0c-3-.18-5.9,0-8.86,0a3.13,3.13,0,0,1-1-.07.92.92,0,0,0-.4,0c-1.76.33-3.52,0-5.29.11a39.37,39.37,0,0,1-5.32.1c-2.22-.14-4.42.09-6.64,0a1.8,1.8,0,0,1-1-.19.44.44,0,0,1-.16-.45.32.32,0,0,1,.33-.32Z"/><path class="cls-1" d="M74.05,65.27c-1.09,0-2.18.13-3.27.08-3-.13-5.93.13-8.89,0-3.38-.12-6.75.17-10.12.1-2.89-.06-5.78.09-8.66,0-3.26-.07-6.52.17-9.78.08-3.86-.11-7.7.16-11.55.13a10.85,10.85,0,0,1-2.61-.07,2.57,2.57,0,0,1-.4-.08.35.35,0,0,1-.22-.31.31.31,0,0,1,.2-.33,2.43,2.43,0,0,1,.6-.1c1.67,0,3.34-.15,5-.11,2.65.07,5.29,0,7.94,0,3.8,0,7.59-.13,11.39-.1,3.09,0,6.18-.17,9.26-.07,3.44.12,6.88-.18,10.32-.1,4.29.1,8.57-.11,12.85-.19.7,0,1.4.32,2.12,0,.15-.06.39.08.54.23a.45.45,0,0,1,.1.48.33.33,0,0,1-.32.2h-.41l-4.09.11Z"/><path class="cls-1" d="M73.48,61c-1,.12-2.38,0-3.76,0-2.4,0-4.81.09-7.21,0-3.57-.09-7.14.1-10.71.07-2.4,0-4.81.11-7.2,0-2.76-.08-5.52.15-8.28-.05-.36,0-.72,0-1.08,0-3.2,0-6.4.12-9.6.16-1.33,0-2.67.08-4,.07-.85,0-1.7,0-2.55-.07a.75.75,0,0,1-.3,0c-.19-.07-.21-.25-.21-.42a.27.27,0,0,1,.23-.29c.23,0,.47-.06.71-.07,1.94,0,3.89-.18,5.83-.11,3.24.13,6.47-.18,9.69-.06,3,.11,6-.11,9-.08s6.12,0,9.18,0c3.48,0,7-.16,10.44-.09,3.82.07,7.63-.13,11.45-.12,1,0,2.09.06,3.14,0a1,1,0,0,1,.3,0,.4.4,0,0,1,0,.75,6,6,0,0,1-.61.05Z"/><path class="cls-1" d="M66.19,58.94c-.87,0-2,.14-3.19.07-2.9-.17-5.79.16-8.68,0-3.15-.13-6.28.17-9.41.07s-6.52.13-9.77,0c-2.72-.08-5.44.18-8.16,0-2.45-.11-4.9.07-7.35.07h-.2c-.34,0-.81,0-.83-.39s.47-.39.79-.4c1.84,0,3.68-.2,5.51-.09,2.15.13,4.29-.09,6.43,0a11.49,11.49,0,0,1,2,.07c.34.07.74-.15,1.1-.13,3.34.22,6.67-.12,10-.11s6.85,0,10.27-.06q5.35,0,10.71-.12c.88,0,1.76-.13,2.63-.06,2.55.2,5.1,0,7.65,0,.62,0,1.23,0,1.84,0a4,4,0,0,1,1.1.2.32.32,0,0,1,.23.31.35.35,0,0,1-.26.39,3,3,0,0,1-.6.08c-2.15.05-4.3.19-6.45.11C69.88,58.87,68.18,59,66.19,58.94Z"/><path d="M61.27,41q0,1,0,1.95a5.35,5.35,0,0,1-.08.7.48.48,0,0,1-.55.47c-.65,0-1.3.07-1.94.06-3.7,0-7.42,0-11.11.09-.58,0-1.16,0-1.74,0-2,.11-4-.17-5.92,0-.55,0-1.09.06-1.64,0-3.47-.14-6.93,0-10.41.08-2.36,0-4.73-.06-7.1,0a1.87,1.87,0,0,1-.41,0c-.58-.05-.93-.38-.8-.93a15.78,15.78,0,0,0,.05-2.66c0-.79.11-.9.88-.88,4.1.18,8.18-.19,12.27-.16,4.55,0,9.11-.2,13.66-.16,4.36,0,8.7-.16,13.06-.19h.31C61.49,39.71,61.28,39.44,61.27,41Z"/><path d="M75.67,43.53c0,.43-.18.53-.64.53-3,0-6,.11-9,.1-.88,0-1.76-.08-2.65-.08-.52,0-.64-.14-.66-.68,0-1-.09-2-.1-3s0-.87.92-.89l5-.15v.08c1.67,0,3.34-.11,5-.14.47,0,.94.05,1.42.07s.59.26.6.66C75.62,41.22,75.65,42.37,75.67,43.53Z"/><polygon class="cls-2" points="136.07 3.15 136.07 0.2 133.12 0.2 130.17 0.2 130.17 3.15 127.22 3.15 127.22 6.1 130.17 6.1 133.12 6.1 133.12 3.15 136.07 3.15"/><rect class="cls-2" x="141.96" y="0.2" width="2.95" height="2.95"/><path class="cls-2" d="M198,.2H180.3V20.85H201V.2Zm0,5.9V17.9H183.25V3.15H198Z"/><polygon class="cls-2" points="189.15 6.1 186.2 6.1 186.2 9.05 186.2 12 186.2 14.95 189.15 14.95 192.1 14.95 195.05 14.95 195.05 12 195.05 9.05 195.05 6.1 192.1 6.1 189.15 6.1"/><path class="cls-2" d="M142,12h2.95V15h3V12h2.95V15h-2.95V17.9h2.95v3h2.95V15h3v5.9h2.95v-3h3v3h2.95V15h2.95v5.9h3v-3h2.95v3h3V.2h-11.8V3.15h2.95V6.1h-2.95V3.15h-5.9V.2h-5.9V3.15h3V6.1h-3v3h-5.9v-3h2.95V.2h-2.95V3.15h-3V6.1H142V3.15h-5.89V6.1h3v3h-3v-3h-2.95v3h-3V12h-2.95V15h5.9v5.9h2.95V15h3V12ZM159.66,15V12h3V15Zm14.75,0h-2.95V12h2.95Zm0-8.85v3h-2.95v-3Zm-11.8,0v3h-3v-3Z"/><polygon class="cls-2" points="115.42 14.95 118.37 14.95 118.37 12 118.37 9.05 118.37 6.1 115.42 6.1 112.47 6.1 109.52 6.1 109.52 9.05 109.52 12 109.52 14.95 112.47 14.95 115.42 14.95"/><polygon class="cls-2" points="144.91 17.9 144.91 14.95 141.97 14.95 139.02 14.95 139.02 17.9 139.02 20.85 141.97 20.85 141.97 17.9 144.91 17.9"/><path class="cls-2" d="M109.52,20.85h14.75V.2H103.63V20.85h5.89Zm-3-5.9V3.15h14.75V17.9H106.57Z"/><rect class="cls-2" x="127.22" y="17.9" width="2.95" height="2.95"/><rect class="cls-2" x="130.17" y="20.85" width="2.95" height="2.95"/><rect class="cls-2" x="159.66" y="20.85" width="2.95" height="2.95"/><polygon class="cls-2" points="165.56 23.8 162.61 23.8 162.61 26.75 162.61 29.7 165.56 29.7 168.51 29.7 168.51 26.75 168.51 23.8 168.51 20.85 165.56 20.85 165.56 23.8"/><rect class="cls-2" x="171.46" y="20.85" width="2.95" height="2.95"/><rect class="cls-2" x="103.63" y="23.8" width="2.95" height="2.95"/><polygon class="cls-2" points="109.52 26.75 109.52 29.7 112.47 29.7 112.47 26.75 112.47 23.8 109.52 23.8 109.52 26.75"/><rect class="cls-2" x="115.42" y="23.8" width="2.95" height="2.95"/><rect class="cls-2" x="121.32" y="23.8" width="2.95" height="2.95"/><polygon class="cls-2" points="144.91 26.75 147.86 26.75 147.86 23.8 150.81 23.8 150.81 20.85 147.86 20.85 147.86 17.9 144.91 17.9 144.91 20.85 141.97 20.85 141.97 23.8 144.91 23.8 144.91 26.75"/><rect class="cls-2" x="186.2" y="23.8" width="2.95" height="2.95"/><polygon class="cls-2" points="130.17 29.7 133.12 29.7 133.12 26.75 130.17 26.75 127.22 26.75 124.27 26.75 124.27 29.7 127.22 29.7 130.17 29.7"/><rect class="cls-2" x="103.63" y="29.7" width="2.95" height="2.95"/><polygon class="cls-2" points="198 29.7 198 26.75 198 23.8 195.05 23.8 195.05 26.75 195.05 29.7 192.1 29.7 192.1 32.65 195.05 32.65 195.05 35.59 195.05 38.54 198 38.54 198 35.59 200.95 35.59 200.95 32.65 198 32.65 198 29.7"/><rect class="cls-2" x="106.57" y="32.65" width="2.95" height="2.95"/><rect class="cls-2" x="124.27" y="32.65" width="2.95" height="2.95"/><polygon class="cls-2" points="133.12 35.59 133.12 38.54 130.17 38.54 130.17 41.49 133.12 41.49 136.07 41.49 136.07 38.54 139.02 38.54 139.02 35.59 136.07 35.59 136.07 32.65 139.02 32.65 141.97 32.65 141.97 29.7 144.91 29.7 144.91 26.75 141.97 26.75 141.97 23.8 139.02 23.8 136.07 23.8 136.07 26.75 136.07 29.7 133.12 29.7 133.12 32.65 133.12 35.59"/><path class="cls-2" d="M165.56,32.65h-2.95v3h-3V26.75h-2.95v-5.9h-3v5.9h-2.95V29.7h5.9v2.95h-3v3h3v2.94h-3V35.6h-2.95v2.94h-2.95V35.6h2.95v-3h-2.95V29.7h-3v2.95H142v3h2.95v2.94H142v3H139v8.85h5.89v-3H142v-3h2.95v3h3v-3h2.95v3h-2.95v5.9h5.9V50.34h3v-3h2.95v-3h3v3h-3v3h8.85v-3h3v-3h2.95v3h3v-3h2.94V35.6h2.95v-3H180.3V29.7h2.95v2.95h2.95v-5.9H174.41V29.7h3v5.9h-3v2.94h-2.95V35.6h2.95v-3h-2.95V29.7h-3v2.95Zm2.95,5.89h-2.95V35.6h2.95Z"/><rect class="cls-2" x="103.63" y="35.6" width="2.95" height="2.95"/><rect class="cls-2" x="127.22" y="35.6" width="2.95" height="2.95"/><rect class="cls-2" x="106.57" y="41.49" width="2.95" height="2.95"/><path class="cls-2" d="M195.05,41.49h-3V35.6h-2.95v-3h-3v3h-2.95v8.84H180.3v3h-2.94v3h2.94v5.9h2.95v-3h2.95V50.34h-2.95v-3h2.95v-3h3v5.9h5.9v-3h-3v-3h3v3H198v-3H201v-5.9H198v3Zm-8.85,0v-3h3v3Z"/><polygon class="cls-2" points="103.63 47.39 103.63 50.34 106.57 50.34 106.57 47.39 106.57 44.44 103.63 44.44 103.63 47.39"/><polygon class="cls-2" points="118.37 47.39 118.37 44.44 118.37 41.49 121.32 41.49 121.32 38.54 124.27 38.54 124.27 35.59 121.32 35.59 118.37 35.59 118.37 32.65 121.32 32.65 124.27 32.65 124.27 29.7 121.32 29.7 118.37 29.7 115.42 29.7 115.42 32.65 115.42 35.59 112.47 35.59 109.52 35.59 109.52 38.54 112.47 38.54 112.47 41.49 115.42 41.49 115.42 44.44 112.47 44.44 109.52 44.44 109.52 47.39 109.52 50.34 112.47 50.34 115.42 50.34 115.42 47.39 118.37 47.39"/><rect class="cls-2" x="133.12" y="44.44" width="2.95" height="2.95"/><rect class="cls-2" x="171.46" y="47.39" width="2.95" height="2.95"/><rect class="cls-2" x="130.17" y="50.34" width="2.95" height="2.95"/><polygon class="cls-2" points="174.41 53.29 174.41 56.24 174.41 59.19 177.35 59.19 177.35 56.24 177.35 53.29 177.35 50.34 174.41 50.34 174.41 53.29"/><polygon class="cls-2" points="139.02 53.29 139.02 50.34 136.07 50.34 136.07 53.29 136.07 56.24 139.02 56.24 139.02 53.29"/><polygon class="cls-2" points="141.97 53.29 141.97 56.24 144.91 56.24 147.86 56.24 147.86 53.29 144.91 53.29 141.97 53.29"/><rect class="cls-2" x="153.76" y="53.29" width="2.95" height="2.95"/><rect class="cls-2" x="165.56" y="53.29" width="2.95" height="2.95"/><rect class="cls-2" x="192.1" y="53.29" width="2.95" height="2.95"/><rect class="cls-2" x="198" y="53.29" width="2.95" height="2.95"/><polygon class="cls-2" points="109.52 59.19 112.47 59.19 112.47 62.14 115.42 62.14 115.42 59.19 115.42 56.24 112.47 56.24 112.47 53.29 109.52 53.29 109.52 56.24 106.57 56.24 106.57 53.29 103.63 53.29 103.63 56.24 103.63 59.19 103.63 62.14 106.57 62.14 106.57 59.19 109.52 59.19"/><polygon class="cls-2" points="147.86 56.24 147.86 59.19 144.91 59.19 144.91 62.14 147.86 62.14 147.86 65.09 150.81 65.09 150.81 62.14 150.81 59.19 153.76 59.19 153.76 56.24 150.81 56.24 147.86 56.24"/><rect class="cls-2" x="159.66" y="56.24" width="2.95" height="2.95"/><polygon class="cls-2" points="186.2 59.19 186.2 62.14 186.2 65.09 189.15 65.09 189.15 62.14 192.1 62.14 192.1 59.19 189.15 59.19 189.15 56.24 186.2 56.24 183.25 56.24 183.25 59.19 186.2 59.19"/><rect class="cls-2" x="139.02" y="59.19" width="2.95" height="2.95"/><polygon class="cls-2" points="171.46 62.14 171.46 65.09 174.41 65.09 174.41 62.14 174.41 59.19 171.46 59.19 171.46 62.14"/><rect class="cls-2" x="180.3" y="59.19" width="2.95" height="2.95"/><polygon class="cls-2" points="112.47 65.09 112.47 62.14 109.52 62.14 106.57 62.14 106.57 65.09 109.52 65.09 112.47 65.09"/><rect class="cls-2" x="159.66" y="62.14" width="2.95" height="2.95"/><polygon class="cls-2" points="195.05 65.09 195.05 68.04 192.1 68.04 192.1 70.98 192.1 73.94 195.05 73.94 195.05 76.88 192.1 76.88 192.1 79.83 195.05 79.83 195.05 82.78 195.05 85.73 198 85.73 198 82.78 200.95 82.78 200.95 79.83 198 79.83 198 76.88 198 73.94 198 70.98 200.95 70.98 200.95 68.04 200.95 65.09 200.95 62.14 200.95 59.19 198 59.19 198 62.14 195.05 62.14 192.1 62.14 192.1 65.09 195.05 65.09"/><rect class="cls-2" x="103.63" y="65.09" width="2.95" height="2.95"/><path class="cls-2" d="M130.17,68h17.69v-3H139v-3h-3v3h-2.95v-3h-3v-3h3v3h2.95v-5.9h-5.9v-3h-2.95V50.34h2.95v-5.9h-2.95V41.49h-5.9v2.95h3v3h-3v3h3v2.95h-3V50.34h-5.9v2.95h3v11.8h-5.9v3h3V71h3v2.94h5.9V71h-3V68h3V71h3V68Zm-5.9-3h-3v-3h3v-3h-3V56.24h5.9v8.85Z"/><rect class="cls-2" x="180.3" y="65.09" width="2.95" height="2.95"/><polygon class="cls-2" points="109.52 68.04 106.57 68.04 106.57 70.98 109.52 70.98 112.47 70.98 112.47 68.04 109.52 68.04"/><rect class="cls-2" x="147.86" y="68.04" width="2.95" height="2.95"/><polygon class="cls-2" points="156.71 68.04 156.71 65.09 153.76 65.09 153.76 68.04 153.76 70.98 156.71 70.98 156.71 68.04"/><rect class="cls-2" x="159.66" y="68.04" width="2.95" height="2.95"/><rect class="cls-2" x="103.63" y="70.99" width="2.95" height="2.95"/><rect class="cls-2" x="112.47" y="70.99" width="2.95" height="2.95"/><polygon class="cls-2" points="144.91 70.98 141.97 70.98 141.97 73.94 144.91 73.94 147.86 73.94 147.86 70.98 144.91 70.98"/><polygon class="cls-2" points="168.51 70.98 171.46 70.98 174.41 70.98 174.41 68.04 171.46 68.04 168.51 68.04 168.51 65.09 165.56 65.09 165.56 68.04 165.56 70.98 165.56 73.94 162.61 73.94 162.61 76.88 165.56 76.88 168.51 76.88 168.51 73.94 168.51 70.98"/><path class="cls-2" d="M189.15,73.93V68h-3V71H174.41v2.94h-2.95v2.95h-3v3h-5.9v3h-3v-5.9h-2.95v3h-3v-3h3V73.93h-3V71h-2.95v2.94h-2.95v2.95h2.95v3h-2.95v-3h-3v5.9h5.9v3h-5.9v3h3v2.95h2.95v3h2.95v3h3v-3h2.95v-3h-2.95V88.68h2.95v2.95h3v3h-3v3h14.75V88.68h-2.95v2.95h-5.9V82.78h2.95v5.9h3v-5.9h2.95v3H186.2v11.8H201v-3H198v-3h-2.95v3h-3v-3h3V88.68h-3v-5.9h-2.95v-5.9h2.95V73.93Zm-35.39,11.8v-3h3v3Zm32.44-5.9v3h-8.84V73.93h8.84v5.9Z"/><path class="cls-2" d="M118.37,76.88H103.63V97.53h20.64V76.88h-5.9Zm2.95,5.9v11.8H106.57V79.83h14.75Z"/><polygon class="cls-2" points="141.97 76.88 139.02 76.88 139.02 73.94 139.02 70.98 136.07 70.98 133.12 70.98 133.12 73.94 130.17 73.94 130.17 70.98 127.22 70.98 127.22 73.94 127.22 76.88 130.17 76.88 133.12 76.88 133.12 79.83 136.07 79.83 139.02 79.83 139.02 82.78 141.97 82.78 141.97 79.83 141.97 76.88"/><rect class="cls-2" x="180.3" y="76.88" width="2.95" height="2.95"/><polygon class="cls-2" points="112.47 82.78 109.52 82.78 109.52 85.73 109.52 88.68 109.52 91.63 112.47 91.63 115.42 91.63 118.37 91.63 118.37 88.68 118.37 85.73 118.37 82.78 115.42 82.78 112.47 82.78"/><rect class="cls-2" x="127.22" y="82.78" width="2.95" height="2.95"/><rect class="cls-2" x="133.12" y="82.78" width="2.95" height="2.95"/><rect class="cls-2" x="141.96" y="82.78" width="2.95" height="2.95"/><rect class="cls-2" x="139.02" y="85.73" width="2.95" height="2.95"/><polygon class="cls-2" points="130.17 88.68 127.22 88.68 127.22 91.63 130.17 91.63 133.12 91.63 133.12 88.68 130.17 88.68"/><rect class="cls-2" x="198" y="88.68" width="2.95" height="2.95"/><polygon class="cls-2" points="133.12 94.58 130.17 94.58 127.22 94.58 127.22 97.53 130.17 97.53 133.12 97.53 136.07 97.53 136.07 94.58 136.07 91.63 133.12 91.63 133.12 94.58"/><polygon class="cls-2" points="147.86 91.63 144.91 91.63 144.91 94.58 144.91 97.53 147.86 97.53 150.81 97.53 150.81 94.58 147.86 94.58 147.86 91.63"/><rect class="cls-2" x="180.3" y="91.63" width="2.95" height="2.95"/></svg>