<svg width="528" height="155" viewBox="0 0 528 155" fill="none" xmlns="http://www.w3.org/2000/svg">
<g clip-path="url(#clip0_56_22)">
<line x1="-226.451" y1="0.823254" x2="226.097" y2="-451.725" stroke="#E22626" stroke-width="0.5"/>
<line x1="-225.037" y1="2.23747" x2="227.512" y2="-450.311" stroke="#E22626" stroke-width="0.5"/>
<line x1="-223.623" y1="3.65168" x2="228.926" y2="-448.897" stroke="#E22626" stroke-width="0.5"/>
<line x1="-222.208" y1="5.0659" x2="230.34" y2="-447.482" stroke="#E22626" stroke-width="0.5"/>
<line x1="-220.794" y1="6.48011" x2="231.754" y2="-446.068" stroke="#E22626" stroke-width="0.5"/>
<line x1="-219.38" y1="7.89433" x2="233.168" y2="-444.654" stroke="#E22626" stroke-width="0.5"/>
<line x1="-217.966" y1="9.30854" x2="234.583" y2="-443.24" stroke="#E22626" stroke-width="0.5"/>
<line x1="-216.551" y1="10.7228" x2="235.997" y2="-441.826" stroke="#E22626" stroke-width="0.5"/>
<line x1="-215.137" y1="12.137" x2="237.411" y2="-440.411" stroke="#E22626" stroke-width="0.5"/>
<line x1="-213.723" y1="13.5512" x2="238.825" y2="-438.997" stroke="#E22626" stroke-width="0.5"/>
<line x1="-212.309" y1="14.9654" x2="240.24" y2="-437.583" stroke="#E22626" stroke-width="0.5"/>
<line x1="-210.895" y1="16.3796" x2="241.654" y2="-436.169" stroke="#E22626" stroke-width="0.5"/>
<line x1="-209.48" y1="17.7938" x2="243.068" y2="-434.755" stroke="#E22626" stroke-width="0.5"/>
<line x1="-208.066" y1="19.208" x2="244.482" y2="-433.34" stroke="#E22626" stroke-width="0.5"/>
<line x1="-206.652" y1="20.6222" x2="245.896" y2="-431.926" stroke="#E22626" stroke-width="0.5"/>
<line x1="-205.238" y1="22.0364" x2="247.311" y2="-430.512" stroke="#E22626" stroke-width="0.5"/>
<line x1="-203.824" y1="23.4507" x2="248.725" y2="-429.098" stroke="#E22626" stroke-width="0.5"/>
<line x1="-202.409" y1="24.8649" x2="250.139" y2="-427.684" stroke="#E22626" stroke-width="0.5"/>
<line x1="-200.995" y1="26.2791" x2="251.553" y2="-426.269" stroke="#E22626" stroke-width="0.5"/>
<line x1="-199.581" y1="27.6933" x2="252.967" y2="-424.855" stroke="#E22626" stroke-width="0.5"/>
<line x1="-198.167" y1="29.1075" x2="254.382" y2="-423.441" stroke="#E22626" stroke-width="0.5"/>
<line x1="-196.752" y1="30.5217" x2="255.796" y2="-422.027" stroke="#E22626" stroke-width="0.5"/>
<line x1="-195.338" y1="31.936" x2="257.21" y2="-420.612" stroke="#E22626" stroke-width="0.5"/>
<line x1="-193.924" y1="33.3502" x2="258.624" y2="-419.198" stroke="#E22626" stroke-width="0.5"/>
<line x1="-192.51" y1="34.7644" x2="260.039" y2="-417.784" stroke="#E22626" stroke-width="0.5"/>
<line x1="-191.096" y1="36.1786" x2="261.453" y2="-416.37" stroke="#E22626" stroke-width="0.5"/>
<line x1="-189.681" y1="37.5928" x2="262.867" y2="-414.956" stroke="#E22626" stroke-width="0.5"/>
<line x1="-188.267" y1="39.007" x2="264.281" y2="-413.541" stroke="#E22626" stroke-width="0.5"/>
<line x1="-186.853" y1="40.4212" x2="265.695" y2="-412.127" stroke="#E22626" stroke-width="0.5"/>
<line x1="-185.439" y1="41.8354" x2="267.11" y2="-410.713" stroke="#E22626" stroke-width="0.5"/>
<line x1="-184.025" y1="43.2497" x2="268.524" y2="-409.299" stroke="#E22626" stroke-width="0.5"/>
<line x1="-182.61" y1="44.6639" x2="269.938" y2="-407.885" stroke="#E22626" stroke-width="0.5"/>
<line x1="-181.196" y1="46.0781" x2="271.352" y2="-406.47" stroke="#E22626" stroke-width="0.5"/>
<line x1="-179.782" y1="47.4923" x2="272.766" y2="-405.056" stroke="#E22626" stroke-width="0.5"/>
<line x1="-178.368" y1="48.9065" x2="274.181" y2="-403.642" stroke="#E22626" stroke-width="0.5"/>
<line x1="-176.953" y1="50.3207" x2="275.595" y2="-402.228" stroke="#E22626" stroke-width="0.5"/>
<line x1="-175.539" y1="51.7349" x2="277.009" y2="-400.813" stroke="#E22626" stroke-width="0.5"/>
<line x1="-174.125" y1="53.1492" x2="278.423" y2="-399.399" stroke="#E22626" stroke-width="0.5"/>
<line x1="-172.711" y1="54.5634" x2="279.838" y2="-397.985" stroke="#E22626" stroke-width="0.5"/>
<line x1="-171.297" y1="55.9776" x2="281.252" y2="-396.571" stroke="#E22626" stroke-width="0.5"/>
<line x1="-169.882" y1="57.3918" x2="282.666" y2="-395.157" stroke="#E22626" stroke-width="0.5"/>
<line x1="-168.468" y1="58.806" x2="284.08" y2="-393.742" stroke="#E22626" stroke-width="0.5"/>
<line x1="-167.054" y1="60.2202" x2="285.494" y2="-392.328" stroke="#E22626" stroke-width="0.5"/>
<line x1="-165.64" y1="61.6344" x2="286.909" y2="-390.914" stroke="#E22626" stroke-width="0.5"/>
<line x1="-164.226" y1="63.0486" x2="288.323" y2="-389.5" stroke="#E22626" stroke-width="0.5"/>
<line x1="-162.811" y1="64.4629" x2="289.737" y2="-388.086" stroke="#E22626" stroke-width="0.5"/>
<line x1="-161.397" y1="65.8771" x2="291.151" y2="-386.671" stroke="#E22626" stroke-width="0.5"/>
<line x1="-159.983" y1="67.2913" x2="292.565" y2="-385.257" stroke="#E22626" stroke-width="0.5"/>
<line x1="-158.569" y1="68.7055" x2="293.98" y2="-383.843" stroke="#E22626" stroke-width="0.5"/>
<line x1="-157.154" y1="70.1197" x2="295.394" y2="-382.429" stroke="#E22626" stroke-width="0.5"/>
<line x1="-155.74" y1="71.5339" x2="296.808" y2="-381.014" stroke="#E22626" stroke-width="0.5"/>
<line x1="-154.326" y1="72.9482" x2="298.222" y2="-379.6" stroke="#E22626" stroke-width="0.5"/>
<line x1="-152.912" y1="74.3623" x2="299.637" y2="-378.186" stroke="#E22626" stroke-width="0.5"/>
<line x1="-151.498" y1="75.7766" x2="301.051" y2="-376.772" stroke="#E22626" stroke-width="0.5"/>
<line x1="-150.083" y1="77.1908" x2="302.465" y2="-375.358" stroke="#E22626" stroke-width="0.5"/>
<line x1="-148.669" y1="78.605" x2="303.879" y2="-373.943" stroke="#E22626" stroke-width="0.5"/>
<line x1="-147.255" y1="80.0192" x2="305.293" y2="-372.529" stroke="#E22626" stroke-width="0.5"/>
<line x1="-145.841" y1="81.4335" x2="306.708" y2="-371.115" stroke="#E22626" stroke-width="0.5"/>
<line x1="-144.427" y1="82.8476" x2="308.122" y2="-369.701" stroke="#E22626" stroke-width="0.5"/>
<line x1="-143.012" y1="84.2618" x2="309.536" y2="-368.287" stroke="#E22626" stroke-width="0.5"/>
<line x1="-141.598" y1="85.6761" x2="310.95" y2="-366.872" stroke="#E22626" stroke-width="0.5"/>
<line x1="-140.184" y1="87.0903" x2="312.364" y2="-365.458" stroke="#E22626" stroke-width="0.5"/>
<line x1="-138.77" y1="88.5045" x2="313.779" y2="-364.044" stroke="#E22626" stroke-width="0.5"/>
<line x1="-137.355" y1="89.9187" x2="315.193" y2="-362.63" stroke="#E22626" stroke-width="0.5"/>
<line x1="-135.941" y1="91.3329" x2="316.607" y2="-361.215" stroke="#E22626" stroke-width="0.5"/>
<line x1="-134.527" y1="92.7471" x2="318.021" y2="-359.801" stroke="#E22626" stroke-width="0.5"/>
<line x1="-133.113" y1="94.1614" x2="319.435" y2="-358.387" stroke="#E22626" stroke-width="0.5"/>
<line x1="-131.699" y1="95.5755" x2="320.85" y2="-356.973" stroke="#E22626" stroke-width="0.5"/>
<line x1="-130.284" y1="96.9898" x2="322.264" y2="-355.559" stroke="#E22626" stroke-width="0.5"/>
<line x1="-128.87" y1="98.404" x2="323.678" y2="-354.144" stroke="#E22626" stroke-width="0.5"/>
<line x1="-127.456" y1="99.8182" x2="325.092" y2="-352.73" stroke="#E22626" stroke-width="0.5"/>
<line x1="-126.042" y1="101.232" x2="326.507" y2="-351.316" stroke="#E22626" stroke-width="0.5"/>
<line x1="-124.628" y1="102.647" x2="327.921" y2="-349.902" stroke="#E22626" stroke-width="0.5"/>
<line x1="-123.213" y1="104.061" x2="329.335" y2="-348.488" stroke="#E22626" stroke-width="0.5"/>
<line x1="-121.799" y1="105.475" x2="330.749" y2="-347.073" stroke="#E22626" stroke-width="0.5"/>
<line x1="-120.385" y1="106.889" x2="332.163" y2="-345.659" stroke="#E22626" stroke-width="0.5"/>
<line x1="-118.971" y1="108.304" x2="333.578" y2="-344.245" stroke="#E22626" stroke-width="0.5"/>
<line x1="-117.557" y1="109.718" x2="334.992" y2="-342.831" stroke="#E22626" stroke-width="0.5"/>
<line x1="-116.142" y1="111.132" x2="336.406" y2="-341.416" stroke="#E22626" stroke-width="0.5"/>
<line x1="-114.728" y1="112.546" x2="337.82" y2="-340.002" stroke="#E22626" stroke-width="0.5"/>
<line x1="-113.314" y1="113.96" x2="339.234" y2="-338.588" stroke="#E22626" stroke-width="0.5"/>
<line x1="-111.9" y1="115.375" x2="340.649" y2="-337.174" stroke="#E22626" stroke-width="0.5"/>
<line x1="-110.485" y1="116.789" x2="342.063" y2="-335.76" stroke="#E22626" stroke-width="0.5"/>
<line x1="-109.071" y1="118.203" x2="343.477" y2="-334.345" stroke="#E22626" stroke-width="0.5"/>
<line x1="-107.657" y1="119.617" x2="344.891" y2="-332.931" stroke="#E22626" stroke-width="0.5"/>
<line x1="-106.243" y1="121.031" x2="346.306" y2="-331.517" stroke="#E22626" stroke-width="0.5"/>
<line x1="-104.829" y1="122.446" x2="347.72" y2="-330.103" stroke="#E22626" stroke-width="0.5"/>
<line x1="-103.414" y1="123.86" x2="349.134" y2="-328.689" stroke="#E22626" stroke-width="0.5"/>
<line x1="-102" y1="125.274" x2="350.548" y2="-327.274" stroke="#E22626" stroke-width="0.5"/>
<line x1="-100.586" y1="126.688" x2="351.962" y2="-325.86" stroke="#E22626" stroke-width="0.5"/>
<line x1="-99.1717" y1="128.102" x2="353.377" y2="-324.446" stroke="#E22626" stroke-width="0.5"/>
<line x1="-97.7575" y1="129.517" x2="354.791" y2="-323.032" stroke="#E22626" stroke-width="0.5"/>
<line x1="-96.3433" y1="130.931" x2="356.205" y2="-321.617" stroke="#E22626" stroke-width="0.5"/>
<line x1="-94.9291" y1="132.345" x2="357.619" y2="-320.203" stroke="#E22626" stroke-width="0.5"/>
<line x1="-93.5149" y1="133.759" x2="359.033" y2="-318.789" stroke="#E22626" stroke-width="0.5"/>
<line x1="-92.1007" y1="135.174" x2="360.448" y2="-317.375" stroke="#E22626" stroke-width="0.5"/>
<line x1="-90.6865" y1="136.588" x2="361.862" y2="-315.961" stroke="#E22626" stroke-width="0.5"/>
<line x1="-89.2722" y1="138.002" x2="363.276" y2="-314.546" stroke="#E22626" stroke-width="0.5"/>
<line x1="-87.858" y1="139.416" x2="364.69" y2="-313.132" stroke="#E22626" stroke-width="0.5"/>
<line x1="-86.4438" y1="140.83" x2="366.105" y2="-311.718" stroke="#E22626" stroke-width="0.5"/>
<line x1="-85.0296" y1="142.245" x2="367.519" y2="-310.304" stroke="#E22626" stroke-width="0.5"/>
<line x1="-83.6154" y1="143.659" x2="368.933" y2="-308.89" stroke="#E22626" stroke-width="0.5"/>
<line x1="-82.2012" y1="145.073" x2="370.347" y2="-307.475" stroke="#E22626" stroke-width="0.5"/>
<line x1="-80.7869" y1="146.487" x2="371.761" y2="-306.061" stroke="#E22626" stroke-width="0.5"/>
<line x1="-79.3727" y1="147.901" x2="373.176" y2="-304.647" stroke="#E22626" stroke-width="0.5"/>
<line x1="-77.9585" y1="149.316" x2="374.59" y2="-303.233" stroke="#E22626" stroke-width="0.5"/>
<line x1="-76.5443" y1="150.73" x2="376.004" y2="-301.818" stroke="#E22626" stroke-width="0.5"/>
<line x1="-75.1301" y1="152.144" x2="377.418" y2="-300.404" stroke="#E22626" stroke-width="0.5"/>
<line x1="-73.7159" y1="153.558" x2="378.832" y2="-298.99" stroke="#E22626" stroke-width="0.5"/>
<line x1="-72.3017" y1="154.973" x2="380.247" y2="-297.576" stroke="#E22626" stroke-width="0.5"/>
<line x1="-70.8875" y1="156.387" x2="381.661" y2="-296.162" stroke="#E22626" stroke-width="0.5"/>
<line x1="-69.4732" y1="157.801" x2="383.075" y2="-294.747" stroke="#E22626" stroke-width="0.5"/>
<line x1="-68.059" y1="159.215" x2="384.489" y2="-293.333" stroke="#E22626" stroke-width="0.5"/>
<line x1="-66.6448" y1="160.629" x2="385.904" y2="-291.919" stroke="#E22626" stroke-width="0.5"/>
<line x1="-65.2306" y1="162.044" x2="387.318" y2="-290.505" stroke="#E22626" stroke-width="0.5"/>
<line x1="-63.8164" y1="163.458" x2="388.732" y2="-289.091" stroke="#E22626" stroke-width="0.5"/>
<line x1="-62.4022" y1="164.872" x2="390.146" y2="-287.676" stroke="#E22626" stroke-width="0.5"/>
<line x1="-60.988" y1="166.286" x2="391.56" y2="-286.262" stroke="#E22626" stroke-width="0.5"/>
<line x1="-59.5737" y1="167.7" x2="392.975" y2="-284.848" stroke="#E22626" stroke-width="0.5"/>
<line x1="-58.1595" y1="169.115" x2="394.389" y2="-283.434" stroke="#E22626" stroke-width="0.5"/>
<line x1="-56.7453" y1="170.529" x2="395.803" y2="-282.019" stroke="#E22626" stroke-width="0.5"/>
<line x1="-55.3311" y1="171.943" x2="397.217" y2="-280.605" stroke="#E22626" stroke-width="0.5"/>
<line x1="-53.9169" y1="173.357" x2="398.631" y2="-279.191" stroke="#E22626" stroke-width="0.5"/>
<line x1="-52.5027" y1="174.772" x2="400.046" y2="-277.777" stroke="#E22626" stroke-width="0.5"/>
<line x1="-51.0885" y1="176.186" x2="401.46" y2="-276.363" stroke="#E22626" stroke-width="0.5"/>
<line x1="-49.6742" y1="177.6" x2="402.874" y2="-274.948" stroke="#E22626" stroke-width="0.5"/>
<line x1="-48.26" y1="179.014" x2="404.288" y2="-273.534" stroke="#E22626" stroke-width="0.5"/>
<line x1="-46.8458" y1="180.428" x2="405.703" y2="-272.12" stroke="#E22626" stroke-width="0.5"/>
<line x1="-45.4316" y1="181.843" x2="407.117" y2="-270.706" stroke="#E22626" stroke-width="0.5"/>
<line x1="-44.0174" y1="183.257" x2="408.531" y2="-269.292" stroke="#E22626" stroke-width="0.5"/>
<line x1="-42.6032" y1="184.671" x2="409.945" y2="-267.877" stroke="#E22626" stroke-width="0.5"/>
<line x1="-41.189" y1="186.085" x2="411.359" y2="-266.463" stroke="#E22626" stroke-width="0.5"/>
<line x1="-39.7748" y1="187.499" x2="412.774" y2="-265.049" stroke="#E22626" stroke-width="0.5"/>
<line x1="-38.3606" y1="188.914" x2="414.188" y2="-263.635" stroke="#E22626" stroke-width="0.5"/>
<line x1="-36.9463" y1="190.328" x2="415.602" y2="-262.221" stroke="#E22626" stroke-width="0.5"/>
<line x1="-35.5321" y1="191.742" x2="417.016" y2="-260.806" stroke="#E22626" stroke-width="0.5"/>
<line x1="-34.1179" y1="193.156" x2="418.43" y2="-259.392" stroke="#E22626" stroke-width="0.5"/>
<line x1="-32.7037" y1="194.571" x2="419.845" y2="-257.978" stroke="#E22626" stroke-width="0.5"/>
<line x1="-31.2895" y1="195.985" x2="421.259" y2="-256.564" stroke="#E22626" stroke-width="0.5"/>
<line x1="-29.8753" y1="197.399" x2="422.673" y2="-255.149" stroke="#E22626" stroke-width="0.5"/>
<line x1="-28.461" y1="198.813" x2="424.087" y2="-253.735" stroke="#E22626" stroke-width="0.5"/>
<line x1="-27.0468" y1="200.227" x2="425.502" y2="-252.321" stroke="#E22626" stroke-width="0.5"/>
<line x1="-25.6326" y1="201.642" x2="426.916" y2="-250.907" stroke="#E22626" stroke-width="0.5"/>
<line x1="-24.2184" y1="203.056" x2="428.33" y2="-249.493" stroke="#E22626" stroke-width="0.5"/>
<line x1="-22.8042" y1="204.47" x2="429.744" y2="-248.078" stroke="#E22626" stroke-width="0.5"/>
<line x1="-21.39" y1="205.884" x2="431.158" y2="-246.664" stroke="#E22626" stroke-width="0.5"/>
<line x1="-19.9758" y1="207.298" x2="432.573" y2="-245.25" stroke="#E22626" stroke-width="0.5"/>
<line x1="-18.5615" y1="208.713" x2="433.987" y2="-243.836" stroke="#E22626" stroke-width="0.5"/>
<line x1="-17.1473" y1="210.127" x2="435.401" y2="-242.421" stroke="#E22626" stroke-width="0.5"/>
<line x1="-15.7331" y1="211.541" x2="436.815" y2="-241.007" stroke="#E22626" stroke-width="0.5"/>
<line x1="-14.3189" y1="212.955" x2="438.229" y2="-239.593" stroke="#E22626" stroke-width="0.5"/>
<line x1="-12.9047" y1="214.369" x2="439.644" y2="-238.179" stroke="#E22626" stroke-width="0.5"/>
<line x1="-11.4905" y1="215.784" x2="441.058" y2="-236.765" stroke="#E22626" stroke-width="0.5"/>
<line x1="-10.0763" y1="217.198" x2="442.472" y2="-235.35" stroke="#E22626" stroke-width="0.5"/>
<line x1="-8.66207" y1="218.612" x2="443.886" y2="-233.936" stroke="#E22626" stroke-width="0.5"/>
<line x1="-7.24785" y1="220.026" x2="445.301" y2="-232.522" stroke="#E22626" stroke-width="0.5"/>
<line x1="-5.83364" y1="221.441" x2="446.715" y2="-231.108" stroke="#E22626" stroke-width="0.5"/>
<line x1="-4.41942" y1="222.855" x2="448.129" y2="-229.694" stroke="#E22626" stroke-width="0.5"/>
<line x1="-3.00521" y1="224.269" x2="449.543" y2="-228.279" stroke="#E22626" stroke-width="0.5"/>
<line x1="-1.59099" y1="225.683" x2="450.957" y2="-226.865" stroke="#E22626" stroke-width="0.5"/>
<line x1="-0.176777" y1="227.097" x2="452.372" y2="-225.451" stroke="#E22626" stroke-width="0.5"/>
<line x1="1.23744" y1="228.512" x2="453.786" y2="-224.037" stroke="#E22626" stroke-width="0.5"/>
<line x1="2.65165" y1="229.926" x2="455.2" y2="-222.622" stroke="#E22626" stroke-width="0.5"/>
<line x1="4.06584" y1="231.34" x2="456.614" y2="-221.208" stroke="#E22626" stroke-width="0.5"/>
<line x1="5.48008" y1="232.754" x2="458.028" y2="-219.794" stroke="#E22626" stroke-width="0.5"/>
<line x1="6.89427" y1="234.168" x2="459.443" y2="-218.38" stroke="#E22626" stroke-width="0.5"/>
<line x1="8.30851" y1="235.583" x2="460.857" y2="-216.966" stroke="#E22626" stroke-width="0.5"/>
<line x1="9.7227" y1="236.997" x2="462.271" y2="-215.551" stroke="#E22626" stroke-width="0.5"/>
<line x1="11.1369" y1="238.411" x2="463.685" y2="-214.137" stroke="#E22626" stroke-width="0.5"/>
<line x1="12.5511" y1="239.825" x2="465.099" y2="-212.723" stroke="#E22626" stroke-width="0.5"/>
<line x1="13.9654" y1="241.24" x2="466.514" y2="-211.309" stroke="#E22626" stroke-width="0.5"/>
<line x1="15.3796" y1="242.654" x2="467.928" y2="-209.895" stroke="#E22626" stroke-width="0.5"/>
<line x1="16.7938" y1="244.068" x2="469.342" y2="-208.48" stroke="#E22626" stroke-width="0.5"/>
<line x1="18.208" y1="245.482" x2="470.756" y2="-207.066" stroke="#E22626" stroke-width="0.5"/>
<line x1="19.6222" y1="246.896" x2="472.171" y2="-205.652" stroke="#E22626" stroke-width="0.5"/>
<line x1="21.0364" y1="248.311" x2="473.585" y2="-204.238" stroke="#E22626" stroke-width="0.5"/>
<line x1="22.4507" y1="249.725" x2="474.999" y2="-202.824" stroke="#E22626" stroke-width="0.5"/>
<line x1="23.8648" y1="251.139" x2="476.413" y2="-201.409" stroke="#E22626" stroke-width="0.5"/>
<line x1="25.2791" y1="252.553" x2="477.827" y2="-199.995" stroke="#E22626" stroke-width="0.5"/>
<line x1="26.6933" y1="253.968" x2="479.242" y2="-198.581" stroke="#E22626" stroke-width="0.5"/>
<line x1="28.1075" y1="255.382" x2="480.656" y2="-197.167" stroke="#E22626" stroke-width="0.5"/>
<line x1="29.5217" y1="256.796" x2="482.07" y2="-195.752" stroke="#E22626" stroke-width="0.5"/>
<line x1="30.9359" y1="258.21" x2="483.484" y2="-194.338" stroke="#E22626" stroke-width="0.5"/>
<line x1="32.3501" y1="259.624" x2="484.898" y2="-192.924" stroke="#E22626" stroke-width="0.5"/>
<line x1="33.7643" y1="261.039" x2="486.313" y2="-191.51" stroke="#E22626" stroke-width="0.5"/>
<line x1="35.1786" y1="262.453" x2="487.727" y2="-190.096" stroke="#E22626" stroke-width="0.5"/>
<line x1="36.5928" y1="263.867" x2="489.141" y2="-188.681" stroke="#E22626" stroke-width="0.5"/>
<line x1="38.007" y1="265.281" x2="490.555" y2="-187.267" stroke="#E22626" stroke-width="0.5"/>
<line x1="39.4212" y1="266.695" x2="491.97" y2="-185.853" stroke="#E22626" stroke-width="0.5"/>
<line x1="40.8354" y1="268.11" x2="493.384" y2="-184.439" stroke="#E22626" stroke-width="0.5"/>
<line x1="42.2496" y1="269.524" x2="494.798" y2="-183.025" stroke="#E22626" stroke-width="0.5"/>
<line x1="43.6639" y1="270.938" x2="496.212" y2="-181.61" stroke="#E22626" stroke-width="0.5"/>
<line x1="45.078" y1="272.352" x2="497.626" y2="-180.196" stroke="#E22626" stroke-width="0.5"/>
<line x1="46.4923" y1="273.766" x2="499.041" y2="-178.782" stroke="#E22626" stroke-width="0.5"/>
<line x1="47.9065" y1="275.181" x2="500.455" y2="-177.368" stroke="#E22626" stroke-width="0.5"/>
<line x1="49.3207" y1="276.595" x2="501.869" y2="-175.953" stroke="#E22626" stroke-width="0.5"/>
<line x1="50.7349" y1="278.009" x2="503.283" y2="-174.539" stroke="#E22626" stroke-width="0.5"/>
<line x1="52.1492" y1="279.423" x2="504.698" y2="-173.125" stroke="#E22626" stroke-width="0.5"/>
<line x1="53.5633" y1="280.838" x2="506.112" y2="-171.711" stroke="#E22626" stroke-width="0.5"/>
<line x1="54.9775" y1="282.252" x2="507.526" y2="-170.297" stroke="#E22626" stroke-width="0.5"/>
<line x1="56.3918" y1="283.666" x2="508.94" y2="-168.882" stroke="#E22626" stroke-width="0.5"/>
<line x1="57.806" y1="285.08" x2="510.354" y2="-167.468" stroke="#E22626" stroke-width="0.5"/>
<line x1="59.2202" y1="286.494" x2="511.769" y2="-166.054" stroke="#E22626" stroke-width="0.5"/>
<line x1="60.6344" y1="287.909" x2="513.183" y2="-164.64" stroke="#E22626" stroke-width="0.5"/>
<line x1="62.0486" y1="289.323" x2="514.597" y2="-163.226" stroke="#E22626" stroke-width="0.5"/>
<line x1="63.4628" y1="290.737" x2="516.011" y2="-161.811" stroke="#E22626" stroke-width="0.5"/>
<line x1="64.8771" y1="292.151" x2="517.425" y2="-160.397" stroke="#E22626" stroke-width="0.5"/>
<line x1="66.2912" y1="293.565" x2="518.84" y2="-158.983" stroke="#E22626" stroke-width="0.5"/>
<line x1="67.7055" y1="294.98" x2="520.254" y2="-157.569" stroke="#E22626" stroke-width="0.5"/>
<line x1="69.1197" y1="296.394" x2="521.668" y2="-156.154" stroke="#E22626" stroke-width="0.5"/>
<line x1="70.5339" y1="297.808" x2="523.082" y2="-154.74" stroke="#E22626" stroke-width="0.5"/>
<line x1="71.9481" y1="299.222" x2="524.496" y2="-153.326" stroke="#E22626" stroke-width="0.5"/>
<line x1="73.3623" y1="300.637" x2="525.911" y2="-151.912" stroke="#E22626" stroke-width="0.5"/>
<line x1="74.7765" y1="302.051" x2="527.325" y2="-150.498" stroke="#E22626" stroke-width="0.5"/>
<line x1="76.1908" y1="303.465" x2="528.739" y2="-149.083" stroke="#E22626" stroke-width="0.5"/>
<line x1="77.605" y1="304.879" x2="530.153" y2="-147.669" stroke="#E22626" stroke-width="0.5"/>
<line x1="79.0192" y1="306.293" x2="531.568" y2="-146.255" stroke="#E22626" stroke-width="0.5"/>
<line x1="80.4334" y1="307.708" x2="532.982" y2="-144.841" stroke="#E22626" stroke-width="0.5"/>
<line x1="81.8476" y1="309.122" x2="534.396" y2="-143.427" stroke="#E22626" stroke-width="0.5"/>
<line x1="83.2618" y1="310.536" x2="535.81" y2="-142.012" stroke="#E22626" stroke-width="0.5"/>
<line x1="84.676" y1="311.95" x2="537.224" y2="-140.598" stroke="#E22626" stroke-width="0.5"/>
<line x1="86.0903" y1="313.364" x2="538.639" y2="-139.184" stroke="#E22626" stroke-width="0.5"/>
<line x1="87.5045" y1="314.779" x2="540.053" y2="-137.77" stroke="#E22626" stroke-width="0.5"/>
<line x1="88.9187" y1="316.193" x2="541.467" y2="-136.356" stroke="#E22626" stroke-width="0.5"/>
<line x1="90.3329" y1="317.607" x2="542.881" y2="-134.941" stroke="#E22626" stroke-width="0.5"/>
<line x1="91.7471" y1="319.021" x2="544.295" y2="-133.527" stroke="#E22626" stroke-width="0.5"/>
<line x1="93.1613" y1="320.436" x2="545.71" y2="-132.113" stroke="#E22626" stroke-width="0.5"/>
<line x1="94.5755" y1="321.85" x2="547.124" y2="-130.699" stroke="#E22626" stroke-width="0.5"/>
<line x1="95.9897" y1="323.264" x2="548.538" y2="-129.284" stroke="#E22626" stroke-width="0.5"/>
<line x1="97.404" y1="324.678" x2="549.952" y2="-127.87" stroke="#E22626" stroke-width="0.5"/>
<line x1="98.8182" y1="326.092" x2="551.367" y2="-126.456" stroke="#E22626" stroke-width="0.5"/>
<line x1="100.232" y1="327.507" x2="552.781" y2="-125.042" stroke="#E22626" stroke-width="0.5"/>
<line x1="101.647" y1="328.921" x2="554.195" y2="-123.628" stroke="#E22626" stroke-width="0.5"/>
<line x1="103.061" y1="330.335" x2="555.609" y2="-122.213" stroke="#E22626" stroke-width="0.5"/>
<line x1="104.475" y1="331.749" x2="557.023" y2="-120.799" stroke="#E22626" stroke-width="0.5"/>
<line x1="105.889" y1="333.163" x2="558.438" y2="-119.385" stroke="#E22626" stroke-width="0.5"/>
<line x1="107.303" y1="334.578" x2="559.852" y2="-117.971" stroke="#E22626" stroke-width="0.5"/>
<line x1="108.718" y1="335.992" x2="561.266" y2="-116.557" stroke="#E22626" stroke-width="0.5"/>
<line x1="110.132" y1="337.406" x2="562.68" y2="-115.142" stroke="#E22626" stroke-width="0.5"/>
<line x1="111.546" y1="338.82" x2="564.094" y2="-113.728" stroke="#E22626" stroke-width="0.5"/>
<line x1="112.96" y1="340.234" x2="565.509" y2="-112.314" stroke="#E22626" stroke-width="0.5"/>
<line x1="114.374" y1="341.649" x2="566.923" y2="-110.9" stroke="#E22626" stroke-width="0.5"/>
<line x1="115.789" y1="343.063" x2="568.337" y2="-109.485" stroke="#E22626" stroke-width="0.5"/>
<line x1="117.203" y1="344.477" x2="569.751" y2="-108.071" stroke="#E22626" stroke-width="0.5"/>
<line x1="118.617" y1="345.891" x2="571.166" y2="-106.657" stroke="#E22626" stroke-width="0.5"/>
<line x1="120.031" y1="347.306" x2="572.58" y2="-105.243" stroke="#E22626" stroke-width="0.5"/>
<line x1="121.446" y1="348.72" x2="573.994" y2="-103.829" stroke="#E22626" stroke-width="0.5"/>
<line x1="122.86" y1="350.134" x2="575.408" y2="-102.414" stroke="#E22626" stroke-width="0.5"/>
<line x1="124.274" y1="351.548" x2="576.822" y2="-101" stroke="#E22626" stroke-width="0.5"/>
<line x1="125.688" y1="352.962" x2="578.237" y2="-99.5859" stroke="#E22626" stroke-width="0.5"/>
<line x1="127.102" y1="354.377" x2="579.651" y2="-98.1717" stroke="#E22626" stroke-width="0.5"/>
<line x1="128.517" y1="355.791" x2="581.065" y2="-96.7575" stroke="#E22626" stroke-width="0.5"/>
<line x1="129.931" y1="357.205" x2="582.479" y2="-95.3433" stroke="#E22626" stroke-width="0.5"/>
<line x1="131.345" y1="358.619" x2="583.893" y2="-93.9291" stroke="#E22626" stroke-width="0.5"/>
<line x1="132.759" y1="360.033" x2="585.308" y2="-92.5149" stroke="#E22626" stroke-width="0.5"/>
<line x1="134.174" y1="361.448" x2="586.722" y2="-91.1006" stroke="#E22626" stroke-width="0.5"/>
<line x1="135.588" y1="362.862" x2="588.136" y2="-89.6864" stroke="#E22626" stroke-width="0.5"/>
<line x1="137.002" y1="364.276" x2="589.55" y2="-88.2723" stroke="#E22626" stroke-width="0.5"/>
<line x1="138.416" y1="365.69" x2="590.964" y2="-86.858" stroke="#E22626" stroke-width="0.5"/>
<line x1="139.83" y1="367.105" x2="592.379" y2="-85.4438" stroke="#E22626" stroke-width="0.5"/>
<line x1="141.245" y1="368.519" x2="593.793" y2="-84.0296" stroke="#E22626" stroke-width="0.5"/>
<line x1="142.659" y1="369.933" x2="595.207" y2="-82.6154" stroke="#E22626" stroke-width="0.5"/>
<line x1="144.073" y1="371.347" x2="596.621" y2="-81.2012" stroke="#E22626" stroke-width="0.5"/>
<line x1="145.487" y1="372.761" x2="598.036" y2="-79.7869" stroke="#E22626" stroke-width="0.5"/>
<line x1="146.901" y1="374.176" x2="599.45" y2="-78.3727" stroke="#E22626" stroke-width="0.5"/>
<line x1="148.316" y1="375.59" x2="600.864" y2="-76.9585" stroke="#E22626" stroke-width="0.5"/>
<line x1="149.73" y1="377.004" x2="602.278" y2="-75.5443" stroke="#E22626" stroke-width="0.5"/>
<line x1="151.144" y1="378.418" x2="603.692" y2="-74.1301" stroke="#E22626" stroke-width="0.5"/>
<line x1="152.558" y1="379.833" x2="605.107" y2="-72.7159" stroke="#E22626" stroke-width="0.5"/>
<line x1="153.973" y1="381.247" x2="606.521" y2="-71.3017" stroke="#E22626" stroke-width="0.5"/>
<line x1="155.387" y1="382.661" x2="607.935" y2="-69.8874" stroke="#E22626" stroke-width="0.5"/>
<line x1="156.801" y1="384.075" x2="609.349" y2="-68.4733" stroke="#E22626" stroke-width="0.5"/>
<line x1="158.215" y1="385.489" x2="610.763" y2="-67.059" stroke="#E22626" stroke-width="0.5"/>
<line x1="159.629" y1="386.904" x2="612.178" y2="-65.6448" stroke="#E22626" stroke-width="0.5"/>
<line x1="161.044" y1="388.318" x2="613.592" y2="-64.2306" stroke="#E22626" stroke-width="0.5"/>
<line x1="162.458" y1="389.732" x2="615.006" y2="-62.8164" stroke="#E22626" stroke-width="0.5"/>
<line x1="163.872" y1="391.146" x2="616.42" y2="-61.4021" stroke="#E22626" stroke-width="0.5"/>
<line x1="165.286" y1="392.56" x2="617.835" y2="-59.988" stroke="#E22626" stroke-width="0.5"/>
<line x1="166.7" y1="393.975" x2="619.249" y2="-58.5738" stroke="#E22626" stroke-width="0.5"/>
<line x1="168.115" y1="395.389" x2="620.663" y2="-57.1595" stroke="#E22626" stroke-width="0.5"/>
<line x1="169.529" y1="396.803" x2="622.077" y2="-55.7453" stroke="#E22626" stroke-width="0.5"/>
<line x1="170.943" y1="398.217" x2="623.491" y2="-54.3311" stroke="#E22626" stroke-width="0.5"/>
<line x1="172.357" y1="399.631" x2="624.906" y2="-52.9169" stroke="#E22626" stroke-width="0.5"/>
<line x1="173.771" y1="401.046" x2="626.32" y2="-51.5027" stroke="#E22626" stroke-width="0.5"/>
<line x1="175.186" y1="402.46" x2="627.734" y2="-50.0884" stroke="#E22626" stroke-width="0.5"/>
<line x1="176.6" y1="403.874" x2="629.148" y2="-48.6742" stroke="#E22626" stroke-width="0.5"/>
<line x1="178.014" y1="405.288" x2="630.562" y2="-47.2601" stroke="#E22626" stroke-width="0.5"/>
<line x1="179.428" y1="406.703" x2="631.977" y2="-45.8458" stroke="#E22626" stroke-width="0.5"/>
<line x1="180.843" y1="408.117" x2="633.391" y2="-44.4316" stroke="#E22626" stroke-width="0.5"/>
<line x1="182.257" y1="409.531" x2="634.805" y2="-43.0174" stroke="#E22626" stroke-width="0.5"/>
<line x1="183.671" y1="410.945" x2="636.219" y2="-41.6032" stroke="#E22626" stroke-width="0.5"/>
<line x1="185.085" y1="412.359" x2="637.634" y2="-40.189" stroke="#E22626" stroke-width="0.5"/>
<line x1="186.499" y1="413.774" x2="639.048" y2="-38.7748" stroke="#E22626" stroke-width="0.5"/>
<line x1="187.914" y1="415.188" x2="640.462" y2="-37.3605" stroke="#E22626" stroke-width="0.5"/>
<line x1="189.328" y1="416.602" x2="641.876" y2="-35.9463" stroke="#E22626" stroke-width="0.5"/>
<line x1="190.742" y1="418.016" x2="643.29" y2="-34.5322" stroke="#E22626" stroke-width="0.5"/>
<line x1="192.156" y1="419.43" x2="644.705" y2="-33.1179" stroke="#E22626" stroke-width="0.5"/>
<line x1="193.57" y1="420.845" x2="646.119" y2="-31.7037" stroke="#E22626" stroke-width="0.5"/>
<line x1="194.985" y1="422.259" x2="647.533" y2="-30.2895" stroke="#E22626" stroke-width="0.5"/>
<line x1="196.399" y1="423.673" x2="648.947" y2="-28.8753" stroke="#E22626" stroke-width="0.5"/>
<line x1="197.813" y1="425.087" x2="650.361" y2="-27.461" stroke="#E22626" stroke-width="0.5"/>
<line x1="199.227" y1="426.502" x2="651.776" y2="-26.0468" stroke="#E22626" stroke-width="0.5"/>
<line x1="200.642" y1="427.916" x2="653.19" y2="-24.6326" stroke="#E22626" stroke-width="0.5"/>
<line x1="202.056" y1="429.33" x2="654.604" y2="-23.2184" stroke="#E22626" stroke-width="0.5"/>
<line x1="203.47" y1="430.744" x2="656.018" y2="-21.8042" stroke="#E22626" stroke-width="0.5"/>
<line x1="204.884" y1="432.158" x2="657.433" y2="-20.3899" stroke="#E22626" stroke-width="0.5"/>
<line x1="206.298" y1="433.573" x2="658.847" y2="-18.9758" stroke="#E22626" stroke-width="0.5"/>
<line x1="207.713" y1="434.987" x2="660.261" y2="-17.5616" stroke="#E22626" stroke-width="0.5"/>
<line x1="209.127" y1="436.401" x2="661.675" y2="-16.1473" stroke="#E22626" stroke-width="0.5"/>
<line x1="210.541" y1="437.815" x2="663.089" y2="-14.7331" stroke="#E22626" stroke-width="0.5"/>
<line x1="211.955" y1="439.229" x2="664.504" y2="-13.3189" stroke="#E22626" stroke-width="0.5"/>
<line x1="213.369" y1="440.644" x2="665.918" y2="-11.9047" stroke="#E22626" stroke-width="0.5"/>
<line x1="214.784" y1="442.058" x2="667.332" y2="-10.4905" stroke="#E22626" stroke-width="0.5"/>
<line x1="216.198" y1="443.472" x2="668.746" y2="-9.07628" stroke="#E22626" stroke-width="0.5"/>
<line x1="217.612" y1="444.886" x2="670.16" y2="-7.66204" stroke="#E22626" stroke-width="0.5"/>
<line x1="219.026" y1="446.301" x2="671.575" y2="-6.24785" stroke="#E22626" stroke-width="0.5"/>
<line x1="220.441" y1="447.715" x2="672.989" y2="-4.83367" stroke="#E22626" stroke-width="0.5"/>
<line x1="221.855" y1="449.129" x2="674.403" y2="-3.41942" stroke="#E22626" stroke-width="0.5"/>
<line x1="223.269" y1="450.543" x2="675.817" y2="-2.00518" stroke="#E22626" stroke-width="0.5"/>
<line x1="224.683" y1="451.957" x2="677.232" y2="-0.590992" stroke="#E22626" stroke-width="0.5"/>
<line x1="226.097" y1="453.372" x2="678.646" y2="0.823193" stroke="#E22626" stroke-width="0.5"/>
<line x1="227.512" y1="454.786" x2="680.06" y2="2.23744" stroke="#E22626" stroke-width="0.5"/>
<line x1="228.926" y1="456.2" x2="681.474" y2="3.65168" stroke="#E22626" stroke-width="0.5"/>
<line x1="230.34" y1="457.614" x2="682.888" y2="5.06587" stroke="#E22626" stroke-width="0.5"/>
<line x1="231.754" y1="459.028" x2="684.303" y2="6.48005" stroke="#E22626" stroke-width="0.5"/>
<line x1="233.168" y1="460.443" x2="685.717" y2="7.8943" stroke="#E22626" stroke-width="0.5"/>
<line x1="234.583" y1="461.857" x2="687.131" y2="9.30854" stroke="#E22626" stroke-width="0.5"/>
<line x1="235.997" y1="463.271" x2="688.545" y2="10.7227" stroke="#E22626" stroke-width="0.5"/>
<line x1="237.411" y1="464.685" x2="689.959" y2="12.1369" stroke="#E22626" stroke-width="0.5"/>
<line x1="238.825" y1="466.1" x2="691.374" y2="13.5512" stroke="#E22626" stroke-width="0.5"/>
<line x1="240.24" y1="467.514" x2="692.788" y2="14.9654" stroke="#E22626" stroke-width="0.5"/>
<line x1="241.654" y1="468.928" x2="694.202" y2="16.3796" stroke="#E22626" stroke-width="0.5"/>
<line x1="243.068" y1="470.342" x2="695.616" y2="17.7938" stroke="#E22626" stroke-width="0.5"/>
<line x1="244.482" y1="471.756" x2="697.031" y2="19.208" stroke="#E22626" stroke-width="0.5"/>
<line x1="245.896" y1="473.171" x2="698.445" y2="20.6222" stroke="#E22626" stroke-width="0.5"/>
<line x1="247.311" y1="474.585" x2="699.859" y2="22.0364" stroke="#E22626" stroke-width="0.5"/>
<line x1="248.725" y1="475.999" x2="701.273" y2="23.4506" stroke="#E22626" stroke-width="0.5"/>
<line x1="250.139" y1="477.413" x2="702.687" y2="24.8648" stroke="#E22626" stroke-width="0.5"/>
<line x1="251.553" y1="478.827" x2="704.102" y2="26.2791" stroke="#E22626" stroke-width="0.5"/>
<line x1="252.967" y1="480.242" x2="705.516" y2="27.6933" stroke="#E22626" stroke-width="0.5"/>
<line x1="254.382" y1="481.656" x2="706.93" y2="29.1075" stroke="#E22626" stroke-width="0.5"/>
<line x1="255.796" y1="483.07" x2="708.344" y2="30.5217" stroke="#E22626" stroke-width="0.5"/>
<line x1="257.21" y1="484.484" x2="709.758" y2="31.9359" stroke="#E22626" stroke-width="0.5"/>
<line x1="258.624" y1="485.899" x2="711.173" y2="33.3502" stroke="#E22626" stroke-width="0.5"/>
<line x1="260.039" y1="487.313" x2="712.587" y2="34.7644" stroke="#E22626" stroke-width="0.5"/>
<line x1="261.453" y1="488.727" x2="714.001" y2="36.1785" stroke="#E22626" stroke-width="0.5"/>
<line x1="262.867" y1="490.141" x2="715.415" y2="37.5928" stroke="#E22626" stroke-width="0.5"/>
<line x1="264.281" y1="491.555" x2="716.83" y2="39.007" stroke="#E22626" stroke-width="0.5"/>
<line x1="265.695" y1="492.97" x2="718.244" y2="40.4212" stroke="#E22626" stroke-width="0.5"/>
<line x1="267.11" y1="494.384" x2="719.658" y2="41.8354" stroke="#E22626" stroke-width="0.5"/>
<line x1="268.524" y1="495.798" x2="721.072" y2="43.2496" stroke="#E22626" stroke-width="0.5"/>
<line x1="269.938" y1="497.212" x2="722.486" y2="44.6638" stroke="#E22626" stroke-width="0.5"/>
<line x1="271.352" y1="498.626" x2="723.901" y2="46.0781" stroke="#E22626" stroke-width="0.5"/>
<line x1="272.766" y1="500.041" x2="725.315" y2="47.4923" stroke="#E22626" stroke-width="0.5"/>
<line x1="274.181" y1="501.455" x2="726.729" y2="48.9064" stroke="#E22626" stroke-width="0.5"/>
<line x1="275.595" y1="502.869" x2="728.143" y2="50.3207" stroke="#E22626" stroke-width="0.5"/>
<line x1="277.009" y1="504.283" x2="729.557" y2="51.7349" stroke="#E22626" stroke-width="0.5"/>
<line x1="278.423" y1="505.697" x2="730.972" y2="53.1491" stroke="#E22626" stroke-width="0.5"/>
<line x1="279.838" y1="507.112" x2="732.386" y2="54.5633" stroke="#E22626" stroke-width="0.5"/>
<line x1="281.252" y1="508.526" x2="733.8" y2="55.9776" stroke="#E22626" stroke-width="0.5"/>
<line x1="282.666" y1="509.94" x2="735.214" y2="57.3918" stroke="#E22626" stroke-width="0.5"/>
<line x1="284.08" y1="511.354" x2="736.629" y2="58.806" stroke="#E22626" stroke-width="0.5"/>
<line x1="285.494" y1="512.769" x2="738.043" y2="60.2202" stroke="#E22626" stroke-width="0.5"/>
<line x1="286.909" y1="514.183" x2="739.457" y2="61.6343" stroke="#E22626" stroke-width="0.5"/>
<line x1="288.323" y1="515.597" x2="740.871" y2="63.0487" stroke="#E22626" stroke-width="0.5"/>
<line x1="289.737" y1="517.011" x2="742.285" y2="64.4628" stroke="#E22626" stroke-width="0.5"/>
<line x1="291.151" y1="518.425" x2="743.7" y2="65.877" stroke="#E22626" stroke-width="0.5"/>
<line x1="292.565" y1="519.84" x2="745.114" y2="67.2912" stroke="#E22626" stroke-width="0.5"/>
<line x1="293.98" y1="521.254" x2="746.528" y2="68.7055" stroke="#E22626" stroke-width="0.5"/>
<line x1="295.394" y1="522.668" x2="747.942" y2="70.1197" stroke="#E22626" stroke-width="0.5"/>
<line x1="296.808" y1="524.082" x2="749.356" y2="71.5339" stroke="#E22626" stroke-width="0.5"/>
<line x1="298.222" y1="525.496" x2="750.771" y2="72.9481" stroke="#E22626" stroke-width="0.5"/>
<line x1="299.636" y1="526.911" x2="752.185" y2="74.3624" stroke="#E22626" stroke-width="0.5"/>
<line x1="301.051" y1="528.325" x2="753.599" y2="75.7766" stroke="#E22626" stroke-width="0.5"/>
<line x1="302.465" y1="529.739" x2="755.013" y2="77.1908" stroke="#E22626" stroke-width="0.5"/>
<line x1="303.879" y1="531.153" x2="756.427" y2="78.6049" stroke="#E22626" stroke-width="0.5"/>
<line x1="305.293" y1="532.568" x2="757.842" y2="80.0192" stroke="#E22626" stroke-width="0.5"/>
<line x1="306.708" y1="533.982" x2="759.256" y2="81.4334" stroke="#E22626" stroke-width="0.5"/>
<line x1="308.122" y1="535.396" x2="760.67" y2="82.8476" stroke="#E22626" stroke-width="0.5"/>
<line x1="309.536" y1="536.81" x2="762.084" y2="84.2618" stroke="#E22626" stroke-width="0.5"/>
<line x1="310.95" y1="538.224" x2="763.499" y2="85.6761" stroke="#E22626" stroke-width="0.5"/>
<line x1="312.364" y1="539.639" x2="764.913" y2="87.0903" stroke="#E22626" stroke-width="0.5"/>
<line x1="313.779" y1="541.053" x2="766.327" y2="88.5045" stroke="#E22626" stroke-width="0.5"/>
<line x1="315.193" y1="542.467" x2="767.741" y2="89.9187" stroke="#E22626" stroke-width="0.5"/>
<line x1="316.607" y1="543.881" x2="769.155" y2="91.3328" stroke="#E22626" stroke-width="0.5"/>
<line x1="318.021" y1="545.296" x2="770.57" y2="92.7471" stroke="#E22626" stroke-width="0.5"/>
<line x1="319.436" y1="546.71" x2="771.984" y2="94.1613" stroke="#E22626" stroke-width="0.5"/>
<line x1="320.85" y1="548.124" x2="773.398" y2="95.5755" stroke="#E22626" stroke-width="0.5"/>
<line x1="322.264" y1="549.538" x2="774.812" y2="96.9897" stroke="#E22626" stroke-width="0.5"/>
<line x1="323.678" y1="550.952" x2="776.227" y2="98.404" stroke="#E22626" stroke-width="0.5"/>
<line x1="325.092" y1="552.367" x2="777.641" y2="99.8182" stroke="#E22626" stroke-width="0.5"/>
<line x1="326.507" y1="553.781" x2="779.055" y2="101.232" stroke="#E22626" stroke-width="0.5"/>
<line x1="327.921" y1="555.195" x2="780.469" y2="102.647" stroke="#E22626" stroke-width="0.5"/>
<line x1="329.335" y1="556.609" x2="781.883" y2="104.061" stroke="#E22626" stroke-width="0.5"/>
<line x1="330.749" y1="558.023" x2="783.298" y2="105.475" stroke="#E22626" stroke-width="0.5"/>
<line x1="332.163" y1="559.438" x2="784.712" y2="106.889" stroke="#E22626" stroke-width="0.5"/>
<line x1="333.578" y1="560.852" x2="786.126" y2="108.303" stroke="#E22626" stroke-width="0.5"/>
<line x1="334.992" y1="562.266" x2="787.54" y2="109.718" stroke="#E22626" stroke-width="0.5"/>
<line x1="336.406" y1="563.68" x2="788.954" y2="111.132" stroke="#E22626" stroke-width="0.5"/>
<line x1="337.82" y1="565.094" x2="790.369" y2="112.546" stroke="#E22626" stroke-width="0.5"/>
<line x1="339.234" y1="566.509" x2="791.783" y2="113.96" stroke="#E22626" stroke-width="0.5"/>
<line x1="340.649" y1="567.923" x2="793.197" y2="115.374" stroke="#E22626" stroke-width="0.5"/>
<line x1="342.063" y1="569.337" x2="794.611" y2="116.789" stroke="#E22626" stroke-width="0.5"/>
<line x1="343.477" y1="570.751" x2="796.026" y2="118.203" stroke="#E22626" stroke-width="0.5"/>
<line x1="344.891" y1="572.166" x2="797.44" y2="119.617" stroke="#E22626" stroke-width="0.5"/>
<line x1="346.306" y1="573.58" x2="798.854" y2="121.031" stroke="#E22626" stroke-width="0.5"/>
<line x1="347.72" y1="574.994" x2="800.268" y2="122.446" stroke="#E22626" stroke-width="0.5"/>
<line x1="349.134" y1="576.408" x2="801.682" y2="123.86" stroke="#E22626" stroke-width="0.5"/>
<line x1="350.548" y1="577.822" x2="803.097" y2="125.274" stroke="#E22626" stroke-width="0.5"/>
<line x1="351.962" y1="579.237" x2="804.511" y2="126.688" stroke="#E22626" stroke-width="0.5"/>
<line x1="353.377" y1="580.651" x2="805.925" y2="128.102" stroke="#E22626" stroke-width="0.5"/>
<line x1="354.791" y1="582.065" x2="807.339" y2="129.517" stroke="#E22626" stroke-width="0.5"/>
<line x1="356.205" y1="583.479" x2="808.753" y2="130.931" stroke="#E22626" stroke-width="0.5"/>
<line x1="357.619" y1="584.893" x2="810.168" y2="132.345" stroke="#E22626" stroke-width="0.5"/>
<line x1="359.033" y1="586.308" x2="811.582" y2="133.759" stroke="#E22626" stroke-width="0.5"/>
<line x1="360.448" y1="587.722" x2="812.996" y2="135.174" stroke="#E22626" stroke-width="0.5"/>
<line x1="361.862" y1="589.136" x2="814.41" y2="136.588" stroke="#E22626" stroke-width="0.5"/>
<line x1="363.276" y1="590.55" x2="815.824" y2="138.002" stroke="#E22626" stroke-width="0.5"/>
<line x1="364.69" y1="591.965" x2="817.239" y2="139.416" stroke="#E22626" stroke-width="0.5"/>
<line x1="366.105" y1="593.379" x2="818.653" y2="140.83" stroke="#E22626" stroke-width="0.5"/>
<line x1="367.519" y1="594.793" x2="820.067" y2="142.245" stroke="#E22626" stroke-width="0.5"/>
<line x1="368.933" y1="596.207" x2="821.481" y2="143.659" stroke="#E22626" stroke-width="0.5"/>
<line x1="370.347" y1="597.621" x2="822.896" y2="145.073" stroke="#E22626" stroke-width="0.5"/>
<line x1="371.761" y1="599.036" x2="824.31" y2="146.487" stroke="#E22626" stroke-width="0.5"/>
<rect x="6" y="18" width="30" height="18.8571" rx="1" fill="#E22626"/>
<rect x="6" y="43" width="30" height="18.8571" rx="1" fill="#E22626"/>
<rect x="6" y="68" width="30" height="18.8571" rx="1" fill="#E22626"/>
<rect x="6" y="93" width="30" height="18.8571" rx="1" fill="#E22626"/>
<rect x="6" y="118" width="30" height="18.8571" rx="1" fill="#E22626"/>
<path d="M30.32 20.48C30.62 20.68 30.66 21.04 30.32 21.16C30 21.26 29.58 21.2 28.92 21.02C27 21.4 24.68 21.78 22.2 22.08V24.94L25.66 24.62L26.96 22.94C27.14 22.7 27.38 22.64 27.64 22.76C28.54 23.16 29.68 23.66 30.64 24.12C30.9 24.26 31.08 24.48 30.9 24.74C30.76 24.94 30.54 25.04 30.32 25.06L22.2 25.84V28.88L27.96 28.36L29.28 26.66C29.46 26.42 29.7 26.36 29.96 26.48C30.88 26.88 32.06 27.4 33 27.88C33.24 28 33.44 28.2 33.32 28.46C33.2 28.7 32.94 28.8 32.7 28.82L22.2 29.78V32.7C22.2 33.04 22.5 33.14 23.66 33.14H26.78C27.76 33.14 28.62 33.14 29.16 33.12C29.62 33.08 29.94 33 30.1 32.84C30.58 32.38 31 31.52 31.58 30.26C31.7 30 31.8 29.88 31.86 29.88C31.9 29.88 31.94 30.04 31.96 30.36L32.08 32.88C33.08 33.2 33.42 33.6 33.42 34.26C33.42 35.7 32.1 36.12 26.42 36.12H23.22C19.98 36.12 18.7 35.7 18.7 33.4V30.1L10.4 30.86C10.12 30.88 9.92 30.8 9.78 30.54C9.62 30.24 9.76 30.02 10.14 29.98L18.7 29.2V26.18L11.98 26.82C11.7 26.84 11.5 26.76 11.36 26.5C11.2 26.2 11.34 25.98 11.72 25.94L18.7 25.26V22.48C16.16 22.74 13.52 22.92 11.04 23.02C10.74 23.04 10.58 22.92 10.52 22.72C10.46 22.5 10.62 22.38 10.96 22.32C16.7 21.44 23.44 19.84 27.06 18.54C27.32 18.44 27.52 18.46 27.74 18.62L30.32 20.48ZM28.58 46.68C28.78 46.46 29.02 46.42 29.28 46.58C30.1 47.06 31.1 47.68 31.92 48.22C32.18 48.38 32.32 48.64 32.1 48.88C31.96 49.02 31.76 49.06 31.52 49.06H23.2V53.52H26.32L27.74 52.1C27.96 51.88 28.18 51.86 28.44 52.02C29.22 52.48 30.18 53.06 30.98 53.58C31.22 53.74 31.38 53.98 31.2 54.22C31.06 54.4 30.82 54.44 30.58 54.44H23.2V59.86H27.98L29.5 58.34C29.7 58.14 29.94 58.08 30.2 58.24C31.04 58.72 32.08 59.36 32.94 59.92C33.2 60.08 33.36 60.34 33.14 60.56C33 60.72 32.76 60.76 32.52 60.76H10.4C10.12 60.76 9.92 60.64 9.82 60.36C9.7 60.06 9.88 59.86 10.24 59.86H19.66V54.44H13.14C12.86 54.44 12.68 54.3 12.58 54.04C12.46 53.74 12.64 53.52 13 53.52H19.66V49.06H12.08C11.8 49.06 11.6 48.94 11.5 48.68C11.38 48.38 11.54 48.16 11.92 48.16H27.14L28.58 46.68ZM17.38 44.16C17.08 43.96 16.96 43.76 17.08 43.66C17.22 43.56 17.38 43.5 17.66 43.5C26.02 43.78 24.42 48.86 21.26 47.96C21.02 47.88 20.9 47.76 20.8 47.6C20.18 46.42 18.8 45.1 17.38 44.16ZM30.04 72.82C30.24 72.56 30.5 72.54 30.74 72.74C31.24 73.12 31.82 73.56 32.3 73.98C32.5 74.16 32.64 74.36 32.48 74.6C32.38 74.8 32.14 74.84 31.92 74.84H28.18V77.36C28.18 77.76 26.92 78.04 25.8 78.04H25.58C25.58 78.38 25.42 78.68 24.88 78.74V79.38H27.58L28.48 78.56C28.7 78.36 28.92 78.32 29.18 78.48L31.34 79.74C31.64 79.92 31.72 80.22 31.44 80.42C31.26 80.56 31.02 80.66 30.7 80.7V82.8C30.7 84.22 30.32 85.18 27.9 85.44C27.54 85.48 27.36 85.3 27.34 84.96C27.3 84.48 27.24 84.16 27 83.84C26.88 83.66 26.64 83.48 26.06 83.32C25.74 83.26 25.58 83.12 25.58 82.92C25.58 82.74 25.74 82.62 26 82.64C26.16 82.64 26.3 82.64 26.44 82.64C26.82 82.66 27.18 82.68 27.38 82.68C27.76 82.68 27.78 82.66 27.78 82.56V80.3H24.88V85.92C24.88 86.36 23.52 86.7 22.36 86.7H22.28C21.96 86.7 21.78 86.52 21.78 86.2V80.3H18.82V84.34C18.82 84.82 17.46 85.24 16.3 85.24C16.04 85.24 15.88 85.06 15.88 84.74V79.02C15.88 78.66 16.1 78.5 16.44 78.6L19 79.38H21.78V78.2C21.78 77.88 21.98 77.7 22.3 77.72L25.3 77.92V77.34H21V77.58C21 78.02 19.76 78.28 18.62 78.28C18.3 78.28 18.12 78.1 18.12 77.78V74.84H15.7C15.42 74.84 15.22 74.72 15.12 74.44C15 74.14 15.18 73.94 15.54 73.94H18.12V71.86H14.92V76.2C14.92 79.4 14.7 83.68 10.2 86.44C9.96 86.58 9.8 86.62 9.66 86.54C9.54 86.48 9.58 86.28 9.78 86C11.82 83.06 11.92 79.48 11.92 76.22V70.56C11.92 70.2 12.14 70.04 12.48 70.14L15.42 70.96L21.92 70.94C21.66 70.26 21.02 69.5 20.3 68.94C20 68.7 19.88 68.52 20 68.44C20.16 68.34 20.3 68.32 20.56 68.3C24.76 68.14 25.22 70.04 24.26 70.94H28.92L30.14 69.64C30.34 69.42 30.58 69.4 30.84 69.56C31.5 69.98 32.32 70.52 33 71C33.22 71.18 33.36 71.42 33.16 71.66C33.02 71.82 32.82 71.86 32.58 71.86H27.18L28.5 71.96C28.84 71.98 29.1 72.24 28.9 72.52C28.78 72.68 28.56 72.8 28.18 72.84V73.94H29.12L30.04 72.82ZM20 71.86L21.3 71.96C21.64 71.98 21.9 72.22 21.7 72.52C21.58 72.68 21.38 72.8 21 72.84V73.94H25.3V71.86H20ZM21 76.42H25.3V74.84H21V76.42ZM31.62 104.88C31.92 105.06 32.02 105.38 31.72 105.58C31.52 105.72 31.28 105.8 30.96 105.86V110.48C30.96 110.7 30.96 110.88 30.78 111.02C30.3 111.32 29.08 111.5 28.32 111.5H28.3C27.98 111.5 27.8 111.32 27.8 111V110.32H22.22V110.7C22.22 111.22 20.74 111.68 19.56 111.68C19.26 111.68 19.1 111.5 19.1 111.18V104.12C19.1 103.76 19.3 103.58 19.66 103.7L22.38 104.54H27.62L28.66 103.6C28.88 103.4 29.1 103.38 29.36 103.54L31.62 104.88ZM9.72 98.94C9.6 98.68 9.78 98.48 10.14 98.48H12.86L14.08 97.52C14 97.5 13.92 97.48 13.84 97.46C13.6 97.38 13.48 97.22 13.38 96.98C13.02 96 12.18 94.98 11.36 94.16C11.1 93.92 11 93.72 11.12 93.64C11.26 93.56 11.42 93.54 11.68 93.58C17.8 94.2 16.66 97.66 14.46 97.58L16.46 98.88C16.74 99.06 16.84 99.4 16.54 99.58C16.34 99.68 16.12 99.74 15.76 99.78V106.6C16.54 106.24 17.26 105.9 17.96 105.58C18.24 105.46 18.42 105.44 18.5 105.54C18.58 105.66 18.52 105.8 18.34 106.04C17.54 107 16.18 108.56 14.48 110.12C14.36 110.42 14.2 110.66 14.06 110.84C13.84 111.08 13.56 111.02 13.36 110.78L11.62 108.74C11.4 108.48 11.46 108.2 11.82 108.02C12.68 107.6 12.76 107.48 12.76 107.2V99.4H10.32C10.04 99.4 9.84 99.28 9.74 99L9.72 98.94ZM16.56 102.86C16.46 102.58 16.64 102.4 17 102.4H20.2C20.54 101.44 20.86 100.28 21.2 99.1H18.42C18.14 99.1 17.94 98.98 17.84 98.72C17.72 98.4 17.88 98.18 18.24 98.18H21.44C21.66 97.38 21.86 96.58 22.02 95.92H18.12C17.84 95.92 17.66 95.78 17.56 95.52C17.44 95.22 17.62 95 17.98 95H28.32L29.48 93.76C29.68 93.54 29.92 93.52 30.18 93.68C30.82 94.08 31.6 94.62 32.24 95.08C32.48 95.24 32.62 95.48 32.44 95.72C32.32 95.88 32.12 95.92 31.88 95.92L25.28 95.94C25.2 96.24 25.12 96.56 25.02 96.88L24.96 97.16L24.78 97.72L24.66 98.18H27.08L28.1 97.34C28.32 97.16 28.54 97.16 28.78 97.3L30.88 98.5C31.2 98.68 31.26 99.02 30.94 99.2C30.74 99.3 30.54 99.34 30.3 99.38V102.4L31.22 101.34C31.42 101.1 31.66 101.06 31.9 101.24C32.42 101.6 33 102.04 33.52 102.46C33.74 102.64 33.88 102.86 33.7 103.1C33.58 103.28 33.4 103.32 33.16 103.32H17.14C16.86 103.32 16.68 103.18 16.58 102.92L16.56 102.86ZM22.22 109.4H27.8V105.44H22.22V109.4ZM23.34 102.4H27.28V99.1H24.38C24.02 100.34 23.64 101.52 23.34 102.4ZM28.92 119.98C29.24 120.18 29.3 120.5 28.96 120.68C28.8 120.78 28.64 120.8 28.34 120.84L28.06 125.22H28.22L29.7 123.74C29.92 123.52 30.14 123.5 30.4 123.66C31.22 124.14 32.24 124.76 33.1 125.28C33.34 125.44 33.5 125.68 33.32 125.92C33.16 126.1 32.94 126.14 32.68 126.14H23.1C23.66 127.42 24.54 128.46 25.68 129.38C26.66 128.44 27.64 127.3 28.22 126.54C28.42 126.28 28.66 126.24 28.92 126.38L31.4 127.76C31.7 127.94 31.8 128.26 31.5 128.46C31.36 128.54 31.16 128.56 30.78 128.48C29.58 128.96 28.04 129.56 26.56 130C28.32 131.14 30.56 131.84 32.76 132.32C33.1 132.38 33.26 132.52 33.2 132.68C33.12 132.86 32.96 132.98 32.72 133.06C31.74 133.38 31.1 134.04 30.76 134.84C30.62 135.16 30.4 135.26 30.1 135.12C26.8 133.5 24.38 131.28 23.02 126.86V133.44C23.02 135.1 22.52 136.34 19.46 136.64C19.12 136.68 18.94 136.5 18.9 136.18C18.84 135.56 18.72 135.16 18.3 134.78C18.04 134.54 17.56 134.28 16.44 134.08C16.12 134.04 15.96 133.92 15.96 133.72C15.96 133.54 16.14 133.42 16.48 133.44C17.7 133.48 18.92 133.52 19.28 133.52C19.74 133.52 19.8 133.46 19.8 133.4V130.58C18.02 131.72 15.82 133.08 12.96 134.64C12.92 134.74 12.88 134.82 12.84 134.9C12.68 135.16 12.38 135.1 12.16 134.88L10.3 132.94C10.04 132.66 10.1 132.38 10.48 132.28C12.42 131.74 16.04 130.62 19.8 129.4V126.14H10.6C10.32 126.14 10.12 126.02 10.02 125.74C9.9 125.44 10.08 125.22 10.44 125.22H24.68L24.82 123.36H14.08C13.8 123.36 13.6 123.24 13.5 122.98C13.38 122.66 13.54 122.44 13.9 122.44H24.86L25.02 120.46H13.32C13.04 120.46 12.84 120.34 12.74 120.08C12.62 119.76 12.78 119.54 13.14 119.54H24.88L25.78 118.64C26 118.42 26.22 118.4 26.48 118.56L28.92 119.98ZM13.02 126.96C12.72 126.7 12.62 126.5 12.74 126.44C12.9 126.34 13.06 126.32 13.32 126.34C20.24 126.86 18.12 131.12 15.42 130.1C15.18 130 15.08 129.86 15.02 129.66C14.74 128.74 13.92 127.74 13.02 126.96Z" fill="white"/>
<rect width="480" height="144" transform="translate(42 5)" fill="white"/>
<path d="M179.952 34.644C180.08 34.548 180.304 34.644 180.592 34.932C186.704 41.012 185.552 46.516 183.376 44.82C183.12 44.628 183.056 44.404 182.992 44.084C182.544 41.3 181.136 37.844 179.984 35.316C179.824 34.964 179.792 34.74 179.952 34.644ZM162.832 38.036C162.672 37.876 162.704 37.684 162.864 37.364C164.72 33.876 166.576 28.564 167.664 23.188C167.76 22.772 168.016 22.612 168.432 22.74L170.192 23.348C170.64 23.508 170.896 23.892 170.608 24.084C170.448 24.148 170.256 24.212 170.032 24.212C169.36 26.452 168.592 28.66 167.664 30.708L168.048 30.868C168.496 31.06 168.752 31.38 168.528 31.54C168.4 31.604 168.272 31.668 168.112 31.7L168.08 49.748C168.08 49.908 167.152 50.484 166.352 50.484C166.032 50.484 165.84 50.26 165.84 49.844V34.26C165.136 35.508 164.336 36.692 163.472 37.716C163.184 38.068 162.96 38.164 162.832 38.036ZM169.264 35.604C169.136 35.444 169.168 35.252 169.328 34.932C170.832 32.084 172.304 27.796 173.2 23.284C173.296 22.836 173.584 22.676 174 22.836L175.696 23.508C176.144 23.7 176.336 24.052 176.048 24.244C175.888 24.308 175.696 24.372 175.472 24.372C175.056 25.716 174.608 27.06 174.064 28.404H181.936L182.704 27.412C182.96 27.06 183.344 27.06 183.632 27.412L184.848 28.788C185.136 29.14 185.2 29.524 184.88 29.588C184.752 29.62 184.592 29.652 184.4 29.684C183.888 30.772 182.96 32.308 182.064 33.46C181.808 33.812 181.584 33.876 181.456 33.78C181.328 33.652 181.296 33.46 181.36 33.108C181.616 31.988 181.872 30.452 182.032 29.268H173.68C172.624 31.604 171.344 33.684 169.904 35.316C169.616 35.668 169.392 35.732 169.264 35.604ZM169.328 45.524C169.2 45.396 169.2 45.172 169.36 44.852C170.64 42.42 171.824 38.804 172.56 34.996C172.656 34.548 172.944 34.388 173.36 34.548L174.928 35.124C175.376 35.284 175.6 35.636 175.312 35.828C175.184 35.892 174.992 35.956 174.768 35.956C173.616 39.7 171.952 42.964 169.968 45.236C169.68 45.588 169.456 45.652 169.328 45.524ZM173.232 48.052C172.816 47.988 172.624 47.86 172.624 47.732C172.624 47.604 172.88 47.54 173.296 47.572C174.416 47.636 175.568 47.732 175.888 47.732C176.24 47.732 176.368 47.572 176.368 47.092V30.516C176.368 30.1 176.624 29.844 177.04 29.908L178.608 30.1C179.088 30.164 179.408 30.484 179.12 30.74C178.992 30.836 178.832 30.932 178.576 30.996V47.284C178.576 48.948 178.288 50.004 176.016 50.42C175.6 50.484 175.344 50.292 175.28 49.876C175.184 49.396 175.056 49.044 174.832 48.82C174.48 48.468 174.032 48.212 173.232 48.052ZM201.904 23.38C202.352 23.54 202.576 23.892 202.288 24.052C202.128 24.148 201.936 24.212 201.712 24.212C201.104 26.452 200.368 28.66 199.536 30.74L199.888 30.9C200.368 31.124 200.592 31.412 200.368 31.572C200.272 31.636 200.112 31.7 199.952 31.732V49.268C199.952 49.556 199.92 49.812 199.664 49.972C199.344 50.196 198.768 50.452 198.192 50.452C197.904 50.452 197.712 50.228 197.712 49.812V34.548C197.04 35.764 196.336 36.884 195.536 37.94C195.28 38.26 195.088 38.324 194.928 38.228C194.736 38.1 194.768 37.876 194.928 37.524C196.592 33.908 198.256 28.532 199.248 23.188C199.344 22.772 199.632 22.58 200.048 22.74L201.904 23.38ZM202.96 50.516C202.832 50.516 202.704 50.292 202.704 49.876V28.34C202.704 27.924 202.96 27.7 203.376 27.764L205.776 28.084C205.488 26.676 204.752 25.012 204.08 23.796C203.888 23.444 203.792 23.252 203.92 23.156C204.016 23.092 204.24 23.124 204.56 23.284C209.168 25.748 207.984 29.684 206.192 28.628C205.904 28.468 205.84 28.34 205.84 28.244L205.808 28.148C205.712 28.468 205.52 28.756 204.912 28.884V49.716C204.912 49.972 204.016 50.516 203.184 50.516H202.96ZM208.272 26.26C208.208 26.004 208.432 25.812 208.88 25.812H213.808L214.416 24.916C214.64 24.564 214.992 24.5 215.312 24.82L216.624 26.036C216.944 26.356 217.008 26.708 216.688 26.868C216.528 26.964 216.336 27.028 216.144 27.092V47.348C216.144 48.948 215.856 50.004 213.616 50.42C213.2 50.484 212.944 50.292 212.88 49.876C212.752 49.428 212.624 49.076 212.4 48.884C212.016 48.532 211.536 48.276 210.704 48.084C210.288 48.02 210.096 47.892 210.096 47.764C210.096 47.636 210.352 47.572 210.768 47.604C211.984 47.7 213.2 47.796 213.52 47.796C213.904 47.796 214.032 47.636 214.032 47.092V26.708H208.944C208.56 26.708 208.336 26.548 208.272 26.26ZM232.08 44.404C231.6 44.276 231.504 43.956 231.76 43.572C232.4 42.612 233.2 41.332 233.968 39.956H227.664C227.28 39.956 227.056 39.828 226.992 39.508C226.928 39.22 227.152 39.06 227.6 39.06H234.48C235.088 37.972 235.664 36.916 236.048 36.084C236.24 35.7 236.496 35.604 236.88 35.732L238.512 36.308C238.96 36.468 239.216 36.884 238.864 37.044C238.704 37.076 238.512 37.108 238.224 37.108C237.968 37.62 237.584 38.26 237.104 39.06H245.392L246.32 37.652C246.544 37.3 246.896 37.236 247.216 37.556C247.76 38.068 248.336 38.644 248.784 39.124C249.04 39.38 249.136 39.7 248.88 39.86C248.752 39.924 248.592 39.956 248.432 39.956H243.76C243.024 42.132 242.096 43.924 240.784 45.428C249.904 48.148 247.6 51.284 245.424 50.1C243.888 48.948 241.808 47.86 239.312 46.804C236.752 48.884 233.04 49.94 227.568 50.548C227.184 50.58 226.96 50.548 226.928 50.356C226.896 50.164 227.088 50.068 227.536 49.972C231.76 49.14 234.96 47.988 237.328 46.036C235.696 45.46 233.936 44.916 232.08 44.404ZM227.12 25.108C227.056 24.852 227.28 24.66 227.728 24.66H245.104L246.096 23.188C246.32 22.836 246.672 22.772 246.992 23.092C247.536 23.604 248.112 24.18 248.592 24.692C248.88 24.948 248.976 25.3 248.688 25.46C248.56 25.524 248.4 25.556 248.24 25.556H241.52V28.628H244.24L244.848 27.796C245.104 27.476 245.456 27.412 245.776 27.7L247.088 28.884C247.408 29.172 247.472 29.524 247.152 29.684C246.992 29.78 246.8 29.844 246.608 29.908L246.576 35.956C246.576 36.148 245.52 36.628 244.848 36.628C244.592 36.628 244.432 36.404 244.432 35.988V35.252H231.504V36.276C231.504 36.436 230.576 36.98 229.712 36.98C229.488 36.98 229.328 36.756 229.328 36.34V28.34C229.328 27.86 229.648 27.636 230.096 27.86L231.6 28.628H234.352V25.556H227.792C227.408 25.556 227.184 25.396 227.12 25.108ZM231.504 34.356H234.352V29.556H231.504V34.356ZM234.064 43.956C235.76 44.244 237.264 44.532 238.544 44.852C239.664 43.604 240.528 42.004 241.136 39.956H236.592C235.792 41.3 234.896 42.74 234.064 43.956ZM236.496 34.356H239.376V29.556H236.496V34.356ZM236.496 28.628H239.376V25.556H236.496V28.628ZM241.52 34.356H244.432V29.556H241.52V34.356ZM276.24 23.412C276.688 23.572 276.944 23.956 276.656 24.084C276.528 24.18 276.336 24.212 276.112 24.212C275.216 25.812 273.712 27.956 272.176 29.652H275.568L276.592 28.18C276.848 27.796 277.168 27.764 277.488 28.084C278.064 28.596 278.672 29.172 279.184 29.716C279.44 29.972 279.536 30.324 279.248 30.484C279.12 30.548 278.96 30.58 278.8 30.58H270.928V34.964C270.928 35.732 270.896 36.564 270.8 37.364H276.912L277.968 35.764C278.192 35.412 278.544 35.348 278.864 35.668C279.472 36.212 280.08 36.852 280.592 37.364C280.88 37.652 280.976 37.972 280.688 38.132C280.56 38.196 280.432 38.228 280.24 38.228H271.12C272.912 43.092 276.368 46.42 280.752 47.7C281.136 47.828 281.328 47.892 281.328 47.988C281.296 48.116 281.136 48.148 280.816 48.308C280.336 48.596 279.92 49.108 279.664 49.812C279.504 50.228 279.248 50.388 278.864 50.228C274.576 48.244 272.016 44.564 270.576 38.932C269.776 43.284 267.184 47.54 259.408 50.292C258.992 50.452 258.736 50.42 258.704 50.26C258.64 50.068 258.8 49.908 259.152 49.716C265.488 46.452 267.696 42.548 268.336 38.228H259.76C259.376 38.228 259.152 38.068 259.088 37.78C259.024 37.524 259.28 37.364 259.728 37.364H268.432C268.496 36.596 268.528 35.796 268.528 34.996V30.58H261.296C260.912 30.58 260.688 30.388 260.624 30.1C260.56 29.812 260.784 29.652 261.232 29.652H271.344C272.144 27.796 273.008 25.268 273.616 23.188C273.712 22.772 274 22.612 274.416 22.772L276.24 23.412ZM263.76 23.444C263.536 23.124 263.472 22.9 263.536 22.836C263.6 22.772 263.824 22.772 264.176 22.9C270.032 25.364 268.752 30.164 266.64 28.884C266.384 28.724 266.256 28.5 266.192 28.18C265.744 26.548 264.688 24.692 263.76 23.444ZM300.272 22.868C300.368 22.772 300.592 22.836 300.944 23.06C307.536 27.348 306.32 32.756 304.08 31.284C303.792 31.124 303.696 30.9 303.632 30.612C303.088 28.276 301.68 25.492 300.4 23.54C300.208 23.188 300.144 22.964 300.272 22.868ZM291.152 43.636C290.608 43.06 290.8 42.324 291.28 41.588C292.432 40.116 293.552 36.436 293.616 32.436C293.616 32.02 293.744 31.796 293.936 31.796C294.128 31.796 294.288 31.988 294.384 32.372C295.44 37.428 294.608 40.916 293.616 42.644C293.008 43.764 291.728 44.34 291.152 43.636ZM296.88 46.42V28.66C296.88 28.244 297.136 28.02 297.552 28.084L299.184 28.276C299.632 28.34 299.952 28.66 299.664 28.916C299.536 29.012 299.376 29.108 299.12 29.172V45.876C299.12 46.676 299.312 46.9 300.496 46.9H303.728C305.136 46.9 306.16 46.868 306.64 46.804C306.992 46.772 307.088 46.708 307.248 46.324C307.472 45.78 307.792 44.02 308.176 41.812C308.24 41.396 308.4 41.204 308.56 41.204C308.72 41.204 308.816 41.428 308.816 41.844L308.88 46.58C309.584 46.868 309.744 47.124 309.744 47.572C309.744 48.724 308.624 49.172 303.6 49.172H300.272C297.712 49.172 296.88 48.564 296.88 46.42ZM308.24 33.044C308.016 32.724 307.984 32.5 308.08 32.372C308.176 32.276 308.4 32.34 308.72 32.66C315.28 38.58 313.328 45.172 311.312 43.124C311.12 42.9 311.056 42.708 311.024 42.484C310.704 39.86 309.968 35.86 308.24 33.044ZM338.096 27.764C338.32 27.412 338.672 27.348 338.992 27.668C339.472 28.116 339.952 28.596 340.336 29.012C340.592 29.3 340.688 29.652 340.4 29.812C340.272 29.876 340.112 29.908 339.952 29.908H334.864V35.38H336.848L337.584 34.228C337.808 33.844 338.16 33.812 338.48 34.132C338.896 34.548 339.376 34.996 339.728 35.38C339.952 35.668 340.048 35.988 339.792 36.148C339.664 36.244 339.504 36.276 339.344 36.276H334.864V43.06H337.84L338.64 41.78C338.864 41.396 339.216 41.364 339.536 41.684C339.984 42.164 340.464 42.644 340.848 43.06C341.104 43.348 341.232 43.668 340.944 43.828C340.816 43.892 340.656 43.924 340.496 43.924H327.856C327.472 43.924 327.248 43.764 327.184 43.476C327.12 43.22 327.376 43.06 327.824 43.06H332.784V36.276H329.232C328.848 36.276 328.624 36.148 328.56 35.828C328.496 35.572 328.72 35.38 329.168 35.38H332.784V29.908H328.272C327.888 29.908 327.664 29.78 327.6 29.46C327.536 29.204 327.76 29.012 328.208 29.012H337.296L338.096 27.764ZM324.368 50.516C324.24 50.516 324.112 50.292 324.112 49.876V24.052C324.112 23.572 324.432 23.348 324.88 23.604L326.448 24.436H341.392L342.128 23.476C342.384 23.156 342.704 23.06 343.024 23.38L344.368 24.628C344.688 24.948 344.72 25.3 344.4 25.492C344.24 25.556 344.048 25.652 343.856 25.716V49.524C343.856 49.684 342.832 50.356 342.032 50.356C341.776 50.356 341.616 50.132 341.616 49.716V48.308H326.32V49.62C326.32 49.908 325.52 50.516 324.592 50.516H324.368ZM326.32 47.412H341.616V25.332H326.32V47.412ZM336.176 37.748C335.984 37.396 335.92 37.204 336.016 37.108C336.08 37.044 336.304 37.076 336.656 37.236C340.496 39.028 339.344 42.292 337.84 41.364C337.552 41.204 337.488 40.98 337.392 40.66C337.168 39.668 336.688 38.548 336.176 37.748ZM363.92 22.58C363.984 22.516 364.176 22.452 364.56 22.516C369.04 23.252 367.888 27.252 365.968 26.356C365.68 26.196 365.584 25.972 365.488 25.652C365.264 24.756 364.752 23.796 364.208 23.124C363.984 22.836 363.856 22.676 363.92 22.58ZM355.056 30.996C354.8 30.26 355.184 29.684 355.856 29.268C356.592 28.756 357.392 27.38 357.488 25.748C357.52 25.332 357.616 25.076 357.808 25.076C358 25.076 358.16 25.236 358.224 25.62C358.32 25.972 358.352 26.292 358.384 26.58H373.68L374.448 25.62C374.704 25.3 375.056 25.3 375.344 25.62L376.528 26.996C376.816 27.348 376.912 27.7 376.624 27.764C376.496 27.796 376.336 27.828 376.144 27.828C375.696 28.564 374.864 29.588 374.064 30.356C373.776 30.644 373.552 30.676 373.456 30.58C373.328 30.452 373.296 30.26 373.392 29.908C373.52 29.172 373.68 28.276 373.808 27.444H358.448C358.544 29.268 358 30.548 357.104 31.284C356.464 31.796 355.344 31.796 355.056 30.996ZM355.312 48.852C355.248 48.692 355.408 48.5 355.76 48.308C359.536 46.484 363.376 43.252 365.616 39.604C365.488 39.092 365.36 38.644 365.2 38.228C362.992 40.244 359.664 42.26 356.528 43.508C356.144 43.668 355.888 43.636 355.856 43.476C355.792 43.284 355.952 43.124 356.272 42.932C359.184 41.3 362.384 38.516 364.24 35.796C364.048 35.444 363.824 35.028 363.632 34.74C361.648 36.148 359.28 37.396 356.816 38.292C356.432 38.42 356.208 38.388 356.144 38.26C356.08 38.132 356.24 37.94 356.592 37.748C359.312 36.212 361.904 34.036 363.792 31.828H359.088C358.704 31.828 358.48 31.636 358.416 31.348C358.352 31.092 358.576 30.9 359.024 30.9H370.384L371.28 29.556C371.504 29.204 371.856 29.172 372.176 29.46C372.688 29.972 373.232 30.516 373.68 30.964C373.936 31.252 374.032 31.572 373.744 31.732C373.616 31.796 373.456 31.828 373.296 31.828H366.8C366.096 32.66 365.2 33.492 364.208 34.292C365.392 35.54 366.288 36.916 366.896 38.292C368.88 36.916 371.184 34.964 372.56 33.396C372.848 33.076 373.168 33.076 373.456 33.332L374.8 34.516C375.152 34.836 375.248 35.284 374.928 35.316C374.768 35.316 374.576 35.284 374.384 35.188C373.104 36.116 371.152 37.236 369.072 38.164C370.512 42.1 373.456 44.692 376.688 46.132C377.04 46.292 377.232 46.388 377.2 46.484C377.168 46.612 377.008 46.612 376.656 46.772C376.24 46.996 375.92 47.38 375.664 47.988C375.504 48.436 375.216 48.564 374.832 48.308C371.76 46.164 369.584 43.028 368.4 38.452L367.184 38.932C368.816 43.092 368.56 47.572 367.248 49.46C366.8 50.1 365.936 50.484 364.688 50.548C364.304 50.58 364.08 50.324 364.016 49.94C363.92 49.524 363.792 49.268 363.6 49.076C363.312 48.82 362.736 48.564 362.096 48.372C361.712 48.276 361.52 48.148 361.52 47.988C361.52 47.86 361.776 47.796 362.192 47.828C363.152 47.924 364.4 48.02 364.88 48.02C365.168 48.02 365.264 48.052 365.456 47.732C365.936 46.9 366.224 45.044 366.064 42.836C363.472 45.364 359.76 47.604 356.016 48.884C355.6 49.044 355.344 49.012 355.312 48.852ZM406 29.812C406.224 29.46 406.576 29.396 406.896 29.716C407.568 30.292 408.272 30.996 408.816 31.572C409.072 31.86 409.168 32.18 408.88 32.34C408.752 32.404 408.592 32.436 408.432 32.436H398.992C399.856 38.1 402.384 44.052 409.008 47.956C409.328 48.148 409.456 48.244 409.456 48.34C409.456 48.436 409.264 48.5 408.88 48.628C408.272 48.788 407.856 49.204 407.6 49.94C407.472 50.388 407.216 50.516 406.832 50.228C401.168 45.876 399.216 39.38 398.48 33.716C397.68 40.212 395.312 45.972 387.632 50.292C387.248 50.516 387.024 50.516 386.928 50.356C386.832 50.164 386.928 49.94 387.28 49.716C393.744 44.98 395.632 39.124 396.24 32.436H387.792C387.408 32.436 387.184 32.308 387.12 31.988C387.056 31.7 387.28 31.54 387.728 31.54H396.304C396.496 28.916 396.464 26.164 396.464 23.284C396.464 22.868 396.72 22.612 397.136 22.676L398.992 22.9C399.44 22.964 399.792 23.284 399.504 23.54C399.376 23.668 399.184 23.764 398.928 23.828C398.896 26.484 398.864 29.044 398.672 31.54H404.88L406 29.812ZM438.832 38.964C439.056 38.58 439.408 38.516 439.728 38.868C440.208 39.38 440.72 39.924 441.104 40.372C441.328 40.628 441.456 40.948 441.168 41.108C441.04 41.172 440.88 41.204 440.72 41.204H437.808V45.46C437.808 45.748 437.744 45.972 437.488 46.164C437.136 46.388 436.528 46.644 436.048 46.644C435.792 46.644 435.632 46.42 435.632 46.004V44.916H431.056V47.412C431.056 49.012 430.736 50.068 428.304 50.484C427.888 50.548 427.664 50.356 427.568 49.94C427.472 49.524 427.344 49.204 427.088 49.012C426.672 48.66 426.16 48.436 425.2 48.276C424.784 48.212 424.592 48.084 424.592 47.924C424.592 47.764 424.848 47.7 425.264 47.732C426.608 47.86 427.952 47.956 428.272 47.956C428.688 47.956 428.816 47.828 428.816 47.252V44.916H422.224C421.84 44.916 421.616 44.756 421.552 44.468C421.488 44.212 421.744 44.052 422.192 44.052H428.816V41.204H419.6C419.216 41.204 418.992 41.044 418.928 40.756C418.864 40.5 419.12 40.34 419.568 40.34H428.816V37.524H422.384C422 37.524 421.776 37.364 421.712 37.076C421.648 36.82 421.904 36.66 422.352 36.66H428.816V33.844H424.336V34.772C424.336 34.932 423.376 35.444 422.512 35.444C422.256 35.444 422.096 35.22 422.096 34.804V28.756C422.096 28.276 422.416 28.052 422.864 28.276L424.432 29.012H428.816V26.612H419.664C419.28 26.612 419.056 26.452 418.992 26.164C418.928 25.908 419.184 25.748 419.632 25.748H428.816V23.22C428.816 22.804 429.072 22.548 429.488 22.612L431.152 22.804C431.6 22.868 431.92 23.188 431.632 23.476C431.504 23.572 431.312 23.668 431.056 23.732V25.748H437.072L438.096 24.212C438.32 23.86 438.672 23.796 438.992 24.116C439.568 24.628 440.208 25.236 440.688 25.748C440.944 26.036 441.072 26.356 440.784 26.516C440.656 26.58 440.496 26.612 440.336 26.612H431.056V29.012H435.376L436.048 28.18C436.304 27.86 436.624 27.828 436.944 28.116L438.224 29.236C438.544 29.524 438.64 29.876 438.352 30.068C438.192 30.132 438.032 30.228 437.84 30.292V34.228C437.84 34.356 436.752 34.9 436.048 34.9C435.76 34.9 435.6 34.676 435.6 34.356V33.844H431.056V36.66H435.408L436.08 35.796C436.336 35.476 436.656 35.412 436.976 35.7L438.224 36.852C438.544 37.172 438.608 37.492 438.32 37.652C438.16 37.748 438 37.812 437.808 37.876V40.34H438L438.832 38.964ZM424.336 32.948H428.816V29.908H424.336V32.948ZM431.056 44.052H435.632V41.204H431.056V44.052ZM431.056 40.34H435.632V37.524H431.056V40.34ZM431.056 32.948H435.6V29.908H431.056V32.948ZM443.76 53.844C443.632 53.556 443.696 53.332 444.016 53.076C445.488 51.828 446 50.196 446.128 48.948C445.072 48.468 443.792 47.892 443.792 46.324C443.792 45.332 444.464 44.34 445.616 44.34C446.864 44.34 447.664 45.588 447.664 47.284C447.664 49.396 446.96 52.212 444.528 53.908C444.176 54.132 443.888 54.1 443.76 53.844ZM104.08 84.404C103.6 84.276 103.504 83.956 103.76 83.572C104.4 82.612 105.2 81.332 105.968 79.956H99.664C99.28 79.956 99.056 79.828 98.992 79.508C98.928 79.22 99.152 79.06 99.6 79.06H106.48C107.088 77.972 107.664 76.916 108.048 76.084C108.24 75.7 108.496 75.604 108.88 75.732L110.512 76.308C110.96 76.468 111.216 76.884 110.864 77.044C110.704 77.076 110.512 77.108 110.224 77.108C109.968 77.62 109.584 78.26 109.104 79.06H117.392L118.32 77.652C118.544 77.3 118.896 77.236 119.216 77.556C119.76 78.068 120.336 78.644 120.784 79.124C121.04 79.38 121.136 79.7 120.88 79.86C120.752 79.924 120.592 79.956 120.432 79.956H115.76C115.024 82.132 114.096 83.924 112.784 85.428C121.904 88.148 119.6 91.284 117.424 90.1C115.888 88.948 113.808 87.86 111.312 86.804C108.752 88.884 105.04 89.94 99.568 90.548C99.184 90.58 98.96 90.548 98.928 90.356C98.896 90.164 99.088 90.068 99.536 89.972C103.76 89.14 106.96 87.988 109.328 86.036C107.696 85.46 105.936 84.916 104.08 84.404ZM99.12 65.108C99.056 64.852 99.28 64.66 99.728 64.66H117.104L118.096 63.188C118.32 62.836 118.672 62.772 118.992 63.092C119.536 63.604 120.112 64.18 120.592 64.692C120.88 64.948 120.976 65.3 120.688 65.46C120.56 65.524 120.4 65.556 120.24 65.556H113.52V68.628H116.24L116.848 67.796C117.104 67.476 117.456 67.412 117.776 67.7L119.088 68.884C119.408 69.172 119.472 69.524 119.152 69.684C118.992 69.78 118.8 69.844 118.608 69.908L118.576 75.956C118.576 76.148 117.52 76.628 116.848 76.628C116.592 76.628 116.432 76.404 116.432 75.988V75.252H103.504V76.276C103.504 76.436 102.576 76.98 101.712 76.98C101.488 76.98 101.328 76.756 101.328 76.34V68.34C101.328 67.86 101.648 67.636 102.096 67.86L103.6 68.628H106.352V65.556H99.792C99.408 65.556 99.184 65.396 99.12 65.108ZM103.504 74.356H106.352V69.556H103.504V74.356ZM106.064 83.956C107.76 84.244 109.264 84.532 110.544 84.852C111.664 83.604 112.528 82.004 113.136 79.956H108.592C107.792 81.3 106.896 82.74 106.064 83.956ZM108.496 74.356H111.376V69.556H108.496V74.356ZM108.496 68.628H111.376V65.556H108.496V68.628ZM113.52 74.356H116.432V69.556H113.52V74.356ZM139.824 65.204C139.824 64.724 140.144 64.532 140.592 64.724L142.192 65.492H149.744L150.288 64.66C150.512 64.308 150.864 64.244 151.184 64.532L152.496 65.716C152.816 66.004 152.912 66.356 152.624 66.516C152.464 66.58 152.304 66.644 152.112 66.708V78.132C152.112 78.292 151.376 78.836 150.384 78.836C150.096 78.836 149.936 78.612 149.936 78.196V76.564H141.968V86.228C141.968 87.188 142.192 87.476 143.568 87.476H147.024C148.56 87.476 149.648 87.444 150.192 87.348C150.512 87.316 150.64 87.252 150.832 86.9C151.024 86.484 151.376 85.076 151.728 83.188C151.792 82.772 151.92 82.58 152.08 82.58C152.24 82.58 152.336 82.804 152.336 83.22L152.432 87.092C153.136 87.38 153.36 87.668 153.36 88.052C153.36 89.204 152.112 89.62 146.896 89.62H143.344C140.688 89.62 139.824 89.012 139.824 86.74V75.572C138.96 76.148 137.84 76.884 136.464 77.748V87.38C136.464 89.012 136.208 90.036 134.256 90.452C133.84 90.516 133.584 90.324 133.488 89.876C133.424 89.428 133.328 89.076 133.168 88.852C132.88 88.532 132.528 88.308 131.952 88.18C131.536 88.084 131.344 87.988 131.344 87.828C131.344 87.7 131.6 87.636 132.016 87.668C132.88 87.732 133.68 87.796 133.936 87.796C134.256 87.796 134.32 87.7 134.32 87.22V78.996C133.744 79.348 133.104 79.732 132.4 80.116C132.368 80.308 132.304 80.468 132.208 80.596C131.952 80.948 131.536 80.724 131.408 80.308L130.832 78.676C130.704 78.26 130.832 77.972 131.248 77.876C132.016 77.652 133.072 77.332 134.32 76.916V70.036H131.536C131.152 70.036 130.928 69.908 130.864 69.588C130.8 69.332 131.024 69.14 131.472 69.14H134.32V63.22C134.32 62.804 134.576 62.548 134.992 62.612L136.56 62.804C137.008 62.868 137.328 63.188 137.04 63.444C136.912 63.54 136.72 63.636 136.464 63.7V69.14H136.88L137.616 67.86C137.84 67.476 138.192 67.412 138.512 67.764C138.96 68.276 139.44 68.82 139.824 69.268V65.204ZM136.464 76.212C137.488 75.86 138.672 75.476 139.824 75.06V69.908C139.696 70.004 139.536 70.036 139.376 70.036H136.464V76.212ZM141.968 75.7H144.944V66.388H141.968V75.7ZM147.056 75.7H149.936V66.388H147.056V75.7ZM180.56 63.572C180.784 63.22 181.136 63.156 181.456 63.444C182.032 64.02 182.672 64.628 183.152 65.14C183.408 65.428 183.536 65.748 183.248 65.908C183.12 65.972 182.96 66.004 182.8 66.004H174.192C174.128 68.692 174.064 71.252 173.808 73.716H181.008L182.096 72.084C182.32 71.732 182.672 71.668 182.992 71.988C183.6 72.564 184.24 73.204 184.752 73.748C185.008 74.036 185.104 74.356 184.816 74.516C184.688 74.58 184.528 74.612 184.368 74.612H176.88V86.42C176.88 87.028 176.976 87.156 177.808 87.156H180.24C181.264 87.156 182.064 87.156 182.448 87.092C182.704 87.06 182.736 87.028 182.928 86.644C183.088 86.196 183.376 84.628 183.664 82.868C183.728 82.452 183.888 82.26 184.048 82.26C184.208 82.26 184.304 82.484 184.304 82.9L184.368 86.868C185.008 87.124 185.2 87.412 185.2 87.86C185.2 88.884 184.208 89.332 180.112 89.332H177.424C175.152 89.332 174.64 88.756 174.64 86.964V74.612H173.712C172.912 80.82 170.672 86.196 163.664 90.292C163.28 90.516 163.024 90.516 162.928 90.356C162.832 90.164 162.928 89.94 163.248 89.716C168.88 85.492 170.8 80.372 171.44 74.612H163.792C163.408 74.612 163.184 74.484 163.12 74.164C163.056 73.908 163.28 73.716 163.728 73.716H171.536C171.728 71.252 171.76 68.66 171.792 66.004H165.296C164.912 66.004 164.688 65.844 164.624 65.556C164.56 65.3 164.816 65.14 165.264 65.14H179.536L180.56 63.572ZM197.52 74.228C197.52 73.748 197.84 73.556 198.288 73.748L199.984 74.548H207.824C208.368 72.852 208.976 70.612 209.36 68.756C209.456 68.34 209.744 68.18 210.128 68.276L211.76 68.724C212.208 68.852 212.464 69.204 212.208 69.396C212.048 69.492 211.888 69.556 211.664 69.556C210.992 70.964 209.84 72.884 208.72 74.548H212.528L213.488 73.14C213.712 72.788 214.064 72.724 214.384 73.044C214.928 73.524 215.504 74.1 215.984 74.58C216.272 74.868 216.368 75.188 216.112 75.348C215.984 75.412 215.824 75.444 215.664 75.444H199.728V78.132C199.728 81.62 199.408 86.708 195.472 90.26C195.184 90.548 194.928 90.612 194.832 90.484C194.736 90.356 194.768 90.164 194.992 89.812C197.232 86.228 197.52 81.876 197.52 78.132V74.228ZM195.216 67.252C195.152 66.996 195.376 66.804 195.824 66.804H213.296L214.256 65.396C214.48 65.044 214.832 64.98 215.152 65.3C215.696 65.78 216.24 66.356 216.72 66.804C217.008 67.092 217.104 67.444 216.816 67.604C216.688 67.668 216.528 67.7 216.336 67.7H195.888C195.504 67.7 195.28 67.54 195.216 67.252ZM201.2 68.788C201.04 68.436 201.04 68.212 201.136 68.148C201.232 68.052 201.456 68.084 201.776 68.308C206.32 71.092 204.624 75.284 202.768 73.844C202.512 73.62 202.448 73.396 202.416 73.076C202.224 71.636 201.712 70.004 201.2 68.788ZM204.208 62.9C203.984 62.58 203.888 62.42 203.952 62.324C204.016 62.26 204.208 62.228 204.592 62.324C209.136 63.476 207.952 67.412 206.064 66.452C205.776 66.292 205.68 66.068 205.584 65.716C205.36 64.724 204.784 63.636 204.208 62.9ZM241.936 64.628C240.528 68.468 237.616 72.212 234.448 74.516C234.096 74.772 233.84 74.836 233.776 74.676C233.712 74.548 233.776 74.324 234.064 74.068C236.592 71.476 239.184 66.9 240.016 63.22C240.112 62.804 240.4 62.644 240.784 62.74L242.448 63.156C242.928 63.284 243.248 63.636 242.96 63.764C242.832 63.828 242.672 63.892 242.448 63.924C243.76 67.316 246.32 70.132 248.976 71.828C249.264 72.02 249.392 72.148 249.392 72.244C249.392 72.34 249.2 72.404 248.912 72.596C248.56 72.82 248.24 73.204 248.08 73.652C247.888 74.068 247.696 74.196 247.408 73.94C244.944 71.668 242.928 68.404 241.936 64.628ZM228.08 90.484C227.952 90.484 227.856 90.26 227.856 89.844V64.116C227.856 63.636 228.176 63.412 228.624 63.636L230.16 64.436H232.88L233.68 63.508C233.968 63.156 234.288 63.124 234.576 63.476L235.92 65.044C236.208 65.364 236.272 65.78 235.92 65.844C235.76 65.876 235.568 65.908 235.344 65.908C234.608 67.764 233.168 71.284 232.048 73.172C234.672 75.508 235.664 78.132 235.664 80.564C235.664 83.22 234.896 84.692 232.72 84.948C232.272 85.012 232.048 84.788 232.016 84.34C231.984 83.828 231.888 83.38 231.76 83.188C231.6 82.996 231.408 82.868 231.12 82.772C230.736 82.644 230.544 82.548 230.544 82.42C230.544 82.292 230.768 82.196 231.184 82.196H232.4C232.656 82.196 232.72 82.164 232.912 82.004C233.232 81.748 233.456 81.172 233.456 79.956C233.456 77.844 232.88 75.7 231.504 73.588C231.344 73.3 231.28 73.076 231.376 72.756C231.856 70.804 232.528 67.572 232.944 65.332H229.968V89.716C229.968 89.876 229.328 90.484 228.272 90.484H228.08ZM233.36 90.452C233.264 90.324 233.36 90.1 233.648 89.812C236.848 86.74 237.392 82.26 237.392 78.26V73.652C237.392 73.236 237.648 73.012 238.064 73.076L239.6 73.268C240.08 73.332 240.432 73.652 240.144 73.876C240.016 73.972 239.856 74.068 239.6 74.1L239.568 78.292C239.568 82.58 238.736 87.38 234.064 90.356C233.68 90.58 233.456 90.612 233.36 90.452ZM243.344 90.516C243.184 90.516 243.088 90.292 243.088 89.876V73.652C243.088 73.236 243.344 72.98 243.76 73.044L245.296 73.268C245.744 73.332 246.096 73.652 245.808 73.876C245.712 74.004 245.52 74.068 245.264 74.132V89.78C245.264 90.036 244.368 90.516 243.6 90.516H243.344ZM278.736 64.756C279.056 65.076 279.12 65.428 278.8 65.556C278.64 65.62 278.448 65.684 278.256 65.716C277.744 67.604 276.688 70.836 275.92 73.076H277.744L278.544 72.148C278.832 71.796 279.152 71.828 279.44 72.148L280.592 73.364C280.88 73.684 280.944 74.068 280.624 74.164C280.496 74.196 280.304 74.228 280.112 74.26C279.312 77.812 278.16 81.076 276.272 83.892C277.584 85.716 279.184 87.092 281.008 87.988C281.36 88.18 281.552 88.308 281.52 88.372C281.488 88.436 281.328 88.5 281.04 88.66C280.688 88.884 280.368 89.3 280.112 89.812C279.952 90.228 279.664 90.356 279.28 90.132C277.456 88.948 276.016 87.444 274.896 85.684C273.296 87.54 271.216 89.108 268.592 90.324C268.208 90.484 267.984 90.516 267.92 90.356C267.856 90.196 267.984 90.004 268.336 89.78C270.672 88.308 272.528 86.452 274.032 84.18C272.656 81.556 271.76 78.388 271.152 74.708C270.736 80.756 269.488 86.036 265.52 90.196C265.2 90.516 264.944 90.612 264.816 90.42C264.656 90.228 264.688 89.972 264.912 89.652C269.392 83.348 269.2 74.836 269.232 65.364H267.472C267.088 65.364 266.864 65.236 266.8 64.916C266.736 64.628 266.96 64.468 267.408 64.468H276.144L276.656 63.732C276.912 63.348 277.264 63.348 277.584 63.636L278.736 64.756ZM258.768 72.052C258.64 71.668 258.704 71.476 258.928 71.38C259.056 71.348 259.152 71.284 259.248 71.156C260.432 69.652 261.968 65.78 262.672 63.316C262.768 62.868 263.088 62.74 263.472 62.932L265.136 63.764C265.552 63.988 265.744 64.34 265.456 64.5C265.328 64.564 265.136 64.596 264.944 64.596C263.92 66.708 262 69.62 260.272 71.604C261.328 71.572 262.736 71.476 264.176 71.38C264.656 70.356 265.104 69.364 265.456 68.436C265.616 68.02 265.936 67.892 266.32 68.18L267.856 69.3C268.24 69.588 268.336 69.94 268.016 70.036C267.888 70.1 267.696 70.132 267.504 70.1C266.096 72.628 263.376 76.372 260.848 79.028L266.864 78.068C267.28 78.004 267.568 78.036 267.568 78.196C267.568 78.324 267.408 78.484 267.088 78.612C266.896 78.708 266.672 78.804 266.48 78.9C265.008 79.572 262.96 80.5 260.624 81.396C260.56 81.556 260.464 81.684 260.368 81.812C260.08 82.164 259.664 81.972 259.536 81.524L258.96 79.764C258.832 79.348 258.928 79.156 259.184 79.028C259.312 78.996 259.44 78.9 259.536 78.804C260.752 77.524 262.288 74.996 263.6 72.5C262.704 72.884 261.552 73.364 260.336 73.844C260.272 73.908 260.24 74.004 260.176 74.068C259.856 74.42 259.472 74.228 259.344 73.78L258.768 72.052ZM258.928 86.516C258.768 86.132 258.896 85.812 259.312 85.684C260.912 85.204 263.664 84.244 266.48 83.092C266.864 82.932 267.152 82.9 267.184 83.028C267.216 83.156 267.088 83.348 266.832 83.572C265.424 84.692 263.344 86.228 260.624 87.988C260.624 88.084 260.56 88.244 260.464 88.404C260.208 88.82 259.76 88.628 259.6 88.212L258.928 86.516ZM271.344 70.356C272.048 74.964 273.296 79.092 275.152 82.228C276.432 79.828 277.296 77.012 277.84 73.94H275.728L275.408 74.356C275.152 74.708 274.832 74.708 274.512 74.452L273.68 73.716C273.328 73.396 273.232 73.108 273.488 72.98C273.616 72.916 273.744 72.82 273.904 72.756C274.576 70.804 275.568 67.54 276.176 65.364H271.408V67.028C271.376 68.148 271.376 69.268 271.344 70.356ZM299.472 62.708C299.536 62.612 299.76 62.644 300.144 62.772C305.84 64.852 304.656 69.492 302.576 68.372C302.32 68.212 302.192 67.988 302.128 67.7C301.712 66.164 300.688 64.468 299.728 63.316C299.472 62.996 299.376 62.804 299.472 62.708ZM290.896 90.388C290.832 90.26 290.992 90.068 291.376 89.908C295.376 88.148 298.48 85.812 300.912 82.868C298.512 79.508 296.848 75.38 295.92 70.132H291.76C291.376 70.132 291.152 70.004 291.088 69.684C291.024 69.396 291.248 69.236 291.696 69.236H309.008L310.096 67.604C310.32 67.252 310.672 67.22 310.992 67.508C311.568 68.084 312.24 68.724 312.72 69.236C312.976 69.524 313.104 69.844 312.816 70.036C312.688 70.1 312.528 70.132 312.336 70.132H309.104C308.112 75.06 306.352 79.284 303.504 82.708C306.16 85.236 309.328 86.964 312.848 88.052C313.232 88.18 313.424 88.276 313.392 88.372C313.36 88.5 313.2 88.532 312.848 88.628C312.208 88.82 311.728 89.268 311.376 89.972C311.184 90.356 310.928 90.516 310.544 90.356C307.184 88.98 304.304 86.964 302.064 84.34C299.44 86.932 295.984 89.012 291.568 90.42C291.184 90.548 290.96 90.548 290.896 90.388ZM296.656 70.132C297.744 74.772 299.632 78.452 302.096 81.236C304.24 78.132 305.616 74.388 306.352 70.132H296.656ZM335.888 63.348C336.336 63.412 336.656 63.732 336.368 63.988C336.24 64.116 336.048 64.212 335.792 64.276L335.76 76.02C337.936 73.524 339.824 70.836 341.136 68.372C341.36 67.988 341.712 67.924 342.032 68.212L343.504 69.556C343.856 69.876 343.952 70.324 343.6 70.324C343.44 70.324 343.248 70.292 343.024 70.196C341.296 72.724 338.8 75.668 335.792 78.356V86.228C335.792 87.124 336.016 87.412 337.072 87.412H339.792C340.976 87.412 341.872 87.38 342.288 87.348C342.576 87.316 342.64 87.284 342.832 86.9C343.024 86.484 343.376 84.948 343.696 83.092C343.76 82.676 343.92 82.484 344.08 82.484C344.24 82.484 344.336 82.708 344.336 83.124L344.432 87.092C345.104 87.444 345.296 87.7 345.296 88.116C345.296 89.204 344.176 89.652 339.664 89.652H336.784C334.384 89.652 333.584 89.012 333.584 86.836V80.148C332.336 81.108 330.96 82.036 329.52 82.836C329.168 83.028 328.912 83.028 328.848 82.9C328.784 82.772 328.88 82.58 329.2 82.324C330.672 81.236 332.144 79.924 333.584 78.452V63.732C333.584 63.316 333.84 63.092 334.256 63.156L335.888 63.348ZM322.64 78.708C322.512 78.58 322.512 78.388 322.736 78.036C324.88 74.452 327.152 68.916 328.56 63.22C328.656 62.804 328.976 62.644 329.36 62.804L331.248 63.572C331.664 63.732 331.92 64.116 331.6 64.276C331.44 64.372 331.248 64.404 331.024 64.404C330.224 66.868 329.264 69.172 328.176 71.316L328.368 71.412C328.784 71.636 329.008 71.956 328.784 72.084C328.688 72.148 328.528 72.212 328.368 72.244V89.428C328.368 89.716 328.304 89.94 328.048 90.1C327.696 90.292 327.12 90.484 326.64 90.484C326.352 90.484 326.16 90.26 326.16 89.844V74.804C325.264 76.116 324.304 77.364 323.28 78.452C322.992 78.74 322.768 78.836 322.64 78.708ZM374 69.812C374.224 69.46 374.576 69.396 374.896 69.716C375.568 70.292 376.272 70.996 376.816 71.572C377.072 71.86 377.168 72.18 376.88 72.34C376.752 72.404 376.592 72.436 376.432 72.436H366.992C367.856 78.1 370.384 84.052 377.008 87.956C377.328 88.148 377.456 88.244 377.456 88.34C377.456 88.436 377.264 88.5 376.88 88.628C376.272 88.788 375.856 89.204 375.6 89.94C375.472 90.388 375.216 90.516 374.832 90.228C369.168 85.876 367.216 79.38 366.48 73.716C365.68 80.212 363.312 85.972 355.632 90.292C355.248 90.516 355.024 90.516 354.928 90.356C354.832 90.164 354.928 89.94 355.28 89.716C361.744 84.98 363.632 79.124 364.24 72.436H355.792C355.408 72.436 355.184 72.308 355.12 71.988C355.056 71.7 355.28 71.54 355.728 71.54H364.304C364.496 68.916 364.464 66.164 364.464 63.284C364.464 62.868 364.72 62.612 365.136 62.676L366.992 62.9C367.44 62.964 367.792 63.284 367.504 63.54C367.376 63.668 367.184 63.764 366.928 63.828C366.896 66.484 366.864 69.044 366.672 71.54H372.88L374 69.812ZM406.224 82.388C406.448 82.036 406.8 81.972 407.12 82.292C407.728 82.836 408.368 83.476 408.88 83.988C409.136 84.276 409.264 84.596 408.976 84.756C408.848 84.82 408.688 84.852 408.528 84.852H399.088V89.812C399.088 89.94 398.384 90.516 397.296 90.516C397.008 90.516 396.816 90.292 396.816 89.876V84.852H387.536C387.152 84.852 386.928 84.692 386.864 84.404C386.8 84.148 387.056 83.988 387.504 83.988H396.816V80.276H392.432V81.236C392.432 81.428 391.472 81.972 390.64 81.972C390.384 81.972 390.224 81.748 390.224 81.332V73.62C390.224 73.14 390.544 72.916 390.992 73.14L392.528 73.908H396.816V70.804H395.248V71.764C395.248 71.956 394.288 72.468 393.52 72.468C393.232 72.468 393.072 72.244 393.072 71.828V66.964H388.08C387.696 66.964 387.472 66.836 387.408 66.516C387.344 66.26 387.568 66.068 388.016 66.068H393.072V63.22C393.072 62.804 393.328 62.58 393.744 62.612L395.248 62.772C395.728 62.836 396.08 63.156 395.792 63.38C395.664 63.476 395.472 63.572 395.248 63.636V66.068H400.688V63.22C400.688 62.804 400.944 62.58 401.36 62.612L402.864 62.772C403.344 62.836 403.696 63.156 403.408 63.38C403.28 63.476 403.088 63.572 402.864 63.636V66.068H404.784L405.776 64.596C406 64.244 406.352 64.18 406.672 64.468C407.248 64.98 407.856 65.588 408.336 66.1C408.592 66.388 408.688 66.708 408.4 66.868C408.272 66.932 408.112 66.964 407.952 66.964H402.864V71.604C402.864 71.828 401.936 72.308 401.136 72.308C400.848 72.308 400.688 72.084 400.688 71.668V70.804H399.088V73.908H403.248L403.888 73.044C404.144 72.724 404.496 72.66 404.816 72.948L406.16 74.196C406.48 74.484 406.544 74.836 406.224 74.996C406.064 75.06 405.904 75.124 405.712 75.188V80.564C405.712 80.884 405.648 81.108 405.36 81.268C404.976 81.46 404.368 81.716 403.92 81.716C403.632 81.716 403.44 81.492 403.44 81.076V80.276H399.088V83.988H405.168L406.224 82.388ZM392.432 79.38H396.816V74.804H392.432V79.38ZM395.248 69.876H400.688V66.964H395.248V69.876ZM399.088 79.38H403.44V74.804H399.088V79.38ZM432.336 70.292C432.56 69.94 432.912 69.876 433.232 70.164C433.776 70.644 434.32 71.156 434.736 71.636C434.992 71.924 435.088 72.244 434.832 72.404C434.704 72.468 434.544 72.5 434.384 72.5H425.424C425.04 72.5 424.816 72.308 424.752 72.02C424.688 71.764 424.912 71.572 425.36 71.572H431.472L432.336 70.292ZM418.64 74.644C418.576 74.484 418.704 74.324 419.024 74.1C422.832 71.54 427.024 66.708 428.464 62.868C428.592 62.484 428.848 62.324 429.264 62.452L431.312 63.028C431.824 63.188 432.048 63.54 431.728 63.7C431.568 63.764 431.376 63.828 431.12 63.86C433.264 67.06 437.168 69.652 441.008 71.252C441.36 71.412 441.552 71.54 441.52 71.668C441.488 71.828 441.328 71.86 441.008 72.052C440.592 72.308 440.24 72.756 440.016 73.236C439.856 73.652 439.6 73.812 439.216 73.588C435.536 71.508 432.208 68.116 430.576 64.404C428.368 68.116 423.888 72.34 419.344 74.58C418.96 74.804 418.672 74.804 418.64 74.644ZM421.616 88.34C421.488 88.34 421.392 88.116 421.392 87.7V75.796C421.392 75.316 421.712 75.092 422.16 75.316L423.504 76.02H426.672L427.248 75.252C427.504 74.932 427.824 74.868 428.144 75.156L429.264 76.18C429.584 76.5 429.68 76.82 429.392 76.98C429.264 77.044 429.104 77.108 428.944 77.14V86.228C428.944 86.516 428.88 86.74 428.624 86.9C428.272 87.092 427.696 87.316 427.28 87.316C427.024 87.316 426.864 87.092 426.864 86.676V84.98H423.44V87.636C423.44 87.796 422.608 88.34 421.808 88.34H421.616ZM423.44 84.116H426.864V76.916H423.44V84.116ZM431.056 90.42C430.928 90.42 430.832 90.196 430.832 89.78V75.604C430.832 75.124 431.152 74.9 431.6 75.124L433.008 75.86H436.496L437.072 75.06C437.328 74.708 437.648 74.676 437.968 74.964L439.248 76.084C439.568 76.372 439.632 76.692 439.344 76.884C439.216 76.948 439.056 77.012 438.864 77.076V84.852C438.864 86.356 438.608 87.316 436.72 87.636C436.272 87.732 436.048 87.508 435.984 87.06C435.92 86.708 435.824 86.388 435.728 86.196C435.472 85.94 435.184 85.716 434.704 85.588C434.288 85.492 434.096 85.396 434.096 85.236C434.096 85.108 434.352 85.044 434.768 85.076C435.472 85.14 436.112 85.204 436.368 85.204C436.624 85.204 436.688 85.076 436.688 84.628V76.756H432.944V89.684C432.944 89.844 432.112 90.42 431.248 90.42H431.056ZM111.024 102.9C111.504 102.964 111.824 103.316 111.536 103.54C111.408 103.668 111.248 103.732 110.992 103.796V109.012H114.48V103.348C114.48 102.932 114.736 102.676 115.152 102.74L116.656 102.964C117.104 103.028 117.456 103.348 117.168 103.604C117.04 103.7 116.848 103.764 116.592 103.828V109.012H117.232L118.064 107.604C118.288 107.22 118.64 107.156 118.96 107.508C119.44 108.02 119.952 108.564 120.336 109.012C120.592 109.332 120.688 109.652 120.4 109.812C120.272 109.876 120.112 109.908 119.952 109.908H116.592V116.404H117.936L118.8 114.964C119.024 114.58 119.376 114.516 119.696 114.836C120.208 115.38 120.752 115.956 121.136 116.436C121.392 116.724 121.456 117.044 121.168 117.204C121.04 117.268 120.88 117.3 120.72 117.3H116.592V125.844C116.592 126.1 115.728 126.644 114.96 126.644C114.672 126.644 114.48 126.42 114.48 126.004V117.3H110.864C110.576 120.724 109.584 123.476 107.056 125.716C106.768 125.972 106.544 126.004 106.416 125.908C106.288 125.78 106.352 125.588 106.576 125.236C107.984 123.092 108.624 120.5 108.816 117.3H105.84C105.456 117.3 105.232 117.172 105.168 116.852C105.104 116.596 105.328 116.404 105.776 116.404H108.848C108.88 115.892 108.88 115.348 108.88 114.772V109.908H106.608C106.224 109.908 106 109.78 105.936 109.46C105.872 109.204 106.096 109.012 106.544 109.012H108.88V103.284C108.88 102.868 109.136 102.644 109.552 102.708L111.024 102.9ZM98.832 128.116C98.64 127.796 98.672 127.476 98.96 127.22C99.376 126.836 99.888 126.356 100.368 125.876C101.008 125.3 101.552 124.724 102.128 124.244V113.748H99.472C99.088 113.748 98.832 113.588 98.8 113.3C98.768 113.012 99.024 112.884 99.44 112.884H101.808L102.544 111.7C102.768 111.316 103.12 111.284 103.44 111.604L104.88 113.012C105.168 113.3 105.2 113.684 104.848 113.876C104.656 113.94 104.464 114.004 104.208 114.068V123.732C104.304 123.86 104.4 124.02 104.56 124.244C106.384 127.188 108.656 127.38 113.616 127.38C116.08 127.38 118.192 127.38 120.656 127.252C121.104 127.22 121.328 127.284 121.328 127.38C121.328 127.508 121.136 127.572 120.848 127.764C120.432 128.02 120.144 128.436 119.984 129.012C119.888 129.396 119.696 129.588 119.312 129.588H112.976C107.76 129.588 105.584 128.724 103.792 124.756C103.536 124.276 103.472 124.308 103.184 124.756L102.256 126.324C101.68 127.348 101.008 128.468 100.496 129.492C100.496 129.524 100.496 129.556 100.528 129.556C100.592 129.94 99.952 130.004 99.696 129.556L98.832 128.116ZM100.368 103.796C100.176 103.444 100.144 103.22 100.24 103.156C100.336 103.06 100.56 103.124 100.912 103.316C106.352 106.612 105.2 111.06 103.184 109.812C102.896 109.652 102.8 109.428 102.736 109.14C102.256 107.348 101.264 105.3 100.368 103.796ZM110.928 116.404H114.48V109.908H110.992V114.772C110.992 115.316 110.96 115.86 110.928 116.404ZM138.992 110.228C139.376 110.484 139.536 110.9 139.248 110.964C139.12 110.996 138.928 110.996 138.736 110.964C138.192 111.892 137.424 113.012 136.56 114.196L136.72 114.26C137.168 114.452 137.392 114.772 137.168 114.9C137.04 114.964 136.912 115.028 136.752 115.092V129.396C136.752 129.684 136.72 129.94 136.464 130.1C136.112 130.324 135.568 130.548 135.024 130.548C134.704 130.548 134.512 130.324 134.512 129.908V116.692C133.552 117.78 132.464 118.868 131.344 119.828C131.024 120.084 130.8 120.148 130.704 120.02C130.608 119.892 130.672 119.7 130.896 119.38C133.136 116.564 135.344 112.532 136.592 109.492C136.752 109.076 137.104 108.98 137.456 109.204L138.992 110.228ZM131.152 111.316C131.056 111.156 131.152 110.964 131.408 110.676C133.296 108.596 135.216 105.524 136.368 103.188C136.56 102.772 136.88 102.676 137.232 102.932L138.672 103.924C139.056 104.212 139.216 104.628 138.928 104.692C138.768 104.724 138.608 104.724 138.384 104.66C136.944 106.676 134.48 109.3 131.856 111.188C131.504 111.444 131.248 111.476 131.152 111.316ZM139.088 112.82C139.024 112.532 139.28 112.404 139.728 112.404H149.648L150.576 110.964C150.8 110.612 151.152 110.548 151.472 110.868C152.016 111.38 152.592 111.956 153.008 112.404C153.264 112.692 153.392 113.012 153.104 113.172C152.976 113.236 152.816 113.268 152.656 113.268H148.976V127.06C148.976 128.692 148.592 129.94 146.032 130.324C145.616 130.42 145.392 130.196 145.296 129.78C145.2 129.3 145.008 128.884 144.752 128.692C144.304 128.372 143.696 128.116 142.544 127.86C142.128 127.796 141.936 127.668 141.936 127.54C141.936 127.412 142.192 127.348 142.608 127.38C144.144 127.508 145.744 127.636 146.16 127.636C146.576 127.636 146.704 127.508 146.704 126.964V113.268H139.76C139.376 113.268 139.152 113.108 139.088 112.82ZM140.432 105.844C140.368 105.588 140.624 105.396 141.04 105.396H148.752L149.648 104.02C149.872 103.668 150.224 103.572 150.544 103.892C151.088 104.404 151.6 104.948 152.048 105.428C152.304 105.716 152.4 106.036 152.112 106.196C151.984 106.26 151.824 106.292 151.664 106.292H141.104C140.72 106.292 140.464 106.132 140.432 105.844ZM170.32 106.996C170.768 107.188 170.96 107.54 170.672 107.7C170.544 107.764 170.352 107.828 170.16 107.828C169.04 109.46 167.12 111.636 165.392 113.14C167.216 113.012 170.16 112.724 173.296 112.404C172.784 111.188 172.144 110.036 171.504 109.14C171.28 108.82 171.216 108.628 171.28 108.532C171.344 108.468 171.568 108.468 171.92 108.66C177.424 111.668 176.208 116.436 174.288 115.22C174 115.028 173.936 114.804 173.904 114.484C173.84 114.004 173.68 113.524 173.52 113.044C171.504 113.652 168.624 114.452 165.456 115.252C165.424 115.348 165.36 115.444 165.296 115.54C165.04 115.892 164.624 115.732 164.464 115.284L163.824 113.588C163.664 113.204 163.696 112.916 163.92 112.852C164.048 112.82 164.144 112.788 164.24 112.756C165.584 111.508 167.376 108.084 168.08 106.196H163.792C163.408 106.196 163.184 106.036 163.12 105.748C163.056 105.492 163.312 105.332 163.76 105.332H173.008L173.904 103.924C174.128 103.572 174.48 103.508 174.8 103.828C175.312 104.308 175.856 104.852 176.272 105.3C176.528 105.588 176.624 105.94 176.336 106.1C176.208 106.164 176.048 106.196 175.888 106.196H168.464L170.32 106.996ZM163.12 127.668C162.96 127.252 163.12 126.964 163.568 126.9C164.688 126.676 166.384 126.356 168.368 125.908V120.052H164.208C163.824 120.052 163.6 119.892 163.536 119.604C163.472 119.348 163.728 119.188 164.176 119.188H168.368V115.508C168.368 115.092 168.624 114.868 169.04 114.9L170.576 115.06C171.056 115.124 171.408 115.444 171.12 115.668C170.992 115.796 170.8 115.86 170.544 115.924V119.188H172.368L173.264 117.748C173.488 117.364 173.84 117.332 174.16 117.652C174.672 118.164 175.216 118.708 175.6 119.188C175.856 119.476 175.952 119.796 175.664 119.956C175.536 120.02 175.376 120.052 175.216 120.052H170.544V125.428L174.608 124.5C175.056 124.404 175.472 124.308 175.92 124.212C176.336 124.116 176.592 124.148 176.624 124.276C176.656 124.468 176.496 124.596 176.144 124.756C173.52 125.908 169.904 127.412 164.816 129.236C164.752 129.396 164.688 129.556 164.56 129.684C164.272 129.972 163.92 129.748 163.76 129.364L163.12 127.668ZM177.648 124.02C177.52 124.02 177.424 123.796 177.424 123.38V106.068C177.424 105.652 177.68 105.428 178.096 105.492L179.536 105.652C180.016 105.716 180.368 106.036 180.08 106.292C179.952 106.388 179.76 106.484 179.504 106.548V123.284C179.504 123.508 178.64 124.02 177.872 124.02H177.648ZM179.024 128.18C178.608 128.116 178.416 127.988 178.416 127.86C178.416 127.732 178.672 127.668 179.088 127.7C180.176 127.764 181.232 127.86 181.52 127.86C181.84 127.86 181.936 127.732 181.936 127.22V103.732C181.936 103.316 182.192 103.092 182.608 103.156L184.144 103.348C184.624 103.412 184.944 103.732 184.688 103.988C184.528 104.084 184.368 104.18 184.112 104.244V127.412C184.112 129.012 183.856 130.132 181.68 130.484C181.264 130.58 181.008 130.356 180.944 129.94C180.848 129.524 180.752 129.172 180.528 128.916C180.176 128.564 179.76 128.34 179.024 128.18ZM204.496 102.26C204.592 102.164 204.752 102.196 205.104 102.26C209.904 103.22 208.816 107.188 206.832 106.324C206.544 106.196 206.416 105.972 206.32 105.684C205.968 104.692 205.328 103.636 204.752 102.868C204.496 102.548 204.4 102.356 204.496 102.26ZM195.024 130.484C194.896 130.356 194.896 130.132 195.024 129.78C197.008 125.204 197.232 119.54 197.232 114.26V106.196C197.232 105.716 197.552 105.524 198 105.716L199.728 106.548H213.456L214.416 105.044C214.64 104.692 214.992 104.628 215.312 104.948C215.856 105.46 216.464 106.068 216.912 106.58C217.168 106.868 217.232 107.188 216.976 107.348C216.848 107.412 216.688 107.444 216.528 107.444H199.472V114.228C199.472 119.188 199.248 125.556 195.664 130.164C195.408 130.516 195.184 130.612 195.024 130.484ZM200.752 128.212C200.56 127.86 200.624 127.604 200.912 127.316C201.36 126.932 201.456 126.676 201.456 126.228V110.996C201.456 110.516 201.744 110.292 202.192 110.484L203.984 111.188C207.088 110.58 210.576 109.524 212.752 108.66C213.104 108.5 213.392 108.564 213.616 108.852L214.736 110.164C215.056 110.516 214.992 111.028 214.544 110.964C214.32 110.932 214.096 110.836 213.84 110.708C212.784 110.932 211.504 111.156 210.128 111.316C210.128 113.396 210.288 115.572 210.608 117.62H212.88L213.808 116.18C214.032 115.796 214.384 115.764 214.704 116.084C215.216 116.596 215.76 117.172 216.208 117.652C216.432 117.94 216.528 118.26 216.272 118.42C216.144 118.484 215.984 118.516 215.824 118.516H210.768C211.504 122.228 212.848 125.492 214.928 127.092C215.28 127.348 215.28 127.348 215.504 126.868C215.696 126.388 216.016 125.524 216.24 124.596C216.368 124.212 216.496 123.988 216.656 124.02C216.816 124.052 216.88 124.244 216.848 124.66L216.592 127.956C217.232 128.916 217.36 129.332 217.008 129.844C216.368 130.772 214.832 130.132 213.84 129.268C210.928 126.804 209.392 122.996 208.624 118.516H203.632V125.94C204.56 125.3 205.616 124.564 206.768 123.732C207.12 123.476 207.376 123.38 207.44 123.54C207.504 123.668 207.44 123.892 207.216 124.148C206.256 125.332 204.624 127.284 202.768 129.3C202.704 129.556 202.64 129.748 202.512 129.94C202.288 130.292 201.872 130.132 201.648 129.78L200.752 128.212ZM203.632 117.62H208.464C208.208 115.668 208.048 113.652 207.984 111.604C206.544 111.764 205.072 111.892 203.632 111.924V117.62ZM206.48 126.228C206.256 125.908 206.192 125.716 206.256 125.62C206.32 125.556 206.544 125.556 206.896 125.684C211.376 127.572 210.128 131.22 208.4 130.164C208.112 130.004 208.048 129.78 207.984 129.46C207.728 128.34 207.088 127.092 206.48 126.228ZM231.184 115.028C230.736 110.356 230.544 107.988 230.544 106.26C230.544 105.076 231.152 104.436 231.984 104.436C232.816 104.436 233.424 105.076 233.424 106.26C233.424 107.988 233.232 110.356 232.752 115.028L232.464 120.564C232.432 120.948 232.272 121.172 231.984 121.172C231.696 121.172 231.536 120.948 231.504 120.564L231.184 115.028ZM230.352 126.356C230.352 125.428 231.024 124.596 231.952 124.596C232.912 124.596 233.584 125.428 233.584 126.356C233.584 127.22 232.912 128.084 231.952 128.084C231.024 128.084 230.352 127.22 230.352 126.356Z" fill="#E22626"/>
</g>
<defs>
<clipPath id="clip0_56_22">
<rect y="-1" width="528" height="156" rx="8" fill="white"/>
</clipPath>
</defs>
</svg>
