<svg preserveAspectRatio="none" width="100%" height="100%" overflow="visible" style="display: block;" viewBox="0 0 348 8" fill="none" xmlns="http://www.w3.org/2000/svg" xmlns:xlink="http://www.w3.org/1999/xlink">
<path id="Rectangle 6" d="M0 0L348 0V8H0V0Z" fill="url(#pattern0_0_6)"/>
<defs>
<pattern id="pattern0_0_6" patternUnits="userSpaceOnUse" patternTransform="matrix(12 0 0 24 0 -2)" preserveAspectRatio="none" viewBox="0 0 12 24" width="1" height="1">
<use xlink:href="#pattern0_0_6_inner" transform="translate(-12 0)"/>
<g id="pattern0_0_6_inner">
<g id="Border Font 2">
<g id="Border Font 2_2">
<rect width="12" height="12" fill="white"/>
<g id="Group 4">
<path id="&#226;&#136;&#171;" d="M7.17068 5.25989L5.28875 5.77284C4.25527 6.05341 3.37775 6.18504 2.65619 6.16775C2.42451 6.16487 2.22455 6.12597 2.0563 6.05107C1.9808 6.01762 1.89193 5.92067 1.78968 5.76022C1.6882 5.60276 1.64947 5.44708 1.67349 5.29318C1.68769 5.21882 1.72251 5.14194 1.77794 5.06253C1.83415 4.98611 1.88648 4.92997 1.93494 4.89411C2.0249 4.83073 2.11704 4.80514 2.21136 4.81736C2.30567 4.82958 2.39263 4.88385 2.47222 4.98018C2.54667 5.06833 2.57692 5.15595 2.56297 5.24304C2.54979 5.33311 2.50659 5.43633 2.43336 5.55268C2.3707 5.6629 2.38356 5.73615 2.47194 5.77242C2.56109 5.81168 2.68814 5.82121 2.85307 5.80102C3.02084 5.78004 3.20885 5.73744 3.4171 5.67321C3.63101 5.60741 3.82934 5.54594 4.01207 5.4888C4.1948 5.43166 4.36194 5.37885 4.51349 5.33037C4.66787 5.2811 4.89776 5.21247 5.20317 5.12446C5.51141 5.03567 5.82288 4.94759 6.13756 4.86021L7.39205 4.51187C7.6472 4.44103 7.92014 4.36844 8.21085 4.29412C8.50156 4.2198 8.76083 4.15901 8.98866 4.11175C9.22009 4.0667 9.42472 4.03548 9.60254 4.01811C9.78113 4.00373 9.96346 3.99791 10.1495 4.00066C10.2536 4.00376 10.3742 4.02949 10.5113 4.07784C10.652 4.1284 10.7569 4.1873 10.8259 4.25454C10.8913 4.31959 10.937 4.39652 10.963 4.48532C10.9926 4.57632 11.0045 4.66906 10.9985 4.76353C10.9925 4.85801 10.9812 4.93158 10.9644 4.98424C10.9371 5.07826 10.8675 5.1616 10.7556 5.23427C10.6445 5.30993 10.5303 5.32082 10.4131 5.26696C10.3505 5.23633 10.2914 5.18394 10.2357 5.10977C10.1829 5.03481 10.15 4.95434 10.1368 4.86836C10.1237 4.78238 10.1396 4.70276 10.1845 4.62949C10.2299 4.54647 10.2481 4.47581 10.2391 4.41749C10.2308 4.36217 10.2026 4.32359 10.1544 4.30176C10.1099 4.28213 10.0585 4.2772 10.0002 4.28697C9.92572 4.30445 9.83719 4.33224 9.73462 4.37032C9.63487 4.40762 9.39505 4.49662 9.01515 4.63731C8.63808 4.77722 8.30019 4.89825 8.00147 5.00039C7.7056 5.10175 7.42866 5.18825 7.17068 5.25989Z" fill="var(--fill-0, black)"/>
<path id="&#226;&#136;&#171;_2" d="M6.50408 7.09063L4.62216 7.60358C3.58867 7.88415 2.71115 8.01579 1.98959 7.9985C1.75792 7.99561 1.55795 7.95671 1.3897 7.88181C1.31421 7.84836 1.22533 7.75141 1.12308 7.59096C1.0216 7.4335 0.982876 7.27782 1.0069 7.12392C1.0211 7.04956 1.05591 6.97268 1.11135 6.89328C1.16755 6.81686 1.21989 6.76072 1.26835 6.72485C1.35831 6.66147 1.45045 6.63588 1.54476 6.6481C1.63908 6.66032 1.72603 6.71459 1.80563 6.81092C1.88007 6.89907 1.91032 6.98669 1.89637 7.07378C1.8832 7.16386 1.84 7.26707 1.76677 7.38343C1.70411 7.49364 1.71697 7.56689 1.80534 7.60316C1.8945 7.64242 2.02154 7.65195 2.18648 7.63176C2.35425 7.61078 2.54226 7.56818 2.7505 7.50395C2.96442 7.43815 3.16274 7.37668 3.34547 7.31954C3.52821 7.2624 3.69534 7.20959 3.84689 7.16111C4.00127 7.11184 4.23117 7.04321 4.53657 6.9552C4.84482 6.86641 5.15628 6.77833 5.47097 6.69095L6.72546 6.34262C6.98061 6.27177 7.25354 6.19918 7.54425 6.12486C7.83497 6.05054 8.09424 5.98975 8.32206 5.94249C8.5535 5.89744 8.75812 5.86622 8.93594 5.84885C9.11454 5.83447 9.29686 5.82866 9.48292 5.8314C9.58703 5.8345 9.70763 5.86023 9.84471 5.90858C9.9854 5.95914 10.0903 6.01804 10.1593 6.08529C10.2247 6.15033 10.2704 6.22726 10.2964 6.31606C10.326 6.40706 10.3379 6.4998 10.3319 6.59427C10.3259 6.68875 10.3146 6.76232 10.2978 6.81499C10.2705 6.909 10.2009 6.99234 10.089 7.06501C9.97789 7.14067 9.86372 7.15156 9.74649 7.0977C9.68388 7.06707 9.62475 7.01468 9.56912 6.94051C9.51632 6.86555 9.48336 6.78508 9.47025 6.6991C9.45713 6.61313 9.47301 6.5335 9.51788 6.46023C9.56326 6.37721 9.58146 6.30655 9.57246 6.24824C9.56423 6.19291 9.53602 6.15433 9.48784 6.1325C9.44327 6.11287 9.39186 6.10794 9.33361 6.11771C9.25913 6.13519 9.1706 6.16298 9.06802 6.20106C8.96828 6.23836 8.72845 6.32736 8.34855 6.46805C7.97148 6.60796 7.63359 6.72899 7.33488 6.83114C7.039 6.9325 6.76207 7.01899 6.50408 7.09063Z" fill="var(--fill-0, black)"/>
</g>
</g>
</g>
</g>
<use xlink:href="#pattern0_0_6_inner" transform="translate(-6 12)"/>
<use xlink:href="#pattern0_0_6_inner" transform="translate(6 12)"/>
</pattern></defs>
</svg>
