<svg width="528" height="155" viewBox="0 0 528 155" fill="none" xmlns="http://www.w3.org/2000/svg">
<g clip-path="url(#clip0_quote_lines)">
<line x1="-226.451" y1="0.823254" x2="226.097" y2="-451.725" stroke="#E22626" stroke-width="0.5"/>
<line x1="-225.037" y1="2.23747" x2="227.512" y2="-450.311" stroke="#E22626" stroke-width="0.5"/>
<line x1="-223.623" y1="3.65168" x2="228.926" y2="-448.897" stroke="#E22626" stroke-width="0.5"/>
<line x1="-222.208" y1="5.0659" x2="230.34" y2="-447.482" stroke="#E22626" stroke-width="0.5"/>
<line x1="-220.794" y1="6.48011" x2="231.754" y2="-446.068" stroke="#E22626" stroke-width="0.5"/>
<line x1="-219.38" y1="7.89433" x2="233.168" y2="-444.654" stroke="#E22626" stroke-width="0.5"/>
<line x1="-217.966" y1="9.30854" x2="234.583" y2="-443.24" stroke="#E22626" stroke-width="0.5"/>
<line x1="-216.551" y1="10.7228" x2="235.997" y2="-441.826" stroke="#E22626" stroke-width="0.5"/>
<line x1="-215.137" y1="12.137" x2="237.411" y2="-440.411" stroke="#E22626" stroke-width="0.5"/>
<line x1="-213.723" y1="13.5512" x2="238.825" y2="-438.997" stroke="#E22626" stroke-width="0.5"/>
<line x1="-212.309" y1="14.9654" x2="240.24" y2="-437.583" stroke="#E22626" stroke-width="0.5"/>
<line x1="-210.895" y1="16.3796" x2="241.654" y2="-436.169" stroke="#E22626" stroke-width="0.5"/>
<line x1="-209.48" y1="17.7938" x2="243.068" y2="-434.755" stroke="#E22626" stroke-width="0.5"/>
<line x1="-208.066" y1="19.208" x2="244.482" y2="-433.34" stroke="#E22626" stroke-width="0.5"/>
<line x1="-206.652" y1="20.6222" x2="245.896" y2="-431.926" stroke="#E22626" stroke-width="0.5"/>
<line x1="-205.238" y1="22.0364" x2="247.311" y2="-430.512" stroke="#E22626" stroke-width="0.5"/>
<line x1="-203.824" y1="23.4507" x2="248.725" y2="-429.098" stroke="#E22626" stroke-width="0.5"/>
<line x1="-202.409" y1="24.8649" x2="250.139" y2="-427.684" stroke="#E22626" stroke-width="0.5"/>
<line x1="-200.995" y1="26.2791" x2="251.553" y2="-426.269" stroke="#E22626" stroke-width="0.5"/>
<line x1="-199.581" y1="27.6933" x2="252.967" y2="-424.855" stroke="#E22626" stroke-width="0.5"/>
<line x1="-198.167" y1="29.1075" x2="254.382" y2="-423.441" stroke="#E22626" stroke-width="0.5"/>
<line x1="-196.752" y1="30.5217" x2="255.796" y2="-422.027" stroke="#E22626" stroke-width="0.5"/>
<line x1="-195.338" y1="31.936" x2="257.21" y2="-420.612" stroke="#E22626" stroke-width="0.5"/>
<line x1="-193.924" y1="33.3502" x2="258.624" y2="-419.198" stroke="#E22626" stroke-width="0.5"/>
<line x1="-192.51" y1="34.7644" x2="260.039" y2="-417.784" stroke="#E22626" stroke-width="0.5"/>
<line x1="-191.096" y1="36.1786" x2="261.453" y2="-416.37" stroke="#E22626" stroke-width="0.5"/>
<line x1="-189.681" y1="37.5928" x2="262.867" y2="-414.956" stroke="#E22626" stroke-width="0.5"/>
<line x1="-188.267" y1="39.007" x2="264.281" y2="-413.541" stroke="#E22626" stroke-width="0.5"/>
<line x1="-186.853" y1="40.4212" x2="265.695" y2="-412.127" stroke="#E22626" stroke-width="0.5"/>
<line x1="-185.439" y1="41.8354" x2="267.11" y2="-410.713" stroke="#E22626" stroke-width="0.5"/>
<line x1="-184.025" y1="43.2497" x2="268.524" y2="-409.299" stroke="#E22626" stroke-width="0.5"/>
<line x1="-182.61" y1="44.6639" x2="269.938" y2="-407.885" stroke="#E22626" stroke-width="0.5"/>
<line x1="-181.196" y1="46.0781" x2="271.352" y2="-406.47" stroke="#E22626" stroke-width="0.5"/>
<line x1="-179.782" y1="47.4923" x2="272.766" y2="-405.056" stroke="#E22626" stroke-width="0.5"/>
<line x1="-178.368" y1="48.9065" x2="274.181" y2="-403.642" stroke="#E22626" stroke-width="0.5"/>
<line x1="-176.953" y1="50.3207" x2="275.595" y2="-402.228" stroke="#E22626" stroke-width="0.5"/>
<line x1="-175.539" y1="51.7349" x2="277.009" y2="-400.813" stroke="#E22626" stroke-width="0.5"/>
<line x1="-174.125" y1="53.1492" x2="278.423" y2="-399.399" stroke="#E22626" stroke-width="0.5"/>
<line x1="-172.711" y1="54.5634" x2="279.838" y2="-397.985" stroke="#E22626" stroke-width="0.5"/>
<line x1="-171.297" y1="55.9776" x2="281.252" y2="-396.571" stroke="#E22626" stroke-width="0.5"/>
<line x1="-169.882" y1="57.3918" x2="282.666" y2="-395.157" stroke="#E22626" stroke-width="0.5"/>
<line x1="-168.468" y1="58.806" x2="284.08" y2="-393.742" stroke="#E22626" stroke-width="0.5"/>
<line x1="-167.054" y1="60.2202" x2="285.494" y2="-392.328" stroke="#E22626" stroke-width="0.5"/>
<line x1="-165.64" y1="61.6344" x2="286.909" y2="-390.914" stroke="#E22626" stroke-width="0.5"/>
<line x1="-164.226" y1="63.0486" x2="288.323" y2="-389.5" stroke="#E22626" stroke-width="0.5"/>
<line x1="-162.811" y1="64.4629" x2="289.737" y2="-388.086" stroke="#E22626" stroke-width="0.5"/>
<line x1="-161.397" y1="65.8771" x2="291.151" y2="-386.671" stroke="#E22626" stroke-width="0.5"/>
<line x1="-159.983" y1="67.2913" x2="292.565" y2="-385.257" stroke="#E22626" stroke-width="0.5"/>
<line x1="-158.569" y1="68.7055" x2="293.98" y2="-383.843" stroke="#E22626" stroke-width="0.5"/>
<line x1="-157.154" y1="70.1197" x2="295.394" y2="-382.429" stroke="#E22626" stroke-width="0.5"/>
<line x1="-155.74" y1="71.5339" x2="296.808" y2="-381.014" stroke="#E22626" stroke-width="0.5"/>
<line x1="-154.326" y1="72.9482" x2="298.222" y2="-379.6" stroke="#E22626" stroke-width="0.5"/>
<line x1="-152.912" y1="74.3623" x2="299.637" y2="-378.186" stroke="#E22626" stroke-width="0.5"/>
<line x1="-151.498" y1="75.7766" x2="301.051" y2="-376.772" stroke="#E22626" stroke-width="0.5"/>
<line x1="-150.083" y1="77.1908" x2="302.465" y2="-375.358" stroke="#E22626" stroke-width="0.5"/>
<line x1="-148.669" y1="78.605" x2="303.879" y2="-373.943" stroke="#E22626" stroke-width="0.5"/>
<line x1="-147.255" y1="80.0192" x2="305.293" y2="-372.529" stroke="#E22626" stroke-width="0.5"/>
<line x1="-145.841" y1="81.4335" x2="306.708" y2="-371.115" stroke="#E22626" stroke-width="0.5"/>
<line x1="-144.427" y1="82.8476" x2="308.122" y2="-369.701" stroke="#E22626" stroke-width="0.5"/>
<line x1="-143.012" y1="84.2618" x2="309.536" y2="-368.287" stroke="#E22626" stroke-width="0.5"/>
<line x1="-141.598" y1="85.6761" x2="310.95" y2="-366.872" stroke="#E22626" stroke-width="0.5"/>
<line x1="-140.184" y1="87.0903" x2="312.364" y2="-365.458" stroke="#E22626" stroke-width="0.5"/>
<line x1="-138.77" y1="88.5045" x2="313.779" y2="-364.044" stroke="#E22626" stroke-width="0.5"/>
<line x1="-137.355" y1="89.9187" x2="315.193" y2="-362.63" stroke="#E22626" stroke-width="0.5"/>
<line x1="-135.941" y1="91.3329" x2="316.607" y2="-361.215" stroke="#E22626" stroke-width="0.5"/>
<line x1="-134.527" y1="92.7471" x2="318.021" y2="-359.801" stroke="#E22626" stroke-width="0.5"/>
<line x1="-133.113" y1="94.1614" x2="319.435" y2="-358.387" stroke="#E22626" stroke-width="0.5"/>
<line x1="-131.699" y1="95.5755" x2="320.85" y2="-356.973" stroke="#E22626" stroke-width="0.5"/>
<line x1="-130.284" y1="96.9898" x2="322.264" y2="-355.559" stroke="#E22626" stroke-width="0.5"/>
<line x1="-128.87" y1="98.404" x2="323.678" y2="-354.144" stroke="#E22626" stroke-width="0.5"/>
<line x1="-127.456" y1="99.8182" x2="325.092" y2="-352.73" stroke="#E22626" stroke-width="0.5"/>
<line x1="-126.042" y1="101.232" x2="326.507" y2="-351.316" stroke="#E22626" stroke-width="0.5"/>
<line x1="-124.628" y1="102.647" x2="327.921" y2="-349.902" stroke="#E22626" stroke-width="0.5"/>
<line x1="-123.213" y1="104.061" x2="329.335" y2="-348.488" stroke="#E22626" stroke-width="0.5"/>
<line x1="-121.799" y1="105.475" x2="330.749" y2="-347.073" stroke="#E22626" stroke-width="0.5"/>
<line x1="-120.385" y1="106.889" x2="332.163" y2="-345.659" stroke="#E22626" stroke-width="0.5"/>
<line x1="-118.971" y1="108.304" x2="333.578" y2="-344.245" stroke="#E22626" stroke-width="0.5"/>
<line x1="-117.557" y1="109.718" x2="334.992" y2="-342.831" stroke="#E22626" stroke-width="0.5"/>
<line x1="-116.142" y1="111.132" x2="336.406" y2="-341.416" stroke="#E22626" stroke-width="0.5"/>
<line x1="-114.728" y1="112.546" x2="337.82" y2="-340.002" stroke="#E22626" stroke-width="0.5"/>
<line x1="-113.314" y1="113.96" x2="339.234" y2="-338.588" stroke="#E22626" stroke-width="0.5"/>
<line x1="-111.9" y1="115.375" x2="340.649" y2="-337.174" stroke="#E22626" stroke-width="0.5"/>
<line x1="-110.485" y1="116.789" x2="342.063" y2="-335.76" stroke="#E22626" stroke-width="0.5"/>
<line x1="-109.071" y1="118.203" x2="343.477" y2="-334.345" stroke="#E22626" stroke-width="0.5"/>
<line x1="-107.657" y1="119.617" x2="344.891" y2="-332.931" stroke="#E22626" stroke-width="0.5"/>
<line x1="-106.243" y1="121.031" x2="346.306" y2="-331.517" stroke="#E22626" stroke-width="0.5"/>
<line x1="-104.829" y1="122.446" x2="347.72" y2="-330.103" stroke="#E22626" stroke-width="0.5"/>
<line x1="-103.414" y1="123.86" x2="349.134" y2="-328.689" stroke="#E22626" stroke-width="0.5"/>
<line x1="-102" y1="125.274" x2="350.548" y2="-327.274" stroke="#E22626" stroke-width="0.5"/>
<line x1="-100.586" y1="126.688" x2="351.962" y2="-325.86" stroke="#E22626" stroke-width="0.5"/>
<line x1="-99.1717" y1="128.102" x2="353.377" y2="-324.446" stroke="#E22626" stroke-width="0.5"/>
<line x1="-97.7575" y1="129.517" x2="354.791" y2="-323.032" stroke="#E22626" stroke-width="0.5"/>
<line x1="-96.3433" y1="130.931" x2="356.205" y2="-321.617" stroke="#E22626" stroke-width="0.5"/>
<line x1="-94.9291" y1="132.345" x2="357.619" y2="-320.203" stroke="#E22626" stroke-width="0.5"/>
<line x1="-93.5149" y1="133.759" x2="359.033" y2="-318.789" stroke="#E22626" stroke-width="0.5"/>
<line x1="-92.1007" y1="135.174" x2="360.448" y2="-317.375" stroke="#E22626" stroke-width="0.5"/>
<line x1="-90.6865" y1="136.588" x2="361.862" y2="-315.961" stroke="#E22626" stroke-width="0.5"/>
<line x1="-89.2722" y1="138.002" x2="363.276" y2="-314.546" stroke="#E22626" stroke-width="0.5"/>
<line x1="-87.858" y1="139.416" x2="364.69" y2="-313.132" stroke="#E22626" stroke-width="0.5"/>
<line x1="-86.4438" y1="140.83" x2="366.105" y2="-311.718" stroke="#E22626" stroke-width="0.5"/>
<line x1="-85.0296" y1="142.245" x2="367.519" y2="-310.304" stroke="#E22626" stroke-width="0.5"/>
<line x1="-83.6154" y1="143.659" x2="368.933" y2="-308.89" stroke="#E22626" stroke-width="0.5"/>
<line x1="-82.2012" y1="145.073" x2="370.347" y2="-307.475" stroke="#E22626" stroke-width="0.5"/>
<line x1="-80.7869" y1="146.487" x2="371.761" y2="-306.061" stroke="#E22626" stroke-width="0.5"/>
<line x1="-79.3727" y1="147.901" x2="373.176" y2="-304.647" stroke="#E22626" stroke-width="0.5"/>
<line x1="-77.9585" y1="149.316" x2="374.59" y2="-303.233" stroke="#E22626" stroke-width="0.5"/>
<line x1="-76.5443" y1="150.73" x2="376.004" y2="-301.818" stroke="#E22626" stroke-width="0.5"/>
<line x1="-75.1301" y1="152.144" x2="377.418" y2="-300.404" stroke="#E22626" stroke-width="0.5"/>
<line x1="-73.7159" y1="153.558" x2="378.832" y2="-298.99" stroke="#E22626" stroke-width="0.5"/>
<line x1="-72.3017" y1="154.973" x2="380.247" y2="-297.576" stroke="#E22626" stroke-width="0.5"/>
<line x1="-70.8875" y1="156.387" x2="381.661" y2="-296.162" stroke="#E22626" stroke-width="0.5"/>
<line x1="-69.4732" y1="157.801" x2="383.075" y2="-294.747" stroke="#E22626" stroke-width="0.5"/>
<line x1="-68.059" y1="159.215" x2="384.489" y2="-293.333" stroke="#E22626" stroke-width="0.5"/>
<line x1="-66.6448" y1="160.629" x2="385.904" y2="-291.919" stroke="#E22626" stroke-width="0.5"/>
<line x1="-65.2306" y1="162.044" x2="387.318" y2="-290.505" stroke="#E22626" stroke-width="0.5"/>
<line x1="-63.8164" y1="163.458" x2="388.732" y2="-289.091" stroke="#E22626" stroke-width="0.5"/>
<line x1="-62.4022" y1="164.872" x2="390.146" y2="-287.676" stroke="#E22626" stroke-width="0.5"/>
<line x1="-60.988" y1="166.286" x2="391.56" y2="-286.262" stroke="#E22626" stroke-width="0.5"/>
<line x1="-59.5737" y1="167.7" x2="392.975" y2="-284.848" stroke="#E22626" stroke-width="0.5"/>
<line x1="-58.1595" y1="169.115" x2="394.389" y2="-283.434" stroke="#E22626" stroke-width="0.5"/>
<line x1="-56.7453" y1="170.529" x2="395.803" y2="-282.019" stroke="#E22626" stroke-width="0.5"/>
<line x1="-55.3311" y1="171.943" x2="397.217" y2="-280.605" stroke="#E22626" stroke-width="0.5"/>
<line x1="-53.9169" y1="173.357" x2="398.631" y2="-279.191" stroke="#E22626" stroke-width="0.5"/>
<line x1="-52.5027" y1="174.772" x2="400.046" y2="-277.777" stroke="#E22626" stroke-width="0.5"/>
<line x1="-51.0885" y1="176.186" x2="401.46" y2="-276.363" stroke="#E22626" stroke-width="0.5"/>
<line x1="-49.6742" y1="177.6" x2="402.874" y2="-274.948" stroke="#E22626" stroke-width="0.5"/>
<line x1="-48.26" y1="179.014" x2="404.288" y2="-273.534" stroke="#E22626" stroke-width="0.5"/>
<line x1="-46.8458" y1="180.428" x2="405.703" y2="-272.12" stroke="#E22626" stroke-width="0.5"/>
<line x1="-45.4316" y1="181.843" x2="407.117" y2="-270.706" stroke="#E22626" stroke-width="0.5"/>
<line x1="-44.0174" y1="183.257" x2="408.531" y2="-269.292" stroke="#E22626" stroke-width="0.5"/>
<line x1="-42.6032" y1="184.671" x2="409.945" y2="-267.877" stroke="#E22626" stroke-width="0.5"/>
<line x1="-41.189" y1="186.085" x2="411.359" y2="-266.463" stroke="#E22626" stroke-width="0.5"/>
<line x1="-39.7748" y1="187.499" x2="412.774" y2="-265.049" stroke="#E22626" stroke-width="0.5"/>
<line x1="-38.3606" y1="188.914" x2="414.188" y2="-263.635" stroke="#E22626" stroke-width="0.5"/>
<line x1="-36.9463" y1="190.328" x2="415.602" y2="-262.221" stroke="#E22626" stroke-width="0.5"/>
<line x1="-35.5321" y1="191.742" x2="417.016" y2="-260.806" stroke="#E22626" stroke-width="0.5"/>
<line x1="-34.1179" y1="193.156" x2="418.43" y2="-259.392" stroke="#E22626" stroke-width="0.5"/>
<line x1="-32.7037" y1="194.571" x2="419.845" y2="-257.978" stroke="#E22626" stroke-width="0.5"/>
<line x1="-31.2895" y1="195.985" x2="421.259" y2="-256.564" stroke="#E22626" stroke-width="0.5"/>
<line x1="-29.8753" y1="197.399" x2="422.673" y2="-255.149" stroke="#E22626" stroke-width="0.5"/>
<line x1="-28.461" y1="198.813" x2="424.087" y2="-253.735" stroke="#E22626" stroke-width="0.5"/>
<line x1="-27.0468" y1="200.227" x2="425.502" y2="-252.321" stroke="#E22626" stroke-width="0.5"/>
<line x1="-25.6326" y1="201.642" x2="426.916" y2="-250.907" stroke="#E22626" stroke-width="0.5"/>
<line x1="-24.2184" y1="203.056" x2="428.33" y2="-249.493" stroke="#E22626" stroke-width="0.5"/>
<line x1="-22.8042" y1="204.47" x2="429.744" y2="-248.078" stroke="#E22626" stroke-width="0.5"/>
<line x1="-21.39" y1="205.884" x2="431.158" y2="-246.664" stroke="#E22626" stroke-width="0.5"/>
<line x1="-19.9758" y1="207.298" x2="432.573" y2="-245.25" stroke="#E22626" stroke-width="0.5"/>
<line x1="-18.5615" y1="208.713" x2="433.987" y2="-243.836" stroke="#E22626" stroke-width="0.5"/>
<line x1="-17.1473" y1="210.127" x2="435.401" y2="-242.421" stroke="#E22626" stroke-width="0.5"/>
<line x1="-15.7331" y1="211.541" x2="436.815" y2="-241.007" stroke="#E22626" stroke-width="0.5"/>
<line x1="-14.3189" y1="212.955" x2="438.229" y2="-239.593" stroke="#E22626" stroke-width="0.5"/>
<line x1="-12.9047" y1="214.369" x2="439.644" y2="-238.179" stroke="#E22626" stroke-width="0.5"/>
<line x1="-11.4905" y1="215.784" x2="441.058" y2="-236.765" stroke="#E22626" stroke-width="0.5"/>
<line x1="-10.0763" y1="217.198" x2="442.472" y2="-235.35" stroke="#E22626" stroke-width="0.5"/>
<line x1="-8.66207" y1="218.612" x2="443.886" y2="-233.936" stroke="#E22626" stroke-width="0.5"/>
<line x1="-7.24785" y1="220.026" x2="445.301" y2="-232.522" stroke="#E22626" stroke-width="0.5"/>
<line x1="-5.83364" y1="221.441" x2="446.715" y2="-231.108" stroke="#E22626" stroke-width="0.5"/>
<line x1="-4.41942" y1="222.855" x2="448.129" y2="-229.694" stroke="#E22626" stroke-width="0.5"/>
<line x1="-3.00521" y1="224.269" x2="449.543" y2="-228.279" stroke="#E22626" stroke-width="0.5"/>
<line x1="-1.59099" y1="225.683" x2="450.957" y2="-226.865" stroke="#E22626" stroke-width="0.5"/>
<line x1="-0.176777" y1="227.097" x2="452.372" y2="-225.451" stroke="#E22626" stroke-width="0.5"/>
<line x1="1.23744" y1="228.512" x2="453.786" y2="-224.037" stroke="#E22626" stroke-width="0.5"/>
<line x1="2.65165" y1="229.926" x2="455.2" y2="-222.622" stroke="#E22626" stroke-width="0.5"/>
<line x1="4.06584" y1="231.34" x2="456.614" y2="-221.208" stroke="#E22626" stroke-width="0.5"/>
<line x1="5.48008" y1="232.754" x2="458.028" y2="-219.794" stroke="#E22626" stroke-width="0.5"/>
<line x1="6.89427" y1="234.168" x2="459.443" y2="-218.38" stroke="#E22626" stroke-width="0.5"/>
<line x1="8.30851" y1="235.583" x2="460.857" y2="-216.966" stroke="#E22626" stroke-width="0.5"/>
<line x1="9.7227" y1="236.997" x2="462.271" y2="-215.551" stroke="#E22626" stroke-width="0.5"/>
<line x1="11.1369" y1="238.411" x2="463.685" y2="-214.137" stroke="#E22626" stroke-width="0.5"/>
<line x1="12.5511" y1="239.825" x2="465.099" y2="-212.723" stroke="#E22626" stroke-width="0.5"/>
<line x1="13.9654" y1="241.24" x2="466.514" y2="-211.309" stroke="#E22626" stroke-width="0.5"/>
<line x1="15.3796" y1="242.654" x2="467.928" y2="-209.895" stroke="#E22626" stroke-width="0.5"/>
<line x1="16.7938" y1="244.068" x2="469.342" y2="-208.48" stroke="#E22626" stroke-width="0.5"/>
<line x1="18.208" y1="245.482" x2="470.756" y2="-207.066" stroke="#E22626" stroke-width="0.5"/>
<line x1="19.6222" y1="246.896" x2="472.171" y2="-205.652" stroke="#E22626" stroke-width="0.5"/>
<line x1="21.0364" y1="248.311" x2="473.585" y2="-204.238" stroke="#E22626" stroke-width="0.5"/>
<line x1="22.4507" y1="249.725" x2="474.999" y2="-202.824" stroke="#E22626" stroke-width="0.5"/>
<line x1="23.8648" y1="251.139" x2="476.413" y2="-201.409" stroke="#E22626" stroke-width="0.5"/>
<line x1="25.2791" y1="252.553" x2="477.827" y2="-199.995" stroke="#E22626" stroke-width="0.5"/>
<line x1="26.6933" y1="253.968" x2="479.242" y2="-198.581" stroke="#E22626" stroke-width="0.5"/>
<line x1="28.1075" y1="255.382" x2="480.656" y2="-197.167" stroke="#E22626" stroke-width="0.5"/>
<line x1="29.5217" y1="256.796" x2="482.07" y2="-195.752" stroke="#E22626" stroke-width="0.5"/>
<line x1="30.9359" y1="258.21" x2="483.484" y2="-194.338" stroke="#E22626" stroke-width="0.5"/>
<line x1="32.3501" y1="259.624" x2="484.898" y2="-192.924" stroke="#E22626" stroke-width="0.5"/>
<line x1="33.7643" y1="261.039" x2="486.313" y2="-191.51" stroke="#E22626" stroke-width="0.5"/>
<line x1="35.1786" y1="262.453" x2="487.727" y2="-190.096" stroke="#E22626" stroke-width="0.5"/>
<line x1="36.5928" y1="263.867" x2="489.141" y2="-188.681" stroke="#E22626" stroke-width="0.5"/>
<line x1="38.007" y1="265.281" x2="490.555" y2="-187.267" stroke="#E22626" stroke-width="0.5"/>
<line x1="39.4212" y1="266.695" x2="491.97" y2="-185.853" stroke="#E22626" stroke-width="0.5"/>
<line x1="40.8354" y1="268.11" x2="493.384" y2="-184.439" stroke="#E22626" stroke-width="0.5"/>
<line x1="42.2496" y1="269.524" x2="494.798" y2="-183.025" stroke="#E22626" stroke-width="0.5"/>
<line x1="43.6639" y1="270.938" x2="496.212" y2="-181.61" stroke="#E22626" stroke-width="0.5"/>
<line x1="45.078" y1="272.352" x2="497.626" y2="-180.196" stroke="#E22626" stroke-width="0.5"/>
<line x1="46.4923" y1="273.766" x2="499.041" y2="-178.782" stroke="#E22626" stroke-width="0.5"/>
<line x1="47.9065" y1="275.181" x2="500.455" y2="-177.368" stroke="#E22626" stroke-width="0.5"/>
<line x1="49.3207" y1="276.595" x2="501.869" y2="-175.953" stroke="#E22626" stroke-width="0.5"/>
<line x1="50.7349" y1="278.009" x2="503.283" y2="-174.539" stroke="#E22626" stroke-width="0.5"/>
<line x1="52.1492" y1="279.423" x2="504.698" y2="-173.125" stroke="#E22626" stroke-width="0.5"/>
<line x1="53.5633" y1="280.838" x2="506.112" y2="-171.711" stroke="#E22626" stroke-width="0.5"/>
<line x1="54.9775" y1="282.252" x2="507.526" y2="-170.297" stroke="#E22626" stroke-width="0.5"/>
<line x1="56.3918" y1="283.666" x2="508.94" y2="-168.882" stroke="#E22626" stroke-width="0.5"/>
<line x1="57.806" y1="285.08" x2="510.354" y2="-167.468" stroke="#E22626" stroke-width="0.5"/>
<line x1="59.2202" y1="286.494" x2="511.769" y2="-166.054" stroke="#E22626" stroke-width="0.5"/>
<line x1="60.6344" y1="287.909" x2="513.183" y2="-164.64" stroke="#E22626" stroke-width="0.5"/>
<line x1="62.0486" y1="289.323" x2="514.597" y2="-163.226" stroke="#E22626" stroke-width="0.5"/>
<line x1="63.4628" y1="290.737" x2="516.011" y2="-161.811" stroke="#E22626" stroke-width="0.5"/>
<line x1="64.8771" y1="292.151" x2="517.425" y2="-160.397" stroke="#E22626" stroke-width="0.5"/>
<line x1="66.2912" y1="293.565" x2="518.84" y2="-158.983" stroke="#E22626" stroke-width="0.5"/>
<line x1="67.7055" y1="294.98" x2="520.254" y2="-157.569" stroke="#E22626" stroke-width="0.5"/>
<line x1="69.1197" y1="296.394" x2="521.668" y2="-156.154" stroke="#E22626" stroke-width="0.5"/>
<line x1="70.5339" y1="297.808" x2="523.082" y2="-154.74" stroke="#E22626" stroke-width="0.5"/>
<line x1="71.9481" y1="299.222" x2="524.496" y2="-153.326" stroke="#E22626" stroke-width="0.5"/>
<line x1="73.3623" y1="300.637" x2="525.911" y2="-151.912" stroke="#E22626" stroke-width="0.5"/>
<line x1="74.7765" y1="302.051" x2="527.325" y2="-150.498" stroke="#E22626" stroke-width="0.5"/>
<line x1="76.1908" y1="303.465" x2="528.739" y2="-149.083" stroke="#E22626" stroke-width="0.5"/>
<line x1="77.605" y1="304.879" x2="530.153" y2="-147.669" stroke="#E22626" stroke-width="0.5"/>
<line x1="79.0192" y1="306.293" x2="531.568" y2="-146.255" stroke="#E22626" stroke-width="0.5"/>
<line x1="80.4334" y1="307.708" x2="532.982" y2="-144.841" stroke="#E22626" stroke-width="0.5"/>
<line x1="81.8476" y1="309.122" x2="534.396" y2="-143.427" stroke="#E22626" stroke-width="0.5"/>
<line x1="83.2618" y1="310.536" x2="535.81" y2="-142.012" stroke="#E22626" stroke-width="0.5"/>
<line x1="84.676" y1="311.95" x2="537.224" y2="-140.598" stroke="#E22626" stroke-width="0.5"/>
<line x1="86.0903" y1="313.364" x2="538.639" y2="-139.184" stroke="#E22626" stroke-width="0.5"/>
<line x1="87.5045" y1="314.779" x2="540.053" y2="-137.77" stroke="#E22626" stroke-width="0.5"/>
<line x1="88.9187" y1="316.193" x2="541.467" y2="-136.356" stroke="#E22626" stroke-width="0.5"/>
<line x1="90.3329" y1="317.607" x2="542.881" y2="-134.941" stroke="#E22626" stroke-width="0.5"/>
<line x1="91.7471" y1="319.021" x2="544.295" y2="-133.527" stroke="#E22626" stroke-width="0.5"/>
<line x1="93.1613" y1="320.436" x2="545.71" y2="-132.113" stroke="#E22626" stroke-width="0.5"/>
<line x1="94.5755" y1="321.85" x2="547.124" y2="-130.699" stroke="#E22626" stroke-width="0.5"/>
<line x1="95.9897" y1="323.264" x2="548.538" y2="-129.284" stroke="#E22626" stroke-width="0.5"/>
<line x1="97.404" y1="324.678" x2="549.952" y2="-127.87" stroke="#E22626" stroke-width="0.5"/>
<line x1="98.8182" y1="326.092" x2="551.367" y2="-126.456" stroke="#E22626" stroke-width="0.5"/>
<line x1="100.232" y1="327.507" x2="552.781" y2="-125.042" stroke="#E22626" stroke-width="0.5"/>
<line x1="101.647" y1="328.921" x2="554.195" y2="-123.628" stroke="#E22626" stroke-width="0.5"/>
<line x1="103.061" y1="330.335" x2="555.609" y2="-122.213" stroke="#E22626" stroke-width="0.5"/>
<line x1="104.475" y1="331.749" x2="557.023" y2="-120.799" stroke="#E22626" stroke-width="0.5"/>
<line x1="105.889" y1="333.163" x2="558.438" y2="-119.385" stroke="#E22626" stroke-width="0.5"/>
<line x1="107.303" y1="334.578" x2="559.852" y2="-117.971" stroke="#E22626" stroke-width="0.5"/>
<line x1="108.718" y1="335.992" x2="561.266" y2="-116.557" stroke="#E22626" stroke-width="0.5"/>
<line x1="110.132" y1="337.406" x2="562.68" y2="-115.142" stroke="#E22626" stroke-width="0.5"/>
<line x1="111.546" y1="338.82" x2="564.094" y2="-113.728" stroke="#E22626" stroke-width="0.5"/>
<line x1="112.96" y1="340.234" x2="565.509" y2="-112.314" stroke="#E22626" stroke-width="0.5"/>
<line x1="114.374" y1="341.649" x2="566.923" y2="-110.9" stroke="#E22626" stroke-width="0.5"/>
<line x1="115.789" y1="343.063" x2="568.337" y2="-109.485" stroke="#E22626" stroke-width="0.5"/>
<line x1="117.203" y1="344.477" x2="569.751" y2="-108.071" stroke="#E22626" stroke-width="0.5"/>
<line x1="118.617" y1="345.891" x2="571.166" y2="-106.657" stroke="#E22626" stroke-width="0.5"/>
<line x1="120.031" y1="347.306" x2="572.58" y2="-105.243" stroke="#E22626" stroke-width="0.5"/>
<line x1="121.446" y1="348.72" x2="573.994" y2="-103.829" stroke="#E22626" stroke-width="0.5"/>
<line x1="122.86" y1="350.134" x2="575.408" y2="-102.414" stroke="#E22626" stroke-width="0.5"/>
<line x1="124.274" y1="351.548" x2="576.822" y2="-101" stroke="#E22626" stroke-width="0.5"/>
<line x1="125.688" y1="352.962" x2="578.237" y2="-99.5859" stroke="#E22626" stroke-width="0.5"/>
<line x1="127.102" y1="354.377" x2="579.651" y2="-98.1717" stroke="#E22626" stroke-width="0.5"/>
<line x1="128.517" y1="355.791" x2="581.065" y2="-96.7575" stroke="#E22626" stroke-width="0.5"/>
<line x1="129.931" y1="357.205" x2="582.479" y2="-95.3433" stroke="#E22626" stroke-width="0.5"/>
<line x1="131.345" y1="358.619" x2="583.893" y2="-93.9291" stroke="#E22626" stroke-width="0.5"/>
<line x1="132.759" y1="360.033" x2="585.308" y2="-92.5149" stroke="#E22626" stroke-width="0.5"/>
<line x1="134.174" y1="361.448" x2="586.722" y2="-91.1006" stroke="#E22626" stroke-width="0.5"/>
<line x1="135.588" y1="362.862" x2="588.136" y2="-89.6864" stroke="#E22626" stroke-width="0.5"/>
<line x1="137.002" y1="364.276" x2="589.55" y2="-88.2723" stroke="#E22626" stroke-width="0.5"/>
<line x1="138.416" y1="365.69" x2="590.964" y2="-86.858" stroke="#E22626" stroke-width="0.5"/>
<line x1="139.83" y1="367.105" x2="592.379" y2="-85.4438" stroke="#E22626" stroke-width="0.5"/>
<line x1="141.245" y1="368.519" x2="593.793" y2="-84.0296" stroke="#E22626" stroke-width="0.5"/>
<line x1="142.659" y1="369.933" x2="595.207" y2="-82.6154" stroke="#E22626" stroke-width="0.5"/>
<line x1="144.073" y1="371.347" x2="596.621" y2="-81.2012" stroke="#E22626" stroke-width="0.5"/>
<line x1="145.487" y1="372.761" x2="598.036" y2="-79.7869" stroke="#E22626" stroke-width="0.5"/>
<line x1="146.901" y1="374.176" x2="599.45" y2="-78.3727" stroke="#E22626" stroke-width="0.5"/>
<line x1="148.316" y1="375.59" x2="600.864" y2="-76.9585" stroke="#E22626" stroke-width="0.5"/>
<line x1="149.73" y1="377.004" x2="602.278" y2="-75.5443" stroke="#E22626" stroke-width="0.5"/>
<line x1="151.144" y1="378.418" x2="603.692" y2="-74.1301" stroke="#E22626" stroke-width="0.5"/>
<line x1="152.558" y1="379.833" x2="605.107" y2="-72.7159" stroke="#E22626" stroke-width="0.5"/>
<line x1="153.973" y1="381.247" x2="606.521" y2="-71.3017" stroke="#E22626" stroke-width="0.5"/>
<line x1="155.387" y1="382.661" x2="607.935" y2="-69.8874" stroke="#E22626" stroke-width="0.5"/>
<line x1="156.801" y1="384.075" x2="609.349" y2="-68.4733" stroke="#E22626" stroke-width="0.5"/>
<line x1="158.215" y1="385.489" x2="610.763" y2="-67.059" stroke="#E22626" stroke-width="0.5"/>
<line x1="159.629" y1="386.904" x2="612.178" y2="-65.6448" stroke="#E22626" stroke-width="0.5"/>
<line x1="161.044" y1="388.318" x2="613.592" y2="-64.2306" stroke="#E22626" stroke-width="0.5"/>
<line x1="162.458" y1="389.732" x2="615.006" y2="-62.8164" stroke="#E22626" stroke-width="0.5"/>
<line x1="163.872" y1="391.146" x2="616.42" y2="-61.4021" stroke="#E22626" stroke-width="0.5"/>
<line x1="165.286" y1="392.56" x2="617.835" y2="-59.988" stroke="#E22626" stroke-width="0.5"/>
<line x1="166.7" y1="393.975" x2="619.249" y2="-58.5738" stroke="#E22626" stroke-width="0.5"/>
<line x1="168.115" y1="395.389" x2="620.663" y2="-57.1595" stroke="#E22626" stroke-width="0.5"/>
<line x1="169.529" y1="396.803" x2="622.077" y2="-55.7453" stroke="#E22626" stroke-width="0.5"/>
<line x1="170.943" y1="398.217" x2="623.491" y2="-54.3311" stroke="#E22626" stroke-width="0.5"/>
<line x1="172.357" y1="399.631" x2="624.906" y2="-52.9169" stroke="#E22626" stroke-width="0.5"/>
<line x1="173.771" y1="401.046" x2="626.32" y2="-51.5027" stroke="#E22626" stroke-width="0.5"/>
<line x1="175.186" y1="402.46" x2="627.734" y2="-50.0884" stroke="#E22626" stroke-width="0.5"/>
<line x1="176.6" y1="403.874" x2="629.148" y2="-48.6742" stroke="#E22626" stroke-width="0.5"/>
<line x1="178.014" y1="405.288" x2="630.562" y2="-47.2601" stroke="#E22626" stroke-width="0.5"/>
<line x1="179.428" y1="406.703" x2="631.977" y2="-45.8458" stroke="#E22626" stroke-width="0.5"/>
<line x1="180.843" y1="408.117" x2="633.391" y2="-44.4316" stroke="#E22626" stroke-width="0.5"/>
<line x1="182.257" y1="409.531" x2="634.805" y2="-43.0174" stroke="#E22626" stroke-width="0.5"/>
<line x1="183.671" y1="410.945" x2="636.219" y2="-41.6032" stroke="#E22626" stroke-width="0.5"/>
<line x1="185.085" y1="412.359" x2="637.634" y2="-40.189" stroke="#E22626" stroke-width="0.5"/>
<line x1="186.499" y1="413.774" x2="639.048" y2="-38.7748" stroke="#E22626" stroke-width="0.5"/>
<line x1="187.914" y1="415.188" x2="640.462" y2="-37.3605" stroke="#E22626" stroke-width="0.5"/>
<line x1="189.328" y1="416.602" x2="641.876" y2="-35.9463" stroke="#E22626" stroke-width="0.5"/>
<line x1="190.742" y1="418.016" x2="643.29" y2="-34.5322" stroke="#E22626" stroke-width="0.5"/>
<line x1="192.156" y1="419.43" x2="644.705" y2="-33.1179" stroke="#E22626" stroke-width="0.5"/>
<line x1="193.57" y1="420.845" x2="646.119" y2="-31.7037" stroke="#E22626" stroke-width="0.5"/>
<line x1="194.985" y1="422.259" x2="647.533" y2="-30.2895" stroke="#E22626" stroke-width="0.5"/>
<line x1="196.399" y1="423.673" x2="648.947" y2="-28.8753" stroke="#E22626" stroke-width="0.5"/>
<line x1="197.813" y1="425.087" x2="650.361" y2="-27.461" stroke="#E22626" stroke-width="0.5"/>
<line x1="199.227" y1="426.502" x2="651.776" y2="-26.0468" stroke="#E22626" stroke-width="0.5"/>
<line x1="200.642" y1="427.916" x2="653.19" y2="-24.6326" stroke="#E22626" stroke-width="0.5"/>
<line x1="202.056" y1="429.33" x2="654.604" y2="-23.2184" stroke="#E22626" stroke-width="0.5"/>
<line x1="203.47" y1="430.744" x2="656.018" y2="-21.8042" stroke="#E22626" stroke-width="0.5"/>
<line x1="204.884" y1="432.158" x2="657.433" y2="-20.3899" stroke="#E22626" stroke-width="0.5"/>
<line x1="206.298" y1="433.573" x2="658.847" y2="-18.9758" stroke="#E22626" stroke-width="0.5"/>
<line x1="207.713" y1="434.987" x2="660.261" y2="-17.5616" stroke="#E22626" stroke-width="0.5"/>
<line x1="209.127" y1="436.401" x2="661.675" y2="-16.1473" stroke="#E22626" stroke-width="0.5"/>
<line x1="210.541" y1="437.815" x2="663.089" y2="-14.7331" stroke="#E22626" stroke-width="0.5"/>
<line x1="211.955" y1="439.229" x2="664.504" y2="-13.3189" stroke="#E22626" stroke-width="0.5"/>
<line x1="213.369" y1="440.644" x2="665.918" y2="-11.9047" stroke="#E22626" stroke-width="0.5"/>
<line x1="214.784" y1="442.058" x2="667.332" y2="-10.4905" stroke="#E22626" stroke-width="0.5"/>
<line x1="216.198" y1="443.472" x2="668.746" y2="-9.07628" stroke="#E22626" stroke-width="0.5"/>
<line x1="217.612" y1="444.886" x2="670.16" y2="-7.66204" stroke="#E22626" stroke-width="0.5"/>
<line x1="219.026" y1="446.301" x2="671.575" y2="-6.24785" stroke="#E22626" stroke-width="0.5"/>
<line x1="220.441" y1="447.715" x2="672.989" y2="-4.83367" stroke="#E22626" stroke-width="0.5"/>
<line x1="221.855" y1="449.129" x2="674.403" y2="-3.41942" stroke="#E22626" stroke-width="0.5"/>
<line x1="223.269" y1="450.543" x2="675.817" y2="-2.00518" stroke="#E22626" stroke-width="0.5"/>
<line x1="224.683" y1="451.957" x2="677.232" y2="-0.590992" stroke="#E22626" stroke-width="0.5"/>
<line x1="226.097" y1="453.372" x2="678.646" y2="0.823193" stroke="#E22626" stroke-width="0.5"/>
<line x1="227.512" y1="454.786" x2="680.06" y2="2.23744" stroke="#E22626" stroke-width="0.5"/>
<line x1="228.926" y1="456.2" x2="681.474" y2="3.65168" stroke="#E22626" stroke-width="0.5"/>
<line x1="230.34" y1="457.614" x2="682.888" y2="5.06587" stroke="#E22626" stroke-width="0.5"/>
<line x1="231.754" y1="459.028" x2="684.303" y2="6.48005" stroke="#E22626" stroke-width="0.5"/>
<line x1="233.168" y1="460.443" x2="685.717" y2="7.8943" stroke="#E22626" stroke-width="0.5"/>
<line x1="234.583" y1="461.857" x2="687.131" y2="9.30854" stroke="#E22626" stroke-width="0.5"/>
<line x1="235.997" y1="463.271" x2="688.545" y2="10.7227" stroke="#E22626" stroke-width="0.5"/>
<line x1="237.411" y1="464.685" x2="689.959" y2="12.1369" stroke="#E22626" stroke-width="0.5"/>
<line x1="238.825" y1="466.1" x2="691.374" y2="13.5512" stroke="#E22626" stroke-width="0.5"/>
<line x1="240.24" y1="467.514" x2="692.788" y2="14.9654" stroke="#E22626" stroke-width="0.5"/>
<line x1="241.654" y1="468.928" x2="694.202" y2="16.3796" stroke="#E22626" stroke-width="0.5"/>
<line x1="243.068" y1="470.342" x2="695.616" y2="17.7938" stroke="#E22626" stroke-width="0.5"/>
<line x1="244.482" y1="471.756" x2="697.031" y2="19.208" stroke="#E22626" stroke-width="0.5"/>
<line x1="245.896" y1="473.171" x2="698.445" y2="20.6222" stroke="#E22626" stroke-width="0.5"/>
<line x1="247.311" y1="474.585" x2="699.859" y2="22.0364" stroke="#E22626" stroke-width="0.5"/>
<line x1="248.725" y1="475.999" x2="701.273" y2="23.4506" stroke="#E22626" stroke-width="0.5"/>
<line x1="250.139" y1="477.413" x2="702.687" y2="24.8648" stroke="#E22626" stroke-width="0.5"/>
<line x1="251.553" y1="478.827" x2="704.102" y2="26.2791" stroke="#E22626" stroke-width="0.5"/>
<line x1="252.967" y1="480.242" x2="705.516" y2="27.6933" stroke="#E22626" stroke-width="0.5"/>
<line x1="254.382" y1="481.656" x2="706.93" y2="29.1075" stroke="#E22626" stroke-width="0.5"/>
<line x1="255.796" y1="483.07" x2="708.344" y2="30.5217" stroke="#E22626" stroke-width="0.5"/>
<line x1="257.21" y1="484.484" x2="709.758" y2="31.9359" stroke="#E22626" stroke-width="0.5"/>
<line x1="258.624" y1="485.899" x2="711.173" y2="33.3502" stroke="#E22626" stroke-width="0.5"/>
<line x1="260.039" y1="487.313" x2="712.587" y2="34.7644" stroke="#E22626" stroke-width="0.5"/>
<line x1="261.453" y1="488.727" x2="714.001" y2="36.1785" stroke="#E22626" stroke-width="0.5"/>
<line x1="262.867" y1="490.141" x2="715.415" y2="37.5928" stroke="#E22626" stroke-width="0.5"/>
<line x1="264.281" y1="491.555" x2="716.83" y2="39.007" stroke="#E22626" stroke-width="0.5"/>
<line x1="265.695" y1="492.97" x2="718.244" y2="40.4212" stroke="#E22626" stroke-width="0.5"/>
<line x1="267.11" y1="494.384" x2="719.658" y2="41.8354" stroke="#E22626" stroke-width="0.5"/>
<line x1="268.524" y1="495.798" x2="721.072" y2="43.2496" stroke="#E22626" stroke-width="0.5"/>
<line x1="269.938" y1="497.212" x2="722.486" y2="44.6638" stroke="#E22626" stroke-width="0.5"/>
<line x1="271.352" y1="498.626" x2="723.901" y2="46.0781" stroke="#E22626" stroke-width="0.5"/>
<line x1="272.766" y1="500.041" x2="725.315" y2="47.4923" stroke="#E22626" stroke-width="0.5"/>
<line x1="274.181" y1="501.455" x2="726.729" y2="48.9064" stroke="#E22626" stroke-width="0.5"/>
<line x1="275.595" y1="502.869" x2="728.143" y2="50.3207" stroke="#E22626" stroke-width="0.5"/>
<line x1="277.009" y1="504.283" x2="729.557" y2="51.7349" stroke="#E22626" stroke-width="0.5"/>
<line x1="278.423" y1="505.697" x2="730.972" y2="53.1491" stroke="#E22626" stroke-width="0.5"/>
<line x1="279.838" y1="507.112" x2="732.386" y2="54.5633" stroke="#E22626" stroke-width="0.5"/>
<line x1="281.252" y1="508.526" x2="733.8" y2="55.9776" stroke="#E22626" stroke-width="0.5"/>
<line x1="282.666" y1="509.94" x2="735.214" y2="57.3918" stroke="#E22626" stroke-width="0.5"/>
<line x1="284.08" y1="511.354" x2="736.629" y2="58.806" stroke="#E22626" stroke-width="0.5"/>
<line x1="285.494" y1="512.769" x2="738.043" y2="60.2202" stroke="#E22626" stroke-width="0.5"/>
<line x1="286.909" y1="514.183" x2="739.457" y2="61.6343" stroke="#E22626" stroke-width="0.5"/>
<line x1="288.323" y1="515.597" x2="740.871" y2="63.0487" stroke="#E22626" stroke-width="0.5"/>
<line x1="289.737" y1="517.011" x2="742.285" y2="64.4628" stroke="#E22626" stroke-width="0.5"/>
<line x1="291.151" y1="518.425" x2="743.7" y2="65.877" stroke="#E22626" stroke-width="0.5"/>
<line x1="292.565" y1="519.84" x2="745.114" y2="67.2912" stroke="#E22626" stroke-width="0.5"/>
<line x1="293.98" y1="521.254" x2="746.528" y2="68.7055" stroke="#E22626" stroke-width="0.5"/>
<line x1="295.394" y1="522.668" x2="747.942" y2="70.1197" stroke="#E22626" stroke-width="0.5"/>
<line x1="296.808" y1="524.082" x2="749.356" y2="71.5339" stroke="#E22626" stroke-width="0.5"/>
<line x1="298.222" y1="525.496" x2="750.771" y2="72.9481" stroke="#E22626" stroke-width="0.5"/>
<line x1="299.636" y1="526.911" x2="752.185" y2="74.3624" stroke="#E22626" stroke-width="0.5"/>
<line x1="301.051" y1="528.325" x2="753.599" y2="75.7766" stroke="#E22626" stroke-width="0.5"/>
<line x1="302.465" y1="529.739" x2="755.013" y2="77.1908" stroke="#E22626" stroke-width="0.5"/>
<line x1="303.879" y1="531.153" x2="756.427" y2="78.6049" stroke="#E22626" stroke-width="0.5"/>
<line x1="305.293" y1="532.568" x2="757.842" y2="80.0192" stroke="#E22626" stroke-width="0.5"/>
<line x1="306.708" y1="533.982" x2="759.256" y2="81.4334" stroke="#E22626" stroke-width="0.5"/>
<line x1="308.122" y1="535.396" x2="760.67" y2="82.8476" stroke="#E22626" stroke-width="0.5"/>
<line x1="309.536" y1="536.81" x2="762.084" y2="84.2618" stroke="#E22626" stroke-width="0.5"/>
<line x1="310.95" y1="538.224" x2="763.499" y2="85.6761" stroke="#E22626" stroke-width="0.5"/>
<line x1="312.364" y1="539.639" x2="764.913" y2="87.0903" stroke="#E22626" stroke-width="0.5"/>
<line x1="313.779" y1="541.053" x2="766.327" y2="88.5045" stroke="#E22626" stroke-width="0.5"/>
<line x1="315.193" y1="542.467" x2="767.741" y2="89.9187" stroke="#E22626" stroke-width="0.5"/>
<line x1="316.607" y1="543.881" x2="769.155" y2="91.3328" stroke="#E22626" stroke-width="0.5"/>
<line x1="318.021" y1="545.296" x2="770.57" y2="92.7471" stroke="#E22626" stroke-width="0.5"/>
<line x1="319.436" y1="546.71" x2="771.984" y2="94.1613" stroke="#E22626" stroke-width="0.5"/>
<line x1="320.85" y1="548.124" x2="773.398" y2="95.5755" stroke="#E22626" stroke-width="0.5"/>
<line x1="322.264" y1="549.538" x2="774.812" y2="96.9897" stroke="#E22626" stroke-width="0.5"/>
<line x1="323.678" y1="550.952" x2="776.227" y2="98.404" stroke="#E22626" stroke-width="0.5"/>
<line x1="325.092" y1="552.367" x2="777.641" y2="99.8182" stroke="#E22626" stroke-width="0.5"/>
<line x1="326.507" y1="553.781" x2="779.055" y2="101.232" stroke="#E22626" stroke-width="0.5"/>
<line x1="327.921" y1="555.195" x2="780.469" y2="102.647" stroke="#E22626" stroke-width="0.5"/>
<line x1="329.335" y1="556.609" x2="781.883" y2="104.061" stroke="#E22626" stroke-width="0.5"/>
<line x1="330.749" y1="558.023" x2="783.298" y2="105.475" stroke="#E22626" stroke-width="0.5"/>
<line x1="332.163" y1="559.438" x2="784.712" y2="106.889" stroke="#E22626" stroke-width="0.5"/>
<line x1="333.578" y1="560.852" x2="786.126" y2="108.303" stroke="#E22626" stroke-width="0.5"/>
<line x1="334.992" y1="562.266" x2="787.54" y2="109.718" stroke="#E22626" stroke-width="0.5"/>
<line x1="336.406" y1="563.68" x2="788.954" y2="111.132" stroke="#E22626" stroke-width="0.5"/>
<line x1="337.82" y1="565.094" x2="790.369" y2="112.546" stroke="#E22626" stroke-width="0.5"/>
<line x1="339.234" y1="566.509" x2="791.783" y2="113.96" stroke="#E22626" stroke-width="0.5"/>
<line x1="340.649" y1="567.923" x2="793.197" y2="115.374" stroke="#E22626" stroke-width="0.5"/>
<line x1="342.063" y1="569.337" x2="794.611" y2="116.789" stroke="#E22626" stroke-width="0.5"/>
<line x1="343.477" y1="570.751" x2="796.026" y2="118.203" stroke="#E22626" stroke-width="0.5"/>
<line x1="344.891" y1="572.166" x2="797.44" y2="119.617" stroke="#E22626" stroke-width="0.5"/>
<line x1="346.306" y1="573.58" x2="798.854" y2="121.031" stroke="#E22626" stroke-width="0.5"/>
<line x1="347.72" y1="574.994" x2="800.268" y2="122.446" stroke="#E22626" stroke-width="0.5"/>
<line x1="349.134" y1="576.408" x2="801.682" y2="123.86" stroke="#E22626" stroke-width="0.5"/>
<line x1="350.548" y1="577.822" x2="803.097" y2="125.274" stroke="#E22626" stroke-width="0.5"/>
<line x1="351.962" y1="579.237" x2="804.511" y2="126.688" stroke="#E22626" stroke-width="0.5"/>
<line x1="353.377" y1="580.651" x2="805.925" y2="128.102" stroke="#E22626" stroke-width="0.5"/>
<line x1="354.791" y1="582.065" x2="807.339" y2="129.517" stroke="#E22626" stroke-width="0.5"/>
<line x1="356.205" y1="583.479" x2="808.753" y2="130.931" stroke="#E22626" stroke-width="0.5"/>
<line x1="357.619" y1="584.893" x2="810.168" y2="132.345" stroke="#E22626" stroke-width="0.5"/>
<line x1="359.033" y1="586.308" x2="811.582" y2="133.759" stroke="#E22626" stroke-width="0.5"/>
<line x1="360.448" y1="587.722" x2="812.996" y2="135.174" stroke="#E22626" stroke-width="0.5"/>
<line x1="361.862" y1="589.136" x2="814.41" y2="136.588" stroke="#E22626" stroke-width="0.5"/>
<line x1="363.276" y1="590.55" x2="815.824" y2="138.002" stroke="#E22626" stroke-width="0.5"/>
<line x1="364.69" y1="591.965" x2="817.239" y2="139.416" stroke="#E22626" stroke-width="0.5"/>
<line x1="366.105" y1="593.379" x2="818.653" y2="140.83" stroke="#E22626" stroke-width="0.5"/>
<line x1="367.519" y1="594.793" x2="820.067" y2="142.245" stroke="#E22626" stroke-width="0.5"/>
<line x1="368.933" y1="596.207" x2="821.481" y2="143.659" stroke="#E22626" stroke-width="0.5"/>
<line x1="370.347" y1="597.621" x2="822.896" y2="145.073" stroke="#E22626" stroke-width="0.5"/>
<line x1="371.761" y1="599.036" x2="824.31" y2="146.487" stroke="#E22626" stroke-width="0.5"/>
</g>
<defs>
<clipPath id="clip0_quote_lines">
<rect y="-1" width="528" height="156" rx="8" fill="white"/>
</clipPath>
</defs>
</svg>
