<svg preserveAspectRatio="none" width="100%" height="100%" overflow="visible" style="display: block;" viewBox="0 0 112 518.5" fill="none" xmlns="http://www.w3.org/2000/svg">
<g id="Line Group">
<line id="Line 1" y1="0.25" x2="112" y2="0.25" stroke="var(--stroke-0, black)" stroke-width="0.5"/>
<line id="Line 2" y1="2.25" x2="112" y2="2.25" stroke="var(--stroke-0, black)" stroke-width="0.5"/>
<line id="Line 3" y1="4.25" x2="112" y2="4.25" stroke="var(--stroke-0, black)" stroke-width="0.5"/>
<line id="Line 4" y1="6.25" x2="112" y2="6.25" stroke="var(--stroke-0, black)" stroke-width="0.5"/>
<line id="Line 5" y1="8.25" x2="112" y2="8.25" stroke="var(--stroke-0, black)" stroke-width="0.5"/>
<line id="Line 6" y1="10.25" x2="112" y2="10.25" stroke="var(--stroke-0, black)" stroke-width="0.5"/>
<line id="Line 7" y1="12.25" x2="112" y2="12.25" stroke="var(--stroke-0, black)" stroke-width="0.5"/>
<line id="Line 8" y1="14.25" x2="112" y2="14.25" stroke="var(--stroke-0, black)" stroke-width="0.5"/>
<line id="Line 9" y1="16.25" x2="112" y2="16.25" stroke="var(--stroke-0, black)" stroke-width="0.5"/>
<line id="Line 10" y1="18.25" x2="112" y2="18.25" stroke="var(--stroke-0, black)" stroke-width="0.5"/>
<line id="Line 11" y1="20.25" x2="112" y2="20.25" stroke="var(--stroke-0, black)" stroke-width="0.5"/>
<line id="Line 12" y1="22.25" x2="112" y2="22.25" stroke="var(--stroke-0, black)" stroke-width="0.5"/>
<line id="Line 13" y1="24.25" x2="112" y2="24.25" stroke="var(--stroke-0, black)" stroke-width="0.5"/>
<line id="Line 14" y1="26.25" x2="112" y2="26.25" stroke="var(--stroke-0, black)" stroke-width="0.5"/>
<line id="Line 15" y1="28.25" x2="112" y2="28.25" stroke="var(--stroke-0, black)" stroke-width="0.5"/>
<line id="Line 16" y1="30.25" x2="112" y2="30.25" stroke="var(--stroke-0, black)" stroke-width="0.5"/>
<line id="Line 17" y1="32.25" x2="112" y2="32.25" stroke="var(--stroke-0, black)" stroke-width="0.5"/>
<line id="Line 18" y1="34.25" x2="112" y2="34.25" stroke="var(--stroke-0, black)" stroke-width="0.5"/>
<line id="Line 19" y1="36.25" x2="112" y2="36.25" stroke="var(--stroke-0, black)" stroke-width="0.5"/>
<line id="Line 20" y1="38.25" x2="112" y2="38.25" stroke="var(--stroke-0, black)" stroke-width="0.5"/>
<line id="Line 21" y1="40.25" x2="112" y2="40.25" stroke="var(--stroke-0, black)" stroke-width="0.5"/>
<line id="Line 22" y1="42.25" x2="112" y2="42.25" stroke="var(--stroke-0, black)" stroke-width="0.5"/>
<line id="Line 23" y1="44.25" x2="112" y2="44.25" stroke="var(--stroke-0, black)" stroke-width="0.5"/>
<line id="Line 24" y1="46.25" x2="112" y2="46.25" stroke="var(--stroke-0, black)" stroke-width="0.5"/>
<line id="Line 25" y1="48.25" x2="112" y2="48.25" stroke="var(--stroke-0, black)" stroke-width="0.5"/>
<line id="Line 26" y1="50.25" x2="112" y2="50.25" stroke="var(--stroke-0, black)" stroke-width="0.5"/>
<line id="Line 27" y1="52.25" x2="112" y2="52.25" stroke="var(--stroke-0, black)" stroke-width="0.5"/>
<line id="Line 28" y1="54.25" x2="112" y2="54.25" stroke="var(--stroke-0, black)" stroke-width="0.5"/>
<line id="Line 29" y1="56.25" x2="112" y2="56.25" stroke="var(--stroke-0, black)" stroke-width="0.5"/>
<line id="Line 30" y1="58.25" x2="112" y2="58.25" stroke="var(--stroke-0, black)" stroke-width="0.5"/>
<line id="Line 31" y1="60.25" x2="112" y2="60.25" stroke="var(--stroke-0, black)" stroke-width="0.5"/>
<line id="Line 32" y1="62.25" x2="112" y2="62.25" stroke="var(--stroke-0, black)" stroke-width="0.5"/>
<line id="Line 33" y1="64.25" x2="112" y2="64.25" stroke="var(--stroke-0, black)" stroke-width="0.5"/>
<line id="Line 34" y1="66.25" x2="112" y2="66.25" stroke="var(--stroke-0, black)" stroke-width="0.5"/>
<line id="Line 35" y1="68.25" x2="112" y2="68.25" stroke="var(--stroke-0, black)" stroke-width="0.5"/>
<line id="Line 36" y1="70.25" x2="112" y2="70.25" stroke="var(--stroke-0, black)" stroke-width="0.5"/>
<line id="Line 37" y1="72.25" x2="112" y2="72.25" stroke="var(--stroke-0, black)" stroke-width="0.5"/>
<line id="Line 38" y1="74.25" x2="112" y2="74.25" stroke="var(--stroke-0, black)" stroke-width="0.5"/>
<line id="Line 39" y1="76.25" x2="112" y2="76.25" stroke="var(--stroke-0, black)" stroke-width="0.5"/>
<line id="Line 40" y1="78.25" x2="112" y2="78.25" stroke="var(--stroke-0, black)" stroke-width="0.5"/>
<line id="Line 41" y1="80.25" x2="112" y2="80.25" stroke="var(--stroke-0, black)" stroke-width="0.5"/>
<line id="Line 42" y1="82.25" x2="112" y2="82.25" stroke="var(--stroke-0, black)" stroke-width="0.5"/>
<line id="Line 43" y1="84.25" x2="112" y2="84.25" stroke="var(--stroke-0, black)" stroke-width="0.5"/>
<line id="Line 44" y1="86.25" x2="112" y2="86.25" stroke="var(--stroke-0, black)" stroke-width="0.5"/>
<line id="Line 45" y1="88.25" x2="112" y2="88.25" stroke="var(--stroke-0, black)" stroke-width="0.5"/>
<line id="Line 46" y1="90.25" x2="112" y2="90.25" stroke="var(--stroke-0, black)" stroke-width="0.5"/>
<line id="Line 47" y1="92.25" x2="112" y2="92.25" stroke="var(--stroke-0, black)" stroke-width="0.5"/>
<line id="Line 48" y1="94.25" x2="112" y2="94.25" stroke="var(--stroke-0, black)" stroke-width="0.5"/>
<line id="Line 49" y1="96.25" x2="112" y2="96.25" stroke="var(--stroke-0, black)" stroke-width="0.5"/>
<line id="Line 50" y1="98.25" x2="112" y2="98.25" stroke="var(--stroke-0, black)" stroke-width="0.5"/>
<line id="Line 51" y1="100.25" x2="112" y2="100.25" stroke="var(--stroke-0, black)" stroke-width="0.5"/>
<line id="Line 52" y1="102.25" x2="112" y2="102.25" stroke="var(--stroke-0, black)" stroke-width="0.5"/>
<line id="Line 53" y1="104.25" x2="112" y2="104.25" stroke="var(--stroke-0, black)" stroke-width="0.5"/>
<line id="Line 54" y1="106.25" x2="112" y2="106.25" stroke="var(--stroke-0, black)" stroke-width="0.5"/>
<line id="Line 55" y1="108.25" x2="112" y2="108.25" stroke="var(--stroke-0, black)" stroke-width="0.5"/>
<line id="Line 56" y1="110.25" x2="112" y2="110.25" stroke="var(--stroke-0, black)" stroke-width="0.5"/>
<line id="Line 57" y1="112.25" x2="112" y2="112.25" stroke="var(--stroke-0, black)" stroke-width="0.5"/>
<line id="Line 58" y1="114.25" x2="112" y2="114.25" stroke="var(--stroke-0, black)" stroke-width="0.5"/>
<line id="Line 59" y1="116.25" x2="112" y2="116.25" stroke="var(--stroke-0, black)" stroke-width="0.5"/>
<line id="Line 60" y1="118.25" x2="112" y2="118.25" stroke="var(--stroke-0, black)" stroke-width="0.5"/>
<line id="Line 61" y1="120.25" x2="112" y2="120.25" stroke="var(--stroke-0, black)" stroke-width="0.5"/>
<line id="Line 62" y1="122.25" x2="112" y2="122.25" stroke="var(--stroke-0, black)" stroke-width="0.5"/>
<line id="Line 63" y1="124.25" x2="112" y2="124.25" stroke="var(--stroke-0, black)" stroke-width="0.5"/>
<line id="Line 64" y1="126.25" x2="112" y2="126.25" stroke="var(--stroke-0, black)" stroke-width="0.5"/>
<line id="Line 65" y1="128.25" x2="112" y2="128.25" stroke="var(--stroke-0, black)" stroke-width="0.5"/>
<line id="Line 66" y1="130.25" x2="112" y2="130.25" stroke="var(--stroke-0, black)" stroke-width="0.5"/>
<line id="Line 67" y1="132.25" x2="112" y2="132.25" stroke="var(--stroke-0, black)" stroke-width="0.5"/>
<line id="Line 68" y1="134.25" x2="112" y2="134.25" stroke="var(--stroke-0, black)" stroke-width="0.5"/>
<line id="Line 69" y1="136.25" x2="112" y2="136.25" stroke="var(--stroke-0, black)" stroke-width="0.5"/>
<line id="Line 70" y1="138.25" x2="112" y2="138.25" stroke="var(--stroke-0, black)" stroke-width="0.5"/>
<line id="Line 71" y1="140.25" x2="112" y2="140.25" stroke="var(--stroke-0, black)" stroke-width="0.5"/>
<line id="Line 72" y1="142.25" x2="112" y2="142.25" stroke="var(--stroke-0, black)" stroke-width="0.5"/>
<line id="Line 73" y1="144.25" x2="112" y2="144.25" stroke="var(--stroke-0, black)" stroke-width="0.5"/>
<line id="Line 74" y1="146.25" x2="112" y2="146.25" stroke="var(--stroke-0, black)" stroke-width="0.5"/>
<line id="Line 75" y1="148.25" x2="112" y2="148.25" stroke="var(--stroke-0, black)" stroke-width="0.5"/>
<line id="Line 76" y1="150.25" x2="112" y2="150.25" stroke="var(--stroke-0, black)" stroke-width="0.5"/>
<line id="Line 77" y1="152.25" x2="112" y2="152.25" stroke="var(--stroke-0, black)" stroke-width="0.5"/>
<line id="Line 78" y1="154.25" x2="112" y2="154.25" stroke="var(--stroke-0, black)" stroke-width="0.5"/>
<line id="Line 79" y1="156.25" x2="112" y2="156.25" stroke="var(--stroke-0, black)" stroke-width="0.5"/>
<line id="Line 80" y1="158.25" x2="112" y2="158.25" stroke="var(--stroke-0, black)" stroke-width="0.5"/>
<line id="Line 81" y1="160.25" x2="112" y2="160.25" stroke="var(--stroke-0, black)" stroke-width="0.5"/>
<line id="Line 82" y1="162.25" x2="112" y2="162.25" stroke="var(--stroke-0, black)" stroke-width="0.5"/>
<line id="Line 83" y1="164.25" x2="112" y2="164.25" stroke="var(--stroke-0, black)" stroke-width="0.5"/>
<line id="Line 84" y1="166.25" x2="112" y2="166.25" stroke="var(--stroke-0, black)" stroke-width="0.5"/>
<line id="Line 85" y1="168.25" x2="112" y2="168.25" stroke="var(--stroke-0, black)" stroke-width="0.5"/>
<line id="Line 86" y1="170.25" x2="112" y2="170.25" stroke="var(--stroke-0, black)" stroke-width="0.5"/>
<line id="Line 87" y1="172.25" x2="112" y2="172.25" stroke="var(--stroke-0, black)" stroke-width="0.5"/>
<line id="Line 88" y1="174.25" x2="112" y2="174.25" stroke="var(--stroke-0, black)" stroke-width="0.5"/>
<line id="Line 89" y1="176.25" x2="112" y2="176.25" stroke="var(--stroke-0, black)" stroke-width="0.5"/>
<line id="Line 90" y1="178.25" x2="112" y2="178.25" stroke="var(--stroke-0, black)" stroke-width="0.5"/>
<line id="Line 91" y1="180.25" x2="112" y2="180.25" stroke="var(--stroke-0, black)" stroke-width="0.5"/>
<line id="Line 92" y1="182.25" x2="112" y2="182.25" stroke="var(--stroke-0, black)" stroke-width="0.5"/>
<line id="Line 93" y1="184.25" x2="112" y2="184.25" stroke="var(--stroke-0, black)" stroke-width="0.5"/>
<line id="Line 94" y1="186.25" x2="112" y2="186.25" stroke="var(--stroke-0, black)" stroke-width="0.5"/>
<line id="Line 95" y1="188.25" x2="112" y2="188.25" stroke="var(--stroke-0, black)" stroke-width="0.5"/>
<line id="Line 96" y1="190.25" x2="112" y2="190.25" stroke="var(--stroke-0, black)" stroke-width="0.5"/>
<line id="Line 97" y1="192.25" x2="112" y2="192.25" stroke="var(--stroke-0, black)" stroke-width="0.5"/>
<line id="Line 98" y1="194.25" x2="112" y2="194.25" stroke="var(--stroke-0, black)" stroke-width="0.5"/>
<line id="Line 99" y1="196.25" x2="112" y2="196.25" stroke="var(--stroke-0, black)" stroke-width="0.5"/>
<line id="Line 100" y1="198.25" x2="112" y2="198.25" stroke="var(--stroke-0, black)" stroke-width="0.5"/>
<line id="Line 101" y1="200.25" x2="112" y2="200.25" stroke="var(--stroke-0, black)" stroke-width="0.5"/>
<line id="Line 102" y1="202.25" x2="112" y2="202.25" stroke="var(--stroke-0, black)" stroke-width="0.5"/>
<line id="Line 103" y1="204.25" x2="112" y2="204.25" stroke="var(--stroke-0, black)" stroke-width="0.5"/>
<line id="Line 104" y1="206.25" x2="112" y2="206.25" stroke="var(--stroke-0, black)" stroke-width="0.5"/>
<line id="Line 105" y1="208.25" x2="112" y2="208.25" stroke="var(--stroke-0, black)" stroke-width="0.5"/>
<line id="Line 106" y1="210.25" x2="112" y2="210.25" stroke="var(--stroke-0, black)" stroke-width="0.5"/>
<line id="Line 107" y1="212.25" x2="112" y2="212.25" stroke="var(--stroke-0, black)" stroke-width="0.5"/>
<line id="Line 108" y1="214.25" x2="112" y2="214.25" stroke="var(--stroke-0, black)" stroke-width="0.5"/>
<line id="Line 109" y1="216.25" x2="112" y2="216.25" stroke="var(--stroke-0, black)" stroke-width="0.5"/>
<line id="Line 110" y1="218.25" x2="112" y2="218.25" stroke="var(--stroke-0, black)" stroke-width="0.5"/>
<line id="Line 111" y1="220.25" x2="112" y2="220.25" stroke="var(--stroke-0, black)" stroke-width="0.5"/>
<line id="Line 112" y1="222.25" x2="112" y2="222.25" stroke="var(--stroke-0, black)" stroke-width="0.5"/>
<line id="Line 113" y1="224.25" x2="112" y2="224.25" stroke="var(--stroke-0, black)" stroke-width="0.5"/>
<line id="Line 114" y1="226.25" x2="112" y2="226.25" stroke="var(--stroke-0, black)" stroke-width="0.5"/>
<line id="Line 115" y1="228.25" x2="112" y2="228.25" stroke="var(--stroke-0, black)" stroke-width="0.5"/>
<line id="Line 116" y1="230.25" x2="112" y2="230.25" stroke="var(--stroke-0, black)" stroke-width="0.5"/>
<line id="Line 117" y1="232.25" x2="112" y2="232.25" stroke="var(--stroke-0, black)" stroke-width="0.5"/>
<line id="Line 118" y1="234.25" x2="112" y2="234.25" stroke="var(--stroke-0, black)" stroke-width="0.5"/>
<line id="Line 119" y1="236.25" x2="112" y2="236.25" stroke="var(--stroke-0, black)" stroke-width="0.5"/>
<line id="Line 120" y1="238.25" x2="112" y2="238.25" stroke="var(--stroke-0, black)" stroke-width="0.5"/>
<line id="Line 121" y1="240.25" x2="112" y2="240.25" stroke="var(--stroke-0, black)" stroke-width="0.5"/>
<line id="Line 122" y1="242.25" x2="112" y2="242.25" stroke="var(--stroke-0, black)" stroke-width="0.5"/>
<line id="Line 123" y1="244.25" x2="112" y2="244.25" stroke="var(--stroke-0, black)" stroke-width="0.5"/>
<line id="Line 124" y1="246.25" x2="112" y2="246.25" stroke="var(--stroke-0, black)" stroke-width="0.5"/>
<line id="Line 125" y1="248.25" x2="112" y2="248.25" stroke="var(--stroke-0, black)" stroke-width="0.5"/>
<line id="Line 126" y1="250.25" x2="112" y2="250.25" stroke="var(--stroke-0, black)" stroke-width="0.5"/>
<line id="Line 127" y1="252.25" x2="112" y2="252.25" stroke="var(--stroke-0, black)" stroke-width="0.5"/>
<line id="Line 128" y1="254.25" x2="112" y2="254.25" stroke="var(--stroke-0, black)" stroke-width="0.5"/>
<line id="Line 129" y1="256.25" x2="112" y2="256.25" stroke="var(--stroke-0, black)" stroke-width="0.5"/>
<line id="Line 130" y1="258.25" x2="112" y2="258.25" stroke="var(--stroke-0, black)" stroke-width="0.5"/>
<line id="Line 131" y1="260.25" x2="112" y2="260.25" stroke="var(--stroke-0, black)" stroke-width="0.5"/>
<line id="Line 132" y1="262.25" x2="112" y2="262.25" stroke="var(--stroke-0, black)" stroke-width="0.5"/>
<line id="Line 133" y1="264.25" x2="112" y2="264.25" stroke="var(--stroke-0, black)" stroke-width="0.5"/>
<line id="Line 134" y1="266.25" x2="112" y2="266.25" stroke="var(--stroke-0, black)" stroke-width="0.5"/>
<line id="Line 135" y1="268.25" x2="112" y2="268.25" stroke="var(--stroke-0, black)" stroke-width="0.5"/>
<line id="Line 136" y1="270.25" x2="112" y2="270.25" stroke="var(--stroke-0, black)" stroke-width="0.5"/>
<line id="Line 137" y1="272.25" x2="112" y2="272.25" stroke="var(--stroke-0, black)" stroke-width="0.5"/>
<line id="Line 138" y1="274.25" x2="112" y2="274.25" stroke="var(--stroke-0, black)" stroke-width="0.5"/>
<line id="Line 139" y1="276.25" x2="112" y2="276.25" stroke="var(--stroke-0, black)" stroke-width="0.5"/>
<line id="Line 140" y1="278.25" x2="112" y2="278.25" stroke="var(--stroke-0, black)" stroke-width="0.5"/>
<line id="Line 141" y1="280.25" x2="112" y2="280.25" stroke="var(--stroke-0, black)" stroke-width="0.5"/>
<line id="Line 142" y1="282.25" x2="112" y2="282.25" stroke="var(--stroke-0, black)" stroke-width="0.5"/>
<line id="Line 143" y1="284.25" x2="112" y2="284.25" stroke="var(--stroke-0, black)" stroke-width="0.5"/>
<line id="Line 144" y1="286.25" x2="112" y2="286.25" stroke="var(--stroke-0, black)" stroke-width="0.5"/>
<line id="Line 145" y1="288.25" x2="112" y2="288.25" stroke="var(--stroke-0, black)" stroke-width="0.5"/>
<line id="Line 146" y1="290.25" x2="112" y2="290.25" stroke="var(--stroke-0, black)" stroke-width="0.5"/>
<line id="Line 147" y1="292.25" x2="112" y2="292.25" stroke="var(--stroke-0, black)" stroke-width="0.5"/>
<line id="Line 148" y1="294.25" x2="112" y2="294.25" stroke="var(--stroke-0, black)" stroke-width="0.5"/>
<line id="Line 149" y1="296.25" x2="112" y2="296.25" stroke="var(--stroke-0, black)" stroke-width="0.5"/>
<line id="Line 150" y1="298.25" x2="112" y2="298.25" stroke="var(--stroke-0, black)" stroke-width="0.5"/>
<line id="Line 151" y1="300.25" x2="112" y2="300.25" stroke="var(--stroke-0, black)" stroke-width="0.5"/>
<line id="Line 152" y1="302.25" x2="112" y2="302.25" stroke="var(--stroke-0, black)" stroke-width="0.5"/>
<line id="Line 153" y1="304.25" x2="112" y2="304.25" stroke="var(--stroke-0, black)" stroke-width="0.5"/>
<line id="Line 154" y1="306.25" x2="112" y2="306.25" stroke="var(--stroke-0, black)" stroke-width="0.5"/>
<line id="Line 155" y1="308.25" x2="112" y2="308.25" stroke="var(--stroke-0, black)" stroke-width="0.5"/>
<line id="Line 156" y1="310.25" x2="112" y2="310.25" stroke="var(--stroke-0, black)" stroke-width="0.5"/>
<line id="Line 157" y1="312.25" x2="112" y2="312.25" stroke="var(--stroke-0, black)" stroke-width="0.5"/>
<line id="Line 158" y1="314.25" x2="112" y2="314.25" stroke="var(--stroke-0, black)" stroke-width="0.5"/>
<line id="Line 159" y1="316.25" x2="112" y2="316.25" stroke="var(--stroke-0, black)" stroke-width="0.5"/>
<line id="Line 160" y1="318.25" x2="112" y2="318.25" stroke="var(--stroke-0, black)" stroke-width="0.5"/>
<line id="Line 161" y1="320.25" x2="112" y2="320.25" stroke="var(--stroke-0, black)" stroke-width="0.5"/>
<line id="Line 162" y1="322.25" x2="112" y2="322.25" stroke="var(--stroke-0, black)" stroke-width="0.5"/>
<line id="Line 163" y1="324.25" x2="112" y2="324.25" stroke="var(--stroke-0, black)" stroke-width="0.5"/>
<line id="Line 164" y1="326.25" x2="112" y2="326.25" stroke="var(--stroke-0, black)" stroke-width="0.5"/>
<line id="Line 165" y1="328.25" x2="112" y2="328.25" stroke="var(--stroke-0, black)" stroke-width="0.5"/>
<line id="Line 166" y1="330.25" x2="112" y2="330.25" stroke="var(--stroke-0, black)" stroke-width="0.5"/>
<line id="Line 167" y1="332.25" x2="112" y2="332.25" stroke="var(--stroke-0, black)" stroke-width="0.5"/>
<line id="Line 168" y1="334.25" x2="112" y2="334.25" stroke="var(--stroke-0, black)" stroke-width="0.5"/>
<line id="Line 169" y1="336.25" x2="112" y2="336.25" stroke="var(--stroke-0, black)" stroke-width="0.5"/>
<line id="Line 170" y1="338.25" x2="112" y2="338.25" stroke="var(--stroke-0, black)" stroke-width="0.5"/>
<line id="Line 171" y1="340.25" x2="112" y2="340.25" stroke="var(--stroke-0, black)" stroke-width="0.5"/>
<line id="Line 172" y1="342.25" x2="112" y2="342.25" stroke="var(--stroke-0, black)" stroke-width="0.5"/>
<line id="Line 173" y1="344.25" x2="112" y2="344.25" stroke="var(--stroke-0, black)" stroke-width="0.5"/>
<line id="Line 174" y1="346.25" x2="112" y2="346.25" stroke="var(--stroke-0, black)" stroke-width="0.5"/>
<line id="Line 175" y1="348.25" x2="112" y2="348.25" stroke="var(--stroke-0, black)" stroke-width="0.5"/>
<line id="Line 176" y1="350.25" x2="112" y2="350.25" stroke="var(--stroke-0, black)" stroke-width="0.5"/>
<line id="Line 177" y1="352.25" x2="112" y2="352.25" stroke="var(--stroke-0, black)" stroke-width="0.5"/>
<line id="Line 178" y1="354.25" x2="112" y2="354.25" stroke="var(--stroke-0, black)" stroke-width="0.5"/>
<line id="Line 179" y1="356.25" x2="112" y2="356.25" stroke="var(--stroke-0, black)" stroke-width="0.5"/>
<line id="Line 180" y1="358.25" x2="112" y2="358.25" stroke="var(--stroke-0, black)" stroke-width="0.5"/>
<line id="Line 181" y1="360.25" x2="112" y2="360.25" stroke="var(--stroke-0, black)" stroke-width="0.5"/>
<line id="Line 182" y1="362.25" x2="112" y2="362.25" stroke="var(--stroke-0, black)" stroke-width="0.5"/>
<line id="Line 183" y1="364.25" x2="112" y2="364.25" stroke="var(--stroke-0, black)" stroke-width="0.5"/>
<line id="Line 184" y1="366.25" x2="112" y2="366.25" stroke="var(--stroke-0, black)" stroke-width="0.5"/>
<line id="Line 185" y1="368.25" x2="112" y2="368.25" stroke="var(--stroke-0, black)" stroke-width="0.5"/>
<line id="Line 186" y1="370.25" x2="112" y2="370.25" stroke="var(--stroke-0, black)" stroke-width="0.5"/>
<line id="Line 187" y1="372.25" x2="112" y2="372.25" stroke="var(--stroke-0, black)" stroke-width="0.5"/>
<line id="Line 188" y1="374.25" x2="112" y2="374.25" stroke="var(--stroke-0, black)" stroke-width="0.5"/>
<line id="Line 189" y1="376.25" x2="112" y2="376.25" stroke="var(--stroke-0, black)" stroke-width="0.5"/>
<line id="Line 190" y1="378.25" x2="112" y2="378.25" stroke="var(--stroke-0, black)" stroke-width="0.5"/>
<line id="Line 191" y1="380.25" x2="112" y2="380.25" stroke="var(--stroke-0, black)" stroke-width="0.5"/>
<line id="Line 192" y1="382.25" x2="112" y2="382.25" stroke="var(--stroke-0, black)" stroke-width="0.5"/>
<line id="Line 193" y1="384.25" x2="112" y2="384.25" stroke="var(--stroke-0, black)" stroke-width="0.5"/>
<line id="Line 194" y1="386.25" x2="112" y2="386.25" stroke="var(--stroke-0, black)" stroke-width="0.5"/>
<line id="Line 195" y1="388.25" x2="112" y2="388.25" stroke="var(--stroke-0, black)" stroke-width="0.5"/>
<line id="Line 196" y1="390.25" x2="112" y2="390.25" stroke="var(--stroke-0, black)" stroke-width="0.5"/>
<line id="Line 197" y1="392.25" x2="112" y2="392.25" stroke="var(--stroke-0, black)" stroke-width="0.5"/>
<line id="Line 198" y1="394.25" x2="112" y2="394.25" stroke="var(--stroke-0, black)" stroke-width="0.5"/>
<line id="Line 199" y1="396.25" x2="112" y2="396.25" stroke="var(--stroke-0, black)" stroke-width="0.5"/>
<line id="Line 200" y1="398.25" x2="112" y2="398.25" stroke="var(--stroke-0, black)" stroke-width="0.5"/>
<line id="Line 201" y1="400.25" x2="112" y2="400.25" stroke="var(--stroke-0, black)" stroke-width="0.5"/>
<line id="Line 202" y1="402.25" x2="112" y2="402.25" stroke="var(--stroke-0, black)" stroke-width="0.5"/>
<line id="Line 203" y1="404.25" x2="112" y2="404.25" stroke="var(--stroke-0, black)" stroke-width="0.5"/>
<line id="Line 204" y1="406.25" x2="112" y2="406.25" stroke="var(--stroke-0, black)" stroke-width="0.5"/>
<line id="Line 205" y1="408.25" x2="112" y2="408.25" stroke="var(--stroke-0, black)" stroke-width="0.5"/>
<line id="Line 206" y1="410.25" x2="112" y2="410.25" stroke="var(--stroke-0, black)" stroke-width="0.5"/>
<line id="Line 207" y1="412.25" x2="112" y2="412.25" stroke="var(--stroke-0, black)" stroke-width="0.5"/>
<line id="Line 208" y1="414.25" x2="112" y2="414.25" stroke="var(--stroke-0, black)" stroke-width="0.5"/>
<line id="Line 209" y1="416.25" x2="112" y2="416.25" stroke="var(--stroke-0, black)" stroke-width="0.5"/>
<line id="Line 210" y1="418.25" x2="112" y2="418.25" stroke="var(--stroke-0, black)" stroke-width="0.5"/>
<line id="Line 211" y1="420.25" x2="112" y2="420.25" stroke="var(--stroke-0, black)" stroke-width="0.5"/>
<line id="Line 212" y1="422.25" x2="112" y2="422.25" stroke="var(--stroke-0, black)" stroke-width="0.5"/>
<line id="Line 213" y1="424.25" x2="112" y2="424.25" stroke="var(--stroke-0, black)" stroke-width="0.5"/>
<line id="Line 214" y1="426.25" x2="112" y2="426.25" stroke="var(--stroke-0, black)" stroke-width="0.5"/>
<line id="Line 215" y1="428.25" x2="112" y2="428.25" stroke="var(--stroke-0, black)" stroke-width="0.5"/>
<line id="Line 216" y1="430.25" x2="112" y2="430.25" stroke="var(--stroke-0, black)" stroke-width="0.5"/>
<line id="Line 217" y1="432.25" x2="112" y2="432.25" stroke="var(--stroke-0, black)" stroke-width="0.5"/>
<line id="Line 218" y1="434.25" x2="112" y2="434.25" stroke="var(--stroke-0, black)" stroke-width="0.5"/>
<line id="Line 219" y1="436.25" x2="112" y2="436.25" stroke="var(--stroke-0, black)" stroke-width="0.5"/>
<line id="Line 220" y1="438.25" x2="112" y2="438.25" stroke="var(--stroke-0, black)" stroke-width="0.5"/>
<line id="Line 221" y1="440.25" x2="112" y2="440.25" stroke="var(--stroke-0, black)" stroke-width="0.5"/>
<line id="Line 222" y1="442.25" x2="112" y2="442.25" stroke="var(--stroke-0, black)" stroke-width="0.5"/>
<line id="Line 223" y1="444.25" x2="112" y2="444.25" stroke="var(--stroke-0, black)" stroke-width="0.5"/>
<line id="Line 224" y1="446.25" x2="112" y2="446.25" stroke="var(--stroke-0, black)" stroke-width="0.5"/>
<line id="Line 225" y1="448.25" x2="112" y2="448.25" stroke="var(--stroke-0, black)" stroke-width="0.5"/>
<line id="Line 226" y1="450.25" x2="112" y2="450.25" stroke="var(--stroke-0, black)" stroke-width="0.5"/>
<line id="Line 227" y1="452.25" x2="112" y2="452.25" stroke="var(--stroke-0, black)" stroke-width="0.5"/>
<line id="Line 228" y1="454.25" x2="112" y2="454.25" stroke="var(--stroke-0, black)" stroke-width="0.5"/>
<line id="Line 229" y1="456.25" x2="112" y2="456.25" stroke="var(--stroke-0, black)" stroke-width="0.5"/>
<line id="Line 230" y1="458.25" x2="112" y2="458.25" stroke="var(--stroke-0, black)" stroke-width="0.5"/>
<line id="Line 231" y1="460.25" x2="112" y2="460.25" stroke="var(--stroke-0, black)" stroke-width="0.5"/>
<line id="Line 232" y1="462.25" x2="112" y2="462.25" stroke="var(--stroke-0, black)" stroke-width="0.5"/>
<line id="Line 233" y1="464.25" x2="112" y2="464.25" stroke="var(--stroke-0, black)" stroke-width="0.5"/>
<line id="Line 234" y1="466.25" x2="112" y2="466.25" stroke="var(--stroke-0, black)" stroke-width="0.5"/>
<line id="Line 235" y1="468.25" x2="112" y2="468.25" stroke="var(--stroke-0, black)" stroke-width="0.5"/>
<line id="Line 236" y1="470.25" x2="112" y2="470.25" stroke="var(--stroke-0, black)" stroke-width="0.5"/>
<line id="Line 237" y1="472.25" x2="112" y2="472.25" stroke="var(--stroke-0, black)" stroke-width="0.5"/>
<line id="Line 238" y1="474.25" x2="112" y2="474.25" stroke="var(--stroke-0, black)" stroke-width="0.5"/>
<line id="Line 239" y1="476.25" x2="112" y2="476.25" stroke="var(--stroke-0, black)" stroke-width="0.5"/>
<line id="Line 240" y1="478.25" x2="112" y2="478.25" stroke="var(--stroke-0, black)" stroke-width="0.5"/>
<line id="Line 241" y1="480.25" x2="112" y2="480.25" stroke="var(--stroke-0, black)" stroke-width="0.5"/>
<line id="Line 242" y1="482.25" x2="112" y2="482.25" stroke="var(--stroke-0, black)" stroke-width="0.5"/>
<line id="Line 243" y1="484.25" x2="112" y2="484.25" stroke="var(--stroke-0, black)" stroke-width="0.5"/>
<line id="Line 244" y1="486.25" x2="112" y2="486.25" stroke="var(--stroke-0, black)" stroke-width="0.5"/>
<line id="Line 245" y1="488.25" x2="112" y2="488.25" stroke="var(--stroke-0, black)" stroke-width="0.5"/>
<line id="Line 246" y1="490.25" x2="112" y2="490.25" stroke="var(--stroke-0, black)" stroke-width="0.5"/>
<line id="Line 247" y1="492.25" x2="112" y2="492.25" stroke="var(--stroke-0, black)" stroke-width="0.5"/>
<line id="Line 248" y1="494.25" x2="112" y2="494.25" stroke="var(--stroke-0, black)" stroke-width="0.5"/>
<line id="Line 249" y1="496.25" x2="112" y2="496.25" stroke="var(--stroke-0, black)" stroke-width="0.5"/>
<line id="Line 250" y1="498.25" x2="112" y2="498.25" stroke="var(--stroke-0, black)" stroke-width="0.5"/>
<line id="Line 251" y1="500.25" x2="112" y2="500.25" stroke="var(--stroke-0, black)" stroke-width="0.5"/>
<line id="Line 252" y1="502.25" x2="112" y2="502.25" stroke="var(--stroke-0, black)" stroke-width="0.5"/>
<line id="Line 253" y1="504.25" x2="112" y2="504.25" stroke="var(--stroke-0, black)" stroke-width="0.5"/>
<line id="Line 254" y1="506.25" x2="112" y2="506.25" stroke="var(--stroke-0, black)" stroke-width="0.5"/>
<line id="Line 255" y1="508.25" x2="112" y2="508.25" stroke="var(--stroke-0, black)" stroke-width="0.5"/>
<line id="Line 256" y1="510.25" x2="112" y2="510.25" stroke="var(--stroke-0, black)" stroke-width="0.5"/>
<line id="Line 257" y1="512.25" x2="112" y2="512.25" stroke="var(--stroke-0, black)" stroke-width="0.5"/>
<line id="Line 258" y1="514.25" x2="112" y2="514.25" stroke="var(--stroke-0, black)" stroke-width="0.5"/>
<line id="Line 259" y1="516.25" x2="112" y2="516.25" stroke="var(--stroke-0, black)" stroke-width="0.5"/>
<line id="Line 260" y1="518.25" x2="112" y2="518.25" stroke="var(--stroke-0, black)" stroke-width="0.5"/>
</g>
</svg>
