<svg id="图层_1" data-name="图层 1" xmlns="http://www.w3.org/2000/svg" viewBox="0 0 499.29 215.96"><defs><style>.cls-1{fill:red;}</style></defs><path class="cls-1" d="M153.3,167.68a122.1,122.1,0,0,1-7.59-13.57,142.14,142.14,0,0,0-8.12-14.58,21.13,21.13,0,0,0,2.56-7.78c1.51-12.21-7.08-24.26-26.86-37.49l.65-.54c7.55-6.37,14.68-12.4,25-13.93,9.89-1.48,20.72,1.49,32.18,8.84L179,76.37c-14.52-9.31-28.72-13-42.19-11-14.38,2.15-23.86,10.15-32.22,17.21-7.74,6.54-13.85,11.7-22.46,12s-18-4.67-27.8-14.68l-10.4,10.2c12.4,12.65,25,19,37.51,19h1.14a36.27,36.27,0,0,0,8.86-1.39l-3.74,12.49a70.6,70.6,0,0,1,26.54,14.36c1.61,1.42,3.06,2.83,4.4,4.26-1,.81-2.16,1.64-3.31,2.5-7,5.2-15.7,11.68-17,22.77-1.48,12.34,6.49,24.71,24.36,37.81l8.61-11.75c-12.7-9.31-19.27-17.95-18.51-24.34.54-4.54,4.61-7.86,11.26-12.81,1.09-.81,2.2-1.64,3.31-2.5,2,3.32,3.68,6.7,5.42,10.14a133.86,133.86,0,0,0,8.51,15.16C153.79,194.48,174.85,208,203.83,216l3.87-14.05c-25.53-7-43.83-18.54-54.4-34.23M93.86,106.93a42.49,42.49,0,0,0,7-3.36c14.42,9,20.65,15.73,23.21,20.3l-.27-.24a84.33,84.33,0,0,0-29.93-16.7"/><path class="cls-1" d="M97.54,77.29A30.73,30.73,0,0,1,96,61.37a29,29,0,0,1,1.47-5.28l-13.6-5.21a43.45,43.45,0,0,0-2.21,7.95,45.57,45.57,0,0,0,2.16,23.4Z"/><polygon class="cls-1" points="51.68 44.96 74.79 28.17 46.22 28.17 37.4 1 28.57 28.17 0 28.17 23.11 44.96 14.28 72.13 37.4 55.34 60.51 72.13 51.68 44.96"/><path class="cls-1" d="M482.43,177.9C470.07,164.64,463,152.72,455.58,140a326.1,326.1,0,0,1-19.13-38.38V14.64l-17.28,2.77c1,35.47,1.15,67.08.95,94.1-.18,23-.6,39.6-6.6,60.61A177.28,177.28,0,0,1,394.84,215c11.47-9.83,31-29.75,38.64-60.31a106.53,106.53,0,0,0,3-19.47V109.39a222.57,222.57,0,0,0,9.86,35.2c4,10.68,8.09,21.8,16.6,34.54a131,131,0,0,0,26.79,29.19q4.8-7.32,9.59-14.66a165.3,165.3,0,0,1-16.86-15.76"/><path class="cls-1" d="M477.12,63.35a69,69,0,0,0,3-25.57l-17.28,2.87a111.2,111.2,0,0,1-14.91,60.68c6-4,22.27-16,29.22-38"/><path class="cls-1" d="M396.5,116.19l17.28-2.86a55.38,55.38,0,0,0-3.87-23.25,57.14,57.14,0,0,0-15.42-21.4,64,64,0,0,0-13.61-9.06,99,99,0,0,1,13.7,33.59,97.86,97.86,0,0,1,1.92,23"/><path class="cls-1" d="M306,50,322.4,46.5c-.83-6.59-3.95-24.14-18.58-37.44A54.93,54.93,0,0,0,290.21,0a103.49,103.49,0,0,1,13.7,33.6A100.2,100.2,0,0,1,306,50"/><path class="cls-1" d="M323.33,87.57q0-9.41,0-18.8l30-6.42V45.08L253.56,66.44V83.72l34.71-7.44a216.55,216.55,0,0,0,9.48,47c1.18,3.67,2.4,7.14,3.63,10.4a158.22,158.22,0,0,1-17.09,42.59c-.47.8-1,1.61-1.44,2.41A169.4,169.4,0,0,1,253.16,215a136.66,136.66,0,0,0,14.42-9.84,140.24,140.24,0,0,0,28.58-30.21A146.34,146.34,0,0,0,309.3,152c.85,1.75,1.66,3.35,2.41,4.78a215.25,215.25,0,0,0,42.94,56.68l9.58-14.66a310.55,310.55,0,0,1-48.71-62.61,155.55,155.55,0,0,0,7.81-48.64m-35-11.3L306,72.49V94.77a166.79,166.79,0,0,1-1.36,21.33,309,309,0,0,1-16.33-39.83"/></svg>