<svg xmlns="http://www.w3.org/2000/svg" viewBox="0 0 216 216" role="img" aria-labelledby="title">
  <title id="title">文火</title>
  <g fill="#e22626">
    <path d="M153.3 167.7c-2.8-4.4-5.4-8.9-7.6-13.6-2.4-5-5.1-9.9-8.1-14.6 1.4-2.4 2.2-5 2.6-7.8 1.5-12.2-7.1-24.3-26.9-37.5l.7-.5c7.6-6.4 14.7-12.4 25-13.9 9.9-1.5 20.7 1.5 32.2 8.8l7.9-12.3c-14.5-9.3-28.7-13-42.2-11-14.4 2.2-23.9 10.2-32.2 17.2-7.7 6.5-13.8 11.7-22.5 12s-18-4.7-27.8-14.7L43.9 90.1c12.4 12.7 25 19 37.5 19h1.1c3-.1 6-.6 8.9-1.4l-3.7 12.5c9.8 2.8 18.8 7.7 26.5 14.4 1.6 1.4 3.1 2.8 4.4 4.3-1 .8-2.2 1.6-3.3 2.5-7 5.2-15.7 11.7-17 22.8-1.5 12.3 6.5 24.7 24.4 37.8l8.6-11.8c-12.7-9.3-19.3-17.9-18.5-24.3.5-4.5 4.6-7.9 11.3-12.8 1.1-.8 2.2-1.6 3.3-2.5 2 3.3 3.7 6.7 5.4 10.1 2.5 5.2 5.3 10.3 8.5 15.2 12.5 18.7 33.6 32.2 62.5 40.2l3.9-14.1c-25.5-7.1-43.8-18.6-54.4-34.3Zm-59.4-60.8c2.4-.9 4.8-2 7-3.4 14.4 9 20.7 15.7 23.2 20.3l-.3-.2c-8.7-7.5-18.9-13.2-29.9-16.7Z"/>
    <path d="M97.5 77.3c-1.9-5.1-2.4-10.6-1.5-15.9.3-1.8.8-3.6 1.5-5.3l-13.6-5.2c-1 2.6-1.7 5.2-2.2 8-1.3 7.9-.6 15.9 2.2 23.4l13.6-5Z"/>
    <path d="m51.7 45 23.1-16.8H46.2L37.4 1l-8.8 27.2H0L23.1 45l-8.8 27.1 23.1-16.8 23.1 16.8L51.7 45Z"/>
  </g>
</svg>
