<svg xmlns="http://www.w3.org/2000/svg" viewBox="0 0 52.25 203.13"><g id="图层_2" data-name="图层 2"><g id="图层_1-2" data-name="图层 1"><path d="M17.25,148.82s0,0,0,0h0Zm2.17,1.68h0s0,0,0,0h0Zm5.3-13.19h0Zm-7.92-6.24h0v0h0A0,0,0,0,1,16.8,131.07Zm-8.41-13h0Zm-.73-1v0h0A0,0,0,0,1,7.66,117.14Z"/><path d="M51,1.1c-.23-.53-.68-.58-1.19-.58-4.45,0-8.9-.06-13.35,0h-.84c-1-.07-2-.19-3-.2-3.92,0-7.84,0-11.76,0H16a18.64,18.64,0,0,1-2.48,0C12.21.06,10.93.21,9.65.1,7.38-.09,5.09,0,2.82,0a4.29,4.29,0,0,0-.72,0c-.2,0-.46.26-.38.39.37.58-.09,1.14,0,1.73A4.72,4.72,0,0,1,1.86,4a38.17,38.17,0,0,0-.13,4.14c-.13,2.12-.05,4.26-.05,6.38,0,4.32,0,8.64,0,13a53.81,53.81,0,0,1-.13,6.22c.38,1.74-.22,3.48,0,5.24a21.73,21.73,0,0,1-.07,3.22c0,1.13,0,2.27,0,3.41-.06,5.64,0,11.27-.07,16.91,0,1.31-.06,2.62-.1,3.93s0,2.5,0,3.75c0,1.82-.08,3.65-.08,5.48q0,10.25,0,20.5,0,3.28,0,6.55c0,1.77,0,3.53-.07,5.3,0,.31.07.62,0,.92C1.05,110,1,111,1,112c0,3.7-.09,7.4,0,11.11,0,.31,0,.64,0,1-.06,1.22-.16,2.44-.18,3.65a6,6,0,0,0,.44,2.74c.08.17,0,.4.24.58.62-.15,1.05.21,1.5.65a3.43,3.43,0,0,1,.71,1.63,1,1,0,0,0-.69.5c0,.43.32.82.24,1.3-.53-.27-.74-.8-1.23-1.17,0,.82.73,1.16.83,1.8-.07,0-.15.07-.21,0-.95-.23-1.24-.07-1.38.84a12.85,12.85,0,0,0-.09,2.15A8,8,0,0,1,1,142a.83.83,0,0,0,0,.69c.34.48.17,1,.17,1.47a20.7,20.7,0,0,0,0,2.23,2.06,2.06,0,0,0,1.39,2.09,1.79,1.79,0,0,1,.37.31,1.15,1.15,0,0,0,.47.33c.24,0,.42-.27.61-.06a3.58,3.58,0,0,1,.55,1.42,7.94,7.94,0,0,0,.91,2.94c.07.13-.12.28-.25.37-.28.07-.37-.46-.77-.15-.42,1,.22,2.14-.07,3.45a2.43,2.43,0,0,1,1.93-.19c-.43.82.63,1.64-.21,2.45-1.14-.25-1.24-.16-1.29.94,0,.42.13.87-.17,1.25-.77-.2-.77-.2-.61-1a1.16,1.16,0,0,0-.77-.35c-.16.29-.34.59-.49.87-.37,0-.63-.34-1-.13a1.09,1.09,0,0,0-.14,1.19,3.07,3.07,0,0,1,.17,1,1.82,1.82,0,0,0,.58,1.5c.36.28.39.83.67,1.23a.92.92,0,0,1,0,.88c-.24.24-.59,0-.83.29s0,.69-.43.95a.86.86,0,0,0-.79-.06c0,.26-.37.5-.25.82a4.85,4.85,0,0,1,0,1.86c0,2.84,0,5.68,0,8.51a3.94,3.94,0,0,0,1.1,2.61c.69-.62.11-1.46.51-2.09a1.65,1.65,0,0,1,1.06,1.84c0,.27.16.64.09.8-.35.77.24,1.11.58,1.61s.71.26,1,.59.61.17.82-.12.4-.58.84-.58c.06.09.2.2.18.27a14,14,0,0,0-.21,2.24,1.52,1.52,0,0,1-.27.62c-.71-.23-.56.7-1,.75-.61-.45-.45-1.35-1-1.79-.8-.25-1.31.27-1.87.62-.3-.26-.74,0-1-.36-.1-.32.05-.75-.4-.93a.55.55,0,0,0-.35.55,9.66,9.66,0,0,1-.25,2.73,1.29,1.29,0,0,0,.07.82,1.64,1.64,0,0,1-.12,1.48c-.41.93-.07,2-.41,2.91,0,.11.08.31.17.44a2.68,2.68,0,0,1,.29,1.5c.06,1.63-.26,3.26,0,4.9a2.88,2.88,0,0,1-.07.82c-.2,1.07,0,1.52,1.06,1.42.64-.06,1.23.18,1.86.1a17.53,17.53,0,0,1,1.92,0c1.63,0,3.26-.09,4.89-.09,1.34,0,2.68.09,4,.1,4.1,0,8.2.05,12.3,0,1.64,0,3.27.1,4.9.13l4.65.09c1.54,0,3.07.1,4.61.05,1.34,0,2.69,0,4,0l1.44,0h2.72a.61.61,0,0,0,.64-.58,4.35,4.35,0,0,0,.14-1.37,21.3,21.3,0,0,1-.07-4,44.14,44.14,0,0,1,.13-4.74c.18-2.41.06-4.84.07-7.26,0-1,0-2,0-3s.08-2,0-3,.39-2,0-2.92c.42-2.39.06-4.81.2-7.21,0-.86-.16-1.75-.09-2.59.1-1.36.06-2.71.09-4.06a.74.74,0,0,0-.47-.82c-.24.16-.57.26-.6.71-.06,1-.15,2-.13,2.94s0,2.08,0,3.12c0,.38,0,.75-.44.88s-.26.6-.64.66a7.85,7.85,0,0,1-.45-3c-.21-1.78-.35-3.57-.63-5.35a2.41,2.41,0,0,1,.14-1.81,4.6,4.6,0,0,0,2.48-.46c0-.35.1-.63-.29-.85-.75-.42-1.45-.93-2.19-1.38-.19-.11-.34-.17-.37-.4a25.76,25.76,0,0,1-.44-3.86c1-.23,1.9.08,2.77-.15a1.31,1.31,0,0,0-.59-1.29,21.83,21.83,0,0,1-2.41-1.47c-.09-.84-.19-1.69-.27-2.53,0-.39.18-.59.57-.62s.55.15.81.16c.67,0,1.46.35,1.88-.55-.18-.22-.17-.67-.44-.68-.71,0-1.06-.63-1.62-.89s-1.35-.78-1.39-1.52a13.72,13.72,0,0,1-.28-3.31,2.84,2.84,0,0,0-.37-1.78.63.63,0,0,0-.37.54,19.57,19.57,0,0,1-.48,3.31c-.07.22,0,.55-.2.65-.58.26-.52,1-1,1.28s-.94.74-1.43,1.08c-.78.56-.8.56-1.61,0a2.8,2.8,0,0,0-.65-.27c-2.33-.92-4.54-2.09-6.79-3.17-.88-.42-1.69-1-2.61-1.36a4.81,4.81,0,0,1-1.6-.93c-.66-.66-1.56-1-2.23-1.59a1.15,1.15,0,0,0-.84-.34,1,1,0,0,0,.42.54,33.85,33.85,0,0,0,4.19,2.89c1.82,1,3.65,1.9,5.53,2.74L38,144.88a9.09,9.09,0,0,1-2.1-.29,51.93,51.93,0,0,1-5.4-2.09,24.23,24.23,0,0,0-2.86-1.08,8.69,8.69,0,0,1-4-2.29,47.78,47.78,0,0,1-3.78-4.25c-.75-.9-1.44-1.85-2.12-2.81a2.79,2.79,0,0,0-1-1c0,.22.06.43.1.67-.4,0-.73.3-1.18.24l-.82-.62c-.11-1.67-.25-2.49.15-3a2.63,2.63,0,0,0-.59-.85c-.29-.19-.29-.66-.69-.7-.16.17.05.42,0,.44-.61.3-.57,1-.81,1.52l-.69-.15c-.25,0-.23.35-.52.36v-2.09c.22-.16.46-.31.67-.48s.46-.41.74-.67a2.12,2.12,0,0,1-.25-1.34,3.76,3.76,0,0,1,.14-1.41c-.33-.47-.82,0-1-.26s-.75-.54-.81-1.1A12.68,12.68,0,0,1,11,120a2.13,2.13,0,0,0-1-1.76,1.78,1.78,0,0,0-1.63-.17c0,.21,0,.39-.28.46s-.49,0-.65.21c-.32.86.41,2-.61,2.62-1-1.33-1.92-2.63-2.83-4-.52-.75-1-1.53-1.43-2.31a2.61,2.61,0,0,1-.44-1.34c0-2,0-4.07,0-6.35a8.7,8.7,0,0,1,.75,1.65,18.19,18.19,0,0,0,1.19,2.43,20.89,20.89,0,0,0,1.45,2.68c.71,1,1,2.22,2.12,2.93a.87.87,0,0,0-.16-.77,36.42,36.42,0,0,1-2.69-4.44,39.75,39.75,0,0,1-2.23-4.48,4.62,4.62,0,0,1-.39-1.68c-.06-1.5,0-3,0-4.51a7,7,0,0,0,.08-1,14.63,14.63,0,0,1,0-3,23.11,23.11,0,0,0,0-2.63,3.9,3.9,0,0,1-.13-1.17,15.65,15.65,0,0,0,.12-2.9c.09-1.71.07-3.41.07-5.12,0-3.27,0-6.55,0-9.83s0-6.56,0-9.84,0-6.51,0-9.77c0-3.83,0-7.67,0-11.51,0-1.37.09-2.74,0-4.12a19,19,0,0,0,0-3.2c.43-1.32.11-2.67.17-4,.09-1.8,0-3.6,0-5.4s0-3.52,0-5.28,0-3.6,0-5.39.06-3.56,0-5.34.1-3.42.14-5.12C2.85,5,2.9,3.51,2.88,2c0-.31-.09-.64.18-.94.17,0,.37,0,.56,0,1.34,0,2.69,0,4,.13.46,0,.83-.23,1.28-.14A17.28,17.28,0,0,0,12,1.16c1.52.05,3,.06,4.55.06,5.88,0,11.76,0,17.63.05a28.35,28.35,0,0,1,3.18.12c1.25.13,2.53-.07,3.82,0,2.52.17,5.05.07,7.58.08l.61.05a4.56,4.56,0,0,1,.23,2.2,8.06,8.06,0,0,0-.12,1.54c0,6,0,12-.12,18,0,1.08-.16,2.15-.15,3.23,0,3.58,0,7.16,0,10.74,0,.6-.07,1.2-.06,1.8a8.52,8.52,0,0,0,.16,2c.32,0,.65,0,.8-.12a1,1,0,0,0,.32-.87,1,1,0,0,1,0-.24c0-1.92,0-3.83,0-5.75s0-4,0-6,.26-3.91,0-5.86a14.6,14.6,0,0,0,.17-4.12c.09-4.55,0-9.11.25-13.66-.3-1,.28-1.94-.16-2.88C50.56,1.27,50.93,1.27,51,1.1ZM46.28,145.51a.46.46,0,0,1-.48.16.42.42,0,0,1-.35-.27C45.84,145,45.84,145,46.28,145.51ZM1.5,194.61c.89-.52.89-.52,1.92,0l.85-.68c.43.17.79.67,1.39.31.25-.15.55.13.56.44a8.51,8.51,0,0,1,0,1.43.47.47,0,0,1-.27.36c-.66.14-1.2.62-1.92.57a2.53,2.53,0,0,0-1.41.15c-.39.19-.64-.3-1.07-.14Zm23.34,5.7c-.35.23-.8,0-1.19.33a2.76,2.76,0,0,0-.72-.92c-.44-.38-.83-.76-.43-1.41.06-.11,0-.31-.05-.46a5,5,0,0,1,.2-3.09c.79-.25,1.78-.06,2-1.22a4.43,4.43,0,0,1-.45,2.5,3.53,3.53,0,0,0-.05,2.44c.1.38-.08,1,.66,1.09C25,199.6,25,200,24.84,200.31Zm.35,1.21a1.62,1.62,0,0,1,1.35-1.07c1.58.16,3.17-.08,4.76.17a2.11,2.11,0,0,1,1.69,1C32.36,201.7,25.92,201.62,25.19,201.52Zm6-8.21c.54-.58.53-1.29.81-1.88.26,0,.33.18.35.36.08.75-.25,2.81-.74,3.11s-1,1.14-1.87,1a3.24,3.24,0,0,0-2,.12.38.38,0,0,1-.33,0c-.42-.51-1.14-.32-1.65-.73a4.71,4.71,0,0,1-.11-1.92,18.28,18.28,0,0,0-.14-2.32,11.42,11.42,0,0,1,.4-2.87,2.57,2.57,0,0,1,2.18-1.92c.5,0,.93-.39,1.47-.32a2.66,2.66,0,0,1,2.62,2.29,2.86,2.86,0,0,0,.2.5c-.29.24-.66.17-.73.62-.16,1-.41,2-.63,3A1,1,0,0,0,31.18,193.31Zm-4.46,4.08a2.49,2.49,0,0,1,1.27-.06,4.52,4.52,0,0,0,2.32-.38c.53-.3.65-.2,1.05.52a1,1,0,0,1-.33.09c-.34,0-.7.05-.76.42s.31.49.64.54.44.17.48.56a1.39,1.39,0,0,1-1.65.09,3.55,3.55,0,0,0-2.15-.13A9.72,9.72,0,0,1,26,199c-.27,0-.36-.26-.19-.6.73.48,1.39-.29,2.19,0C27.84,197.47,26.85,198.07,26.72,197.39Zm8.33,3.77-.48,0a2,2,0,0,1-1.92-1.73,10.86,10.86,0,0,0-.28-1.51,5.85,5.85,0,0,1,.07-2.76c.09-.74.49-.86,1.44-1a4.38,4.38,0,0,1,1.73,0c.56.13,1.21.63,1,1.1-.28.75.06,1.43.06,2.14a10.28,10.28,0,0,1-.28,2.82C36.19,201,35.91,201.18,35.05,201.16Zm5.35-13.59a13.52,13.52,0,0,1,2.1-.34,1.11,1.11,0,0,1,1.1.29.65.65,0,0,0,.54.21,3.83,3.83,0,0,1,2.2,1c.38.26.37.26.38,1.2a1.15,1.15,0,0,0-1.28-.75,2.33,2.33,0,0,1-.58-.09c-.19,0-.42-.17-.57-.11-1.11.48-2.38.72-3.12,1.82A5.35,5.35,0,0,0,40,192.94a1,1,0,0,1-1.1.75,2.75,2.75,0,0,1-1.59-.73.57.57,0,0,1-.13-.56,6.22,6.22,0,0,1,.49-1.81c.3-.56.69-1.07.93-1.64A2.41,2.41,0,0,1,40.4,187.57Zm-1.4-3c.12-.78.8-1.17,1.21-1.73a.56.56,0,0,1,.85.06,8.4,8.4,0,0,1,.87,1.4c.14.29-.22.48-.26.85-.78-.33-1.37-.4-1.93.1a.48.48,0,0,1-.65,0C38.85,185,39,184.77,39,184.52Zm6.58,8.24a.05.05,0,0,1,0,0l-.13-.07c.15-.11.12,0,.13.07l0,0v.06a4,4,0,0,1,.37,2.58,6,6,0,0,1-.37-2.58ZM44,194.29a10.61,10.61,0,0,1-.58-2.49h0c-.21-.08-.22-.21-.17-.42.2.14.16.28.17.42h0c.11,0,.26,0,.32.07.78.86,1.48,3.62.77,4.86C43.79,196,44.22,195.1,44,194.29Zm-1,3.2a.17.17,0,0,0,0,.07l0,0s-.05.08-.07.13c-.1-.13,0-.11.07-.13l0,0,0,0c0-.66.09-1.32.15-2.08C43.51,196.16,43.49,196.41,43,197.49Zm-5.24-12.43a2.49,2.49,0,0,1-.82,0,6.59,6.59,0,0,0-2.25-.2,1,1,0,0,1-1-.57.45.45,0,0,1,.5-.4,5.47,5.47,0,0,0,1.75-.23c.34-.09.74-.25,1.09.14s.71-.06,1,.2C38.28,184.42,38,184.71,37.73,185.06Zm-2.85,6.3c.25.51.6.46,1,.23.08.18.16.36.24.52-.1.26-.32.31-.53.42a1,1,0,0,1-1.27-.18A1.73,1.73,0,0,1,34.88,191.36Zm-1.38-2.58c0-.18-.2-.34-.11-.69.5-.49,1.24-.31,1.85-.55.36-.14.74.33.86.9a.78.78,0,0,1-.52,1,3.2,3.2,0,0,1-1.11.14C34,189.57,33.56,189.38,33.5,188.78Zm.72-1.9a1.78,1.78,0,0,0-1,.54.61.61,0,0,1-.25-.85A1.36,1.36,0,0,1,34.22,186.88Zm14,15H46.57l-8.74,0c-.39,0-.81.1-1.12-.39a5.62,5.62,0,0,0,.72-1.92.6.6,0,0,1,1-.38,2.46,2.46,0,0,1,.87,1,1.42,1.42,0,0,0,1,.75,5.71,5.71,0,0,0,4.37-.2c.14-.07.34-.07.43-.18.68-.82,1.6-.52,2.45-.55.42,0,.65.24.66.68Zm.07-5c-.31.44-.73.42-1.25.1-.13-1.18.44-2.36.17-3.56.41-.22.83-.23,1.15-.64C48.63,194.17,48.2,195.49,48.3,196.85Zm-1.4-27.78a.47.47,0,0,1,0,.52C46.75,169.46,46.78,169.3,46.9,169.07Zm-.23-1.18a.38.38,0,0,1,0,.53A.4.4,0,0,1,46.67,167.89Zm.32-9.75c-.67.09-.9-.28-1.2-.65C46.39,157.48,46.39,157.48,47,158.14ZM39.64,169.7a2.32,2.32,0,0,1,.12-1.45C40,168.78,40,168.78,39.64,169.7Zm.27-2,.05-.09,0,.09Zm2.15,5.14c.32,0,.64,0,.95,0s.83-.16,1,.12c.31.45.62,0,.94.13.63.28.84.89.35,1.38-.16.16-.23.4-.49.49a6.89,6.89,0,0,1-3.7.43c-.71-.16-.75-.23-1.57-1.37A2.51,2.51,0,0,1,42.06,172.84Zm-1.88-6.4a.37.37,0,0,1,0,.55A.4.4,0,0,1,40.18,166.44Zm.22-1.14v-.07l.06.05Zm.22-1.71.07,0v.09Zm4.93,7.25c-.34-.13-.73.1-.86-.31s-.4-.35-.61-.51-.29,0-.31-.29c0-.83-.61-1-1.3-1v0h0c0,.47,0,.94,0,1.4,0,.06-.06.13-.1.19a1.41,1.41,0,0,1-.68-.62c-.21-.3-.6-.16-.84-.4a1.87,1.87,0,0,1,.27-1.45c.52.21.74.86,1.35.88v0h0c-.11-.2-.21-.41-.31-.61s-.4-.29-.37-.69a6.64,6.64,0,0,1,3,.08c-.16.63-.66,1-.81,1.59a10.08,10.08,0,0,1,1.77-1,1.9,1.9,0,0,1,.28,1.42C46,170,45.48,170.3,45.55,170.84Zm-7.5-12.48a1.38,1.38,0,0,1-.88.1,12,12,0,0,1-3.81-1.61,52.89,52.89,0,0,1-4.91-2.92,24.39,24.39,0,0,1-3.53-2.31c-1.21-1.17-2.7-2-3.7-3.44a7,7,0,0,0-1.08-.92c-.54-.52-1.17-1-.8-1.93,0-.05-.05-.15-.09-.22a3.51,3.51,0,0,1,0-2.77,1.19,1.19,0,0,0-.43-1.36c-.36,0-.47.24-.71.31-.27-.11,0-.53-.35-.62.29-.41.14-.91.32-1.49.74,1,1.84,1.39,2.43,2.39.18.32.62.47.92.73a8.28,8.28,0,0,0,1.73,1.44,27.09,27.09,0,0,1,3.49,2.37c1,.64,2,1.44,2.93,2.17a2.06,2.06,0,0,0,.6.39,6.78,6.78,0,0,1,2.2,1.14,18.36,18.36,0,0,0,4.86,1.84,1.79,1.79,0,0,1,1.26,1,12.86,12.86,0,0,1,3.16,0c.33,1.36-.48,2.57-.38,3.86A24.63,24.63,0,0,1,38.05,158.36Zm2.3-.21a.19.19,0,0,1-.24-.18,1.71,1.71,0,0,0,.07-.18c.08.07.17.13.24.2S40.44,158.14,40.35,158.15Zm-8.52-1.48c-.4.15-.64.09-.63-.39h0a.05.05,0,0,1,0,0l-.13-.07c.13-.1.11,0,.13.07l0,0v0A.56.56,0,0,1,31.83,156.67Zm9.55-5.6a.68.68,0,0,1,.2,0s.05,0,.08.07l-.2.09A1,1,0,0,0,41.38,151.07Zm.54,8.55c.4,0,.54,0,.63.08a5.83,5.83,0,0,1,.58.5c-.31.53-.83.83-1.23,1.36C41.52,160.82,42.21,160.32,41.92,159.62Zm-.08-3.5h.07l0,.08Zm.3-1,0,.08,0-.09Zm-.07-.7.06,0v.06Zm.29-2a1.25,1.25,0,0,1,0,1.07A1.22,1.22,0,0,1,42.36,152.51Zm1.29,4.72h0v0c.25-.09.51-.44.73,0,.09.2.44.21.41.56-.38.55-.83.3-1.28,0,.05-.21.09-.43.14-.64h0v0c-1,.37-1.12.27-1.12-.78C43.73,156.13,43.85,156.2,43.65,157.23Zm-.89-1.76a.23.23,0,0,1,.18-.09c.13,0,.21.07.19.21a.2.2,0,0,1-.26.15A.2.2,0,0,1,42.76,155.47Zm.85,4.3-.18.09-.17-.1c.06,0,.12-.09.17-.09S43.55,159.73,43.61,159.77Zm.31,1.26c.26.49.78.76.95,1.39a21.6,21.6,0,0,1-3.15.1A7.71,7.71,0,0,1,43.92,161Zm-2.52,3a6.67,6.67,0,0,1,.84.42c.29.19.31.43,0,.66s-.56.43-.92.71C41.33,165.24,41.64,164.78,41.4,164Zm0-4V160l.06,0Zm.16,6.11a3.8,3.8,0,0,0,1.41-1.1c.55.63,1.27.74,1.73,1.25a.63.63,0,0,1,.1.2,11.23,11.23,0,0,1-3.3.33C41.17,166.52,41.19,166.29,41.52,166.13Zm1.36-1.64c-.23-.69-1.47-.26-1.31-1.41a7.73,7.73,0,0,1,2.92.15Zm-2-7.19c.43-.15.66.06.8.43,0,.05-.07.11-.08.11-.26-.1-.64.18-.81-.23C40.8,157.49,40.79,157.35,40.93,157.3ZM45.76,151a.91.91,0,0,1,.21.05s-.08.12-.11.12a.5.5,0,0,1-.19-.1S45.73,151,45.76,151Zm0,14.56c-1,.2-1.38-.57-2.18-.81a3.89,3.89,0,0,0,1.69-1.93C45.84,163.82,45.34,164.76,45.78,165.59Zm-.52-4.17a1.38,1.38,0,0,1-1-.69l.73-.56A1.19,1.19,0,0,1,45.26,161.42Zm-.48-4.52a.55.55,0,0,1-.38-.62h0v0c-.45,0-.53-.28-.58-.65.64-.14.6.27.58.65h0v0C44.87,156.26,45,156.49,44.78,156.9Zm0-1.67c-1.14.11-1.14.11-2.22-.79a7.34,7.34,0,0,0,1.85.14C44.83,154.58,44.87,154.84,44.8,155.23Zm-2-6.32a.4.4,0,0,1,0,.54A.4.4,0,0,1,42.82,148.91Zm-.06-.87s.05,0,.07-.08a1.59,1.59,0,0,1,.07.2l-.12.08C42.78,148.17,42.76,148.11,42.76,148Zm.3,5.1c.07-.58.07-.58.75-.62A1,1,0,0,1,43.06,153.14Zm1.47-.28c0,.74,0,.74-.81.71A1.44,1.44,0,0,1,44.53,152.86ZM44,146.64c.1.38.17.63.23.88C43.74,147.41,43.74,147.41,44,146.64Zm.17,1.46c0,.29.08.56.13.86a1.16,1.16,0,0,1-.33.11c-.15,0-.3-.06-.31-.25A.61.61,0,0,1,44.21,148.1Zm-.47,1.56a1.37,1.37,0,0,1,.85.49,2.14,2.14,0,0,0-.8,1.28C43.1,150.31,43.1,150.31,43.74,149.66Zm-.37-4.33c-.22.33-.46.47-.83.27C42.79,145.4,42.88,144.78,43.37,145.33Zm-.72,5.9c-.48-.11-.52-.36-.54-.69C42.53,150.62,42.5,150.92,42.65,151.23Zm-.67-6h0l.08-.16c.13.15,0,.13-.08.16a0,0,0,0,0,0,0h0c0,.21,0,.45-.36.41C41.61,145.39,41.79,145.31,42,145.24Zm-14.83-3.53c.87.45,1.81.75,2.67,1.24a16.57,16.57,0,0,0,2.09.84,28.27,28.27,0,0,0,3.89,1.42c.9.22,1.86.19,2.75.5.11,0,.3,0,.34,0,.68,1,1.76.59,2.67.79.29.07.59.17.92.26-.27,1-.49,2-.78,3-.19.63-.88.78-1.34,1.13a1,1,0,0,1-1.28,0,44,44,0,0,0-4.48-2.43,5.89,5.89,0,0,1-1.14-.84,36.5,36.5,0,0,1-2.94-2.17c-.89-.83-2-1.38-2.94-2.17s-1.57-1.5-2.52-2.44A6.54,6.54,0,0,1,27.15,141.71Zm-2.63-.8A15.48,15.48,0,0,0,27,143.28c1.17,1.07,2.42,2.05,3.67,3a28.94,28.94,0,0,1,2.62,2.06c.26.26.72.31,1.06.51a31.45,31.45,0,0,0,2.87,1.66,1.37,1.37,0,0,1,.63.63c-.59.16-1.07-.17-1.57-.29a22.37,22.37,0,0,1-6-2.77c-.71-.41-1.35-.95-2.05-1.4-.86-.56-1.64-1.23-2.55-1.72a2.18,2.18,0,0,1-.56-.44,21.45,21.45,0,0,0-2.32-1.8,24.44,24.44,0,0,1-3.31-3.2c-.28-.34-.59-.64-.85-1a3,3,0,0,1-.83-2.26c1.33,1.13,2.86,1.66,4.1,2.66a1.46,1.46,0,0,0,.51.3A3.86,3.86,0,0,1,24.52,140.91Zm-8.4-8.09a2,2,0,0,1,2.23.85,37,37,0,0,0,2.92,3.45,6.73,6.73,0,0,1,.76,1.09,14.82,14.82,0,0,1-3.36-1.81,4.08,4.08,0,0,0-1.58-1c-.55-.17-.75-.88-1.57-.72A3.31,3.31,0,0,0,16.12,132.82Zm1.6,7.88a1,1,0,0,0-.08.14C17.52,140.69,17.64,140.71,17.72,140.7Zm-6,18.42c.64.25.59,1,1,1.34a1.73,1.73,0,0,0,1.39-.67.9.9,0,0,0,.29-.74,1.81,1.81,0,0,1,.66-1.79c.09-.07.08-.29.14-.54.52.69,1.44.71,1.72,1.61.4-.72.8-1.26.42-2a1.75,1.75,0,0,1-.07-.83,23,23,0,0,1,.21-4.61.94.94,0,0,0-.08-.57c-.21-.43-.82-.34-1.06-.71a.8.8,0,0,0-1.1-.35,1.58,1.58,0,0,1-.49,0c.72-1.11.87-1.16,2-.61a1.1,1.1,0,0,0,.55.16s0,0,0,0h0a.43.43,0,0,0-.27-.36c-.72-.25-.83-.77-.64-1.46l1.47-.73.81,1.1c.43-.27.71-.11,1.11.22,1.91,1.6,3.64,3.41,5.62,4.93a5.81,5.81,0,0,0,.9.59,33.75,33.75,0,0,1,3.89,2.49c.09.06.14.18.32.41a9.84,9.84,0,0,1-3.37-1.18c-1.62-1.13-3.55-1.74-5.12-2.94a13.22,13.22,0,0,0-2.13-1.28,2.12,2.12,0,0,0-.45-.12l0,0h0a1.17,1.17,0,0,0,.73.71,7.17,7.17,0,0,1,1.68,1.13,14.45,14.45,0,0,0,1.53.88c1.38.67,2.64,1.59,4.05,2.17a5.36,5.36,0,0,1,2.78,2.51c.42-.23,1,0,1.06-.76,0-.24.42-.2.64-.14a8.39,8.39,0,0,1,2.64,1,9.86,9.86,0,0,0,3.22,1.07,14.68,14.68,0,0,0,3.06.31,119.44,119.44,0,0,1-2.36,12.17c-.14-.88-.88-1.25-1.38-1.81-.18-.2-.43-.05-.66,0-.55.17-.72.08-.9-.41-.1-.26-.27-.56-.21-.79a4.56,4.56,0,0,0-.18-2,1,1,0,0,0-1.37.38c-.27.44-.7.59-1.1.9,0,.37,0,.76,0,1.09-.44.45-.89-.25-1.23.23-.18-.42-.29-.77-.46-1.07s-.3-.51-.13-.77,0-.48-.08-.68c-.2-.53-.57-1-.25-1.63a.43.43,0,0,0-.2-.52.51.51,0,0,0-.32-.12c-.1,0-.26.15-.26.2.24.73-1.21.37-.77,1.23.22.42-.16.82-.17,1.25,0,.26-.19.5-.22.79-.11.87-.13.87-1.09,1.22,0-.48-.07-.94-.11-1.45l-1.39-.77c.2-.66-.38-1-.74-1.53a1.75,1.75,0,0,0-.19-2c-.42-.64-.06-1.37.05-2a9.28,9.28,0,0,1,.35-1c.11-.37.08-.81-.33-.9s-.61-.39-.72-.79a.6.6,0,0,0-.7-.5,1.1,1.1,0,0,0-1.06.8,5.72,5.72,0,0,0,0,.72v.66c-.26.24-.46-.13-.69.05a.76.76,0,0,0-.28.63v1.74c-.49.33-.7.09-.95-.22s-.15-.85-.62-.77-.54.7-.55,1.05a5.09,5.09,0,0,1-.5,1.59A5.85,5.85,0,0,1,20.31,168a1.12,1.12,0,0,1-1.14-.36,2.49,2.49,0,0,0-1-.41c-.51-.17-.94,0-1.07.43-.19.7-.54,1.43.06,2.13a.88.88,0,0,1,.3.74,4.49,4.49,0,0,0-.74,1.25c-.29.12-.58-.26-.88,0a1,1,0,0,0-.28.87c0,.59,0,1.19,0,1.93-.73-.51-1-1.39-1.95-1.45.28-.66.25-1.28.69-1.81a1.29,1.29,0,0,0-.05-1.63A1.41,1.41,0,0,1,14,168.1a7.54,7.54,0,0,0,.16-.93,1.44,1.44,0,0,0-.26-1.29,1.25,1.25,0,0,1,0-1.52c-1-1-1.33-1.08-2.41-.53A12.86,12.86,0,0,0,11.3,161,2.6,2.6,0,0,1,11.68,159.12Zm27.85,11.06s-.05.1-.08.15-.06-.06-.06-.09,0-.12.06-.19S39.54,170.14,39.53,170.18ZM37,175.24a3.56,3.56,0,0,1-2.86-.09c-.33-.18-.82-.07-1-.52a1,1,0,0,1,.77-.5c1.18,0,2.37-.39,3.64,0C37.61,175,37.62,175.07,37,175.24ZM26.33,178l-.67.35a1.56,1.56,0,0,1-.12-1.13C26.09,177.14,26.1,177.62,26.33,178ZM24.17,178v2.43A4.46,4.46,0,0,1,24.17,178Zm-2.44,2.42v.06l-.06,0Zm-4.85-2.59v-.06l.06,0Zm.06,1.66-.07,0v-.07Zm-.08-2.34a.2.2,0,0,1-.26-.13c0-.12,0-.21.15-.24s.21.07.21.19S16.91,177.09,16.86,177.1Zm-.11-1.75c0-.82-.09-1.64-.14-2.69.45.48.78.8.57,1.26S17.1,174.86,16.75,175.35ZM11,185.6c.32-.1.61-.16.73-.51a.87.87,0,0,0-.32-1c-.06,0-.07-.13-.14-.26a2.89,2.89,0,0,0,.34-1.16c.32-.08.55-.05.6.26a4.72,4.72,0,0,1,0,.84A2.24,2.24,0,0,0,13.35,186c.85-.54,1.1-1.66,2.11-2.05.29.31,0,.78.28,1.07.22.11.42.06.5-.15a1.08,1.08,0,0,0,.05-.59,8.9,8.9,0,0,1,0-1.86,1.22,1.22,0,0,1,.65-1.2c0-.51-.61-.85-.2-1.43a1.19,1.19,0,0,1,.48,1.46,8.81,8.81,0,0,0,.32,4.53.71.71,0,0,0,.18.3.47.47,0,0,0,.54.15.4.4,0,0,0,.22-.39c0-.52,0-1,0-1.56,0-.89,0-.89.91-1.29a12.76,12.76,0,0,0-.16-2.54,9,9,0,0,1,.07-2.74c.21-.79-.13-1.62.23-2.64a4.47,4.47,0,0,1,.15,1.78c-.08,1.1.22,2.23-.19,3.32a9.67,9.67,0,0,1,.18,2.84c0,.36.43.36.45.64a8,8,0,0,1,.28,1.76,1.43,1.43,0,0,0,.18,1.12c.39-1,.18-2.11,1-2.89.51.33-.05,1.09.6,1.49.41-2.92.29-5.77.64-8.64.45.21.48.46.49.92a22.67,22.67,0,0,0,.12,4.2.82.82,0,0,1-.06.34,2.11,2.11,0,0,0,.39,2.05c.38.53.64,1,1.42.66a1.83,1.83,0,0,0,.52-1.71c-.14-1.26.08-2.54-.18-3.8,0-.06.14-.22.23-.23a.4.4,0,0,1,.28.17c.19.24-.14.49-.07.66.2.43.41.82-.06,1.21a.22.22,0,0,0,0,.22c.49.43.63,1.12,1.1,1.55.25.23.28.19.72-.2.16.17.17.47.49.52a14.89,14.89,0,0,0,.15-2c.34,0,.52.51.94.34a.91.91,0,0,0,.17-.23.54.54,0,0,0,0-.35,5.38,5.38,0,0,1,.24-3.36,6.11,6.11,0,0,0,.24-2,1.75,1.75,0,0,1,.26-1,1.07,1.07,0,0,1,1.28-.65A1.54,1.54,0,0,1,32.61,175c0,.43,0,.87,0,1.31,0,1.32,0,2.64,0,4,0,.77,0,.77.95,1.18.39-.53,1.14-.68,1.37-1.34.4,0,.49.36.79.42,1-.24.72-1.15.91-1.88a6.52,6.52,0,0,0,1.62,1.76c.31.25,0,.7.3,1.09.79-.19.5-.83.58-1.27.77,0,.93-.06,1-.57a4.81,4.81,0,0,1,.37-1.47c1.15.1,1.33.32,1.2,1.39a1.77,1.77,0,0,0,.17,1.36c.26.06.51-.63.83-.06A.37.37,0,0,0,43,181c.83-.23,1,.37,1.17.95a1.74,1.74,0,0,0,.5,1c.5-.38,0-1,.55-1.33.36,0,.42.42.71.53a.55.55,0,0,1,.42.62.9.9,0,0,0,.55,1c.44.25.62-.2,1-.32.25.41.1.92.48,1.23s.18.59.17.91c0,1.06,0,2.12-.11,3.17-.05.7.27,1.39,0,2.07-.32.08-.32-.13-.38-.32A7.44,7.44,0,0,0,45.36,187a2.7,2.7,0,0,0-.39-.27,1.92,1.92,0,0,1-1.06-2.17,1.25,1.25,0,0,0-.8-1.44c-.63-.32-1.18-.8-1.8-1.15s-.92-.36-1.58.21a2.48,2.48,0,0,1-2.25.55,7.74,7.74,0,0,0-1.08-.05,19.84,19.84,0,0,1-2.19.05A2.33,2.33,0,0,0,32,184c-.22-3.11-.36-6-.31-8.83a.74.74,0,0,0-.93,0c0,1-.06,2.06-.13,3.11-.11,1.55-.24,3.1-.4,4.64a5.7,5.7,0,0,1-.34,1.61c-.25.6-.94.23-1.4.45a5.19,5.19,0,0,1-1.49.39,1.91,1.91,0,0,0-1.39.81.71.71,0,0,1-1.14.17,1.42,1.42,0,0,0-1.74-.2,2,2,0,0,0-.65,1.72c0,.83.22,1.48,1.17,1.66.34.07.62.32,1,.37.61.07.63.14.6.73a.78.78,0,0,1,0,.22c0,.19-.11.38-.18.61l-.37-.35c-.43.1-.17.6-.47.76s-.48.26-.76.41a2.84,2.84,0,0,1-1.7-1.69c-.17-.55-.49-.59-1-.16a1,1,0,0,1-1.27.19c-.81.31-1.36-.21-1.87-.66-1.38-1.19-2.27-1-3,.59-.81,0-1.1-.15-1.2-.8a3.54,3.54,0,0,1-.09-1.62.62.62,0,0,0-.07-.57.63.63,0,0,0-.49-.3c-.24,0-.35.15-.4.37a2,2,0,0,1-.13.36c-.57-.19-.81-.73-1.19-1.08A.84.84,0,0,1,11,185.6Zm13.45,2.55a1.83,1.83,0,0,1-.52.89,1.6,1.6,0,0,1-1.26-.65c.05-.3.09-.61.14-.91a.56.56,0,0,1,.47-.47.55.55,0,0,1,.6.29C24.05,187.55,24.22,187.82,24.44,188.15Zm-13.91,5.51c.78-.53,1,.2,1.46.46a1.35,1.35,0,0,1,.76,1.2c.42.08.53-.59,1-.21.15.13.45,0,.67-.11s.37-.59.62-.48c.73.31,1.27-.4,2-.28.45.07.76.41,1.23.37,1.65-.83,1.85-.89,3.52.16,0,.42-.25.72-.44,1s-.51.57-.6.92a80.32,80.32,0,0,1-9.8.34,2.46,2.46,0,0,1-.22-2.09A1.45,1.45,0,0,0,10.53,193.66Zm2.81,5.72a16.28,16.28,0,0,1,2.79-.17,10,10,0,0,0,2.61-.16,10.4,10.4,0,0,1,2.5-.05.52.52,0,0,1,.55.52,1.14,1.14,0,0,0,1,1.19.32.32,0,0,1,.27.34c0,.17-.1.27-.25.36a1.91,1.91,0,0,1-1,.23c-3.47,0-6.94,0-10.41,0-1.43,0-2.86-.15-4.29-.19a6.06,6.06,0,0,0-1.89.14,2.64,2.64,0,0,1-1.42,0,16.71,16.71,0,0,0-2.18-.24c-.2-.53,0-.78.41-.89a4.25,4.25,0,0,1,1.16-.22c1.24,0,2.44-.29,3.68-.28a3.37,3.37,0,0,0,.93-.13,2.21,2.21,0,0,1,1.71-.13.17.17,0,0,0,.12,0C10.8,199.39,12.08,199.58,13.34,199.38Zm-4.7-44.12c-.37.51-.13,1.17-.46,1.71a.49.49,0,0,0,.2.63c.54.36.45.88.46,1.4s-.22.92,0,1.49c-.63-.43-.85.31-1.35.32,0-.56.06-1.09.16-1.61a7.91,7.91,0,0,0,0-3,8.83,8.83,0,0,1-.05-3.12c.08-.49.1-.49.83-.65.12.49.24,1,.38,1.51l-.91.51C7.86,155,8.4,155,8.64,155.26Zm-.84-9.51c.34.64,1,1.13.44,1.92-.19.29.22.49.06.86-.26-.13-.58-.16-.59-.43C7.71,147.35,7.28,146.58,7.8,145.75Zm.93,3.85c0,.11.11.18.11.25.12,1.42,0,1.53-1.39,1C7.48,150,8.05,149.73,8.73,149.6Zm-.85,37.93c-.6-.71-.19-1.53-.18-2.26,0-1.16-.44-2.27-.26-3.43a5.48,5.48,0,0,1,.6-2.38.45.45,0,0,0,0-.55c-.54-.91-.52-1,.17-1.94-.09-.14-.12-.25-.18-.27a.73.73,0,0,1-.57-.91c.08-.43.39-.56.79-.56a.59.59,0,0,0,.57-.35c-.16-.53-.69-.27-1-.46-.42-.54.2-1,.12-1.48s-.74-.8-.42-1.41c1.53-.6,1.59-.57,1.6,1,0,1.88,0,3.76,0,5.64,0,.33.08.7-.35.92-.24.13-.16.43,0,.65a3.82,3.82,0,0,1,.33.49c.12.36-.17.67-.59.64-.15,0-.28-.17-.49,0s-.06.55-.07.82c.3.39.72.14,1.07.31a1.17,1.17,0,0,1,.11.3,9.48,9.48,0,0,1-.17,2.12c-.14,1.34.26,2.66.17,4a2.38,2.38,0,0,0,.34,1.6,1.52,1.52,0,0,1,.16.69,11.48,11.48,0,0,1,0,3.26,9,9,0,0,0,0,2.08c.09.68,0,.81-.57,1-.77.26-1,.21-1.39-.4a2,2,0,0,1-.15-.33c.31-.42.81-.5,1.2-.75a.36.36,0,0,0,.18-.4.31.31,0,0,0-.31-.29c-.2,0-.4,0-.6,0a.5.5,0,0,1-.41-.28c.13-.22.49-.32.4-.71a.49.49,0,0,0-.46-.44c-.43-.08-.51-.47-.7-.83.81-1.14.74-2.51.89-3.83a2.13,2.13,0,0,1,.17-.93C7.88,187.77,7.92,187.58,7.88,187.53ZM3.22,131.22c-1.31-.88-1.31-.88-1.16-2.94a4,4,0,0,1,.93.91C3.78,130,3.78,130.1,3.22,131.22ZM2.22,116c.93.74,1.12,1.89,1.91,2.66a16.17,16.17,0,0,1,1.79,2.5c-.19.16-.4.08-.59.12a1.67,1.67,0,0,0-1.09,2,2,2,0,0,1,0,1.57,3.7,3.7,0,0,0-.15,1.26c0,.26-.09.54-.32.6-.68.17-.64.8-.88,1.26,0,0,0,0,0,0l.16.09c-.16.13-.14,0-.16-.09h0s0,0,0,0A1.52,1.52,0,0,1,2,126.3c.21-3.26.09-6.53.11-9.79A3.71,3.71,0,0,1,2.22,116Z"/><path d="M52,101.77a35.38,35.38,0,0,1-.11-5.25c0-2,0-3.91,0-5.87a13,13,0,0,0-.11-2.71c-10.27-.31-20.49-.35-30.78-.31a4.26,4.26,0,0,0-.37,1.57c0,3.88,0,7.75,0,11.63l0,9.79c0,1-.1,2,0,3a23.23,23.23,0,0,1-.07,3.54c-.05,1,.09,2,0,3-.08.54.12,1.11,0,1.61a28.64,28.64,0,0,0-.11,3.7c0,1.23.22,1.49,1.43,1.5,5.29,0,10.59,0,15.88.17,2.95.13,5.91,0,8.87.06,1.28,0,2.56,0,3.84,0,1.12,0,1.17,0,1.17-1.12,0-3.43,0-6.86.14-10.28.09-2.48.08-5,.1-7.44,0-1.12,0-2.24,0-3.36A23.79,23.79,0,0,0,52,101.77ZM28,89.15c1.28,1.93,2.55,3.83,3.85,5.76-.46.83-1.31,1.13-1.86,1.85-1.5-1.84-2.91-3.72-4.22-5.7A16.91,16.91,0,0,1,28,89.15Zm2.11,31.9a25.66,25.66,0,0,1-4.3,3.48c-.35-.67-.71-1.31-1-2-.17-.36-.07-.63.3-.89.85-.59,1.63-1.28,2.47-1.87a1.73,1.73,0,0,0,.8-1.59c0-2.78-.07-5.56,0-8.34.07-2.3,0-4.6,0-6.9a8.33,8.33,0,0,0,.1-1.14c-.08-.64-.05-.71-.6-.74-.82,0-1.65-.1-2.48-.06-.35,0-.68-.34-1.16.09.07-1.23-.12-2.24,0-3.25,1.51,0,2.94.07,4.39,0a30.74,30.74,0,0,1,4.46.14,7.24,7.24,0,0,0,.17,1.39,3.88,3.88,0,0,1-.08,1.25c-.77.33-1.59,0-2.41.22,0,.48-.07.91-.07,1.34,0,3,0,6.07,0,9.1,0,.68-.09,1.35-.11,2a4.28,4.28,0,0,0,.76,3.18,2.86,2.86,0,0,1,1-1.29c.78.34.82,1.27,1.32,1.66A24,24,0,0,1,30.08,121.05Zm18.29,2.52a2.4,2.4,0,0,1-2.8,1.54c-.28,0-.57,0-.84-.06a1.65,1.65,0,0,1-1.07-.67,4.37,4.37,0,0,1-1.1-3,14.93,14.93,0,0,1-.25-3.28c.3-2.54.11-5.1.17-7.64a35.06,35.06,0,0,1,.19-4c.07-.5-.12-.69-.58-.85a8.31,8.31,0,0,0-1.48-.18,12.39,12.39,0,0,0-2,0,1.06,1.06,0,0,0-.42.72,20.22,20.22,0,0,0-.08,3.3,1.26,1.26,0,0,1-.09.83,1,1,0,0,0-.06.7,6.44,6.44,0,0,1,.07,2.1c-.09,2.3-.1,4.61-.13,6.92,0,1.33,0,2.66-.05,4a3.49,3.49,0,0,1-.25.83H35.89a.66.66,0,0,1-.27-.59,30.52,30.52,0,0,0,.13-3.94c.07-1.66.12-3.32.14-5,0-2.4.21-4.79.11-7.2,0-.63,0-1.27.07-1.91,0-.94-.14-1.2-1.08-1.27a5.43,5.43,0,0,1-1.33-.34c.49-.7-.45-1.54.32-2.27h2.07a65.29,65.29,0,0,0,.06-9.08c-.47-.16-.64.72-1.39.08-.44-.5.14-1.32.12-2.22,1.14.06,2.26.14,3.39.17s2.24,0,3.36,0a29.44,29.44,0,0,1,3.52.29v4.79c0,2.11.08,4.24-.06,6.35-.3,4.46-.12,8.93-.22,13.4,0,.49-.13,1-.16,1.48a5.18,5.18,0,0,0,.1,1.66,3.39,3.39,0,0,1,0,1.42,1.29,1.29,0,0,0,.56,1.44.56.56,0,0,0,.92-.38,8.46,8.46,0,0,0,.06-1.67c-.1-1.42.07-2.84.08-4.26,0-.14.13-.28.25-.52a11.83,11.83,0,0,1,1.77.1.94.94,0,0,1,.24.84c0,1.92,0,3.84,0,5.76A4.45,4.45,0,0,1,48.37,123.57Z"/><path d="M52.24,49.76a32.83,32.83,0,0,0-.4-5.79c-.08-.58-.27-.75-.87-.76-1.91,0-3.82-.06-5.73-.16C42.17,42.9,39.09,43,36,43a39.24,39.24,0,0,1-6.32-.19,2.22,2.22,0,0,0-1,0,2.33,2.33,0,0,1-.79,0c-.94-.08-1.89,0-2.83-.1-.37,0-.7.29-1,.14-.66-.3-1.33,0-2-.06-.89,0-1.23.44-1.23,1.37q0,5.7,0,11.39c0,2.07.07,4.14-.05,6.2-.06,1.18,0,2.38-.12,3.56s0,2.33,0,3.5c-.06,1.88,0,3.75,0,5.63a41.26,41.26,0,0,1,0,4.31c-.13,1.11.11,2.15.07,3.22.62,0,1.16.14,1.69.14h21a32.49,32.49,0,0,1,3.27.12,19.17,19.17,0,0,0,2.73.1A5.28,5.28,0,0,0,51.86,82c-.07-.81.18-1.62.08-2.37-.17-1.38,0-2.75,0-4.12,0-.9.1-1.8.11-2.7,0-.42-.15-.85-.14-1.26,0-1.1.15-2.19.16-3.29C52.11,62.06,52.07,55.91,52.24,49.76ZM30.7,62.48c.05,2.84,0,5.67,0,8.51s0,5.72,0,8.55c-.65.6-1.4.37-2.1.37-.4,0-.5-.35-.45-.7.49-3.12.08-6.27.29-9.41.07-1.16,0-2.36,0-3.54,0-1.41.14-2.81.16-4.21,0-1.88,0-3.76,0-5.63a11.7,11.7,0,0,1,.22-2.57h2.11C31.07,56.78,30.64,59.62,30.7,62.48ZM33,66.27c.08-2.42,0-4.83,0-7.33,1.82-.18,3.53-.06,5.23-.07a34.66,34.66,0,0,1,5.09.13c.15,5-.15,9.77,0,14.66-3.51.16-6.92-.25-10.46-.18C32.83,71,33,68.65,33,66.27Zm2.44-10.83H33.69c-.23-.58-.73-1-.52-1.79.6,0,1.09.44,1.71.28a.53.53,0,0,1,.6.58C35.47,54.78,35.48,55.05,35.48,55.44Zm13,6.13c.15,1.65-.07,3.31,0,5s0,3.27,0,4.91,0,3.36,0,5a7.52,7.52,0,0,1-.26,2A2.2,2.2,0,0,1,46,80.19a6,6,0,0,1-5.2-2.57,2.34,2.34,0,0,1-.18-.45L42.2,75.9c1.34,1.57,1.75,1.77,3.23,1.63a1.69,1.69,0,0,0,.43-1.2c0-2.42-.07-4.85,0-7.27A27.78,27.78,0,0,0,46,66.18c-.08-1.73.15-3.45.1-5.18a34.41,34.41,0,0,1,.09-4.54c0-.46-.11-.55-.65-.62-2.18-.29-4.38,0-6.56-.14a3.92,3.92,0,0,0-1,.21c-.33.06-.59,0-.61-.49a4,4,0,0,1,0-1.54c3.8.24,7.5.13,11.27.19,0,.72.24,1.4-.07,2.08-.12.28.15.54.15.81a24.15,24.15,0,0,1-.16,4.25A1.09,1.09,0,0,0,48.48,61.57Zm.89-11.64c-1.13,0-2.18.06-3.24.07-.66,0-.87.21-.74.86a3.14,3.14,0,0,1,.12,1.39,6.72,6.72,0,0,0-1.54.08.69.69,0,0,1-.79-.55,5.63,5.63,0,0,1-.24-1.44c-.93-.71-2-.35-3-.3-.19,0-.29.25-.4.42a7.24,7.24,0,0,1-.78,1c-.84.85-1.56,1.15-2.52.62l-.65-.31A3,3,0,0,1,36.3,51c.22-.22.43-.46.61-.65,0-.25-.12-.46-.22-.45-.92.06-1.86-.25-2.75.13-.36.16-.7.43-.46.94a1.23,1.23,0,0,1,.05.71.91.91,0,0,1-.86.7.69.69,0,0,1-.78-.58c-.15-.57-.34-1.13-.51-1.71A4.34,4.34,0,0,0,29,49.93a1.39,1.39,0,0,0-1.08.85,13,13,0,0,1-1.63,1.78,4.26,4.26,0,0,1-.64-.34c-.61-.47-.67-.84-.19-1.4a30.76,30.76,0,0,0,3.6-5.7c.27-.49.51-.58.94-.22a12,12,0,0,0,1.15.78A3.58,3.58,0,0,1,30.28,47c.74.59,1.59.12,2.32.35a7.74,7.74,0,0,0,2.49.14,18.4,18.4,0,0,1,2.35.09c.25.1.13.45.41.59,1.15-1,1.26-2.51,2.12-3.71a2.22,2.22,0,0,1,1.87.4,4.83,4.83,0,0,1-.76,2.28c.17.38.47.4.81.42,2.36.19,4.73.23,7.08.22C49.61,48.44,49.34,49.16,49.37,49.93Z"/><path d="M26.16,20.45a13.53,13.53,0,0,0-1-5,1.24,1.24,0,0,0-.31-.5,11.45,11.45,0,0,0-2.08-1.77,3,3,0,0,0-3.24.06A4.4,4.4,0,0,0,18,14.79a7.2,7.2,0,0,1-3.58,3A22.84,22.84,0,0,1,9,19.26c-1,.13-2.35,1.54-2.22,2.5.11.8.08,1.59.15,2.38a2.29,2.29,0,0,0,1.77,2.07.79.79,0,0,1,.65.59,4.25,4.25,0,0,1-.14,2.73c-1.19-.27-.69-1.07-.61-1.75-.36-.12-.6-.44-1.23-.29.12.83.22,1.64.36,2.45a.28.28,0,0,0,.45.19.36.36,0,0,1,.43.08,1.66,1.66,0,0,1,.73,1.4c0,5.2,0,10.39,0,15.59,0,2.26.26,4.54-.2,6.8a.76.76,0,0,0,.09.46,3.26,3.26,0,0,1,.11,1.42,23.3,23.3,0,0,1-.11,2.51c-.21,1.61,0,3.23-.08,4.84s0,3.2,0,4.79,0,3.2,0,4.8,0,3.12,0,4.67,0,3.2,0,4.8S9,85.44,9.05,87a8.63,8.63,0,0,1,0,1.76A34.31,34.31,0,0,0,9,93a11.57,11.57,0,0,1-.09,3.11,2.46,2.46,0,0,0,0,.72c0,2,0,4.07,0,6.11,0,1.07-.08,2.14-.06,3.2,0,1.27.09,2.55,0,3.82a27.15,27.15,0,0,1,0,3.72A9.21,9.21,0,0,0,9,115.85c.05.87.08.88.9.71a1,1,0,0,0,.84-1c.08-1,.23-2,.25-3.08,0-2.18,0-4.36,0-6.55,0-6.64,0-13.28,0-19.93V82.9a19.11,19.11,0,0,0,0-3c-.18-1.32.17-2.68,0-4a1,1,0,0,1,0-.48,10.14,10.14,0,0,0,.13-3.64c-.12-1.61.17-3.21-.08-4.83a16.8,16.8,0,0,1,.12-2.54c0-1.6,0-3.2,0-4.8s0-3.23,0-4.85c0-4.8.06-9.61,0-14.41,0-1.47,0-2.93.07-4.39.08-1.2-.13-2.39-.07-3.58,0-.34,0-.64.4-.78,1.65.5,1.65.5,2.42.09-.68-.79-.28-1.81-.52-2.66a1.72,1.72,0,0,0-1.71-.29c-.36.68.4,1.33,0,2-.27-.11-.55-.26-.47-.59a11.86,11.86,0,0,0,.1-2.38c0-.36,0-.73.39-1a39.56,39.56,0,0,1,4.13.91,3,3,0,0,1,2.25,1.88A3.81,3.81,0,0,0,20,31.44a3.13,3.13,0,0,0,4.61-1.15c1.19-2,1.31-4.35,1.57-6.6A31.81,31.81,0,0,0,26.16,20.45ZM15.92,18.77a4.85,4.85,0,0,0-1.49.35,14.29,14.29,0,0,1-3.72,1.08,3.87,3.87,0,0,1-1.39.23c-.36,0-.57.3-1,.52a1.66,1.66,0,0,1,1.38-1.22c.23-.06.48,0,.71-.07A21.26,21.26,0,0,0,16.3,17.6c.09-.05.23,0,.34,0C16.78,18.64,16.77,18.63,15.92,18.77Zm9.26,7A12.44,12.44,0,0,1,24,29.83a9.44,9.44,0,0,1-.85,1.1c-.31.4-.71.42-1.25.27-1.88-.48-2.46-2.09-3.18-3.54a11,11,0,0,1-.92-3,15.81,15.81,0,0,1,0-2.66A15,15,0,0,1,18.94,15a2.32,2.32,0,0,1,3.4-1.41,4.19,4.19,0,0,1,2.21,2.61,13.28,13.28,0,0,1,.64,4.32,10.07,10.07,0,0,0,.19,2.84A5.09,5.09,0,0,1,25.18,25.75Z"/><path d="M43,31.17a1.24,1.24,0,0,1-1.06.74c-1,0-2,.38-3,.31-.83,0-1.62.28-2.66.31,1.4,1.23,3,1.84,4.25,2.86s2.71,1.86,4.08,2.78c-.24.33-.41.18-.57.09a23,23,0,0,0-2.74-1.42C39.49,36,37.84,34.83,36,34a6.55,6.55,0,0,1-3.29-2.23c1.12-.16,2.21,0,3.29-.11s2.06-.28,3.12-.37A13.34,13.34,0,0,0,36.2,29.8a19,19,0,0,1-3.1-1.43C32.16,27.69,31,27.78,30,27a6.12,6.12,0,0,1,2.61.63,24.45,24.45,0,0,0,2.6.71c.89.33,1.83.52,2.73.81a18.66,18.66,0,0,1,2.56.95A9.91,9.91,0,0,1,43,31.17Z"/><path d="M45.58,8.43c-.36.73-1.11,1-1.7,1.44-.88.68-1.79,1.3-2.65,2a18.06,18.06,0,0,1-2.8,1.8,33.23,33.23,0,0,0-3,1.92,12,12,0,0,1-1.73.91c-.39-.22-.38-.42-.17-.72.68-1,1.33-2,2-3-.2-.31-.37-.18-.54-.09-1,.57-2.15,1-3.15,1.71a2.91,2.91,0,0,1-1.54.54,40.07,40.07,0,0,1,3.91-3.18c.57-.44,1.06-1,1.64-1.38,1-.71,2-1.38,3.07-2a.6.6,0,0,1,.76.07,38.48,38.48,0,0,0-3.08,5c.29.16.47-.08.66-.18,2-1.09,4-2.26,6-3.49A13.05,13.05,0,0,1,45.6,8.45Z"/><path d="M24.44,11.55a2.56,2.56,0,0,1,.76-1.3c.63-.62,1.24-1.25,1.85-1.88Q29.39,6,31.55,3.45a2.58,2.58,0,0,1,1.32-.7c0,1.44-.76,2.61-1.07,3.93.26.21.49.05.67-.17A23.41,23.41,0,0,1,36,3.39a17.75,17.75,0,0,0,1.69-1.31.21.21,0,0,1,.33,0c-.26.57-.82.91-1.18,1.42A33.43,33.43,0,0,1,33.4,7.38c-.47.47-.88,1-1.34,1.52A17.17,17.17,0,0,1,29.57,11a1.8,1.8,0,0,1,0-1.3c.49-1.08.82-2.21,1.27-3.46a9.27,9.27,0,0,0-2.15,1.68,19.18,19.18,0,0,0-2.2,1.75A6.84,6.84,0,0,1,24.44,11.55Z"/><path d="M10.49,6.33c.95.19,1,.88,1,1.64l0,5.86c0,.87,0,1.75,0,2.63a1.43,1.43,0,0,1-1,1.63c-.35.1-.6.66-1,.36s-.16-.74-.14-1.15c0-1.13,0-2.27,0-3.41,0-2,0-3.93,0-5.89A1.94,1.94,0,0,1,10.49,6.33Z"/><path d="M43.54,19.31c-1.63,1.2-2.68,2.73-4.19,3.88a1.58,1.58,0,0,0,1.17.09,29.59,29.59,0,0,1,3.09-.23c1-.17,2-.12,3.06-.38a1.32,1.32,0,0,1,1,0c0,.29-.15.33-.36.36-1.59.3-3.16.63-4.75.88s-3.35.59-5,1a5.73,5.73,0,0,1-1.32,0c.33-1,1.18-1.53,1.8-2.19a10.62,10.62,0,0,1,2.16-1.94c-2.78.06-5.21,1-7.83,1.31.4-.57.91-.48,1.33-.6,1.56-.46,3.1-.95,4.67-1.38A22.67,22.67,0,0,1,43,19.11C43.1,19.1,43.21,19.18,43.54,19.31Z"/><path d="M27.1,31a20.49,20.49,0,0,1,2.5,2.34,25.42,25.42,0,0,1,3.66,5c-1,.39-1.94-.24-2.84-.47a13.57,13.57,0,0,1-2.67-1.4,11.8,11.8,0,0,0,1.56,2.83,10.81,10.81,0,0,1,1.88,3.31c-.17-.12,0,0-.12.05a.13.13,0,0,1-.11-.05L25.22,34.9s0-.08,0-.12,0-.16,0-.29a1.13,1.13,0,0,1,1.2,0,8.87,8.87,0,0,1,1.27.64,6.29,6.29,0,0,0,2.85,1c-1-1.38-1.89-2.65-2.76-4-.25-.39-.7-.69-.66-1.24Z"/><path d="M49.8,144.63c-1,.14-1.11.05-1.11-.78q0-6.58,0-13.16a2.32,2.32,0,0,1,0-.59.53.53,0,0,1,.48-.46.59.59,0,0,1,.6.31c.13.24.31.56.25.77-.35,1.11.29,2.23-.11,3.34a3.61,3.61,0,0,0,0,1.19c0,2.93,0,5.87,0,8.81A.86.86,0,0,1,49.8,144.63Z"/><path d="M4.71,25.73a1.91,1.91,0,0,1-.65-1.48c0-1.11,0-2.23,0-3.31.55-.67,1.25-.52,1.91-.49a.54.54,0,0,1,.49.58c0,1.28,0,2.55,0,3.82a.62.62,0,0,1-.58.65Z"/><path d="M15.82,128a31.32,31.32,0,0,1,2.56,2.72c.87,1,1.69,2,2.56,2.95a11.47,11.47,0,0,0,2,2,.65.65,0,0,1,.35.7l0,0c-.16,0-.36,0-.45-.11-.7-.74-1.55-1.3-2.19-2.12s-1.65-1.59-2.34-2.51-1.44-1.85-2.14-2.79a1.19,1.19,0,0,1-.32-.87Z"/><path d="M15,127.11a2.63,2.63,0,0,1-1.24-1.61A2.06,2.06,0,0,1,15,127.11Z"/><path d="M48.89,150.13s-.07.08-.11.09c-.3.06-.62.17-.78-.23a.27.27,0,0,1,.18-.37C48.6,149.52,48.86,149.68,48.89,150.13Z"/><path d="M7.66,117.17c.78,0,.92.23.71,1l0,0c-.39-.21-.74-.44-.72-1Z"/><path d="M49.18,156.08c-.28.29-.54.17-.76.18a.22.22,0,0,1,0-.33C48.71,155.74,48.94,155.71,49.18,156.08Z"/><path d="M16.8,131.07a1.09,1.09,0,0,1-.65-.61c.56-.05.56-.05.63.63Z"/><path d="M15.84,128c-.35,0-.5-.14-.48-.48l0,0a.6.6,0,0,1,.48.48Z"/><path d="M15.36,127.47l-.17-.09c.17-.12.1.07.15.11Z"/><polygon points="15.42 129.28 15.5 129.25 15.49 129.32 15.42 129.28"/><path d="M23.26,136.37l.18.09c-.17.14-.12-.06-.16-.11Z"/><path d="M24.72,137.31l-.18-.09c.17-.13.11.07.16.11Z"/><path d="M45.6,8.45l.09-.17c.13.17-.06.11-.11.15Z"/><path d="M27.12,31,27,30.91c.16-.13.1.06.15.1Z"/><path d="M19.44,150.53h0a5.1,5.1,0,0,1-2.16-1.68s0,0,0,0h0a4.4,4.4,0,0,1,2.14,1.66Z"/><path d="M18,189.71c.12-.48.45-.53.72-.67a.42.42,0,0,1,.66.25.52.52,0,0,1-.25.71A.81.81,0,0,1,18,189.71Z"/><path d="M27.58,191.09a30.67,30.67,0,0,1,.09-3.32c.82.09,1,.22.79.8a8,8,0,0,0-.14,2.49.43.43,0,0,0,.37.42c.57-1.17,0-2.57.71-3.73.41,0,.58.29.81.62-.63.91-.57,2-.84,3.1.31.18.48.1.66-.21a6.56,6.56,0,0,0,.54-2.26,1.68,1.68,0,0,1,.47-1,1.3,1.3,0,0,1,.28,1,18.27,18.27,0,0,0-.66,3c0,.32-.24.49-.56.5a4.87,4.87,0,0,1-1.08,0,2.66,2.66,0,0,0-1.37.09c-.63.2-1.59-.55-1.42-1.14a12.92,12.92,0,0,0,.14-3c0-.12,0-.24.07-.41.42,0,.54.4.86.72,0,0-.05,0-.08.12a3.68,3.68,0,0,0-.08,1.65.56.56,0,0,0,.46.5s0,.23.15.11Z"/><path d="M30.91,194.6a6.46,6.46,0,0,1-2.36,0,10.2,10.2,0,0,0-1.27-.2,1,1,0,0,1-.71-.38.56.56,0,0,1-.12-.67c.18-.18.41-.14.65-.11.95.12,1.84.64,2.86.27C30.3,193.42,30.63,193.84,30.91,194.6Z"/><path d="M34.78,194.94c.84,0,.86.09.53,1.23.08.33.46.43.59.74a.49.49,0,0,1,0,.21,1.55,1.55,0,0,0-.1.91,1.05,1.05,0,0,1-.48,1.27c-.42.28-.16.89-.66,1.06a.48.48,0,0,1-.36-.43C34.23,198.28,33.6,196.59,34.78,194.94Z"/><path d="M28.41,197.9c.53-.17,1.07-.58,1.54.11,0,.27-.13.41-.44.4C28.8,198.38,28.8,198.39,28.41,197.9Z"/><path d="M38.43,93.65h4.12c.56.48.19,1,.19,1.57,0,1.94-.09,3.88,0,5.82a7.49,7.49,0,0,1,0,.95c0,.63-.25.84-.81.74a18.88,18.88,0,0,0-2.81-.21.82.82,0,0,1-.87-.91C38.5,99,38.27,96.4,38.43,93.65Z"/><path d="M40.39,64.6c-.43,0-.82,0-1.22,0l-2.74-.13c-.64,0-.62,0-.8-.69a5.64,5.64,0,0,1-.11-1.53c0-.52.4-1,.86-.89.67.19,1.3-.23,2,.06a4.45,4.45,0,0,0,1.42,0c.47,0,1,.32,1,.71A3.53,3.53,0,0,1,40.39,64.6Z"/><path d="M36,67.45c1.47.16,3-.3,4.53.34,0,.78,0,1.49,0,2.2,0,.44-.25.64-.69.64-1.19,0-2.39,0-3.58,0-.58,0-.73-.15-.73-.7A3.33,3.33,0,0,1,36,67.45Z"/><path d="M21.72,18.86c-.35-.37-.9-.25-1.22-.42-.46-.81-.09-1.44.09-2.13s.86-1,1.55-1.34c-1-.44-1.35-.38-1.75.17a9,9,0,0,0-1.67,5.12c0,1.31,0,2.63,0,3.95a8.7,8.7,0,0,0,1.07,3.37,1,1,0,0,0,.6.52c.06-.42.37-.8-.09-1.27A1.43,1.43,0,0,1,20,25.58a3.88,3.88,0,0,0,2.31-.2c-.05-1,.34-1.91.37-2.87a2.79,2.79,0,0,1,0-.91A2.6,2.6,0,0,0,21.72,18.86Zm-.37,3.47a.28.28,0,0,1-.37.2c-.1,0-.27-.19-.25-.22.26-.66,0-1.4.31-2.27A2,2,0,0,1,21.35,22.33Zm-1,5.78h0v0Z"/><path d="M23.73,25.85c.48,1.25.31,1.71-1,2.75A23.67,23.67,0,0,1,23.73,25.85Z"/><path d="M22.48,15.37a1.52,1.52,0,0,1,.8,1.35C22.59,16.34,22.57,16.35,22.48,15.37Z"/><path d="M24,24.35c-.08,0-.12.07-.14.06a2.78,2.78,0,0,1-.51-.28c0-.05,0-.24.15-.26a.47.47,0,0,1,.48.28S24,24.23,24,24.35Z"/><path d="M20.38,28.13c.39.18.39.18.6.66-.46,0-.57-.31-.58-.68Z"/><path d="M23.75,18.07l.12.11a.73.73,0,0,1-.19.07s-.05-.05-.08-.07Z"/><path d="M23.47,17.38l-.08.08a.68.68,0,0,1-.07-.2s.05-.05.08-.08S23.45,17.32,23.47,17.38Z"/><path d="M21.43,26.59c.05,0,.09-.12.13-.11s.11.06.16.1-.06.08-.08.08S21.51,26.61,21.43,26.59Z"/></g></g></svg>