<svg preserveAspectRatio="none" width="100%" height="100%" overflow="visible" style="display: block;" viewBox="0 0 12 12" fill="none" xmlns="http://www.w3.org/2000/svg">
<g id="Frame 23">
<path id="&#226;&#157;&#139;" d="M9.04961 8.36031C9.04961 8.52742 8.9765 8.68407 8.83029 8.83029C8.68407 8.9765 8.52742 9.04961 8.36031 9.04961C8.17929 9.04961 8.0087 8.96954 7.84856 8.8094C7.7302 8.69104 7.62576 8.55875 7.53525 8.41253C7.44473 8.25936 7.35422 8.09225 7.26371 7.91123C7.18016 7.75109 7.08616 7.58399 6.98172 7.40992C6.87728 7.23586 6.74848 7.04787 6.5953 6.84595C6.46997 6.93647 6.33072 6.99565 6.17755 7.0235C6.21236 7.26719 6.25413 7.48999 6.30287 7.69191C6.35161 7.88686 6.40383 8.07137 6.45953 8.24543C6.52219 8.44038 6.57441 8.62489 6.61619 8.79896C6.65796 8.96606 6.67885 9.12968 6.67885 9.28982C6.67885 9.51262 6.61967 9.68668 6.50131 9.81201C6.37598 9.93734 6.20888 10 6 10C5.79112 10 5.6275 9.93734 5.50914 9.81201C5.38381 9.68668 5.32115 9.51262 5.32115 9.28982C5.32115 9.12968 5.34204 8.96606 5.38381 8.79896C5.42559 8.62489 5.47781 8.44038 5.54047 8.24543C5.59617 8.07137 5.64839 7.88686 5.69713 7.69191C5.74587 7.48999 5.79112 7.26371 5.8329 7.01305C5.67276 6.9852 5.53003 6.92602 5.4047 6.83551C5.25152 7.03742 5.12272 7.22889 5.01828 7.40992C4.91384 7.58399 4.81984 7.75109 4.73629 7.91123C4.63882 8.09225 4.54482 8.25936 4.45431 8.41253C4.36379 8.55875 4.26284 8.69104 4.15144 8.8094C3.9913 8.96954 3.82071 9.04961 3.63969 9.04961C3.47258 9.04961 3.31593 8.9765 3.16971 8.83029C3.0235 8.68407 2.95039 8.52742 2.95039 8.36031C2.95039 8.17929 3.03046 8.0087 3.1906 7.84856C3.302 7.7302 3.43429 7.62576 3.58747 7.53525C3.74064 7.44473 3.90775 7.35422 4.08877 7.26371C4.24891 7.18016 4.4195 7.08616 4.60052 6.98172C4.77459 6.87728 4.96258 6.74848 5.16449 6.5953C5.06701 6.46997 5.00783 6.32724 4.98694 6.1671C4.73629 6.20888 4.51349 6.25413 4.31854 6.30287C4.11662 6.35161 3.92863 6.40383 3.75457 6.45953C3.55265 6.52219 3.36815 6.57441 3.20104 6.61619C3.03394 6.65796 2.87032 6.67885 2.71018 6.67885C2.48738 6.67885 2.31332 6.61967 2.18799 6.50131C2.06266 6.37598 2 6.20888 2 6C2 5.79112 2.06266 5.6275 2.18799 5.50914C2.31332 5.38381 2.48738 5.32115 2.71018 5.32115C2.87032 5.32115 3.03394 5.34204 3.20104 5.38381C3.36815 5.42559 3.55265 5.47781 3.75457 5.54047C3.92863 5.59617 4.11662 5.64839 4.31854 5.69713C4.51349 5.74587 4.73281 5.78764 4.9765 5.82245C5.00435 5.66928 5.06353 5.53003 5.15405 5.4047C4.95213 5.25152 4.76414 5.12272 4.59008 5.01828C4.41601 4.91384 4.24891 4.81984 4.08877 4.73629C3.90775 4.63882 3.74064 4.54482 3.58747 4.45431C3.43429 4.36379 3.302 4.26284 3.1906 4.15144C3.03046 3.9913 2.95039 3.82071 2.95039 3.63969C2.95039 3.47258 3.0235 3.31593 3.16971 3.16971C3.31593 3.0235 3.47258 2.95039 3.63969 2.95039C3.82071 2.95039 3.9913 3.03046 4.15144 3.1906C4.26284 3.302 4.36379 3.43429 4.45431 3.58747C4.54482 3.74064 4.63882 3.90775 4.73629 4.08877C4.81984 4.24891 4.91384 4.41601 5.01828 4.59008C5.12272 4.76414 5.25152 4.95213 5.4047 5.15405C5.53003 5.06353 5.67276 5.00435 5.8329 4.9765C5.79112 4.73281 5.74587 4.51349 5.69713 4.31854C5.64839 4.11662 5.59617 3.92863 5.54047 3.75457C5.47781 3.55265 5.42559 3.36815 5.38381 3.20104C5.34204 3.03394 5.32115 2.87032 5.32115 2.71018C5.32115 2.48738 5.38381 2.31332 5.50914 2.18799C5.6275 2.06266 5.79112 2 6 2C6.20888 2 6.37598 2.06266 6.50131 2.18799C6.61967 2.31332 6.67885 2.48738 6.67885 2.71018C6.67885 2.87032 6.65796 3.03394 6.61619 3.20104C6.57441 3.36815 6.52219 3.55265 6.45953 3.75457C6.40383 3.92863 6.35161 4.11662 6.30287 4.31854C6.25413 4.51349 6.21236 4.73281 6.17755 4.9765C6.33072 5.00435 6.47346 5.06353 6.60574 5.15405C6.75196 4.95213 6.87728 4.76414 6.98172 4.59008C7.08616 4.41601 7.18016 4.24891 7.26371 4.08877C7.35422 3.90775 7.44473 3.74064 7.53525 3.58747C7.62576 3.43429 7.7302 3.302 7.84856 3.1906C8.0087 3.03046 8.17929 2.95039 8.36031 2.95039C8.52742 2.95039 8.68407 3.0235 8.83029 3.16971C8.9765 3.31593 9.04961 3.47258 9.04961 3.63969C9.04961 3.82071 8.96954 3.9913 8.8094 4.15144C8.69104 4.26284 8.55875 4.36379 8.41253 4.45431C8.25936 4.54482 8.09225 4.63882 7.91123 4.73629C7.75109 4.81984 7.58399 4.91384 7.40992 5.01828C7.23586 5.12272 7.04787 5.24804 6.84595 5.39426C6.93647 5.52654 6.99565 5.66928 7.0235 5.82245C7.26719 5.78764 7.48999 5.74587 7.69191 5.69713C7.88686 5.64839 8.07137 5.59617 8.24543 5.54047C8.44038 5.47781 8.62489 5.42559 8.79896 5.38381C8.96606 5.34204 9.12968 5.32115 9.28982 5.32115C9.51262 5.32115 9.68668 5.38381 9.81201 5.50914C9.93734 5.6275 10 5.79112 10 6C10 6.20888 9.93734 6.37598 9.81201 6.50131C9.68668 6.61967 9.51262 6.67885 9.28982 6.67885C9.12968 6.67885 8.96606 6.65796 8.79896 6.61619C8.62489 6.57441 8.44038 6.52219 8.24543 6.45953C8.07137 6.40383 7.88686 6.35161 7.69191 6.30287C7.48999 6.25413 7.26719 6.20888 7.0235 6.1671C6.99565 6.32724 6.93647 6.46997 6.84595 6.5953C7.04787 6.74848 7.23586 6.87728 7.40992 6.98172C7.58399 7.08616 7.75109 7.18016 7.91123 7.26371C8.09225 7.35422 8.25936 7.44473 8.41253 7.53525C8.55875 7.62576 8.69104 7.7302 8.8094 7.84856C8.96954 8.0087 9.04961 8.17929 9.04961 8.36031Z" fill="var(--fill-0, black)"/>
</g>
</svg>
